<?xml version="1.0" encoding="UTF-8"?>
<svg xmlns="http://www.w3.org/2000/svg" version="1.1" width="200" height="200" viewBox="0 0 200 200"><rect x="0" y="0" width="200" height="200" fill="#ffffff"/><g transform="scale(4.878)"><g transform="translate(0,0)"><path fill-rule="evenodd" d="M8 0L8 3L9 3L9 5L8 5L8 12L6 12L6 13L8 13L8 12L9 12L9 14L8 14L8 16L6 16L6 17L8 17L8 18L3 18L3 16L5 16L5 15L7 15L7 14L5 14L5 13L3 13L3 10L4 10L4 11L5 11L5 10L6 10L6 11L7 11L7 10L6 10L6 9L7 9L7 8L6 8L6 9L5 9L5 8L2 8L2 10L1 10L1 9L0 9L0 11L2 11L2 12L0 12L0 13L1 13L1 14L4 14L4 15L1 15L1 16L0 16L0 17L1 17L1 19L0 19L0 22L1 22L1 21L2 21L2 23L0 23L0 24L2 24L2 23L4 23L4 22L3 22L3 21L5 21L5 22L6 22L6 23L5 23L5 28L4 28L4 30L3 30L3 28L2 28L2 27L1 27L1 28L0 28L0 33L1 33L1 30L2 30L2 33L4 33L4 32L6 32L6 33L7 33L7 32L8 32L8 34L9 34L9 36L8 36L8 39L9 39L9 40L10 40L10 41L13 41L13 40L14 40L14 41L16 41L16 40L18 40L18 41L19 41L19 40L22 40L22 41L23 41L23 39L24 39L24 41L26 41L26 39L30 39L30 40L29 40L29 41L30 41L30 40L31 40L31 41L32 41L32 40L33 40L33 41L37 41L37 39L38 39L38 38L39 38L39 40L40 40L40 38L41 38L41 36L40 36L40 35L39 35L39 36L38 36L38 37L37 37L37 32L36 32L36 31L38 31L38 30L41 30L41 29L40 29L40 28L41 28L41 27L40 27L40 26L41 26L41 23L40 23L40 26L38 26L38 27L37 27L37 25L39 25L39 24L38 24L38 23L39 23L39 22L38 22L38 23L37 23L37 25L36 25L36 23L33 23L33 22L32 22L32 21L30 21L30 24L29 24L29 22L26 22L26 23L25 23L25 21L28 21L28 19L29 19L29 20L31 20L31 19L30 19L30 17L31 17L31 18L32 18L32 20L33 20L33 21L34 21L34 22L36 22L36 21L40 21L40 22L41 22L41 21L40 21L40 20L37 20L37 17L39 17L39 18L38 18L38 19L39 19L39 18L41 18L41 17L40 17L40 16L41 16L41 15L39 15L39 14L41 14L41 13L40 13L40 12L38 12L38 13L39 13L39 14L37 14L37 13L35 13L35 14L33 14L33 13L34 13L34 12L33 12L33 13L32 13L32 11L30 11L30 12L28 12L28 11L29 11L29 10L27 10L27 11L26 11L26 10L25 10L25 8L26 8L26 7L27 7L27 8L28 8L28 9L31 9L31 10L32 10L32 8L33 8L33 11L34 11L34 10L36 10L36 11L35 11L35 12L37 12L37 11L40 11L40 10L41 10L41 8L38 8L38 10L37 10L37 9L36 9L36 8L33 8L33 5L32 5L32 4L33 4L33 3L32 3L32 2L33 2L33 1L32 1L32 0L31 0L31 1L30 1L30 2L31 2L31 3L30 3L30 4L31 4L31 5L27 5L27 6L26 6L26 7L25 7L25 4L23 4L23 3L24 3L24 2L23 2L23 1L25 1L25 3L26 3L26 4L29 4L29 1L27 1L27 0L22 0L22 2L23 2L23 3L20 3L20 1L21 1L21 0L20 0L20 1L18 1L18 3L17 3L17 1L16 1L16 0L13 0L13 3L11 3L11 2L12 2L12 1L11 1L11 0ZM14 1L14 2L15 2L15 3L16 3L16 2L15 2L15 1ZM31 1L31 2L32 2L32 1ZM26 2L26 3L27 3L27 2ZM10 3L10 5L9 5L9 7L10 7L10 8L12 8L12 6L13 6L13 7L14 7L14 8L13 8L13 10L12 10L12 12L11 12L11 11L10 11L10 13L11 13L11 14L12 14L12 16L11 16L11 15L10 15L10 16L9 16L9 18L10 18L10 17L12 17L12 19L13 19L13 23L12 23L12 27L11 27L11 26L10 26L10 27L6 27L6 28L5 28L5 30L4 30L4 31L3 31L3 32L4 32L4 31L6 31L6 32L7 32L7 31L6 31L6 30L7 30L7 29L6 29L6 28L8 28L8 32L10 32L10 33L11 33L11 32L10 32L10 31L9 31L9 29L11 29L11 30L13 30L13 29L15 29L15 30L18 30L18 29L17 29L17 28L16 28L16 26L17 26L17 27L18 27L18 28L20 28L20 29L19 29L19 30L20 30L20 32L21 32L21 30L20 30L20 29L22 29L22 30L23 30L23 31L22 31L22 34L21 34L21 33L19 33L19 31L18 31L18 32L17 32L17 31L16 31L16 33L15 33L15 32L14 32L14 31L13 31L13 32L12 32L12 33L13 33L13 32L14 32L14 33L15 33L15 34L14 34L14 35L13 35L13 34L10 34L10 35L11 35L11 36L12 36L12 37L14 37L14 38L15 38L15 37L14 37L14 36L17 36L17 35L18 35L18 34L21 34L21 35L19 35L19 37L16 37L16 38L17 38L17 39L23 39L23 38L24 38L24 37L23 37L23 38L20 38L20 37L21 37L21 36L25 36L25 37L26 37L26 35L22 35L22 34L24 34L24 33L26 33L26 34L28 34L28 35L27 35L27 36L28 36L28 37L27 37L27 38L28 38L28 37L29 37L29 38L30 38L30 39L31 39L31 40L32 40L32 39L33 39L33 40L35 40L35 39L33 39L33 37L32 37L32 36L31 36L31 35L30 35L30 34L32 34L32 32L33 32L33 31L34 31L34 32L35 32L35 30L36 30L36 29L37 29L37 30L38 30L38 29L37 29L37 27L36 27L36 29L34 29L34 28L33 28L33 27L34 27L34 25L35 25L35 26L36 26L36 25L35 25L35 24L34 24L34 25L32 25L32 24L33 24L33 23L32 23L32 22L31 22L31 25L29 25L29 24L28 24L28 25L25 25L25 24L24 24L24 25L22 25L22 26L21 26L21 24L19 24L19 23L22 23L22 22L23 22L23 23L24 23L24 21L25 21L25 19L27 19L27 18L28 18L28 17L29 17L29 16L31 16L31 15L30 15L30 14L32 14L32 15L33 15L33 17L32 17L32 18L33 18L33 19L34 19L34 21L36 21L36 20L35 20L35 18L33 18L33 17L37 17L37 16L39 16L39 15L37 15L37 14L36 14L36 15L33 15L33 14L32 14L32 13L28 13L28 14L29 14L29 15L28 15L28 17L27 17L27 18L25 18L25 19L24 19L24 18L23 18L23 17L26 17L26 16L25 16L25 15L26 15L26 13L25 13L25 14L24 14L24 16L23 16L23 17L22 17L22 18L21 18L21 16L22 16L22 15L20 15L20 14L21 14L21 13L20 13L20 14L18 14L18 15L19 15L19 18L18 18L18 16L17 16L17 15L16 15L16 14L17 14L17 12L16 12L16 13L15 13L15 16L16 16L16 17L15 17L15 18L16 18L16 19L19 19L19 18L20 18L20 19L22 19L22 18L23 18L23 19L24 19L24 21L22 21L22 20L19 20L19 21L18 21L18 20L16 20L16 21L17 21L17 23L18 23L18 26L17 26L17 24L16 24L16 26L15 26L15 25L13 25L13 24L14 24L14 23L16 23L16 22L14 22L14 19L13 19L13 17L12 17L12 16L13 16L13 14L14 14L14 12L15 12L15 11L16 11L16 10L15 10L15 9L17 9L17 10L18 10L18 9L20 9L20 10L21 10L21 11L20 11L20 12L22 12L22 10L23 10L23 12L26 12L26 11L25 11L25 10L23 10L23 8L25 8L25 7L24 7L24 5L23 5L23 4L22 4L22 5L23 5L23 7L22 7L22 6L21 6L21 4L20 4L20 5L14 5L14 6L13 6L13 4L12 4L12 6L11 6L11 7L10 7L10 5L11 5L11 3ZM31 3L31 4L32 4L32 3ZM31 5L31 8L32 8L32 5ZM14 6L14 7L15 7L15 8L14 8L14 9L15 9L15 8L18 8L18 7L19 7L19 6L18 6L18 7L17 7L17 6L16 6L16 7L15 7L15 6ZM20 6L20 7L21 7L21 8L20 8L20 9L21 9L21 10L22 10L22 9L21 9L21 8L22 8L22 7L21 7L21 6ZM27 6L27 7L28 7L28 6ZM29 6L29 8L30 8L30 6ZM10 9L10 10L11 10L11 9ZM13 11L13 12L12 12L12 14L13 14L13 12L14 12L14 11ZM18 11L18 12L19 12L19 11ZM22 13L22 14L23 14L23 13ZM36 15L36 16L37 16L37 15ZM1 16L1 17L2 17L2 16ZM1 19L1 20L3 20L3 19ZM5 19L5 20L9 20L9 21L6 21L6 22L8 22L8 23L6 23L6 24L10 24L10 23L11 23L11 21L10 21L10 19ZM9 21L9 23L10 23L10 21ZM20 21L20 22L21 22L21 21ZM26 23L26 24L27 24L27 23ZM3 24L3 25L2 25L2 26L3 26L3 27L4 27L4 26L3 26L3 25L4 25L4 24ZM0 25L0 26L1 26L1 25ZM6 25L6 26L7 26L7 25ZM8 25L8 26L9 26L9 25ZM19 25L19 26L18 26L18 27L19 27L19 26L20 26L20 25ZM24 25L24 26L22 26L22 27L20 27L20 28L22 28L22 29L23 29L23 30L29 30L29 29L31 29L31 28L32 28L32 29L33 29L33 30L32 30L32 31L33 31L33 30L34 30L34 29L33 29L33 28L32 28L32 27L30 27L30 26L29 26L29 25L28 25L28 26L27 26L27 28L25 28L25 29L24 29L24 28L22 28L22 27L24 27L24 26L25 26L25 25ZM31 25L31 26L32 26L32 25ZM13 26L13 27L14 27L14 26ZM10 27L10 28L11 28L11 27ZM29 27L29 28L28 28L28 29L29 29L29 28L30 28L30 27ZM38 27L38 28L40 28L40 27ZM24 31L24 32L23 32L23 33L24 33L24 32L25 32L25 31ZM26 31L26 33L27 33L27 31ZM28 31L28 33L31 33L31 32L29 32L29 31ZM39 31L39 32L38 32L38 34L41 34L41 32L40 32L40 31ZM17 33L17 34L18 34L18 33ZM33 33L33 36L36 36L36 33ZM15 34L15 35L16 35L16 34ZM34 34L34 35L35 35L35 34ZM12 35L12 36L13 36L13 35ZM28 35L28 36L29 36L29 35ZM30 36L30 37L31 37L31 39L32 39L32 37L31 37L31 36ZM9 37L9 39L11 39L11 40L12 40L12 39L11 39L11 38L10 38L10 37ZM34 37L34 38L35 38L35 37ZM36 37L36 38L37 38L37 37ZM25 38L25 39L26 39L26 38ZM14 39L14 40L16 40L16 39ZM27 40L27 41L28 41L28 40ZM0 0L0 7L7 7L7 0ZM1 1L1 6L6 6L6 1ZM2 2L2 5L5 5L5 2ZM34 0L34 7L41 7L41 0ZM35 1L35 6L40 6L40 1ZM36 2L36 5L39 5L39 2ZM0 34L0 41L7 41L7 34ZM1 35L1 40L6 40L6 35ZM2 36L2 39L5 39L5 36Z" fill="#000000"/></g></g></svg>
