<?xml version="1.0" encoding="UTF-8"?>
<svg xmlns="http://www.w3.org/2000/svg" version="1.1" width="200" height="200" viewBox="0 0 200 200"><rect x="0" y="0" width="200" height="200" fill="#ffffff"/><g transform="scale(2.899)"><g transform="translate(0,0)"><path fill-rule="evenodd" d="M8 0L8 3L9 3L9 2L10 2L10 1L12 1L12 0L10 0L10 1L9 1L9 0ZM16 0L16 1L15 1L15 2L14 2L14 1L13 1L13 3L12 3L12 5L13 5L13 4L16 4L16 7L15 7L15 5L14 5L14 7L13 7L13 6L12 6L12 7L11 7L11 5L10 5L10 4L11 4L11 3L10 3L10 4L9 4L9 5L8 5L8 9L10 9L10 8L9 8L9 6L10 6L10 7L11 7L11 9L12 9L12 11L13 11L13 12L12 12L12 13L13 13L13 14L11 14L11 13L10 13L10 14L8 14L8 15L7 15L7 14L5 14L5 15L3 15L3 14L2 14L2 13L1 13L1 12L3 12L3 10L4 10L4 9L5 9L5 8L2 8L2 9L1 9L1 10L2 10L2 11L0 11L0 13L1 13L1 14L2 14L2 15L0 15L0 18L1 18L1 19L0 19L0 20L1 20L1 21L0 21L0 22L1 22L1 21L2 21L2 23L0 23L0 24L2 24L2 25L0 25L0 29L1 29L1 30L0 30L0 31L2 31L2 29L1 29L1 26L2 26L2 27L3 27L3 30L4 30L4 31L3 31L3 32L1 32L1 33L2 33L2 35L1 35L1 34L0 34L0 35L1 35L1 36L2 36L2 37L3 37L3 38L0 38L0 39L3 39L3 40L4 40L4 38L5 38L5 37L7 37L7 38L6 38L6 39L8 39L8 40L9 40L9 41L10 41L10 43L12 43L12 44L8 44L8 43L9 43L9 42L6 42L6 41L7 41L7 40L6 40L6 41L2 41L2 40L1 40L1 41L0 41L0 44L1 44L1 42L3 42L3 43L2 43L2 45L4 45L4 46L5 46L5 45L7 45L7 46L6 46L6 47L5 47L5 49L2 49L2 50L1 50L1 51L0 51L0 53L1 53L1 55L2 55L2 53L1 53L1 51L2 51L2 52L4 52L4 53L3 53L3 54L4 54L4 56L2 56L2 57L1 57L1 58L0 58L0 61L1 61L1 58L2 58L2 59L3 59L3 58L4 58L4 59L7 59L7 58L4 58L4 57L5 57L5 54L6 54L6 55L7 55L7 56L6 56L6 57L8 57L8 56L9 56L9 57L10 57L10 58L9 58L9 59L8 59L8 62L10 62L10 63L12 63L12 65L11 65L11 66L10 66L10 67L11 67L11 66L12 66L12 65L13 65L13 63L14 63L14 62L15 62L15 67L16 67L16 69L18 69L18 68L19 68L19 67L20 67L20 68L22 68L22 69L24 69L24 67L26 67L26 66L28 66L28 67L27 67L27 69L28 69L28 67L29 67L29 66L28 66L28 64L32 64L32 66L33 66L33 65L34 65L34 68L36 68L36 69L38 69L38 68L39 68L39 69L41 69L41 67L42 67L42 68L43 68L43 69L47 69L47 68L48 68L48 69L49 69L49 68L48 68L48 67L49 67L49 66L50 66L50 67L51 67L51 68L50 68L50 69L52 69L52 68L53 68L53 69L56 69L56 68L57 68L57 69L59 69L59 68L57 68L57 67L61 67L61 68L60 68L60 69L66 69L66 68L67 68L67 69L68 69L68 68L67 68L67 65L66 65L66 64L67 64L67 63L66 63L66 60L67 60L67 62L69 62L69 61L68 61L68 60L69 60L69 59L68 59L68 60L67 60L67 58L69 58L69 56L68 56L68 54L69 54L69 53L68 53L68 54L67 54L67 53L66 53L66 52L69 52L69 51L67 51L67 50L69 50L69 47L68 47L68 46L69 46L69 43L68 43L68 46L67 46L67 45L65 45L65 44L67 44L67 43L66 43L66 42L67 42L67 41L68 41L68 42L69 42L69 41L68 41L68 38L69 38L69 37L68 37L68 36L67 36L67 35L68 35L68 34L69 34L69 31L68 31L68 30L69 30L69 29L68 29L68 30L67 30L67 29L64 29L64 30L63 30L63 31L62 31L62 30L61 30L61 31L62 31L62 32L60 32L60 31L59 31L59 30L60 30L60 29L62 29L62 28L61 28L61 27L63 27L63 26L64 26L64 25L63 25L63 26L61 26L61 25L62 25L62 23L63 23L63 24L65 24L65 26L69 26L69 23L68 23L68 25L66 25L66 24L67 24L67 23L66 23L66 24L65 24L65 21L64 21L64 22L61 22L61 21L59 21L59 22L57 22L57 21L54 21L54 22L57 22L57 23L56 23L56 24L55 24L55 23L54 23L54 24L53 24L53 23L51 23L51 22L48 22L48 23L47 23L47 24L46 24L46 23L45 23L45 22L46 22L46 21L45 21L45 22L44 22L44 21L43 21L43 22L42 22L42 21L41 21L41 26L38 26L38 27L36 27L36 26L34 26L34 27L36 27L36 28L34 28L34 29L36 29L36 30L37 30L37 31L36 31L36 32L34 32L34 30L33 30L33 29L31 29L31 28L30 28L30 29L29 29L29 32L31 32L31 33L30 33L30 34L29 34L29 37L28 37L28 36L27 36L27 38L28 38L28 39L27 39L27 40L26 40L26 41L25 41L25 42L26 42L26 41L27 41L27 42L28 42L28 41L29 41L29 42L30 42L30 41L29 41L29 39L30 39L30 38L31 38L31 41L32 41L32 40L33 40L33 42L32 42L32 43L28 43L28 44L27 44L27 43L25 43L25 44L24 44L24 45L22 45L22 44L20 44L20 45L19 45L19 44L18 44L18 43L19 43L19 42L17 42L17 44L16 44L16 45L13 45L13 43L14 43L14 44L15 44L15 39L16 39L16 38L15 38L15 39L14 39L14 38L12 38L12 39L10 39L10 38L11 38L11 37L12 37L12 36L11 36L11 37L10 37L10 36L9 36L9 35L10 35L10 34L11 34L11 35L12 35L12 34L14 34L14 32L15 32L15 33L16 33L16 30L17 30L17 34L18 34L18 35L17 35L17 36L16 36L16 34L15 34L15 36L14 36L14 37L18 37L18 38L17 38L17 40L16 40L16 41L17 41L17 40L18 40L18 39L21 39L21 37L20 37L20 38L19 38L19 34L20 34L20 36L21 36L21 35L22 35L22 34L21 34L21 33L23 33L23 34L25 34L25 33L24 33L24 32L23 32L23 31L20 31L20 32L18 32L18 30L20 30L20 29L16 29L16 30L15 30L15 28L18 28L18 27L19 27L19 26L20 26L20 27L21 27L21 26L22 26L22 27L23 27L23 29L24 29L24 31L25 31L25 32L26 32L26 33L27 33L27 32L28 32L28 31L27 31L27 32L26 32L26 30L28 30L28 29L27 29L27 28L26 28L26 26L27 26L27 27L28 27L28 26L29 26L29 27L30 27L30 26L29 26L29 25L30 25L30 23L31 23L31 24L32 24L32 25L31 25L31 27L32 27L32 28L33 28L33 23L34 23L34 21L36 21L36 22L35 22L35 23L36 23L36 24L35 24L35 25L38 25L38 24L37 24L37 23L38 23L38 21L39 21L39 24L40 24L40 21L39 21L39 18L42 18L42 17L43 17L43 16L41 16L41 17L40 17L40 16L39 16L39 17L38 17L38 15L40 15L40 14L41 14L41 13L42 13L42 15L43 15L43 14L44 14L44 15L45 15L45 16L44 16L44 19L42 19L42 20L44 20L44 19L45 19L45 20L46 20L46 19L45 19L45 18L46 18L46 17L45 17L45 16L46 16L46 15L47 15L47 14L46 14L46 11L47 11L47 13L49 13L49 14L48 14L48 15L49 15L49 14L50 14L50 16L47 16L47 17L48 17L48 18L47 18L47 20L48 20L48 21L49 21L49 20L48 20L48 19L49 19L49 17L50 17L50 16L53 16L53 15L54 15L54 16L55 16L55 17L54 17L54 18L53 18L53 19L52 19L52 18L50 18L50 19L52 19L52 20L50 20L50 21L52 21L52 22L53 22L53 21L52 21L52 20L53 20L53 19L54 19L54 20L58 20L58 19L59 19L59 20L61 20L61 18L62 18L62 19L64 19L64 20L67 20L67 21L66 21L66 22L69 22L69 20L68 20L68 17L66 17L66 19L64 19L64 18L65 18L65 17L64 17L64 18L62 18L62 17L63 17L63 16L61 16L61 15L63 15L63 14L61 14L61 13L59 13L59 14L58 14L58 15L56 15L56 16L55 16L55 15L54 15L54 14L57 14L57 13L54 13L54 14L53 14L53 15L52 15L52 14L50 14L50 13L51 13L51 12L50 12L50 13L49 13L49 12L48 12L48 10L49 10L49 11L51 11L51 10L52 10L52 12L53 12L53 10L52 10L52 8L54 8L54 10L55 10L55 9L56 9L56 10L57 10L57 9L56 9L56 8L58 8L58 9L59 9L59 8L58 8L58 7L59 7L59 4L58 4L58 7L57 7L57 5L56 5L56 3L59 3L59 2L54 2L54 3L53 3L53 0L51 0L51 1L50 1L50 0L48 0L48 1L50 1L50 2L52 2L52 3L50 3L50 4L51 4L51 5L49 5L49 3L48 3L48 2L47 2L47 1L46 1L46 0L42 0L42 1L40 1L40 0L39 0L39 1L37 1L37 0L33 0L33 1L32 1L32 3L31 3L31 4L29 4L29 3L30 3L30 2L28 2L28 4L29 4L29 5L30 5L30 8L31 8L31 9L30 9L30 10L28 10L28 7L29 7L29 6L28 6L28 7L27 7L27 6L26 6L26 5L25 5L25 4L26 4L26 3L27 3L27 2L26 2L26 0L25 0L25 1L24 1L24 0L22 0L22 1L21 1L21 0ZM27 0L27 1L28 1L28 0ZM30 0L30 1L31 1L31 0ZM54 0L54 1L55 1L55 0ZM56 0L56 1L61 1L61 0ZM19 1L19 2L17 2L17 3L19 3L19 2L20 2L20 1ZM22 1L22 2L23 2L23 1ZM34 1L34 2L33 2L33 3L34 3L34 4L36 4L36 3L35 3L35 2L37 2L37 5L38 5L38 6L37 6L37 7L38 7L38 8L39 8L39 7L40 7L40 5L38 5L38 2L37 2L37 1ZM39 1L39 4L41 4L41 8L40 8L40 9L41 9L41 10L42 10L42 11L40 11L40 13L41 13L41 12L42 12L42 13L44 13L44 14L45 14L45 15L46 15L46 14L45 14L45 13L44 13L44 12L43 12L43 11L44 11L44 10L45 10L45 9L44 9L44 10L43 10L43 9L42 9L42 4L43 4L43 7L44 7L44 8L45 8L45 7L46 7L46 6L45 6L45 7L44 7L44 4L45 4L45 5L47 5L47 7L48 7L48 3L47 3L47 2L46 2L46 1L42 1L42 2L41 2L41 3L40 3L40 1ZM15 2L15 3L16 3L16 2ZM43 2L43 4L44 4L44 2ZM45 2L45 3L46 3L46 2ZM21 3L21 7L20 7L20 6L19 6L19 5L20 5L20 4L19 4L19 5L18 5L18 4L17 4L17 5L18 5L18 6L17 6L17 7L16 7L16 8L17 8L17 7L18 7L18 6L19 6L19 7L20 7L20 8L19 8L19 10L18 10L18 12L17 12L17 13L18 13L18 12L19 12L19 11L21 11L21 13L20 13L20 14L15 14L15 15L18 15L18 16L19 16L19 17L21 17L21 18L22 18L22 19L21 19L21 21L20 21L20 22L19 22L19 19L20 19L20 18L18 18L18 19L17 19L17 18L16 18L16 17L17 17L17 16L16 16L16 17L15 17L15 18L13 18L13 17L12 17L12 16L8 16L8 17L9 17L9 18L8 18L8 19L9 19L9 18L10 18L10 20L11 20L11 23L12 23L12 24L10 24L10 21L9 21L9 20L7 20L7 19L6 19L6 18L7 18L7 17L6 17L6 16L7 16L7 15L6 15L6 16L4 16L4 17L3 17L3 15L2 15L2 17L1 17L1 18L2 18L2 19L3 19L3 20L4 20L4 19L6 19L6 20L7 20L7 21L4 21L4 22L3 22L3 23L2 23L2 24L3 24L3 25L2 25L2 26L4 26L4 28L5 28L5 26L7 26L7 25L8 25L8 27L6 27L6 28L7 28L7 29L4 29L4 30L7 30L7 31L6 31L6 32L8 32L8 30L9 30L9 29L10 29L10 31L9 31L9 34L10 34L10 32L11 32L11 30L14 30L14 31L15 31L15 30L14 30L14 29L13 29L13 28L14 28L14 27L16 27L16 26L15 26L15 25L16 25L16 24L14 24L14 25L12 25L12 24L13 24L13 22L14 22L14 23L15 23L15 22L14 22L14 21L16 21L16 23L17 23L17 24L18 24L18 25L17 25L17 26L18 26L18 25L20 25L20 26L21 26L21 24L22 24L22 25L23 25L23 24L26 24L26 19L25 19L25 20L23 20L23 19L24 19L24 18L23 18L23 17L21 17L21 16L19 16L19 15L22 15L22 14L21 14L21 13L22 13L22 12L23 12L23 13L24 13L24 12L25 12L25 11L26 11L26 13L27 13L27 12L28 12L28 14L30 14L30 12L31 12L31 14L32 14L32 15L31 15L31 18L30 18L30 16L29 16L29 15L28 15L28 16L29 16L29 17L28 17L28 18L27 18L27 21L28 21L28 22L27 22L27 26L28 26L28 24L29 24L29 23L30 23L30 22L31 22L31 23L33 23L33 21L32 21L32 20L30 20L30 19L31 19L31 18L33 18L33 20L34 20L34 19L35 19L35 20L36 20L36 19L37 19L37 18L38 18L38 17L37 17L37 15L38 15L38 13L39 13L39 11L38 11L38 13L37 13L37 11L36 11L36 10L34 10L34 11L33 11L33 12L32 12L32 11L31 11L31 10L30 10L30 12L28 12L28 10L27 10L27 9L25 9L25 8L24 8L24 6L25 6L25 7L26 7L26 6L25 6L25 5L24 5L24 4L25 4L25 3L24 3L24 4L23 4L23 9L25 9L25 10L24 10L24 11L23 11L23 10L22 10L22 9L21 9L21 10L20 10L20 8L21 8L21 7L22 7L22 3ZM52 3L52 4L53 4L53 3ZM54 3L54 4L55 4L55 3ZM60 3L60 5L61 5L61 3ZM31 5L31 7L32 7L32 5ZM33 5L33 8L36 8L36 5ZM52 5L52 6L51 6L51 7L50 7L50 6L49 6L49 10L51 10L51 7L52 7L52 6L53 6L53 7L54 7L54 8L56 8L56 5ZM34 6L34 7L35 7L35 6ZM38 6L38 7L39 7L39 6ZM54 6L54 7L55 7L55 6ZM60 6L60 7L61 7L61 6ZM12 7L12 8L13 8L13 7ZM14 7L14 9L13 9L13 11L14 11L14 12L13 12L13 13L14 13L14 12L15 12L15 13L16 13L16 9L15 9L15 7ZM6 8L6 9L7 9L7 8ZM61 8L61 9L60 9L60 10L61 10L61 11L60 11L60 12L62 12L62 13L63 13L63 12L65 12L65 13L66 13L66 15L67 15L67 14L69 14L69 12L68 12L68 11L67 11L67 10L69 10L69 8L66 8L66 10L64 10L64 11L63 11L63 10L61 10L61 9L64 9L64 8ZM2 9L2 10L3 10L3 9ZM32 9L32 10L33 10L33 9ZM46 9L46 10L47 10L47 9ZM5 10L5 11L7 11L7 10ZM8 10L8 12L9 12L9 10ZM21 10L21 11L22 11L22 10ZM58 10L58 11L54 11L54 12L59 12L59 10ZM10 11L10 12L11 12L11 11ZM35 11L35 13L34 13L34 12L33 12L33 13L32 13L32 14L35 14L35 16L34 16L34 18L36 18L36 14L35 14L35 13L36 13L36 11ZM62 11L62 12L63 12L63 11ZM65 11L65 12L66 12L66 11ZM4 12L4 13L5 13L5 12ZM6 12L6 13L7 13L7 12ZM67 12L67 13L68 13L68 12ZM13 14L13 15L14 15L14 14ZM24 14L24 15L25 15L25 16L24 16L24 17L25 17L25 16L26 16L26 17L27 17L27 14L26 14L26 15L25 15L25 14ZM59 14L59 15L58 15L58 16L59 16L59 17L58 17L58 18L59 18L59 19L60 19L60 18L59 18L59 17L61 17L61 16L59 16L59 15L61 15L61 14ZM64 15L64 16L65 16L65 15ZM68 15L68 16L69 16L69 15ZM56 16L56 18L54 18L54 19L56 19L56 18L57 18L57 16ZM2 17L2 18L3 18L3 19L4 19L4 18L3 18L3 17ZM5 17L5 18L6 18L6 17ZM10 17L10 18L11 18L11 19L12 19L12 21L13 21L13 18L12 18L12 17ZM15 18L15 20L16 20L16 21L18 21L18 20L16 20L16 18ZM28 18L28 19L29 19L29 18ZM28 20L28 21L29 21L29 20ZM62 20L62 21L63 21L63 20ZM7 21L7 22L4 22L4 23L3 23L3 24L4 24L4 25L7 25L7 24L5 24L5 23L7 23L7 22L8 22L8 21ZM21 21L21 22L20 22L20 24L21 24L21 23L22 23L22 24L23 24L23 23L25 23L25 22L23 22L23 21ZM31 21L31 22L32 22L32 21ZM28 22L28 23L29 23L29 22ZM36 22L36 23L37 23L37 22ZM43 22L43 23L44 23L44 22ZM57 23L57 24L56 24L56 27L55 27L55 26L53 26L53 24L50 24L50 25L49 25L49 27L48 27L48 26L47 26L47 25L46 25L46 26L45 26L45 27L46 27L46 28L45 28L45 29L46 29L46 30L45 30L45 31L44 31L44 29L43 29L43 28L44 28L44 26L43 26L43 28L42 28L42 29L40 29L40 28L41 28L41 27L38 27L38 28L37 28L37 29L38 29L38 31L39 31L39 32L41 32L41 30L42 30L42 33L41 33L41 34L42 34L42 35L44 35L44 34L42 34L42 33L43 33L43 32L46 32L46 30L47 30L47 31L48 31L48 32L47 32L47 34L46 34L46 33L45 33L45 34L46 34L46 35L45 35L45 36L44 36L44 38L43 38L43 40L44 40L44 41L43 41L43 43L42 43L42 42L41 42L41 41L40 41L40 44L39 44L39 45L40 45L40 46L39 46L39 47L41 47L41 45L42 45L42 46L43 46L43 43L44 43L44 42L45 42L45 43L46 43L46 44L48 44L48 45L44 45L44 46L45 46L45 47L43 47L43 48L41 48L41 49L42 49L42 50L40 50L40 49L39 49L39 48L38 48L38 49L39 49L39 53L38 53L38 54L37 54L37 55L38 55L38 56L36 56L36 55L35 55L35 52L37 52L37 50L35 50L35 46L37 46L37 47L36 47L36 49L37 49L37 47L38 47L38 46L37 46L37 45L38 45L38 43L39 43L39 42L38 42L38 43L36 43L36 42L37 42L37 41L39 41L39 39L38 39L38 38L39 38L39 35L40 35L40 33L37 33L37 37L35 37L35 38L36 38L36 39L37 39L37 41L36 41L36 40L35 40L35 39L33 39L33 40L34 40L34 42L33 42L33 43L34 43L34 44L30 44L30 45L31 45L31 46L32 46L32 47L31 47L31 48L30 48L30 49L31 49L31 51L30 51L30 50L29 50L29 51L28 51L28 52L26 52L26 51L25 51L25 50L24 50L24 49L28 49L28 47L29 47L29 46L28 46L28 45L29 45L29 44L28 44L28 45L27 45L27 44L26 44L26 45L24 45L24 46L28 46L28 47L27 47L27 48L25 48L25 47L23 47L23 46L22 46L22 47L21 47L21 45L20 45L20 47L19 47L19 46L17 46L17 47L18 47L18 48L17 48L17 49L16 49L16 50L18 50L18 48L20 48L20 50L19 50L19 51L20 51L20 50L23 50L23 51L22 51L22 52L21 52L21 53L20 53L20 52L15 52L15 54L14 54L14 56L13 56L13 58L12 58L12 56L11 56L11 58L10 58L10 59L11 59L11 60L10 60L10 62L12 62L12 63L13 63L13 62L14 62L14 60L15 60L15 62L16 62L16 61L17 61L17 62L18 62L18 63L17 63L17 64L16 64L16 65L17 65L17 64L18 64L18 66L20 66L20 67L22 67L22 68L23 68L23 67L24 67L24 66L22 66L22 65L23 65L23 63L24 63L24 62L26 62L26 60L27 60L27 61L28 61L28 60L27 60L27 59L30 59L30 60L29 60L29 63L31 63L31 62L32 62L32 59L33 59L33 60L35 60L35 59L34 59L34 58L35 58L35 57L34 57L34 58L32 58L32 59L30 59L30 57L33 57L33 56L36 56L36 57L38 57L38 58L37 58L37 59L38 59L38 60L37 60L37 61L39 61L39 60L40 60L40 62L38 62L38 63L37 63L37 64L38 64L38 63L39 63L39 65L42 65L42 66L43 66L43 67L44 67L44 68L45 68L45 67L46 67L46 68L47 68L47 67L48 67L48 66L47 66L47 67L46 67L46 65L45 65L45 67L44 67L44 65L43 65L43 64L45 64L45 63L46 63L46 62L47 62L47 63L48 63L48 64L47 64L47 65L48 65L48 64L50 64L50 66L51 66L51 65L53 65L53 66L52 66L52 67L53 67L53 68L56 68L56 67L57 67L57 64L58 64L58 66L61 66L61 65L60 65L60 64L58 64L58 63L57 63L57 62L59 62L59 63L60 63L60 60L59 60L59 59L58 59L58 58L60 58L60 59L61 59L61 60L62 60L62 59L63 59L63 60L64 60L64 59L63 59L63 58L64 58L64 57L68 57L68 56L66 56L66 55L64 55L64 57L63 57L63 56L62 56L62 55L63 55L63 54L65 54L65 53L64 53L64 52L65 52L65 49L63 49L63 48L65 48L65 45L64 45L64 46L63 46L63 45L62 45L62 46L61 46L61 43L63 43L63 44L64 44L64 43L65 43L65 42L66 42L66 41L67 41L67 40L66 40L66 41L64 41L64 40L65 40L65 39L67 39L67 38L66 38L66 37L67 37L67 36L65 36L65 37L64 37L64 38L61 38L61 37L60 37L60 34L59 34L59 32L58 32L58 30L59 30L59 29L60 29L60 27L61 27L61 26L59 26L59 25L58 25L58 26L59 26L59 27L58 27L58 30L57 30L57 32L55 32L55 34L54 34L54 31L55 31L55 30L56 30L56 29L55 29L55 28L57 28L57 24L60 24L60 25L61 25L61 24L60 24L60 23ZM8 24L8 25L9 25L9 27L8 27L8 29L7 29L7 30L8 30L8 29L9 29L9 28L10 28L10 29L11 29L11 28L12 28L12 26L10 26L10 24ZM44 24L44 25L45 25L45 24ZM54 24L54 25L55 25L55 24ZM25 25L25 26L26 26L26 25ZM46 26L46 27L47 27L47 28L48 28L48 29L47 29L47 30L48 30L48 31L50 31L50 30L49 30L49 29L50 29L50 28L48 28L48 27L47 27L47 26ZM52 26L52 27L51 27L51 29L52 29L52 28L55 28L55 27L53 27L53 26ZM64 27L64 28L65 28L65 27ZM66 27L66 28L67 28L67 27ZM68 27L68 28L69 28L69 27ZM24 28L24 29L26 29L26 28ZM38 28L38 29L39 29L39 28ZM42 29L42 30L43 30L43 29ZM54 29L54 30L55 30L55 29ZM30 30L30 31L31 31L31 32L32 32L32 31L33 31L33 30ZM39 30L39 31L40 31L40 30ZM51 30L51 32L50 32L50 33L51 33L51 34L49 34L49 32L48 32L48 34L49 34L49 36L48 36L48 35L46 35L46 36L45 36L45 37L46 37L46 38L45 38L45 39L46 39L46 38L47 38L47 36L48 36L48 37L50 37L50 36L52 36L52 37L51 37L51 38L48 38L48 39L51 39L51 38L52 38L52 40L53 40L53 41L51 41L51 40L50 40L50 41L51 41L51 42L49 42L49 43L48 43L48 44L49 44L49 43L50 43L50 44L51 44L51 45L52 45L52 44L53 44L53 45L54 45L54 46L52 46L52 47L51 47L51 46L50 46L50 45L49 45L49 46L50 46L50 47L48 47L48 46L47 46L47 47L48 47L48 48L43 48L43 49L44 49L44 50L42 50L42 52L41 52L41 51L40 51L40 53L39 53L39 54L40 54L40 55L39 55L39 56L38 56L38 57L39 57L39 58L38 58L38 59L39 59L39 58L40 58L40 60L43 60L43 63L42 63L42 64L43 64L43 63L44 63L44 61L45 61L45 62L46 62L46 61L49 61L49 60L46 60L46 59L45 59L45 58L47 58L47 57L44 57L44 56L43 56L43 55L42 55L42 56L41 56L41 53L42 53L42 54L44 54L44 55L45 55L45 56L48 56L48 57L49 57L49 58L48 58L48 59L49 59L49 58L50 58L50 61L51 61L51 62L50 62L50 63L51 63L51 64L53 64L53 62L55 62L55 61L56 61L56 60L57 60L57 61L58 61L58 60L57 60L57 59L51 59L51 58L52 58L52 56L54 56L54 54L56 54L56 56L57 56L57 55L59 55L59 56L60 56L60 57L62 57L62 56L60 56L60 55L61 55L61 54L62 54L62 52L63 52L63 51L60 51L60 50L63 50L63 49L62 49L62 48L63 48L63 47L59 47L59 48L60 48L60 49L59 49L59 50L58 50L58 51L57 51L57 50L56 50L56 49L54 49L54 50L55 50L55 51L54 51L54 52L53 52L53 51L52 51L52 50L50 50L50 48L53 48L53 47L54 47L54 48L57 48L57 47L54 47L54 46L55 46L55 43L56 43L56 44L58 44L58 43L59 43L59 44L60 44L60 43L61 43L61 42L62 42L62 40L64 40L64 39L62 39L62 40L61 40L61 38L60 38L60 37L59 37L59 38L58 38L58 37L57 37L57 38L58 38L58 39L55 39L55 36L57 36L57 35L58 35L58 36L59 36L59 34L57 34L57 35L54 35L54 36L52 36L52 35L51 35L51 34L52 34L52 32L53 32L53 30ZM12 31L12 32L13 32L13 31ZM63 31L63 32L64 32L64 31ZM65 31L65 32L66 32L66 33L65 33L65 34L66 34L66 33L67 33L67 34L68 34L68 33L67 33L67 32L66 32L66 31ZM57 32L57 33L58 33L58 32ZM5 33L5 36L8 36L8 33ZM33 33L33 36L36 36L36 33ZM61 33L61 36L64 36L64 33ZM6 34L6 35L7 35L7 34ZM26 34L26 35L25 35L25 36L26 36L26 35L27 35L27 34ZM31 34L31 35L30 35L30 36L31 36L31 35L32 35L32 34ZM34 34L34 35L35 35L35 34ZM62 34L62 35L63 35L63 34ZM2 35L2 36L4 36L4 35ZM23 36L23 37L22 37L22 39L24 39L24 40L25 40L25 38L26 38L26 37L24 37L24 36ZM40 36L40 37L41 37L41 38L40 38L40 39L41 39L41 38L42 38L42 37L43 37L43 36ZM9 37L9 38L10 38L10 37ZM23 37L23 38L24 38L24 37ZM31 37L31 38L33 38L33 37ZM37 37L37 38L38 38L38 37ZM53 37L53 38L54 38L54 37ZM59 38L59 39L60 39L60 38ZM9 39L9 40L10 40L10 41L11 41L11 40L10 40L10 39ZM13 39L13 41L12 41L12 42L14 42L14 39ZM53 39L53 40L55 40L55 39ZM20 40L20 41L21 41L21 40ZM45 40L45 42L46 42L46 43L47 43L47 42L46 42L46 41L47 41L47 40ZM48 40L48 41L49 41L49 40ZM56 40L56 43L58 43L58 42L59 42L59 43L60 43L60 42L61 42L61 40L59 40L59 41L58 41L58 42L57 42L57 40ZM22 41L22 43L23 43L23 42L24 42L24 41ZM35 41L35 42L34 42L34 43L35 43L35 42L36 42L36 41ZM63 41L63 42L64 42L64 41ZM5 42L5 43L4 43L4 45L5 45L5 44L7 44L7 43L6 43L6 42ZM52 42L52 43L51 43L51 44L52 44L52 43L53 43L53 44L54 44L54 43L55 43L55 42ZM41 43L41 44L42 44L42 43ZM34 44L34 45L33 45L33 49L32 49L32 48L31 48L31 49L32 49L32 51L31 51L31 52L29 52L29 54L28 54L28 53L26 53L26 52L22 52L22 53L25 53L25 55L26 55L26 54L28 54L28 55L27 55L27 57L26 57L26 59L25 59L25 60L24 60L24 58L23 58L23 60L24 60L24 61L25 61L25 60L26 60L26 59L27 59L27 58L28 58L28 57L29 57L29 54L31 54L31 56L33 56L33 55L34 55L34 52L35 52L35 50L34 50L34 46L35 46L35 44ZM36 44L36 45L37 45L37 44ZM0 45L0 47L2 47L2 46L1 46L1 45ZM10 45L10 46L7 46L7 47L6 47L6 48L7 48L7 49L5 49L5 50L4 50L4 52L5 52L5 53L6 53L6 54L7 54L7 53L6 53L6 52L7 52L7 51L6 51L6 50L9 50L9 48L11 48L11 47L12 47L12 45ZM57 45L57 46L58 46L58 45ZM10 46L10 47L11 47L11 46ZM14 46L14 47L13 47L13 48L12 48L12 50L11 50L11 49L10 49L10 51L8 51L8 52L9 52L9 53L8 53L8 54L9 54L9 55L10 55L10 54L9 54L9 53L12 53L12 55L13 55L13 53L14 53L14 51L13 51L13 48L14 48L14 50L15 50L15 48L14 48L14 47L16 47L16 46ZM7 47L7 48L9 48L9 47ZM20 47L20 48L21 48L21 47ZM22 47L22 48L23 48L23 49L24 49L24 48L23 48L23 47ZM48 48L48 49L47 49L47 50L46 50L46 49L45 49L45 50L44 50L44 51L43 51L43 53L45 53L45 55L47 55L47 54L48 54L48 52L51 52L51 51L50 51L50 50L49 50L49 48ZM66 48L66 50L67 50L67 48ZM47 50L47 51L46 51L46 52L45 52L45 51L44 51L44 52L45 52L45 53L46 53L46 54L47 54L47 51L48 51L48 50ZM33 51L33 52L32 52L32 53L31 53L31 54L32 54L32 53L33 53L33 52L34 52L34 51ZM55 51L55 52L54 52L54 53L53 53L53 52L52 52L52 54L51 54L51 53L49 53L49 55L48 55L48 56L49 56L49 57L50 57L50 58L51 58L51 57L50 57L50 56L51 56L51 55L52 55L52 54L54 54L54 53L56 53L56 54L59 54L59 55L60 55L60 52L59 52L59 51L58 51L58 52L56 52L56 51ZM12 52L12 53L13 53L13 52ZM16 53L16 54L15 54L15 55L19 55L19 56L14 56L14 57L17 57L17 58L16 58L16 59L17 59L17 60L18 60L18 62L19 62L19 61L20 61L20 60L21 60L21 57L22 57L22 55L23 55L23 54L20 54L20 55L19 55L19 54L18 54L18 53ZM50 54L50 55L51 55L51 54ZM19 56L19 57L18 57L18 58L17 58L17 59L18 59L18 60L20 60L20 58L19 58L19 57L21 57L21 56ZM23 56L23 57L25 57L25 56ZM40 56L40 57L41 57L41 59L43 59L43 60L44 60L44 59L43 59L43 58L44 58L44 57L43 57L43 56L42 56L42 57L41 57L41 56ZM53 57L53 58L55 58L55 57ZM56 57L56 58L58 58L58 57ZM13 58L13 60L12 60L12 61L13 61L13 60L14 60L14 58ZM61 58L61 59L62 59L62 58ZM65 59L65 60L66 60L66 59ZM3 60L3 61L5 61L5 60ZM6 60L6 61L7 61L7 60ZM30 60L30 62L31 62L31 60ZM45 60L45 61L46 61L46 60ZM52 60L52 61L54 61L54 60ZM21 61L21 62L22 62L22 63L20 63L20 64L19 64L19 65L20 65L20 66L21 66L21 65L22 65L22 63L23 63L23 61ZM33 61L33 64L36 64L36 61ZM41 61L41 62L40 62L40 64L41 64L41 62L42 62L42 61ZM61 61L61 64L64 64L64 61ZM27 62L27 63L25 63L25 64L26 64L26 65L27 65L27 63L28 63L28 62ZM34 62L34 63L35 63L35 62ZM62 62L62 63L63 63L63 62ZM54 63L54 64L57 64L57 63ZM68 63L68 64L69 64L69 63ZM8 64L8 67L9 67L9 64ZM20 64L20 65L21 65L21 64ZM30 65L30 68L31 68L31 65ZM35 65L35 66L37 66L37 67L36 67L36 68L37 68L37 67L38 67L38 66L37 66L37 65ZM54 65L54 66L55 66L55 67L56 67L56 66L55 66L55 65ZM62 65L62 68L63 68L63 66L64 66L64 67L65 67L65 68L66 68L66 65L65 65L65 66L64 66L64 65ZM16 66L16 67L17 67L17 68L18 68L18 67L17 67L17 66ZM39 66L39 68L40 68L40 67L41 67L41 66ZM12 67L12 69L14 69L14 67ZM9 68L9 69L11 69L11 68ZM32 68L32 69L33 69L33 68ZM0 0L0 7L7 7L7 0ZM1 1L1 6L6 6L6 1ZM2 2L2 5L5 5L5 2ZM62 0L62 7L69 7L69 0ZM63 1L63 6L68 6L68 1ZM64 2L64 5L67 5L67 2ZM0 62L0 69L7 69L7 62ZM1 63L1 68L6 68L6 63ZM2 64L2 67L5 67L5 64Z" fill="#000000"/></g></g></svg>
