<?xml version="1.0" encoding="UTF-8"?>
<svg xmlns="http://www.w3.org/2000/svg" version="1.1" width="200" height="200" viewBox="0 0 200 200"><rect x="0" y="0" width="200" height="200" fill="#ffffff"/><g transform="scale(2.469)"><g transform="translate(0,0)"><path fill-rule="evenodd" d="M8 0L8 3L9 3L9 4L10 4L10 5L8 5L8 9L9 9L9 10L6 10L6 9L7 9L7 8L6 8L6 9L5 9L5 8L2 8L2 11L0 11L0 15L1 15L1 16L2 16L2 17L3 17L3 18L0 18L0 19L3 19L3 20L2 20L2 23L1 23L1 20L0 20L0 24L3 24L3 25L0 25L0 26L1 26L1 27L0 27L0 31L1 31L1 34L0 34L0 35L1 35L1 36L2 36L2 35L1 35L1 34L3 34L3 37L0 37L0 38L1 38L1 39L0 39L0 44L1 44L1 46L0 46L0 47L1 47L1 46L2 46L2 48L0 48L0 49L2 49L2 50L1 50L1 51L0 51L0 53L1 53L1 55L0 55L0 56L2 56L2 57L0 57L0 58L1 58L1 60L0 60L0 63L1 63L1 62L2 62L2 63L3 63L3 65L4 65L4 66L5 66L5 65L4 65L4 63L7 63L7 64L6 64L6 65L7 65L7 64L8 64L8 66L6 66L6 67L10 67L10 71L8 71L8 70L6 70L6 69L9 69L9 68L6 68L6 69L5 69L5 68L4 68L4 69L5 69L5 70L6 70L6 71L5 71L5 72L6 72L6 73L7 73L7 72L8 72L8 74L9 74L9 75L10 75L10 76L11 76L11 74L13 74L13 73L15 73L15 77L14 77L14 78L12 78L12 79L14 79L14 81L15 81L15 79L17 79L17 78L18 78L18 80L17 80L17 81L20 81L20 80L24 80L24 79L23 79L23 77L25 77L25 78L26 78L26 77L29 77L29 78L27 78L27 79L25 79L25 80L26 80L26 81L31 81L31 80L33 80L33 81L34 81L34 80L33 80L33 76L35 76L35 75L36 75L36 78L35 78L35 77L34 77L34 78L35 78L35 79L36 79L36 80L37 80L37 81L39 81L39 80L38 80L38 78L43 78L43 79L42 79L42 80L40 80L40 81L44 81L44 80L45 80L45 81L46 81L46 80L47 80L47 78L48 78L48 77L52 77L52 78L53 78L53 76L54 76L54 77L55 77L55 78L54 78L54 80L52 80L52 79L51 79L51 78L49 78L49 79L48 79L48 81L49 81L49 80L50 80L50 81L55 81L55 80L56 80L56 79L57 79L57 81L58 81L58 80L60 80L60 81L61 81L61 79L63 79L63 78L64 78L64 79L65 79L65 80L66 80L66 81L67 81L67 78L65 78L65 77L64 77L64 76L66 76L66 77L67 77L67 76L69 76L69 75L66 75L66 74L68 74L68 73L66 73L66 74L65 74L65 75L64 75L64 74L63 74L63 73L64 73L64 72L63 72L63 73L62 73L62 74L61 74L61 71L66 71L66 72L70 72L70 71L71 71L71 70L72 70L72 71L73 71L73 68L74 68L74 66L75 66L75 67L76 67L76 66L75 66L75 65L77 65L77 68L75 68L75 69L74 69L74 70L75 70L75 69L78 69L78 70L77 70L77 71L78 71L78 72L75 72L75 71L74 71L74 72L72 72L72 74L71 74L71 73L69 73L69 74L71 74L71 75L70 75L70 77L68 77L68 80L70 80L70 79L71 79L71 81L73 81L73 80L72 80L72 79L75 79L75 78L74 78L74 77L76 77L76 78L77 78L77 76L80 76L80 74L81 74L81 72L80 72L80 71L79 71L79 70L81 70L81 69L78 69L78 68L80 68L80 67L78 67L78 64L80 64L80 65L79 65L79 66L81 66L81 64L80 64L80 62L81 62L81 61L80 61L80 60L81 60L81 59L80 59L80 58L81 58L81 56L79 56L79 55L77 55L77 56L75 56L75 53L78 53L78 54L79 54L79 53L80 53L80 54L81 54L81 52L80 52L80 50L81 50L81 49L80 49L80 50L79 50L79 49L78 49L78 52L77 52L77 48L79 48L79 47L80 47L80 46L81 46L81 45L80 45L80 42L81 42L81 41L80 41L80 40L79 40L79 39L77 39L77 40L79 40L79 41L78 41L78 43L77 43L77 42L76 42L76 43L75 43L75 40L74 40L74 39L75 39L75 37L76 37L76 38L77 38L77 37L78 37L78 38L79 38L79 37L78 37L78 36L79 36L79 35L80 35L80 38L81 38L81 35L80 35L80 34L81 34L81 32L80 32L80 31L76 31L76 30L77 30L77 28L79 28L79 29L78 29L78 30L81 30L81 28L79 28L79 27L77 27L77 25L78 25L78 26L79 26L79 25L78 25L78 24L79 24L79 23L78 23L78 22L81 22L81 19L80 19L80 21L77 21L77 22L76 22L76 23L74 23L74 21L73 21L73 23L74 23L74 24L72 24L72 23L71 23L71 22L70 22L70 19L67 19L67 18L68 18L68 17L67 17L67 16L69 16L69 15L68 15L68 14L67 14L67 15L66 15L66 14L65 14L65 11L66 11L66 10L64 10L64 9L65 9L65 8L63 8L63 6L62 6L62 5L63 5L63 3L65 3L65 2L63 2L63 3L62 3L62 1L61 1L61 0L60 0L60 1L61 1L61 3L62 3L62 5L60 5L60 4L59 4L59 5L58 5L58 2L59 2L59 3L60 3L60 2L59 2L59 0L54 0L54 1L53 1L53 3L52 3L52 0L50 0L50 1L51 1L51 3L50 3L50 2L49 2L49 3L50 3L50 4L48 4L48 5L47 5L47 6L46 6L46 7L47 7L47 6L48 6L48 9L46 9L46 8L45 8L45 9L46 9L46 10L44 10L44 11L47 11L47 10L49 10L49 12L48 12L48 14L45 14L45 15L49 15L49 16L45 16L45 17L43 17L43 16L44 16L44 15L43 15L43 14L44 14L44 13L42 13L42 15L41 15L41 14L40 14L40 13L39 13L39 12L38 12L38 11L37 11L37 10L39 10L39 9L37 9L37 10L35 10L35 9L36 9L36 8L35 8L35 6L34 6L34 7L33 7L33 6L32 6L32 7L33 7L33 9L34 9L34 10L31 10L31 9L29 9L29 6L30 6L30 8L31 8L31 6L30 6L30 4L31 4L31 3L32 3L32 4L33 4L33 2L32 2L32 1L35 1L35 2L36 2L36 4L35 4L35 5L36 5L36 7L37 7L37 8L38 8L38 7L39 7L39 5L41 5L41 4L43 4L43 5L42 5L42 7L43 7L43 5L44 5L44 4L43 4L43 1L42 1L42 3L41 3L41 0L39 0L39 1L38 1L38 0L36 0L36 1L35 1L35 0L30 0L30 1L31 1L31 3L30 3L30 4L28 4L28 2L29 2L29 1L28 1L28 2L27 2L27 0L26 0L26 1L24 1L24 0L23 0L23 1L22 1L22 3L23 3L23 4L22 4L22 5L23 5L23 4L24 4L24 8L23 8L23 6L22 6L22 7L21 7L21 6L20 6L20 5L21 5L21 3L20 3L20 2L21 2L21 0L19 0L19 1L18 1L18 0L15 0L15 1L16 1L16 3L15 3L15 2L14 2L14 0L12 0L12 1L13 1L13 2L12 2L12 3L11 3L11 2L10 2L10 1L9 1L9 0ZM44 0L44 3L45 3L45 4L47 4L47 3L48 3L48 2L47 2L47 1L48 1L48 0L46 0L46 2L45 2L45 0ZM66 0L66 1L67 1L67 0ZM23 1L23 2L24 2L24 3L25 3L25 4L27 4L27 3L26 3L26 2L24 2L24 1ZM54 1L54 2L55 2L55 3L54 3L54 4L53 4L53 5L54 5L54 6L53 6L53 8L54 8L54 6L55 6L55 7L56 7L56 8L55 8L55 11L56 11L56 12L54 12L54 11L53 11L53 14L52 14L52 11L50 11L50 12L51 12L51 15L52 15L52 16L50 16L50 17L49 17L49 19L48 19L48 20L44 20L44 23L42 23L42 22L43 22L43 20L42 20L42 17L41 17L41 16L40 16L40 14L39 14L39 15L37 15L37 13L36 13L36 15L33 15L33 14L32 14L32 15L33 15L33 16L32 16L32 17L34 17L34 19L37 19L37 17L39 17L39 16L40 16L40 17L41 17L41 18L38 18L38 19L39 19L39 20L37 20L37 21L36 21L36 20L35 20L35 21L34 21L34 20L32 20L32 19L31 19L31 15L30 15L30 19L29 19L29 15L28 15L28 14L29 14L29 13L28 13L28 12L29 12L29 11L28 11L28 12L27 12L27 13L28 13L28 14L27 14L27 15L26 15L26 13L24 13L24 15L23 15L23 14L22 14L22 13L21 13L21 14L22 14L22 16L20 16L20 18L18 18L18 19L19 19L19 20L18 20L18 21L17 21L17 16L16 16L16 18L14 18L14 19L15 19L15 20L16 20L16 23L17 23L17 24L16 24L16 28L15 28L15 29L16 29L16 30L17 30L17 29L18 29L18 30L19 30L19 33L18 33L18 31L17 31L17 32L16 32L16 31L15 31L15 32L14 32L14 31L13 31L13 30L14 30L14 28L13 28L13 26L12 26L12 25L13 25L13 23L12 23L12 21L13 21L13 22L14 22L14 23L15 23L15 21L13 21L13 19L11 19L11 23L10 23L10 21L9 21L9 23L10 23L10 24L9 24L9 26L10 26L10 27L9 27L9 29L10 29L10 30L12 30L12 33L13 33L13 32L14 32L14 33L15 33L15 34L14 34L14 35L10 35L10 34L11 34L11 31L10 31L10 34L9 34L9 35L10 35L10 36L9 36L9 38L8 38L8 39L6 39L6 38L7 38L7 37L8 37L8 36L7 36L7 35L8 35L8 34L7 34L7 33L8 33L8 32L9 32L9 31L8 31L8 29L2 29L2 28L1 28L1 31L2 31L2 30L5 30L5 32L7 32L7 33L4 33L4 32L2 32L2 33L3 33L3 34L5 34L5 35L4 35L4 37L3 37L3 38L5 38L5 40L8 40L8 41L4 41L4 39L3 39L3 40L2 40L2 41L4 41L4 42L2 42L2 43L3 43L3 45L2 45L2 46L3 46L3 48L4 48L4 47L5 47L5 48L7 48L7 47L8 47L8 48L9 48L9 50L10 50L10 53L11 53L11 54L13 54L13 55L14 55L14 54L15 54L15 56L17 56L17 57L15 57L15 59L14 59L14 60L13 60L13 57L14 57L14 56L13 56L13 57L12 57L12 56L11 56L11 55L10 55L10 54L9 54L9 53L8 53L8 54L7 54L7 53L6 53L6 54L4 54L4 55L3 55L3 54L2 54L2 56L3 56L3 57L4 57L4 60L3 60L3 58L2 58L2 60L1 60L1 61L3 61L3 63L4 63L4 61L6 61L6 62L7 62L7 63L8 63L8 64L9 64L9 66L11 66L11 61L15 61L15 60L16 60L16 58L18 58L18 57L19 57L19 58L20 58L20 60L19 60L19 61L22 61L22 62L23 62L23 63L24 63L24 64L23 64L23 65L26 65L26 66L24 66L24 67L23 67L23 66L21 66L21 64L22 64L22 63L21 63L21 64L18 64L18 65L17 65L17 66L16 66L16 64L15 64L15 63L17 63L17 62L18 62L18 61L16 61L16 62L15 62L15 63L13 63L13 62L12 62L12 63L13 63L13 64L15 64L15 65L14 65L14 67L15 67L15 68L17 68L17 69L16 69L16 70L15 70L15 72L17 72L17 73L16 73L16 76L17 76L17 75L18 75L18 74L19 74L19 77L18 77L18 78L19 78L19 77L20 77L20 78L21 78L21 79L22 79L22 78L21 78L21 77L20 77L20 74L19 74L19 70L21 70L21 72L22 72L22 69L19 69L19 68L18 68L18 67L17 67L17 66L21 66L21 68L22 68L22 67L23 67L23 69L24 69L24 67L25 67L25 70L24 70L24 71L23 71L23 72L26 72L26 71L28 71L28 72L30 72L30 71L31 71L31 73L30 73L30 74L31 74L31 77L30 77L30 76L29 76L29 77L30 77L30 78L29 78L29 79L27 79L27 80L29 80L29 79L31 79L31 77L32 77L32 74L33 74L33 75L35 75L35 74L36 74L36 75L37 75L37 76L38 76L38 77L37 77L37 78L36 78L36 79L37 79L37 78L38 78L38 77L39 77L39 76L40 76L40 75L41 75L41 74L42 74L42 73L44 73L44 74L46 74L46 73L44 73L44 72L43 72L43 71L44 71L44 69L45 69L45 68L46 68L46 69L47 69L47 68L48 68L48 69L49 69L49 70L48 70L48 71L47 71L47 70L45 70L45 71L47 71L47 72L50 72L50 71L49 71L49 70L51 70L51 72L54 72L54 73L56 73L56 74L57 74L57 75L56 75L56 76L55 76L55 75L54 75L54 74L53 74L53 75L54 75L54 76L55 76L55 77L56 77L56 78L55 78L55 79L56 79L56 78L57 78L57 79L59 79L59 78L60 78L60 77L61 77L61 78L62 78L62 77L63 77L63 76L64 76L64 75L61 75L61 76L59 76L59 75L60 75L60 74L59 74L59 73L60 73L60 72L59 72L59 71L58 71L58 70L59 70L59 69L60 69L60 71L61 71L61 70L63 70L63 69L62 69L62 67L63 67L63 66L67 66L67 65L68 65L68 67L70 67L70 68L69 68L69 69L68 69L68 68L67 68L67 67L64 67L64 68L65 68L65 69L64 69L64 70L66 70L66 71L70 71L70 70L71 70L71 69L70 69L70 68L73 68L73 67L72 67L72 66L71 66L71 67L70 67L70 66L69 66L69 65L68 65L68 64L69 64L69 62L71 62L71 63L70 63L70 64L71 64L71 65L72 65L72 64L71 64L71 63L72 63L72 62L71 62L71 61L70 61L70 59L72 59L72 61L75 61L75 62L73 62L73 63L74 63L74 65L73 65L73 66L74 66L74 65L75 65L75 63L76 63L76 64L78 64L78 61L79 61L79 60L78 60L78 57L79 57L79 58L80 58L80 57L79 57L79 56L77 56L77 57L75 57L75 56L74 56L74 57L73 57L73 58L74 58L74 57L75 57L75 58L77 58L77 59L76 59L76 60L78 60L78 61L75 61L75 59L74 59L74 60L73 60L73 59L72 59L72 58L71 58L71 57L72 57L72 56L70 56L70 58L69 58L69 57L68 57L68 56L67 56L67 57L68 57L68 59L69 59L69 60L67 60L67 58L66 58L66 55L67 55L67 54L68 54L68 53L70 53L70 52L71 52L71 53L72 53L72 54L71 54L71 55L73 55L73 53L72 53L72 49L71 49L71 47L70 47L70 46L69 46L69 45L68 45L68 44L67 44L67 43L70 43L70 44L71 44L71 43L74 43L74 44L73 44L73 45L71 45L71 46L72 46L72 47L73 47L73 45L74 45L74 48L75 48L75 45L77 45L77 46L76 46L76 47L77 47L77 46L78 46L78 45L79 45L79 44L75 44L75 43L74 43L74 42L72 42L72 41L73 41L73 40L72 40L72 41L71 41L71 39L73 39L73 38L72 38L72 37L74 37L74 36L75 36L75 34L74 34L74 33L72 33L72 34L71 34L71 35L70 35L70 34L69 34L69 33L68 33L68 32L66 32L66 31L70 31L70 32L71 32L71 31L70 31L70 30L64 30L64 29L65 29L65 26L67 26L67 27L66 27L66 29L71 29L71 30L72 30L72 31L73 31L73 30L72 30L72 29L71 29L71 28L72 28L72 25L71 25L71 23L68 23L68 22L69 22L69 21L68 21L68 20L67 20L67 19L64 19L64 18L66 18L66 15L60 15L60 12L61 12L61 11L59 11L59 9L60 9L60 8L59 8L59 9L58 9L58 5L57 5L57 4L56 4L56 3L57 3L57 2L58 2L58 1L57 1L57 2L56 2L56 1ZM69 1L69 2L70 2L70 3L69 3L69 4L67 4L67 3L68 3L68 2L67 2L67 3L66 3L66 4L67 4L67 6L66 6L66 5L65 5L65 4L64 4L64 5L65 5L65 6L64 6L64 7L65 7L65 6L66 6L66 8L68 8L68 9L69 9L69 10L67 10L67 12L66 12L66 13L67 13L67 12L68 12L68 13L69 13L69 14L70 14L70 15L71 15L71 17L73 17L73 18L75 18L75 19L74 19L74 20L76 20L76 19L77 19L77 20L79 20L79 18L81 18L81 17L78 17L78 16L79 16L79 15L81 15L81 13L80 13L80 14L79 14L79 13L78 13L78 12L81 12L81 11L79 11L79 10L81 10L81 8L78 8L78 9L79 9L79 10L78 10L78 12L77 12L77 14L76 14L76 11L77 11L77 10L76 10L76 8L73 8L73 11L72 11L72 13L73 13L73 11L74 11L74 12L75 12L75 13L74 13L74 14L75 14L75 15L74 15L74 16L76 16L76 17L73 17L73 16L72 16L72 15L71 15L71 14L70 14L70 13L69 13L69 12L70 12L70 11L71 11L71 9L72 9L72 7L73 7L73 6L72 6L72 5L71 5L71 6L70 6L70 7L71 7L71 8L69 8L69 4L71 4L71 2L72 2L72 4L73 4L73 1ZM9 2L9 3L10 3L10 4L11 4L11 3L10 3L10 2ZM13 2L13 3L14 3L14 4L13 4L13 8L11 8L11 7L12 7L12 6L11 6L11 5L10 5L10 6L9 6L9 8L11 8L11 9L12 9L12 10L10 10L10 11L12 11L12 12L13 12L13 13L14 13L14 12L15 12L15 11L14 11L14 9L15 9L15 10L17 10L17 9L16 9L16 6L17 6L17 7L18 7L18 9L19 9L19 10L18 10L18 11L16 11L16 12L18 12L18 13L15 13L15 15L18 15L18 17L19 17L19 15L20 15L20 13L19 13L19 10L20 10L20 12L21 12L21 11L22 11L22 10L26 10L26 11L27 11L27 10L28 10L28 9L22 9L22 10L20 10L20 8L19 8L19 7L20 7L20 6L19 6L19 5L20 5L20 3L19 3L19 5L18 5L18 6L17 6L17 5L15 5L15 8L14 8L14 4L15 4L15 3L14 3L14 2ZM17 2L17 3L18 3L18 2ZM37 2L37 4L38 4L38 2ZM39 2L39 3L40 3L40 2ZM54 4L54 5L55 5L55 4ZM25 5L25 8L28 8L28 5ZM37 5L37 7L38 7L38 5ZM49 5L49 8L52 8L52 5ZM56 5L56 7L57 7L57 5ZM59 5L59 7L60 7L60 5ZM10 6L10 7L11 7L11 6ZM18 6L18 7L19 7L19 6ZM26 6L26 7L27 7L27 6ZM40 6L40 8L41 8L41 6ZM44 6L44 7L45 7L45 6ZM50 6L50 7L51 7L51 6ZM61 6L61 8L62 8L62 9L61 9L61 10L62 10L62 11L63 11L63 12L64 12L64 10L62 10L62 9L63 9L63 8L62 8L62 6ZM67 6L67 7L68 7L68 6ZM71 6L71 7L72 7L72 6ZM13 8L13 9L14 9L14 8ZM42 8L42 9L40 9L40 10L41 10L41 11L40 11L40 12L42 12L42 11L43 11L43 10L42 10L42 9L44 9L44 8ZM56 8L56 9L57 9L57 10L58 10L58 9L57 9L57 8ZM3 9L3 11L2 11L2 12L1 12L1 15L2 15L2 16L3 16L3 15L4 15L4 14L5 14L5 15L6 15L6 16L7 16L7 15L9 15L9 16L8 16L8 17L6 17L6 18L7 18L7 19L5 19L5 18L4 18L4 19L5 19L5 21L4 21L4 20L3 20L3 22L4 22L4 24L5 24L5 21L6 21L6 22L7 22L7 23L6 23L6 24L7 24L7 23L8 23L8 22L7 22L7 21L8 21L8 20L10 20L10 19L9 19L9 18L8 18L8 17L11 17L11 18L12 18L12 17L13 17L13 16L14 16L14 15L13 15L13 14L12 14L12 13L10 13L10 12L8 12L8 11L6 11L6 10L4 10L4 9ZM51 9L51 10L52 10L52 9ZM53 9L53 10L54 10L54 9ZM74 9L74 11L76 11L76 10L75 10L75 9ZM69 10L69 11L70 11L70 10ZM3 11L3 12L2 12L2 13L3 13L3 14L2 14L2 15L3 15L3 14L4 14L4 13L8 13L8 14L9 14L9 15L11 15L11 16L13 16L13 15L11 15L11 14L10 14L10 13L8 13L8 12L4 12L4 11ZM13 11L13 12L14 12L14 11ZM23 11L23 12L24 12L24 11ZM30 11L30 14L31 14L31 13L33 13L33 12L34 12L34 14L35 14L35 11L33 11L33 12L31 12L31 11ZM36 11L36 12L37 12L37 11ZM57 11L57 12L58 12L58 11ZM45 12L45 13L47 13L47 12ZM55 13L55 15L54 15L54 14L53 14L53 15L54 15L54 16L52 16L52 17L55 17L55 16L56 16L56 19L55 19L55 18L53 18L53 19L52 19L52 18L50 18L50 19L49 19L49 24L48 24L48 29L47 29L47 28L45 28L45 27L44 27L44 25L46 25L46 27L47 27L47 24L43 24L43 25L41 25L41 24L40 24L40 23L41 23L41 22L42 22L42 21L41 21L41 22L40 22L40 20L41 20L41 19L40 19L40 20L39 20L39 21L37 21L37 23L35 23L35 24L37 24L37 25L36 25L36 26L34 26L34 25L33 25L33 24L34 24L34 23L33 23L33 24L30 24L30 25L29 25L29 23L28 23L28 22L26 22L26 20L24 20L24 19L25 19L25 17L24 17L24 16L23 16L23 17L24 17L24 18L22 18L22 19L21 19L21 20L20 20L20 21L19 21L19 22L18 22L18 26L17 26L17 28L16 28L16 29L17 29L17 28L18 28L18 29L20 29L20 30L22 30L22 32L21 32L21 33L23 33L23 34L24 34L24 35L23 35L23 36L22 36L22 35L21 35L21 34L20 34L20 33L19 33L19 34L17 34L17 35L16 35L16 34L15 34L15 35L14 35L14 36L12 36L12 37L11 37L11 38L10 38L10 39L11 39L11 40L9 40L9 42L8 42L8 43L7 43L7 42L4 42L4 46L5 46L5 47L7 47L7 46L8 46L8 47L11 47L11 48L10 48L10 50L11 50L11 51L12 51L12 53L15 53L15 54L16 54L16 55L17 55L17 54L20 54L20 55L22 55L22 56L23 56L23 58L24 58L24 59L22 59L22 60L23 60L23 61L24 61L24 60L25 60L25 61L27 61L27 62L26 62L26 64L28 64L28 65L27 65L27 66L29 66L29 67L28 67L28 68L27 68L27 67L26 67L26 68L27 68L27 69L28 69L28 71L30 71L30 69L31 69L31 70L32 70L32 69L31 69L31 68L34 68L34 66L32 66L32 65L35 65L35 66L39 66L39 67L35 67L35 69L37 69L37 68L39 68L39 69L38 69L38 70L40 70L40 71L41 71L41 72L42 72L42 71L43 71L43 70L42 70L42 69L43 69L43 68L45 68L45 64L44 64L44 65L42 65L42 63L45 63L45 61L44 61L44 60L42 60L42 59L40 59L40 58L39 58L39 57L40 57L40 56L42 56L42 55L43 55L43 57L44 57L44 58L43 58L43 59L45 59L45 57L46 57L46 58L48 58L48 59L49 59L49 60L47 60L47 62L46 62L46 64L47 64L47 65L46 65L46 66L47 66L47 67L50 67L50 65L48 65L48 63L47 63L47 62L49 62L49 63L50 63L50 64L51 64L51 65L52 65L52 66L51 66L51 68L50 68L50 69L51 69L51 70L52 70L52 71L53 71L53 70L55 70L55 71L54 71L54 72L56 72L56 71L57 71L57 72L58 72L58 71L57 71L57 70L58 70L58 69L56 69L56 68L58 68L58 67L56 67L56 68L55 68L55 69L53 69L53 68L54 68L54 67L55 67L55 66L54 66L54 65L53 65L53 64L56 64L56 66L58 66L58 65L59 65L59 64L60 64L60 65L62 65L62 64L63 64L63 65L64 65L64 64L63 64L63 63L66 63L66 62L67 62L67 64L66 64L66 65L67 65L67 64L68 64L68 62L69 62L69 61L67 61L67 60L66 60L66 62L64 62L64 61L65 61L65 60L63 60L63 59L64 59L64 58L65 58L65 59L66 59L66 58L65 58L65 55L66 55L66 54L67 54L67 53L66 53L66 52L65 52L65 51L66 51L66 50L64 50L64 48L65 48L65 47L66 47L66 49L67 49L67 48L68 48L68 47L69 47L69 46L68 46L68 45L67 45L67 46L68 46L68 47L66 47L66 46L65 46L65 47L64 47L64 48L63 48L63 49L62 49L62 50L61 50L61 47L62 47L62 46L61 46L61 45L62 45L62 43L64 43L64 44L63 44L63 46L64 46L64 45L65 45L65 44L66 44L66 43L67 43L67 42L70 42L70 43L71 43L71 41L70 41L70 40L68 40L68 39L67 39L67 35L69 35L69 36L68 36L68 37L69 37L69 38L70 38L70 39L71 39L71 37L70 37L70 35L69 35L69 34L67 34L67 33L66 33L66 34L61 34L61 33L60 33L60 35L64 35L64 36L63 36L63 38L61 38L61 39L60 39L60 37L61 37L61 36L59 36L59 37L58 37L58 35L59 35L59 33L58 33L58 32L61 32L61 31L63 31L63 30L61 30L61 29L62 29L62 28L61 28L61 27L62 27L62 26L63 26L63 25L64 25L64 26L65 26L65 25L64 25L64 24L68 24L68 25L67 25L67 26L68 26L68 27L67 27L67 28L68 28L68 27L69 27L69 28L71 28L71 25L69 25L69 24L68 24L68 23L66 23L66 22L63 22L63 21L64 21L64 20L63 20L63 17L64 17L64 16L63 16L63 17L62 17L62 18L61 18L61 16L60 16L60 18L61 18L61 19L62 19L62 20L61 20L61 21L58 21L58 20L60 20L60 19L58 19L58 20L57 20L57 22L59 22L59 24L60 24L60 25L58 25L58 24L57 24L57 25L56 25L56 26L55 26L55 25L54 25L54 24L56 24L56 23L54 23L54 22L56 22L56 21L55 21L55 20L56 20L56 19L57 19L57 18L58 18L58 17L57 17L57 16L56 16L56 13ZM57 13L57 14L58 14L58 13ZM61 13L61 14L62 14L62 13ZM6 14L6 15L7 15L7 14ZM18 14L18 15L19 15L19 14ZM49 14L49 15L50 15L50 14ZM78 14L78 15L76 15L76 16L78 16L78 15L79 15L79 14ZM25 15L25 16L26 16L26 15ZM36 15L36 16L34 16L34 17L37 17L37 15ZM58 15L58 16L59 16L59 15ZM27 16L27 18L28 18L28 16ZM69 17L69 18L70 18L70 17ZM43 18L43 19L47 19L47 18ZM77 18L77 19L78 19L78 18ZM7 19L7 20L6 20L6 21L7 21L7 20L8 20L8 19ZM28 19L28 20L29 20L29 21L30 21L30 23L32 23L32 21L31 21L31 20L29 20L29 19ZM50 19L50 20L51 20L51 22L52 22L52 21L53 21L53 22L54 22L54 19L53 19L53 20L51 20L51 19ZM71 19L71 20L72 20L72 19ZM21 20L21 24L20 24L20 23L19 23L19 24L20 24L20 26L19 26L19 27L20 27L20 26L21 26L21 28L24 28L24 27L23 27L23 25L22 25L22 24L23 24L23 23L24 23L24 24L26 24L26 22L25 22L25 23L24 23L24 22L23 22L23 21L24 21L24 20ZM62 20L62 21L61 21L61 22L60 22L60 23L61 23L61 22L62 22L62 21L63 21L63 20ZM35 21L35 22L36 22L36 21ZM45 21L45 22L47 22L47 21ZM22 22L22 23L23 23L23 22ZM38 22L38 23L37 23L37 24L38 24L38 23L40 23L40 22ZM11 23L11 24L10 24L10 26L11 26L11 27L12 27L12 26L11 26L11 24L12 24L12 23ZM52 23L52 24L53 24L53 23ZM62 23L62 24L61 24L61 25L60 25L60 26L56 26L56 27L61 27L61 26L62 26L62 25L63 25L63 24L64 24L64 23ZM76 23L76 24L77 24L77 23ZM80 23L80 24L81 24L81 23ZM14 24L14 26L15 26L15 24ZM39 24L39 25L40 25L40 24ZM5 25L5 28L8 28L8 25ZM25 25L25 28L28 28L28 25ZM30 25L30 26L31 26L31 27L29 27L29 28L32 28L32 25ZM37 25L37 27L38 27L38 25ZM49 25L49 28L52 28L52 25ZM53 25L53 26L54 26L54 27L53 27L53 28L55 28L55 30L54 30L54 29L53 29L53 30L52 30L52 31L50 31L50 32L52 32L52 33L50 33L50 34L49 34L49 31L48 31L48 34L47 34L47 32L46 32L46 31L47 31L47 30L46 30L46 31L45 31L45 32L44 32L44 34L43 34L43 33L42 33L42 31L43 31L43 30L45 30L45 28L43 28L43 30L41 30L41 29L42 29L42 28L41 28L41 27L39 27L39 29L40 29L40 30L41 30L41 31L39 31L39 30L38 30L38 29L37 29L37 28L36 28L36 27L35 27L35 28L34 28L34 27L33 27L33 29L35 29L35 30L32 30L32 29L30 29L30 30L29 30L29 29L26 29L26 30L25 30L25 31L26 31L26 32L23 32L23 33L25 33L25 34L26 34L26 32L29 32L29 33L31 33L31 32L32 32L32 36L33 36L33 38L34 38L34 37L35 37L35 38L36 38L36 39L37 39L37 38L38 38L38 37L39 37L39 38L40 38L40 37L39 37L39 36L41 36L41 35L42 35L42 37L41 37L41 38L42 38L42 37L43 37L43 38L45 38L45 40L43 40L43 39L42 39L42 40L43 40L43 43L42 43L42 42L41 42L41 40L40 40L40 39L39 39L39 40L38 40L38 41L37 41L37 42L36 42L36 43L37 43L37 42L38 42L38 45L36 45L36 44L35 44L35 39L34 39L34 41L33 41L33 40L32 40L32 42L33 42L33 43L31 43L31 45L28 45L28 46L26 46L26 45L27 45L27 44L26 44L26 45L25 45L25 44L24 44L24 43L28 43L28 44L30 44L30 43L29 43L29 41L28 41L28 40L27 40L27 39L28 39L28 38L30 38L30 36L31 36L31 34L30 34L30 35L28 35L28 33L27 33L27 36L28 36L28 37L26 37L26 38L27 38L27 39L25 39L25 40L24 40L24 41L23 41L23 42L21 42L21 41L20 41L20 38L21 38L21 35L20 35L20 34L19 34L19 35L20 35L20 36L18 36L18 35L17 35L17 36L16 36L16 35L15 35L15 36L16 36L16 37L17 37L17 38L16 38L16 40L17 40L17 39L19 39L19 41L18 41L18 42L17 42L17 41L14 41L14 42L13 42L13 40L15 40L15 39L14 39L14 38L15 38L15 37L12 37L12 38L13 38L13 39L12 39L12 40L11 40L11 41L12 41L12 42L10 42L10 43L8 43L8 44L7 44L7 43L5 43L5 44L7 44L7 45L6 45L6 46L7 46L7 45L9 45L9 46L11 46L11 47L12 47L12 48L13 48L13 49L14 49L14 51L13 51L13 50L12 50L12 49L11 49L11 50L12 50L12 51L13 51L13 52L14 52L14 51L15 51L15 53L16 53L16 54L17 54L17 53L19 53L19 52L20 52L20 53L22 53L22 55L23 55L23 56L24 56L24 55L27 55L27 56L26 56L26 57L27 57L27 56L29 56L29 55L30 55L30 56L31 56L31 55L32 55L32 56L33 56L33 54L35 54L35 55L36 55L36 53L37 53L37 52L36 52L36 51L35 51L35 50L37 50L37 51L38 51L38 53L39 53L39 54L40 54L40 55L38 55L38 54L37 54L37 56L38 56L38 57L37 57L37 58L36 58L36 57L35 57L35 56L34 56L34 58L36 58L36 60L37 60L37 61L36 61L36 62L38 62L38 61L39 61L39 60L40 60L40 62L39 62L39 63L42 63L42 62L44 62L44 61L41 61L41 60L40 60L40 59L38 59L38 57L39 57L39 56L40 56L40 55L42 55L42 54L43 54L43 55L46 55L46 57L47 57L47 56L48 56L48 57L50 57L50 56L51 56L51 58L50 58L50 60L51 60L51 58L53 58L53 59L56 59L56 60L55 60L55 61L53 61L53 60L52 60L52 61L50 61L50 63L52 63L52 64L53 64L53 63L54 63L54 62L55 62L55 63L56 63L56 64L57 64L57 65L58 65L58 64L59 64L59 63L60 63L60 64L62 64L62 63L63 63L63 62L62 62L62 61L63 61L63 60L62 60L62 59L63 59L63 58L64 58L64 57L63 57L63 56L64 56L64 55L65 55L65 54L66 54L66 53L64 53L64 55L61 55L61 56L54 56L54 55L55 55L55 54L56 54L56 55L57 55L57 53L56 53L56 52L54 52L54 51L55 51L55 50L57 50L57 52L58 52L58 53L60 53L60 52L59 52L59 51L58 51L58 50L57 50L57 49L56 49L56 48L55 48L55 47L57 47L57 48L59 48L59 50L60 50L60 51L61 51L61 52L62 52L62 53L61 53L61 54L62 54L62 53L63 53L63 52L62 52L62 51L63 51L63 50L62 50L62 51L61 51L61 50L60 50L60 48L59 48L59 47L61 47L61 46L60 46L60 45L61 45L61 43L60 43L60 40L59 40L59 39L58 39L58 38L56 38L56 36L55 36L55 39L58 39L58 40L55 40L55 43L54 43L54 44L53 44L53 46L50 46L50 47L53 47L53 46L54 46L54 44L55 44L55 47L54 47L54 49L55 49L55 50L53 50L53 52L54 52L54 53L55 53L55 54L49 54L49 55L48 55L48 53L47 53L47 51L48 51L48 46L49 46L49 45L46 45L46 44L48 44L48 43L46 43L46 42L47 42L47 41L46 41L46 38L47 38L47 37L46 37L46 35L47 35L47 36L52 36L52 38L51 38L51 40L50 40L50 39L47 39L47 40L50 40L50 42L49 42L49 41L48 41L48 42L49 42L49 44L51 44L51 45L52 45L52 44L51 44L51 41L52 41L52 43L53 43L53 42L54 42L54 41L53 41L53 40L54 40L54 39L53 39L53 40L52 40L52 38L54 38L54 37L53 37L53 36L54 36L54 35L53 35L53 34L55 34L55 35L56 35L56 34L57 34L57 35L58 35L58 34L57 34L57 32L54 32L54 31L55 31L55 30L57 30L57 29L56 29L56 28L55 28L55 26L54 26L54 25ZM68 25L68 26L69 26L69 27L70 27L70 26L69 26L69 25ZM73 25L73 28L76 28L76 25ZM80 25L80 26L81 26L81 25ZM3 26L3 28L4 28L4 26ZM6 26L6 27L7 27L7 26ZM26 26L26 27L27 27L27 26ZM42 26L42 27L43 27L43 26ZM50 26L50 27L51 27L51 26ZM74 26L74 27L75 27L75 26ZM10 28L10 29L13 29L13 28ZM58 28L58 29L60 29L60 28ZM63 28L63 29L64 29L64 28ZM48 29L48 30L51 30L51 29ZM74 29L74 32L75 32L75 33L77 33L77 35L78 35L78 33L79 33L79 34L80 34L80 33L79 33L79 32L75 32L75 29ZM6 30L6 31L7 31L7 32L8 32L8 31L7 31L7 30ZM23 30L23 31L24 31L24 30ZM26 30L26 31L29 31L29 30ZM30 30L30 32L31 32L31 31L32 31L32 30ZM37 30L37 31L38 31L38 32L39 32L39 31L38 31L38 30ZM53 30L53 31L54 31L54 30ZM58 30L58 31L61 31L61 30ZM33 31L33 32L35 32L35 31ZM36 32L36 34L35 34L35 35L37 35L37 36L36 36L36 37L38 37L38 36L39 36L39 34L40 34L40 33L39 33L39 34L38 34L38 33L37 33L37 32ZM63 32L63 33L64 33L64 32ZM33 33L33 35L34 35L34 33ZM41 33L41 34L42 34L42 33ZM45 33L45 34L44 34L44 35L45 35L45 34L46 34L46 33ZM52 33L52 34L53 34L53 33ZM6 34L6 35L7 35L7 34ZM48 34L48 35L49 35L49 34ZM24 35L24 36L26 36L26 35ZM52 35L52 36L53 36L53 35ZM71 35L71 36L74 36L74 35ZM5 36L5 37L7 37L7 36ZM17 36L17 37L18 37L18 38L19 38L19 37L18 37L18 36ZM64 36L64 39L63 39L63 40L61 40L61 42L62 42L62 41L63 41L63 42L66 42L66 40L67 40L67 41L68 41L68 40L67 40L67 39L66 39L66 40L65 40L65 41L63 41L63 40L64 40L64 39L65 39L65 38L66 38L66 36ZM76 36L76 37L77 37L77 36ZM31 38L31 39L29 39L29 40L30 40L30 41L31 41L31 39L32 39L32 38ZM39 40L39 41L38 41L38 42L39 42L39 41L40 41L40 40ZM58 40L58 41L57 41L57 42L59 42L59 40ZM19 41L19 43L17 43L17 42L14 42L14 43L13 43L13 45L11 45L11 46L12 46L12 47L13 47L13 48L14 48L14 49L15 49L15 48L16 48L16 47L17 47L17 44L19 44L19 43L20 43L20 44L21 44L21 42L20 42L20 41ZM44 41L44 42L45 42L45 41ZM10 43L10 44L11 44L11 43ZM15 43L15 45L13 45L13 47L15 47L15 46L16 46L16 44L17 44L17 43ZM33 43L33 44L32 44L32 46L31 46L31 47L32 47L32 48L30 48L30 46L28 46L28 47L26 47L26 48L24 48L24 47L25 47L25 46L23 46L23 48L22 48L22 45L23 45L23 44L22 44L22 45L21 45L21 46L19 46L19 45L18 45L18 46L19 46L19 47L21 47L21 48L22 48L22 49L20 49L20 50L21 50L21 51L20 51L20 52L21 52L21 51L22 51L22 50L23 50L23 52L22 52L22 53L23 53L23 54L24 54L24 53L25 53L25 54L27 54L27 55L29 55L29 54L30 54L30 53L32 53L32 54L33 54L33 53L36 53L36 52L34 52L34 50L35 50L35 49L34 49L34 48L36 48L36 49L37 49L37 48L38 48L38 50L39 50L39 53L40 53L40 52L41 52L41 54L42 54L42 53L43 53L43 52L44 52L44 54L46 54L46 55L47 55L47 53L45 53L45 52L46 52L46 50L45 50L45 49L46 49L46 48L47 48L47 47L44 47L44 46L45 46L45 44L46 44L46 43L43 43L43 44L42 44L42 43L41 43L41 44L42 44L42 45L38 45L38 46L36 46L36 45L35 45L35 44L34 44L34 43ZM55 43L55 44L56 44L56 43ZM57 43L57 45L56 45L56 46L58 46L58 47L59 47L59 46L58 46L58 45L59 45L59 44L60 44L60 43ZM33 44L33 45L34 45L34 44ZM74 44L74 45L75 45L75 44ZM42 45L42 46L41 46L41 47L40 47L40 46L38 46L38 48L39 48L39 49L40 49L40 48L41 48L41 49L42 49L42 50L41 50L41 52L43 52L43 51L45 51L45 50L43 50L43 49L45 49L45 48L44 48L44 47L42 47L42 46L44 46L44 45ZM32 46L32 47L33 47L33 48L32 48L32 49L31 49L31 51L30 51L30 49L29 49L29 52L31 52L31 51L32 51L32 50L33 50L33 48L34 48L34 47L36 47L36 48L37 48L37 47L36 47L36 46L34 46L34 47L33 47L33 46ZM28 47L28 48L29 48L29 47ZM39 47L39 48L40 48L40 47ZM41 47L41 48L42 48L42 49L43 49L43 48L42 48L42 47ZM23 48L23 50L24 50L24 48ZM69 48L69 50L71 50L71 49L70 49L70 48ZM3 49L3 50L2 50L2 52L1 52L1 53L2 53L2 52L4 52L4 51L3 51L3 50L4 50L4 49ZM5 49L5 52L8 52L8 49ZM16 49L16 50L15 50L15 51L16 51L16 53L17 53L17 51L19 51L19 50L17 50L17 49ZM25 49L25 52L28 52L28 49ZM49 49L49 52L52 52L52 49ZM73 49L73 52L76 52L76 49ZM6 50L6 51L7 51L7 50ZM26 50L26 51L27 51L27 50ZM42 50L42 51L43 51L43 50ZM50 50L50 51L51 51L51 50ZM74 50L74 51L75 51L75 50ZM67 51L67 52L69 52L69 51ZM23 52L23 53L24 53L24 52ZM32 52L32 53L33 53L33 52ZM78 52L78 53L79 53L79 52ZM28 53L28 54L29 54L29 53ZM6 54L6 55L5 55L5 57L7 57L7 56L9 56L9 57L8 57L8 58L5 58L5 59L7 59L7 60L6 60L6 61L7 61L7 62L8 62L8 59L9 59L9 61L11 61L11 59L12 59L12 57L11 57L11 56L9 56L9 54L8 54L8 55L7 55L7 54ZM59 54L59 55L60 55L60 54ZM69 54L69 55L70 55L70 54ZM6 55L6 56L7 56L7 55ZM18 55L18 56L19 56L19 57L20 57L20 56L19 56L19 55ZM10 57L10 59L11 59L11 57ZM24 57L24 58L25 58L25 57ZM29 57L29 59L28 59L28 58L27 58L27 59L25 59L25 60L27 60L27 61L28 61L28 62L29 62L29 61L30 61L30 59L31 59L31 58L30 58L30 57ZM57 57L57 60L56 60L56 61L55 61L55 62L56 62L56 63L57 63L57 62L58 62L58 63L59 63L59 62L60 62L60 63L61 63L61 61L59 61L59 62L58 62L58 61L57 61L57 60L60 60L60 59L59 59L59 58L58 58L58 57ZM60 57L60 58L61 58L61 59L62 59L62 58L61 58L61 57ZM32 59L32 61L33 61L33 62L30 62L30 65L31 65L31 64L32 64L32 63L33 63L33 64L35 64L35 63L33 63L33 62L35 62L35 59ZM33 60L33 61L34 61L34 60ZM56 61L56 62L57 62L57 61ZM9 62L9 63L10 63L10 62ZM19 62L19 63L20 63L20 62ZM24 62L24 63L25 63L25 62ZM52 62L52 63L53 63L53 62ZM28 63L28 64L29 64L29 63ZM36 63L36 64L38 64L38 65L39 65L39 64L38 64L38 63ZM1 64L1 65L0 65L0 66L1 66L1 67L2 67L2 68L0 68L0 70L1 70L1 73L4 73L4 72L2 72L2 71L4 71L4 70L1 70L1 69L3 69L3 67L2 67L2 66L1 66L1 65L2 65L2 64ZM40 64L40 65L41 65L41 66L40 66L40 67L39 67L39 68L41 68L41 66L42 66L42 65L41 65L41 64ZM47 65L47 66L48 66L48 65ZM15 66L15 67L16 67L16 66ZM30 66L30 67L31 67L31 66ZM53 66L53 67L52 67L52 68L53 68L53 67L54 67L54 66ZM60 66L60 67L59 67L59 68L60 68L60 67L62 67L62 66ZM11 67L11 69L12 69L12 70L13 70L13 72L11 72L11 73L13 73L13 72L14 72L14 68L13 68L13 67ZM12 68L12 69L13 69L13 68ZM29 68L29 69L30 69L30 68ZM66 68L66 69L67 69L67 68ZM17 69L17 72L18 72L18 69ZM40 69L40 70L41 70L41 71L42 71L42 70L41 70L41 69ZM69 69L69 70L70 70L70 69ZM33 70L33 71L32 71L32 72L33 72L33 73L34 73L34 74L35 74L35 73L36 73L36 72L39 72L39 71L37 71L37 70L36 70L36 72L35 72L35 71L34 71L34 70ZM6 71L6 72L7 72L7 71ZM34 72L34 73L35 73L35 72ZM78 72L78 73L77 73L77 75L79 75L79 74L80 74L80 73L79 73L79 72ZM22 73L22 75L21 75L21 76L22 76L22 77L23 77L23 76L24 76L24 74L23 74L23 73ZM25 73L25 76L28 76L28 73ZM31 73L31 74L32 74L32 73ZM37 73L37 74L38 74L38 73ZM49 73L49 76L52 76L52 73ZM57 73L57 74L58 74L58 73ZM73 73L73 76L76 76L76 73ZM78 73L78 74L79 74L79 73ZM26 74L26 75L27 75L27 74ZM39 74L39 75L40 75L40 74ZM50 74L50 75L51 75L51 74ZM74 74L74 75L75 75L75 74ZM13 75L13 76L14 76L14 75ZM22 75L22 76L23 76L23 75ZM45 75L45 76L47 76L47 77L48 77L48 76L47 76L47 75ZM57 75L57 78L58 78L58 75ZM71 75L71 77L70 77L70 78L69 78L69 79L70 79L70 78L73 78L73 77L72 77L72 75ZM8 76L8 79L9 79L9 81L13 81L13 80L11 80L11 78L10 78L10 77L9 77L9 76ZM15 77L15 78L14 78L14 79L15 79L15 78L17 78L17 77ZM44 77L44 79L46 79L46 78L45 78L45 77ZM78 77L78 80L79 80L79 81L80 81L80 80L79 80L79 77ZM9 78L9 79L10 79L10 78ZM50 79L50 80L51 80L51 79ZM62 80L62 81L64 81L64 80ZM74 80L74 81L76 81L76 80ZM0 0L0 7L7 7L7 0ZM1 1L1 6L6 6L6 1ZM2 2L2 5L5 5L5 2ZM74 0L74 7L81 7L81 0ZM75 1L75 6L80 6L80 1ZM76 2L76 5L79 5L79 2ZM0 74L0 81L7 81L7 74ZM1 75L1 80L6 80L6 75ZM2 76L2 79L5 79L5 76Z" fill="#000000"/></g></g></svg>
