<?xml version="1.0" encoding="UTF-8"?>
<svg xmlns="http://www.w3.org/2000/svg" version="1.1" width="200" height="200" viewBox="0 0 200 200"><rect x="0" y="0" width="200" height="200" fill="#ffffff"/><g transform="scale(2.469)"><g transform="translate(0,0)"><path fill-rule="evenodd" d="M8 0L8 3L9 3L9 4L10 4L10 5L8 5L8 9L9 9L9 10L6 10L6 9L7 9L7 8L6 8L6 9L5 9L5 8L2 8L2 10L3 10L3 11L4 11L4 10L6 10L6 11L8 11L8 12L4 12L4 13L3 13L3 12L2 12L2 11L0 11L0 12L2 12L2 13L1 13L1 14L2 14L2 15L1 15L1 16L0 16L0 19L1 19L1 20L0 20L0 24L3 24L3 25L0 25L0 26L1 26L1 27L0 27L0 31L1 31L1 34L0 34L0 35L1 35L1 36L2 36L2 35L1 35L1 34L3 34L3 37L0 37L0 38L1 38L1 39L0 39L0 44L1 44L1 46L0 46L0 47L1 47L1 46L2 46L2 48L0 48L0 49L2 49L2 50L1 50L1 51L0 51L0 52L2 52L2 53L0 53L0 55L2 55L2 54L3 54L3 55L5 55L5 56L6 56L6 57L5 57L5 58L4 58L4 57L3 57L3 56L2 56L2 57L0 57L0 58L1 58L1 60L2 60L2 58L3 58L3 60L4 60L4 62L3 62L3 61L0 61L0 64L1 64L1 65L0 65L0 66L1 66L1 67L0 67L0 70L1 70L1 73L4 73L4 72L2 72L2 71L4 71L4 70L3 70L3 69L2 69L2 70L1 70L1 67L2 67L2 66L3 66L3 67L4 67L4 68L5 68L5 70L6 70L6 71L5 71L5 72L6 72L6 73L7 73L7 72L8 72L8 74L9 74L9 75L10 75L10 76L11 76L11 77L13 77L13 78L12 78L12 79L13 79L13 78L14 78L14 79L17 79L17 78L18 78L18 80L17 80L17 81L19 81L19 78L20 78L20 80L24 80L24 79L23 79L23 77L25 77L25 78L26 78L26 77L27 77L27 79L25 79L25 80L26 80L26 81L32 81L32 80L33 80L33 81L34 81L34 80L35 80L35 79L34 79L34 78L35 78L35 77L38 77L38 78L36 78L36 80L37 80L37 81L39 81L39 80L40 80L40 79L39 79L39 80L38 80L38 78L42 78L42 77L43 77L43 75L44 75L44 77L45 77L45 78L46 78L46 79L41 79L41 80L42 80L42 81L44 81L44 80L45 80L45 81L46 81L46 80L47 80L47 78L48 78L48 77L52 77L52 78L53 78L53 76L54 76L54 77L55 77L55 78L54 78L54 80L52 80L52 79L51 79L51 78L49 78L49 79L48 79L48 81L49 81L49 80L50 80L50 81L55 81L55 80L56 80L56 79L57 79L57 81L58 81L58 80L60 80L60 81L61 81L61 79L63 79L63 78L64 78L64 79L66 79L66 80L62 80L62 81L66 81L66 80L67 80L67 78L65 78L65 77L64 77L64 76L66 76L66 77L67 77L67 76L69 76L69 75L66 75L66 74L68 74L68 73L66 73L66 74L65 74L65 75L64 75L64 73L65 73L65 72L63 72L63 71L66 71L66 72L69 72L69 74L70 74L70 75L72 75L72 77L73 77L73 78L70 78L70 77L71 77L71 76L70 76L70 77L68 77L68 80L70 80L70 79L71 79L71 81L73 81L73 80L72 80L72 79L75 79L75 78L74 78L74 77L76 77L76 78L78 78L78 80L79 80L79 81L80 81L80 80L79 80L79 77L80 77L80 76L79 76L79 75L80 75L80 74L81 74L81 72L80 72L80 70L81 70L81 69L80 69L80 70L79 70L79 69L78 69L78 68L79 68L79 67L80 67L80 68L81 68L81 67L80 67L80 66L81 66L81 64L80 64L80 62L81 62L81 61L80 61L80 60L81 60L81 59L80 59L80 58L81 58L81 56L79 56L79 55L77 55L77 56L75 56L75 53L78 53L78 54L79 54L79 53L80 53L80 54L81 54L81 52L80 52L80 50L81 50L81 49L80 49L80 50L79 50L79 49L78 49L78 52L77 52L77 48L79 48L79 47L80 47L80 46L81 46L81 45L80 45L80 42L81 42L81 41L80 41L80 40L79 40L79 39L77 39L77 40L79 40L79 41L78 41L78 43L77 43L77 42L76 42L76 43L75 43L75 40L74 40L74 39L75 39L75 37L76 37L76 38L77 38L77 37L78 37L78 38L79 38L79 37L78 37L78 36L79 36L79 35L80 35L80 38L81 38L81 35L80 35L80 34L81 34L81 32L80 32L80 31L76 31L76 30L77 30L77 28L79 28L79 29L78 29L78 30L81 30L81 28L79 28L79 27L77 27L77 25L78 25L78 26L79 26L79 25L78 25L78 24L79 24L79 23L78 23L78 22L81 22L81 19L80 19L80 21L77 21L77 20L79 20L79 18L81 18L81 17L77 17L77 16L79 16L79 15L81 15L81 13L80 13L80 14L79 14L79 13L78 13L78 12L81 12L81 11L79 11L79 10L81 10L81 8L78 8L78 10L76 10L76 8L73 8L73 9L74 9L74 10L76 10L76 11L72 11L72 13L73 13L73 12L75 12L75 13L74 13L74 14L75 14L75 15L74 15L74 16L76 16L76 17L73 17L73 16L72 16L72 15L71 15L71 14L70 14L70 13L69 13L69 12L71 12L71 11L69 11L69 10L71 10L71 9L72 9L72 7L73 7L73 6L72 6L72 5L71 5L71 6L70 6L70 8L69 8L69 5L70 5L70 4L71 4L71 2L72 2L72 4L73 4L73 1L69 1L69 2L70 2L70 3L69 3L69 4L67 4L67 3L68 3L68 2L67 2L67 3L66 3L66 4L67 4L67 6L66 6L66 5L65 5L65 4L64 4L64 5L65 5L65 6L64 6L64 7L65 7L65 6L66 6L66 8L68 8L68 9L69 9L69 10L67 10L67 12L66 12L66 13L67 13L67 12L68 12L68 13L69 13L69 14L70 14L70 15L71 15L71 17L73 17L73 18L75 18L75 19L74 19L74 20L76 20L76 21L75 21L75 22L76 22L76 23L74 23L74 21L73 21L73 23L74 23L74 24L72 24L72 23L71 23L71 22L70 22L70 19L67 19L67 18L68 18L68 17L67 17L67 16L69 16L69 15L68 15L68 14L67 14L67 15L66 15L66 14L65 14L65 11L66 11L66 10L64 10L64 8L63 8L63 6L62 6L62 5L63 5L63 3L65 3L65 2L63 2L63 3L62 3L62 1L61 1L61 0L60 0L60 1L61 1L61 3L62 3L62 5L60 5L60 4L59 4L59 5L58 5L58 2L59 2L59 3L60 3L60 2L59 2L59 0L54 0L54 1L53 1L53 3L52 3L52 0L50 0L50 1L51 1L51 3L50 3L50 2L49 2L49 3L50 3L50 4L48 4L48 5L47 5L47 6L46 6L46 7L47 7L47 6L48 6L48 9L46 9L46 8L45 8L45 9L46 9L46 10L44 10L44 13L42 13L42 12L41 12L41 11L40 11L40 12L41 12L41 13L42 13L42 14L40 14L40 13L39 13L39 12L38 12L38 11L37 11L37 10L39 10L39 9L37 9L37 10L35 10L35 9L36 9L36 8L35 8L35 5L38 5L38 7L37 7L37 6L36 6L36 7L37 7L37 8L38 8L38 7L39 7L39 5L41 5L41 6L40 6L40 8L41 8L41 9L40 9L40 10L42 10L42 11L43 11L43 10L42 10L42 9L44 9L44 8L42 8L42 7L43 7L43 6L42 6L42 5L44 5L44 4L47 4L47 3L48 3L48 2L47 2L47 1L48 1L48 0L46 0L46 2L44 2L44 4L42 4L42 3L43 3L43 0L42 0L42 3L41 3L41 0L39 0L39 1L38 1L38 0L36 0L36 1L35 1L35 2L34 2L34 0L30 0L30 1L31 1L31 3L30 3L30 4L28 4L28 2L29 2L29 1L28 1L28 2L27 2L27 0L26 0L26 1L24 1L24 0L23 0L23 1L22 1L22 2L23 2L23 4L24 4L24 8L23 8L23 5L22 5L22 4L21 4L21 5L20 5L20 4L19 4L19 2L18 2L18 1L17 1L17 0L15 0L15 1L16 1L16 3L14 3L14 5L17 5L17 6L16 6L16 9L17 9L17 10L15 10L15 9L14 9L14 8L15 8L15 6L14 6L14 8L13 8L13 5L12 5L12 7L11 7L11 6L10 6L10 5L11 5L11 4L12 4L12 2L13 2L13 1L14 1L14 0L13 0L13 1L12 1L12 0L11 0L11 2L10 2L10 1L9 1L9 0ZM19 0L19 1L20 1L20 2L21 2L21 1L20 1L20 0ZM44 0L44 1L45 1L45 0ZM66 0L66 1L67 1L67 0ZM23 1L23 2L24 2L24 3L25 3L25 4L27 4L27 3L26 3L26 2L24 2L24 1ZM32 1L32 2L33 2L33 3L34 3L34 2L33 2L33 1ZM36 1L36 2L37 2L37 4L38 4L38 2L37 2L37 1ZM54 1L54 2L55 2L55 3L54 3L54 4L53 4L53 5L54 5L54 6L53 6L53 8L54 8L54 6L55 6L55 7L56 7L56 8L55 8L55 11L56 11L56 12L54 12L54 11L53 11L53 14L52 14L52 11L50 11L50 12L51 12L51 15L52 15L52 16L54 16L54 15L55 15L55 13L56 13L56 16L55 16L55 17L51 17L51 16L50 16L50 17L48 17L48 19L47 19L47 18L42 18L42 16L43 16L43 17L45 17L45 16L49 16L49 15L50 15L50 14L49 14L49 15L45 15L45 14L48 14L48 12L49 12L49 10L47 10L47 11L45 11L45 12L47 12L47 13L44 13L44 14L43 14L43 15L40 15L40 14L39 14L39 15L37 15L37 11L35 11L35 12L34 12L34 11L33 11L33 12L31 12L31 11L30 11L30 14L31 14L31 13L34 13L34 14L35 14L35 15L33 15L33 14L32 14L32 15L30 15L30 19L29 19L29 15L28 15L28 14L29 14L29 13L28 13L28 12L29 12L29 11L28 11L28 12L27 12L27 10L28 10L28 9L22 9L22 10L18 10L18 11L16 11L16 12L18 12L18 13L15 13L15 11L14 11L14 9L13 9L13 8L11 8L11 7L10 7L10 6L9 6L9 8L11 8L11 9L13 9L13 11L12 11L12 10L10 10L10 11L12 11L12 13L10 13L10 12L8 12L8 13L4 13L4 14L5 14L5 15L6 15L6 16L7 16L7 17L6 17L6 18L8 18L8 19L5 19L5 18L4 18L4 19L5 19L5 21L3 21L3 18L2 18L2 21L1 21L1 23L2 23L2 21L3 21L3 22L4 22L4 24L5 24L5 21L6 21L6 22L7 22L7 21L6 21L6 20L8 20L8 19L9 19L9 20L10 20L10 19L9 19L9 18L8 18L8 16L9 16L9 17L11 17L11 18L12 18L12 19L13 19L13 17L12 17L12 15L13 15L13 16L14 16L14 17L15 17L15 16L14 16L14 15L13 15L13 14L12 14L12 13L15 13L15 15L18 15L18 17L19 17L19 18L18 18L18 19L19 19L19 20L18 20L18 21L17 21L17 16L16 16L16 18L15 18L15 20L16 20L16 23L17 23L17 24L16 24L16 28L15 28L15 27L13 27L13 26L15 26L15 22L14 22L14 24L13 24L13 23L12 23L12 22L13 22L13 21L11 21L11 23L10 23L10 21L9 21L9 22L8 22L8 24L9 24L9 26L10 26L10 27L9 27L9 29L10 29L10 30L11 30L11 29L10 29L10 28L12 28L12 29L13 29L13 28L15 28L15 29L14 29L14 30L13 30L13 31L10 31L10 34L8 34L8 33L9 33L9 32L8 32L8 31L6 31L6 30L8 30L8 29L4 29L4 28L3 28L3 27L2 27L2 28L1 28L1 31L2 31L2 29L3 29L3 30L5 30L5 32L7 32L7 33L4 33L4 32L2 32L2 33L3 33L3 34L5 34L5 35L4 35L4 37L3 37L3 38L5 38L5 40L7 40L7 39L8 39L8 38L9 38L9 40L8 40L8 41L9 41L9 40L11 40L11 41L12 41L12 42L10 42L10 45L9 45L9 43L8 43L8 44L7 44L7 43L6 43L6 42L7 42L7 41L5 41L5 43L6 43L6 44L7 44L7 45L6 45L6 46L7 46L7 47L5 47L5 46L4 46L4 42L2 42L2 43L3 43L3 45L2 45L2 46L3 46L3 48L4 48L4 47L5 47L5 48L8 48L8 46L7 46L7 45L9 45L9 46L10 46L10 47L9 47L9 49L10 49L10 53L6 53L6 54L5 54L5 55L6 55L6 56L7 56L7 57L6 57L6 58L5 58L5 59L4 59L4 60L5 60L5 62L4 62L4 63L3 63L3 62L1 62L1 64L2 64L2 63L3 63L3 64L4 64L4 65L3 65L3 66L4 66L4 65L5 65L5 64L7 64L7 65L6 65L6 66L8 66L8 64L9 64L9 66L11 66L11 70L13 70L13 72L14 72L14 69L12 69L12 66L11 66L11 65L12 65L12 64L10 64L10 63L11 63L11 62L10 62L10 61L9 61L9 59L10 59L10 60L11 60L11 61L15 61L15 63L13 63L13 62L12 62L12 63L13 63L13 64L15 64L15 65L14 65L14 66L13 66L13 68L14 68L14 67L15 67L15 68L17 68L17 69L16 69L16 70L15 70L15 72L17 72L17 73L16 73L16 76L17 76L17 75L18 75L18 74L19 74L19 75L21 75L21 76L19 76L19 77L18 77L18 78L19 78L19 77L20 77L20 78L21 78L21 79L22 79L22 78L21 78L21 76L22 76L22 77L23 77L23 76L24 76L24 74L23 74L23 73L22 73L22 75L21 75L21 74L19 74L19 73L20 73L20 72L22 72L22 70L23 70L23 72L26 72L26 71L27 71L27 72L28 72L28 71L29 71L29 72L30 72L30 71L31 71L31 73L30 73L30 74L31 74L31 77L30 77L30 76L29 76L29 77L28 77L28 78L29 78L29 79L27 79L27 80L29 80L29 79L31 79L31 77L32 77L32 74L33 74L33 78L34 78L34 77L35 77L35 75L34 75L34 74L36 74L36 76L38 76L38 77L39 77L39 76L40 76L40 75L41 75L41 73L44 73L44 74L46 74L46 73L44 73L44 72L43 72L43 71L44 71L44 70L43 70L43 71L40 71L40 70L42 70L42 69L44 69L44 68L43 68L43 67L44 67L44 66L45 66L45 68L46 68L46 69L47 69L47 68L48 68L48 69L49 69L49 70L48 70L48 71L47 71L47 70L45 70L45 71L47 71L47 72L50 72L50 71L49 71L49 70L51 70L51 72L54 72L54 73L56 73L56 74L57 74L57 75L56 75L56 76L55 76L55 75L54 75L54 74L53 74L53 75L54 75L54 76L55 76L55 77L56 77L56 78L55 78L55 79L56 79L56 78L57 78L57 79L59 79L59 78L60 78L60 77L61 77L61 78L62 78L62 77L63 77L63 76L64 76L64 75L63 75L63 73L61 73L61 74L62 74L62 75L61 75L61 76L59 76L59 75L60 75L60 74L59 74L59 73L60 73L60 72L59 72L59 71L58 71L58 70L59 70L59 69L60 69L60 71L61 71L61 72L62 72L62 71L63 71L63 69L62 69L62 67L63 67L63 66L67 66L67 65L68 65L68 67L70 67L70 70L69 70L69 69L68 69L68 68L67 68L67 67L64 67L64 68L65 68L65 69L64 69L64 70L66 70L66 71L71 71L71 73L70 73L70 74L72 74L72 71L73 71L73 72L74 72L74 71L75 71L75 72L77 72L77 74L78 74L78 73L79 73L79 74L80 74L80 73L79 73L79 72L77 72L77 71L78 71L78 70L77 70L77 69L75 69L75 68L77 68L77 65L75 65L75 63L76 63L76 64L78 64L78 67L79 67L79 66L80 66L80 64L78 64L78 61L79 61L79 60L78 60L78 57L79 57L79 58L80 58L80 57L79 57L79 56L77 56L77 57L75 57L75 56L74 56L74 57L73 57L73 58L74 58L74 57L75 57L75 58L77 58L77 59L76 59L76 60L78 60L78 61L75 61L75 59L74 59L74 60L73 60L73 59L72 59L72 58L71 58L71 57L72 57L72 56L70 56L70 58L69 58L69 57L68 57L68 56L67 56L67 57L68 57L68 59L69 59L69 60L67 60L67 58L66 58L66 55L67 55L67 54L68 54L68 53L70 53L70 52L71 52L71 53L72 53L72 54L71 54L71 55L73 55L73 53L72 53L72 49L71 49L71 47L70 47L70 46L69 46L69 45L68 45L68 44L67 44L67 43L70 43L70 44L71 44L71 43L74 43L74 44L73 44L73 45L71 45L71 46L72 46L72 47L73 47L73 45L74 45L74 48L75 48L75 45L77 45L77 46L76 46L76 47L77 47L77 46L78 46L78 45L79 45L79 44L75 44L75 43L74 43L74 42L72 42L72 41L73 41L73 40L72 40L72 41L71 41L71 39L73 39L73 38L72 38L72 37L74 37L74 36L75 36L75 34L74 34L74 33L72 33L72 34L71 34L71 35L70 35L70 34L69 34L69 33L68 33L68 32L66 32L66 31L70 31L70 32L71 32L71 31L70 31L70 30L64 30L64 29L65 29L65 26L67 26L67 27L66 27L66 29L68 29L68 28L67 28L67 27L70 27L70 26L69 26L69 25L71 25L71 27L72 27L72 25L71 25L71 23L68 23L68 22L69 22L69 21L68 21L68 20L67 20L67 19L64 19L64 18L66 18L66 15L60 15L60 12L61 12L61 11L59 11L59 9L60 9L60 8L59 8L59 9L58 9L58 5L57 5L57 4L56 4L56 3L57 3L57 2L58 2L58 1L57 1L57 2L56 2L56 1ZM9 2L9 3L10 3L10 4L11 4L11 3L10 3L10 2ZM17 2L17 3L18 3L18 2ZM39 2L39 3L40 3L40 2ZM31 3L31 4L30 4L30 6L29 6L29 9L31 9L31 10L33 10L33 8L34 8L34 6L33 6L33 4L32 4L32 3ZM35 3L35 4L36 4L36 3ZM41 4L41 5L42 5L42 4ZM54 4L54 5L55 5L55 4ZM18 5L18 6L17 6L17 7L18 7L18 9L21 9L21 8L19 8L19 7L20 7L20 5ZM21 5L21 7L22 7L22 5ZM25 5L25 8L28 8L28 5ZM49 5L49 8L52 8L52 5ZM56 5L56 7L57 7L57 5ZM59 5L59 7L60 7L60 5ZM18 6L18 7L19 7L19 6ZM26 6L26 7L27 7L27 6ZM30 6L30 8L31 8L31 6ZM32 6L32 7L33 7L33 6ZM41 6L41 7L42 7L42 6ZM44 6L44 7L45 7L45 6ZM50 6L50 7L51 7L51 6ZM61 6L61 8L62 8L62 6ZM67 6L67 7L68 7L68 6ZM71 6L71 7L72 7L72 6ZM56 8L56 10L58 10L58 9L57 9L57 8ZM51 9L51 10L52 10L52 9ZM53 9L53 10L54 10L54 9ZM61 9L61 10L62 10L62 11L63 11L63 12L64 12L64 10L63 10L63 9ZM22 10L22 11L24 11L24 12L23 12L23 13L22 13L22 12L21 12L21 11L19 11L19 12L20 12L20 15L21 15L21 14L22 14L22 15L24 15L24 13L27 13L27 14L26 14L26 15L25 15L25 16L26 16L26 15L27 15L27 14L28 14L28 13L27 13L27 12L25 12L25 10ZM57 11L57 12L58 12L58 11ZM76 11L76 12L78 12L78 11ZM2 13L2 14L3 14L3 13ZM8 13L8 15L11 15L11 14L10 14L10 13ZM57 13L57 14L58 14L58 13ZM61 13L61 14L62 14L62 13ZM75 13L75 14L77 14L77 13ZM6 14L6 15L7 15L7 14ZM18 14L18 15L19 15L19 14ZM53 14L53 15L54 15L54 14ZM3 15L3 16L1 16L1 17L3 17L3 16L4 16L4 15ZM32 15L32 16L31 16L31 17L32 17L32 19L31 19L31 20L30 20L30 23L32 23L32 22L33 22L33 21L32 21L32 22L31 22L31 20L32 20L32 19L33 19L33 20L34 20L34 21L35 21L35 22L36 22L36 21L40 21L40 22L37 22L37 23L35 23L35 24L37 24L37 25L36 25L36 26L34 26L34 25L33 25L33 24L34 24L34 23L33 23L33 24L32 24L32 25L33 25L33 27L34 27L34 28L35 28L35 27L36 27L36 28L37 28L37 30L43 30L43 31L42 31L42 33L41 33L41 31L37 31L37 32L36 32L36 34L35 34L35 35L37 35L37 34L38 34L38 33L41 33L41 34L39 34L39 35L40 35L40 38L37 38L37 39L36 39L36 38L35 38L35 37L34 37L34 38L32 38L32 36L31 36L31 38L29 38L29 39L31 39L31 41L29 41L29 42L28 42L28 41L27 41L27 40L28 40L28 36L27 36L27 37L26 37L26 38L27 38L27 39L26 39L26 40L25 40L25 37L24 37L24 35L25 35L25 33L23 33L23 32L25 32L25 29L26 29L26 30L27 30L27 31L26 31L26 32L27 32L27 33L26 33L26 34L27 34L27 33L28 33L28 35L29 35L29 37L30 37L30 35L32 35L32 34L31 34L31 33L30 33L30 32L32 32L32 33L33 33L33 35L34 35L34 33L33 33L33 32L35 32L35 31L32 31L32 30L31 30L31 31L30 31L30 30L27 30L27 29L29 29L29 27L30 27L30 28L32 28L32 27L31 27L31 26L30 26L30 25L31 25L31 24L30 24L30 25L29 25L29 23L28 23L28 22L27 22L27 23L26 23L26 22L25 22L25 20L26 20L26 19L27 19L27 18L28 18L28 16L27 16L27 18L25 18L25 17L24 17L24 16L22 16L22 17L24 17L24 18L23 18L23 19L22 19L22 18L21 18L21 17L20 17L20 16L19 16L19 17L20 17L20 18L21 18L21 19L20 19L20 20L21 20L21 21L19 21L19 22L18 22L18 26L17 26L17 28L16 28L16 29L15 29L15 31L13 31L13 33L12 33L12 32L11 32L11 34L10 34L10 36L9 36L9 38L10 38L10 39L11 39L11 40L12 40L12 39L13 39L13 38L12 38L12 37L17 37L17 36L18 36L18 37L19 37L19 36L20 36L20 35L21 35L21 38L20 38L20 41L19 41L19 39L17 39L17 40L16 40L16 38L14 38L14 39L15 39L15 40L13 40L13 42L14 42L14 43L13 43L13 45L11 45L11 46L12 46L12 47L11 47L11 48L10 48L10 49L12 49L12 50L11 50L11 51L12 51L12 53L15 53L15 54L14 54L14 55L13 55L13 54L11 54L11 53L10 53L10 56L9 56L9 54L6 54L6 55L7 55L7 56L9 56L9 57L8 57L8 58L6 58L6 59L7 59L7 60L6 60L6 61L7 61L7 62L5 62L5 63L7 63L7 64L8 64L8 63L7 63L7 62L8 62L8 59L9 59L9 58L11 58L11 59L12 59L12 57L13 57L13 60L14 60L14 59L15 59L15 57L18 57L18 60L20 60L20 58L19 58L19 57L20 57L20 56L18 56L18 55L19 55L19 54L20 54L20 55L22 55L22 56L23 56L23 55L22 55L22 53L23 53L23 54L24 54L24 53L25 53L25 54L27 54L27 55L24 55L24 56L25 56L25 59L27 59L27 60L24 60L24 57L23 57L23 59L22 59L22 60L23 60L23 61L27 61L27 62L26 62L26 64L28 64L28 63L29 63L29 67L28 67L28 68L27 68L27 67L26 67L26 68L27 68L27 69L28 69L28 70L29 70L29 71L30 71L30 69L31 69L31 70L32 70L32 69L31 69L31 68L33 68L33 66L34 66L34 69L33 69L33 70L34 70L34 71L32 71L32 72L33 72L33 73L36 73L36 72L39 72L39 71L36 71L36 70L34 70L34 69L37 69L37 68L39 68L39 69L38 69L38 70L40 70L40 69L42 69L42 66L41 66L41 65L42 65L42 64L43 64L43 65L44 65L44 64L45 64L45 63L44 63L44 60L45 60L45 59L44 59L44 60L43 60L43 61L42 61L42 60L41 60L41 59L40 59L40 58L39 58L39 57L40 57L40 56L42 56L42 55L40 55L40 54L39 54L39 53L40 53L40 52L43 52L43 53L41 53L41 54L43 54L43 57L44 57L44 58L45 58L45 57L46 57L46 58L48 58L48 59L49 59L49 57L48 57L48 56L47 56L47 57L46 57L46 55L47 55L47 54L48 54L48 55L49 55L49 56L50 56L50 54L52 54L52 55L51 55L51 56L52 56L52 57L55 57L55 56L61 56L61 55L64 55L64 56L63 56L63 58L64 58L64 56L65 56L65 55L66 55L66 54L67 54L67 53L66 53L66 52L65 52L65 51L66 51L66 50L64 50L64 48L65 48L65 47L66 47L66 49L67 49L67 48L68 48L68 47L69 47L69 46L68 46L68 45L67 45L67 46L68 46L68 47L66 47L66 46L65 46L65 47L64 47L64 48L62 48L62 50L61 50L61 51L59 51L59 50L60 50L60 49L59 49L59 48L61 48L61 47L62 47L62 46L61 46L61 45L62 45L62 43L64 43L64 44L63 44L63 46L64 46L64 45L65 45L65 44L66 44L66 43L67 43L67 42L70 42L70 43L71 43L71 41L70 41L70 40L68 40L68 39L67 39L67 35L69 35L69 36L68 36L68 37L69 37L69 38L70 38L70 39L71 39L71 37L70 37L70 35L69 35L69 34L67 34L67 33L66 33L66 34L61 34L61 33L60 33L60 35L64 35L64 36L63 36L63 38L61 38L61 39L60 39L60 37L61 37L61 36L59 36L59 35L57 35L57 34L59 34L59 32L61 32L61 31L63 31L63 30L61 30L61 29L62 29L62 28L61 28L61 29L60 29L60 30L59 30L59 29L58 29L58 28L60 28L60 27L62 27L62 26L63 26L63 25L64 25L64 26L65 26L65 25L64 25L64 24L68 24L68 25L69 25L69 24L68 24L68 23L66 23L66 22L63 22L63 21L64 21L64 20L63 20L63 17L64 17L64 16L63 16L63 17L62 17L62 18L61 18L61 16L60 16L60 18L61 18L61 19L62 19L62 20L61 20L61 21L58 21L58 20L60 20L60 19L58 19L58 20L57 20L57 22L59 22L59 24L62 24L62 23L64 23L64 24L63 24L63 25L62 25L62 26L60 26L60 27L56 27L56 26L58 26L58 24L57 24L57 25L56 25L56 26L55 26L55 25L54 25L54 24L56 24L56 23L54 23L54 22L56 22L56 21L55 21L55 20L56 20L56 19L57 19L57 18L58 18L58 17L57 17L57 16L56 16L56 17L55 17L55 18L52 18L52 19L51 19L51 18L50 18L50 19L48 19L48 22L47 22L47 23L48 23L48 24L43 24L43 25L41 25L41 24L40 24L40 25L39 25L39 23L40 23L40 22L42 22L42 23L44 23L44 20L45 20L45 19L42 19L42 18L41 18L41 19L42 19L42 20L43 20L43 22L42 22L42 21L41 21L41 20L40 20L40 17L37 17L37 15L36 15L36 16L34 16L34 17L33 17L33 15ZM43 15L43 16L44 16L44 15ZM58 15L58 16L59 16L59 15ZM76 15L76 16L77 16L77 15ZM34 17L34 19L37 19L37 17ZM56 17L56 18L55 18L55 19L56 19L56 18L57 18L57 17ZM69 17L69 18L70 18L70 17ZM38 18L38 20L39 20L39 18ZM77 18L77 19L76 19L76 20L77 20L77 19L78 19L78 18ZM24 19L24 20L23 20L23 21L24 21L24 20L25 20L25 19ZM28 19L28 20L29 20L29 19ZM46 19L46 21L45 21L45 23L46 23L46 21L47 21L47 19ZM50 19L50 20L51 20L51 19ZM52 19L52 22L54 22L54 19ZM71 19L71 20L72 20L72 19ZM35 20L35 21L36 21L36 20ZM62 20L62 21L61 21L61 22L60 22L60 23L61 23L61 22L62 22L62 21L63 21L63 20ZM76 21L76 22L77 22L77 21ZM19 22L19 24L20 24L20 26L19 26L19 27L20 27L20 29L18 29L18 28L17 28L17 29L16 29L16 30L17 30L17 29L18 29L18 30L20 30L20 31L19 31L19 33L18 33L18 31L17 31L17 32L16 32L16 31L15 31L15 33L13 33L13 34L15 34L15 33L16 33L16 35L15 35L15 36L17 36L17 35L18 35L18 36L19 36L19 35L20 35L20 34L21 34L21 35L22 35L22 36L23 36L23 35L24 35L24 34L23 34L23 33L22 33L22 32L23 32L23 31L24 31L24 30L23 30L23 28L24 28L24 27L22 27L22 26L23 26L23 23L24 23L24 24L25 24L25 23L24 23L24 22L22 22L22 24L20 24L20 23L21 23L21 22ZM6 23L6 24L7 24L7 23ZM9 23L9 24L10 24L10 26L11 26L11 27L12 27L12 28L13 28L13 27L12 27L12 26L13 26L13 25L12 25L12 26L11 26L11 24L10 24L10 23ZM37 23L37 24L38 24L38 23ZM52 23L52 24L53 24L53 23ZM76 23L76 24L77 24L77 23ZM80 23L80 24L81 24L81 23ZM3 25L3 26L4 26L4 25ZM5 25L5 28L8 28L8 25ZM21 25L21 26L20 26L20 27L21 27L21 28L22 28L22 27L21 27L21 26L22 26L22 25ZM25 25L25 28L28 28L28 25ZM37 25L37 27L38 27L38 25ZM40 25L40 26L39 26L39 27L40 27L40 28L38 28L38 29L40 29L40 28L41 28L41 29L42 29L42 28L41 28L41 27L40 27L40 26L41 26L41 25ZM44 25L44 27L46 27L46 25ZM49 25L49 28L52 28L52 25ZM53 25L53 26L54 26L54 27L53 27L53 28L55 28L55 30L54 30L54 29L47 29L47 28L43 28L43 30L45 30L45 29L47 29L47 30L48 30L48 32L47 32L47 31L46 31L46 33L45 33L45 32L44 32L44 34L43 34L43 33L42 33L42 34L41 34L41 35L42 35L42 37L41 37L41 38L40 38L40 39L38 39L38 40L37 40L37 41L38 41L38 42L36 42L36 43L38 43L38 45L36 45L36 44L35 44L35 39L34 39L34 41L33 41L33 40L32 40L32 42L33 42L33 43L31 43L31 46L29 46L29 45L30 45L30 43L29 43L29 45L27 45L27 44L28 44L28 42L27 42L27 41L26 41L26 42L27 42L27 44L25 44L25 41L24 41L24 37L23 37L23 42L21 42L21 41L20 41L20 42L21 42L21 44L20 44L20 43L19 43L19 41L18 41L18 43L17 43L17 42L16 42L16 43L15 43L15 45L13 45L13 47L12 47L12 48L13 48L13 49L14 49L14 51L13 51L13 50L12 50L12 51L13 51L13 52L14 52L14 51L15 51L15 53L16 53L16 54L15 54L15 56L17 56L17 55L16 55L16 54L19 54L19 53L16 53L16 52L17 52L17 51L15 51L15 49L14 49L14 48L13 48L13 47L16 47L16 49L17 49L17 50L18 50L18 49L17 49L17 47L16 47L16 46L15 46L15 45L18 45L18 46L21 46L21 45L22 45L22 48L21 48L21 47L18 47L18 48L19 48L19 52L20 52L20 53L22 53L22 52L23 52L23 51L24 51L24 49L23 49L23 50L22 50L22 51L21 51L21 50L20 50L20 49L22 49L22 48L24 48L24 47L23 47L23 46L24 46L24 44L25 44L25 48L26 48L26 47L27 47L27 48L28 48L28 47L27 47L27 46L29 46L29 48L30 48L30 49L29 49L29 52L31 52L31 51L32 51L32 50L33 50L33 48L34 48L34 49L35 49L35 50L34 50L34 51L35 51L35 53L34 53L34 52L32 52L32 53L30 53L30 54L29 54L29 55L28 55L28 57L27 57L27 56L26 56L26 57L27 57L27 59L28 59L28 58L29 58L29 60L28 60L28 61L30 61L30 59L31 59L31 58L30 58L30 57L29 57L29 55L30 55L30 56L31 56L31 55L32 55L32 56L33 56L33 54L34 54L34 55L37 55L37 56L38 56L38 57L35 57L35 56L34 56L34 58L37 58L37 59L36 59L36 60L35 60L35 59L32 59L32 61L34 61L34 63L33 63L33 62L30 62L30 65L31 65L31 64L32 64L32 63L33 63L33 65L32 65L32 66L33 66L33 65L34 65L34 66L35 66L35 68L36 68L36 67L39 67L39 68L41 68L41 66L40 66L40 67L39 67L39 66L37 66L37 65L36 65L36 66L35 66L35 61L36 61L36 60L37 60L37 62L38 62L38 61L39 61L39 60L40 60L40 62L39 62L39 63L41 63L41 62L42 62L42 63L43 63L43 62L42 62L42 61L41 61L41 60L40 60L40 59L38 59L38 57L39 57L39 56L40 56L40 55L38 55L38 54L37 54L37 52L36 52L36 51L37 51L37 50L38 50L38 49L40 49L40 48L41 48L41 49L42 49L42 50L41 50L41 51L42 51L42 50L43 50L43 49L44 49L44 51L43 51L43 52L44 52L44 51L45 51L45 48L46 48L46 49L48 49L48 48L49 48L49 47L50 47L50 48L51 48L51 47L53 47L53 46L55 46L55 47L54 47L54 49L55 49L55 50L53 50L53 51L55 51L55 50L57 50L57 52L58 52L58 53L60 53L60 52L59 52L59 51L58 51L58 50L57 50L57 49L56 49L56 48L55 48L55 47L57 47L57 48L59 48L59 47L61 47L61 46L60 46L60 45L61 45L61 43L60 43L60 40L55 40L55 43L53 43L53 42L54 42L54 41L53 41L53 42L51 42L51 41L52 41L52 40L54 40L54 39L53 39L53 38L54 38L54 37L53 37L53 36L54 36L54 35L52 35L52 36L51 36L51 38L52 38L52 39L51 39L51 40L50 40L50 39L49 39L49 38L48 38L48 37L47 37L47 33L48 33L48 32L49 32L49 30L51 30L51 31L50 31L50 32L52 32L52 30L54 30L54 31L53 31L53 34L55 34L55 35L56 35L56 34L57 34L57 33L58 33L58 32L54 32L54 31L55 31L55 30L57 30L57 29L56 29L56 28L55 28L55 26L54 26L54 25ZM73 25L73 28L76 28L76 25ZM80 25L80 26L81 26L81 25ZM6 26L6 27L7 27L7 26ZM26 26L26 27L27 27L27 26ZM42 26L42 27L43 27L43 26ZM50 26L50 27L51 27L51 26ZM74 26L74 27L75 27L75 26ZM63 28L63 29L64 29L64 28ZM69 28L69 29L71 29L71 30L72 30L72 31L73 31L73 30L72 30L72 28ZM21 29L21 30L22 30L22 31L23 31L23 30L22 30L22 29ZM33 29L33 30L35 30L35 29ZM74 29L74 32L75 32L75 33L77 33L77 35L78 35L78 33L79 33L79 34L80 34L80 33L79 33L79 32L75 32L75 29ZM58 30L58 31L59 31L59 30ZM60 30L60 31L61 31L61 30ZM27 31L27 32L29 32L29 31ZM37 32L37 33L38 33L38 32ZM63 32L63 33L64 33L64 32ZM19 33L19 34L18 34L18 35L19 35L19 34L20 34L20 33ZM29 33L29 35L30 35L30 33ZM49 33L49 34L48 34L48 36L50 36L50 35L51 35L51 34L52 34L52 33ZM6 34L6 35L7 35L7 36L5 36L5 37L7 37L7 36L8 36L8 34ZM44 34L44 35L46 35L46 34ZM49 34L49 35L50 35L50 34ZM11 35L11 36L10 36L10 37L12 37L12 36L14 36L14 35ZM65 35L65 36L64 36L64 39L63 39L63 40L61 40L61 42L62 42L62 41L63 41L63 42L66 42L66 40L67 40L67 41L68 41L68 40L67 40L67 39L65 39L65 38L66 38L66 37L65 37L65 36L66 36L66 35ZM71 35L71 36L74 36L74 35ZM36 36L36 37L37 37L37 36ZM55 36L55 39L59 39L59 36L57 36L57 37L58 37L58 38L56 38L56 36ZM76 36L76 37L77 37L77 36ZM42 37L42 38L41 38L41 39L40 39L40 40L38 40L38 41L40 41L40 40L41 40L41 42L42 42L42 43L41 43L41 44L42 44L42 45L40 45L40 46L39 46L39 48L40 48L40 47L41 47L41 48L42 48L42 49L43 49L43 48L45 48L45 47L44 47L44 46L45 46L45 45L49 45L49 46L48 46L48 47L49 47L49 46L53 46L53 45L54 45L54 44L51 44L51 45L49 45L49 43L51 43L51 42L50 42L50 41L49 41L49 42L47 42L47 40L48 40L48 38L47 38L47 37L45 37L45 38L43 38L43 37ZM52 37L52 38L53 38L53 37ZM6 38L6 39L7 39L7 38ZM45 38L45 39L46 39L46 40L47 40L47 39L46 39L46 38ZM3 39L3 40L2 40L2 41L4 41L4 39ZM42 39L42 40L43 40L43 43L42 43L42 44L43 44L43 43L45 43L45 44L47 44L47 42L44 42L44 41L45 41L45 40L43 40L43 39ZM64 39L64 40L63 40L63 41L65 41L65 39ZM15 40L15 41L14 41L14 42L15 42L15 41L16 41L16 40ZM57 41L57 42L58 42L58 41ZM23 42L23 43L24 43L24 42ZM18 43L18 44L19 44L19 43ZM33 43L33 44L32 44L32 45L33 45L33 47L32 47L32 48L31 48L31 47L30 47L30 48L31 48L31 49L30 49L30 51L31 51L31 49L32 49L32 48L33 48L33 47L34 47L34 48L35 48L35 49L36 49L36 50L35 50L35 51L36 51L36 50L37 50L37 49L36 49L36 48L37 48L37 47L38 47L38 46L36 46L36 45L35 45L35 44L34 44L34 43ZM39 43L39 44L40 44L40 43ZM55 43L55 44L56 44L56 43ZM57 43L57 45L56 45L56 46L58 46L58 47L59 47L59 46L58 46L58 45L59 45L59 44L60 44L60 43ZM22 44L22 45L23 45L23 44ZM33 44L33 45L34 45L34 44ZM74 44L74 45L75 45L75 44ZM42 45L42 46L41 46L41 47L42 47L42 48L43 48L43 47L42 47L42 46L44 46L44 45ZM34 46L34 47L35 47L35 48L36 48L36 46ZM46 46L46 48L47 48L47 46ZM69 48L69 50L70 50L70 48ZM3 49L3 50L2 50L2 52L4 52L4 51L3 51L3 50L4 50L4 49ZM5 49L5 52L8 52L8 49ZM25 49L25 52L28 52L28 49ZM49 49L49 52L52 52L52 49ZM73 49L73 52L76 52L76 49ZM6 50L6 51L7 51L7 50ZM26 50L26 51L27 51L27 50ZM47 50L47 51L46 51L46 52L45 52L45 53L47 53L47 52L48 52L48 50ZM50 50L50 51L51 51L51 50ZM62 50L62 51L61 51L61 52L62 52L62 53L61 53L61 54L62 54L62 53L63 53L63 52L62 52L62 51L63 51L63 50ZM74 50L74 51L75 51L75 50ZM20 51L20 52L21 52L21 51ZM38 51L38 53L39 53L39 51ZM67 51L67 52L69 52L69 51ZM53 52L53 55L52 55L52 56L53 56L53 55L54 55L54 52ZM55 52L55 54L56 54L56 55L57 55L57 53L56 53L56 52ZM78 52L78 53L79 53L79 52ZM27 53L27 54L28 54L28 53ZM32 53L32 54L33 54L33 53ZM48 53L48 54L50 54L50 53ZM64 53L64 55L65 55L65 54L66 54L66 53ZM45 54L45 55L46 55L46 54ZM59 54L59 55L60 55L60 54ZM69 54L69 55L70 55L70 54ZM10 56L10 57L12 57L12 56ZM13 56L13 57L14 57L14 56ZM56 57L56 58L57 58L57 60L60 60L60 59L59 59L59 58L58 58L58 57ZM60 57L60 58L61 58L61 59L62 59L62 60L63 60L63 61L62 61L62 62L63 62L63 63L62 63L62 64L60 64L60 63L61 63L61 61L59 61L59 62L58 62L58 61L57 61L57 62L58 62L58 63L59 63L59 64L58 64L58 65L57 65L57 63L55 63L55 64L56 64L56 65L54 65L54 64L52 64L52 63L54 63L54 62L56 62L56 61L55 61L55 60L56 60L56 59L55 59L55 60L53 60L53 59L54 59L54 58L50 58L50 59L51 59L51 60L47 60L47 62L46 62L46 64L47 64L47 65L46 65L46 66L47 66L47 67L49 67L49 68L50 68L50 67L51 67L51 70L52 70L52 71L53 71L53 70L55 70L55 71L54 71L54 72L56 72L56 71L57 71L57 72L58 72L58 71L57 71L57 70L58 70L58 69L56 69L56 68L58 68L58 67L56 67L56 68L55 68L55 69L53 69L53 68L54 68L54 66L58 66L58 65L59 65L59 64L60 64L60 65L62 65L62 64L63 64L63 65L64 65L64 64L63 64L63 63L66 63L66 62L67 62L67 64L66 64L66 65L67 65L67 64L68 64L68 65L69 65L69 66L70 66L70 67L71 67L71 66L72 66L72 67L73 67L73 68L71 68L71 70L73 70L73 68L74 68L74 66L75 66L75 67L76 67L76 66L75 66L75 65L74 65L74 63L73 63L73 62L75 62L75 61L72 61L72 59L70 59L70 61L71 61L71 62L69 62L69 61L67 61L67 60L66 60L66 62L63 62L63 61L65 61L65 60L63 60L63 59L62 59L62 58L61 58L61 57ZM16 58L16 60L17 60L17 58ZM65 58L65 59L66 59L66 58ZM34 60L34 61L35 61L35 60ZM52 60L52 61L51 61L51 63L52 63L52 62L53 62L53 60ZM16 61L16 62L18 62L18 65L17 65L17 63L15 63L15 64L16 64L16 66L15 66L15 67L16 67L16 66L17 66L17 67L18 67L18 68L20 68L20 67L21 67L21 68L23 68L23 67L24 67L24 66L26 66L26 65L23 65L23 64L24 64L24 63L25 63L25 62L24 62L24 63L23 63L23 62L22 62L22 61ZM49 61L49 62L47 62L47 63L48 63L48 65L47 65L47 66L48 66L48 65L49 65L49 64L50 64L50 65L51 65L51 66L52 66L52 65L51 65L51 64L50 64L50 61ZM9 62L9 63L10 63L10 62ZM19 62L19 63L20 63L20 65L21 65L21 64L22 64L22 63L20 63L20 62ZM59 62L59 63L60 63L60 62ZM68 62L68 64L69 64L69 62ZM71 62L71 63L70 63L70 64L71 64L71 65L72 65L72 64L71 64L71 63L72 63L72 62ZM37 63L37 64L38 64L38 65L39 65L39 64L38 64L38 63ZM40 64L40 65L41 65L41 64ZM27 65L27 66L28 66L28 65ZM53 65L53 66L54 66L54 65ZM73 65L73 66L74 66L74 65ZM19 66L19 67L20 67L20 66ZM22 66L22 67L23 67L23 66ZM30 66L30 67L31 67L31 66ZM49 66L49 67L50 67L50 66ZM60 66L60 67L59 67L59 68L60 68L60 67L62 67L62 66ZM6 67L6 68L9 68L9 69L6 69L6 70L8 70L8 71L10 71L10 67ZM52 67L52 68L53 68L53 67ZM24 68L24 69L23 69L23 70L24 70L24 69L25 69L25 68ZM29 68L29 69L30 69L30 68ZM66 68L66 69L67 69L67 68ZM17 69L17 72L18 72L18 69ZM19 69L19 72L20 72L20 71L21 71L21 70L22 70L22 69L21 69L21 70L20 70L20 69ZM74 69L74 70L75 70L75 69ZM61 70L61 71L62 71L62 70ZM6 71L6 72L7 72L7 71ZM35 71L35 72L36 72L36 71ZM11 73L11 74L14 74L14 77L15 77L15 78L17 78L17 77L15 77L15 73ZM25 73L25 76L28 76L28 73ZM31 73L31 74L32 74L32 73ZM37 73L37 74L38 74L38 73ZM49 73L49 76L52 76L52 73ZM57 73L57 74L58 74L58 73ZM73 73L73 76L76 76L76 73ZM26 74L26 75L27 75L27 74ZM39 74L39 75L40 75L40 74ZM50 74L50 75L51 75L51 74ZM74 74L74 75L75 75L75 74ZM11 75L11 76L12 76L12 75ZM45 75L45 76L47 76L47 77L48 77L48 76L47 76L47 75ZM57 75L57 78L58 78L58 75ZM62 75L62 76L63 76L63 75ZM77 75L77 76L78 76L78 77L79 77L79 76L78 76L78 75ZM8 76L8 79L9 79L9 81L11 81L11 78L10 78L10 77L9 77L9 76ZM41 76L41 77L42 77L42 76ZM29 77L29 78L30 78L30 77ZM9 78L9 79L10 79L10 78ZM69 78L69 79L70 79L70 78ZM50 79L50 80L51 80L51 79ZM74 80L74 81L76 81L76 80ZM0 0L0 7L7 7L7 0ZM1 1L1 6L6 6L6 1ZM2 2L2 5L5 5L5 2ZM74 0L74 7L81 7L81 0ZM75 1L75 6L80 6L80 1ZM76 2L76 5L79 5L79 2ZM0 74L0 81L7 81L7 74ZM1 75L1 80L6 80L6 75ZM2 76L2 79L5 79L5 76Z" fill="#000000"/></g></g></svg>
