<?xml version="1.0" encoding="UTF-8"?>
<svg xmlns="http://www.w3.org/2000/svg" version="1.1" width="200" height="200" viewBox="0 0 200 200"><rect x="0" y="0" width="200" height="200" fill="#ffffff"/><g transform="scale(2.469)"><g transform="translate(0,0)"><path fill-rule="evenodd" d="M9 0L9 1L8 1L8 7L9 7L9 5L10 5L10 8L5 8L5 9L9 9L9 11L10 11L10 12L11 12L11 14L10 14L10 13L9 13L9 12L6 12L6 11L7 11L7 10L4 10L4 12L3 12L3 13L5 13L5 14L2 14L2 13L0 13L0 15L1 15L1 16L0 16L0 17L1 17L1 16L2 16L2 17L4 17L4 16L2 16L2 15L8 15L8 17L9 17L9 16L11 16L11 17L10 17L10 18L8 18L8 20L6 20L6 21L7 21L7 22L6 22L6 23L9 23L9 22L8 22L8 21L9 21L9 19L10 19L10 18L11 18L11 17L12 17L12 16L13 16L13 14L14 14L14 16L15 16L15 17L14 17L14 18L18 18L18 21L19 21L19 20L20 20L20 22L21 22L21 24L20 24L20 23L19 23L19 22L17 22L17 23L15 23L15 24L16 24L16 25L17 25L17 24L18 24L18 23L19 23L19 25L18 25L18 26L16 26L16 27L17 27L17 28L16 28L16 29L15 29L15 28L14 28L14 27L15 27L15 25L14 25L14 24L13 24L13 25L12 25L12 23L13 23L13 22L14 22L14 21L15 21L15 22L16 22L16 21L17 21L17 20L15 20L15 19L14 19L14 21L13 21L13 20L12 20L12 19L13 19L13 18L12 18L12 19L11 19L11 21L13 21L13 22L12 22L12 23L11 23L11 22L10 22L10 23L11 23L11 24L10 24L10 26L9 26L9 24L4 24L4 22L3 22L3 21L2 21L2 20L4 20L4 21L5 21L5 18L6 18L6 19L7 19L7 18L6 18L6 17L7 17L7 16L6 16L6 17L5 17L5 18L3 18L3 19L2 19L2 20L1 20L1 19L0 19L0 21L2 21L2 22L0 22L0 23L3 23L3 25L2 25L2 24L0 24L0 25L2 25L2 27L3 27L3 25L4 25L4 29L7 29L7 30L2 30L2 31L1 31L1 34L0 34L0 36L1 36L1 37L2 37L2 38L0 38L0 41L3 41L3 42L1 42L1 47L0 47L0 48L1 48L1 49L0 49L0 51L1 51L1 52L2 52L2 54L1 54L1 55L0 55L0 56L1 56L1 57L0 57L0 61L1 61L1 63L0 63L0 64L1 64L1 63L2 63L2 61L3 61L3 60L4 60L4 61L5 61L5 62L6 62L6 63L7 63L7 64L5 64L5 65L7 65L7 64L8 64L8 65L9 65L9 67L11 67L11 66L10 66L10 64L9 64L9 63L7 63L7 62L6 62L6 61L9 61L9 62L10 62L10 60L6 60L6 59L8 59L8 58L9 58L9 59L11 59L11 60L12 60L12 59L13 59L13 57L14 57L14 58L15 58L15 59L14 59L14 60L13 60L13 61L12 61L12 62L11 62L11 63L12 63L12 62L13 62L13 63L16 63L16 65L17 65L17 66L16 66L16 67L17 67L17 68L18 68L18 69L20 69L20 68L19 68L19 67L18 67L18 64L19 64L19 65L20 65L20 64L21 64L21 67L23 67L23 69L21 69L21 70L19 70L19 71L18 71L18 70L17 70L17 69L16 69L16 68L15 68L15 69L16 69L16 70L15 70L15 72L14 72L14 71L13 71L13 69L12 69L12 68L13 68L13 67L15 67L15 66L13 66L13 65L12 65L12 68L8 68L8 67L7 67L7 66L5 66L5 67L7 67L7 68L4 68L4 66L3 66L3 67L2 67L2 66L0 66L0 69L1 69L1 68L2 68L2 69L3 69L3 70L1 70L1 73L4 73L4 72L2 72L2 71L4 71L4 69L7 69L7 70L6 70L6 71L5 71L5 72L6 72L6 73L8 73L8 76L10 76L10 79L9 79L9 78L8 78L8 79L9 79L9 80L10 80L10 79L11 79L11 81L12 81L12 77L11 77L11 75L12 75L12 76L13 76L13 77L14 77L14 78L13 78L13 81L18 81L18 79L16 79L16 80L15 80L15 77L14 77L14 76L13 76L13 74L17 74L17 75L15 75L15 76L17 76L17 78L20 78L20 79L19 79L19 80L20 80L20 81L22 81L22 80L21 80L21 78L22 78L22 79L23 79L23 80L24 80L24 79L23 79L23 77L24 77L24 78L25 78L25 81L30 81L30 80L31 80L31 81L33 81L33 80L37 80L37 81L38 81L38 80L40 80L40 81L41 81L41 80L43 80L43 81L45 81L45 79L46 79L46 80L48 80L48 81L49 81L49 80L51 80L51 81L52 81L52 80L54 80L54 81L57 81L57 80L58 80L58 81L69 81L69 79L68 79L68 80L67 80L67 78L68 78L68 76L70 76L70 75L69 75L69 73L70 73L70 72L71 72L71 73L72 73L72 76L71 76L71 77L72 77L72 79L71 79L71 80L70 80L70 81L71 81L71 80L72 80L72 81L74 81L74 80L73 80L73 77L75 77L75 78L74 78L74 79L75 79L75 81L78 81L78 80L76 80L76 79L78 79L78 78L77 78L77 71L78 71L78 69L77 69L77 70L76 70L76 67L77 67L77 68L78 68L78 66L79 66L79 67L81 67L81 65L80 65L80 63L81 63L81 60L80 60L80 61L79 61L79 62L78 62L78 63L79 63L79 64L78 64L78 66L76 66L76 67L75 67L75 65L76 65L76 64L74 64L74 66L72 66L72 65L73 65L73 64L72 64L72 63L73 63L73 62L75 62L75 63L77 63L77 62L76 62L76 60L74 60L74 58L75 58L75 59L77 59L77 58L78 58L78 55L77 55L77 54L76 54L76 55L75 55L75 56L74 56L74 54L75 54L75 53L77 53L77 51L80 51L80 52L79 52L79 54L80 54L80 55L79 55L79 57L80 57L80 59L81 59L81 56L80 56L80 55L81 55L81 53L80 53L80 52L81 52L81 44L80 44L80 46L79 46L79 45L78 45L78 43L77 43L77 42L76 42L76 41L78 41L78 39L79 39L79 40L80 40L80 43L81 43L81 40L80 40L80 39L81 39L81 36L80 36L80 35L81 35L81 32L80 32L80 31L81 31L81 29L80 29L80 30L79 30L79 32L78 32L78 30L77 30L77 31L76 31L76 33L75 33L75 34L74 34L74 32L73 32L73 34L74 34L74 35L73 35L73 36L72 36L72 34L71 34L71 33L72 33L72 32L71 32L71 31L70 31L70 32L71 32L71 33L70 33L70 34L71 34L71 36L72 36L72 37L73 37L73 38L74 38L74 39L73 39L73 40L72 40L72 38L71 38L71 39L70 39L70 40L69 40L69 41L70 41L70 42L71 42L71 44L70 44L70 43L69 43L69 42L67 42L67 41L68 41L68 39L67 39L67 40L66 40L66 42L67 42L67 45L66 45L66 43L65 43L65 42L64 42L64 40L65 40L65 39L64 39L64 38L63 38L63 37L64 37L64 36L65 36L65 37L66 37L66 36L65 36L65 34L63 34L63 33L64 33L64 32L65 32L65 33L66 33L66 32L67 32L67 33L68 33L68 32L69 32L69 30L67 30L67 29L68 29L68 28L69 28L69 29L70 29L70 30L71 30L71 28L69 28L69 26L68 26L68 25L69 25L69 23L70 23L70 22L67 22L67 21L68 21L68 20L69 20L69 21L71 21L71 20L69 20L69 18L68 18L68 16L70 16L70 17L71 17L71 16L72 16L72 18L70 18L70 19L72 19L72 20L73 20L73 21L72 21L72 22L71 22L71 23L72 23L72 26L71 26L71 27L72 27L72 30L73 30L73 31L74 31L74 30L73 30L73 29L75 29L75 30L76 30L76 29L77 29L77 28L78 28L78 26L77 26L77 25L78 25L78 23L81 23L81 21L78 21L78 19L79 19L79 18L78 18L78 15L79 15L79 13L78 13L78 11L79 11L79 9L80 9L80 14L81 14L81 9L80 9L80 8L75 8L75 9L78 9L78 10L77 10L77 13L78 13L78 14L77 14L77 17L76 17L76 18L75 18L75 15L76 15L76 10L74 10L74 8L73 8L73 6L72 6L72 5L71 5L71 6L70 6L70 4L71 4L71 2L72 2L72 4L73 4L73 1L70 1L70 4L69 4L69 3L68 3L68 4L67 4L67 1L68 1L68 0L67 0L67 1L66 1L66 0L64 0L64 1L63 1L63 0L57 0L57 3L58 3L58 2L59 2L59 1L61 1L61 2L62 2L62 4L61 4L61 5L60 5L60 4L57 4L57 5L54 5L54 4L53 4L53 3L55 3L55 4L56 4L56 2L55 2L55 0L53 0L53 1L52 1L52 4L50 4L50 3L51 3L51 1L50 1L50 0L48 0L48 1L46 1L46 0L42 0L42 1L43 1L43 2L44 2L44 1L45 1L45 3L42 3L42 2L41 2L41 1L39 1L39 3L38 3L38 2L36 2L36 1L35 1L35 2L34 2L34 1L33 1L33 2L32 2L32 0L31 0L31 2L30 2L30 1L29 1L29 0L28 0L28 2L30 2L30 5L29 5L29 4L28 4L28 3L26 3L26 4L24 4L24 3L25 3L25 2L26 2L26 1L27 1L27 0L26 0L26 1L25 1L25 0L23 0L23 2L22 2L22 0L21 0L21 1L19 1L19 2L18 2L18 0L14 0L14 2L13 2L13 1L12 1L12 0L11 0L11 1L10 1L10 0ZM37 0L37 1L38 1L38 0ZM16 1L16 2L15 2L15 3L13 3L13 5L11 5L11 4L12 4L12 3L11 3L11 2L10 2L10 3L9 3L9 4L10 4L10 5L11 5L11 8L10 8L10 10L11 10L11 11L12 11L12 14L13 14L13 13L14 13L14 14L15 14L15 13L16 13L16 15L17 15L17 16L18 16L18 17L20 17L20 16L21 16L21 17L22 17L22 16L23 16L23 15L24 15L24 16L26 16L26 17L24 17L24 19L23 19L23 18L22 18L22 19L21 19L21 21L23 21L23 22L22 22L22 24L21 24L21 25L22 25L22 24L23 24L23 27L22 27L22 28L21 28L21 30L22 30L22 34L21 34L21 32L17 32L17 31L14 31L14 30L15 30L15 29L13 29L13 28L12 28L12 27L13 27L13 26L14 26L14 25L13 25L13 26L10 26L10 27L9 27L9 29L10 29L10 30L13 30L13 34L14 34L14 35L15 35L15 37L16 37L16 39L15 39L15 38L14 38L14 39L13 39L13 38L12 38L12 37L13 37L13 35L12 35L12 36L11 36L11 39L9 39L9 40L8 40L8 38L10 38L10 37L6 37L6 36L9 36L9 35L10 35L10 34L11 34L11 33L12 33L12 32L11 32L11 33L9 33L9 34L7 34L7 33L8 33L8 32L9 32L9 30L7 30L7 31L6 31L6 32L7 32L7 33L5 33L5 31L4 31L4 35L5 35L5 34L7 34L7 35L6 35L6 36L5 36L5 37L6 37L6 38L4 38L4 37L3 37L3 35L2 35L2 34L1 34L1 36L2 36L2 37L3 37L3 38L2 38L2 39L3 39L3 38L4 38L4 39L6 39L6 40L3 40L3 41L4 41L4 42L5 42L5 43L3 43L3 44L2 44L2 45L3 45L3 44L4 44L4 45L6 45L6 46L5 46L5 47L6 47L6 48L8 48L8 47L6 47L6 46L7 46L7 45L8 45L8 46L10 46L10 47L12 47L12 46L13 46L13 48L11 48L11 49L12 49L12 50L13 50L13 51L11 51L11 52L13 52L13 53L11 53L11 54L10 54L10 51L9 51L9 54L8 54L8 53L3 53L3 54L2 54L2 55L1 55L1 56L3 56L3 58L2 58L2 57L1 57L1 59L6 59L6 58L7 58L7 57L6 57L6 56L8 56L8 57L10 57L10 55L11 55L11 56L14 56L14 55L13 55L13 53L14 53L14 54L16 54L16 52L17 52L17 49L19 49L19 48L20 48L20 49L21 49L21 50L23 50L23 51L21 51L21 52L20 52L20 51L19 51L19 50L18 50L18 52L19 52L19 53L21 53L21 55L20 55L20 56L17 56L17 55L16 55L16 56L15 56L15 58L16 58L16 57L19 57L19 58L21 58L21 57L20 57L20 56L21 56L21 55L23 55L23 59L20 59L20 60L19 60L19 59L18 59L18 61L19 61L19 62L18 62L18 63L17 63L17 59L16 59L16 61L15 61L15 60L14 60L14 61L13 61L13 62L14 62L14 61L15 61L15 62L16 62L16 63L17 63L17 64L18 64L18 63L19 63L19 64L20 64L20 63L22 63L22 66L23 66L23 67L24 67L24 68L25 68L25 67L26 67L26 68L27 68L27 69L26 69L26 70L27 70L27 71L28 71L28 72L29 72L29 76L30 76L30 77L29 77L29 78L30 78L30 77L31 77L31 78L32 78L32 77L34 77L34 76L35 76L35 74L34 74L34 73L38 73L38 77L37 77L37 80L38 80L38 79L40 79L40 80L41 80L41 79L40 79L40 78L41 78L41 76L40 76L40 78L38 78L38 77L39 77L39 75L40 75L40 74L42 74L42 76L45 76L45 78L47 78L47 79L48 79L48 80L49 80L49 79L50 79L50 77L48 77L48 78L47 78L47 77L46 77L46 75L47 75L47 76L48 76L48 75L47 75L47 74L46 74L46 73L48 73L48 71L49 71L49 72L52 72L52 71L53 71L53 72L54 72L54 71L53 71L53 70L54 70L54 68L56 68L56 69L55 69L55 70L57 70L57 71L56 71L56 72L57 72L57 71L58 71L58 73L55 73L55 74L54 74L54 73L53 73L53 75L54 75L54 77L55 77L55 74L56 74L56 76L57 76L57 77L56 77L56 78L57 78L57 79L58 79L58 80L60 80L60 79L61 79L61 80L63 80L63 78L62 78L62 77L61 77L61 76L63 76L63 75L64 75L64 76L67 76L67 75L66 75L66 74L68 74L68 73L66 73L66 72L67 72L67 70L68 70L68 69L66 69L66 68L67 68L67 62L68 62L68 63L69 63L69 64L68 64L68 65L69 65L69 67L70 67L70 68L71 68L71 69L72 69L72 70L73 70L73 69L72 69L72 67L71 67L71 66L70 66L70 65L71 65L71 64L70 64L70 63L69 63L69 62L70 62L70 61L69 61L69 62L68 62L68 61L65 61L65 62L64 62L64 61L63 61L63 60L61 60L61 59L62 59L62 58L63 58L63 57L60 57L60 58L58 58L58 56L59 56L59 55L60 55L60 53L61 53L61 56L62 56L62 54L64 54L64 56L65 56L65 59L64 59L64 60L65 60L65 59L66 59L66 60L67 60L67 59L68 59L68 58L66 58L66 55L67 55L67 53L66 53L66 51L67 51L67 50L68 50L68 52L69 52L69 53L68 53L68 54L69 54L69 55L68 55L68 56L71 56L71 57L69 57L69 60L70 60L70 58L71 58L71 57L72 57L72 58L74 58L74 57L72 57L72 55L71 55L71 54L70 54L70 50L71 50L71 51L72 51L72 49L67 49L67 46L68 46L68 48L71 48L71 47L70 47L70 46L71 46L71 45L70 45L70 44L68 44L68 45L67 45L67 46L66 46L66 45L65 45L65 44L64 44L64 45L63 45L63 43L64 43L64 42L63 42L63 41L62 41L62 40L63 40L63 38L62 38L62 37L61 37L61 36L63 36L63 34L62 34L62 33L61 33L61 32L63 32L63 31L64 31L64 30L63 30L63 27L64 27L64 25L62 25L62 23L63 23L63 22L62 22L62 21L61 21L61 20L63 20L63 19L62 19L62 17L58 17L58 14L61 14L61 15L62 15L62 16L63 16L63 15L64 15L64 16L65 16L65 17L63 17L63 18L64 18L64 20L65 20L65 19L66 19L66 18L67 18L67 17L66 17L66 16L65 16L65 15L66 15L66 14L69 14L69 15L70 15L70 16L71 16L71 15L72 15L72 16L74 16L74 15L73 15L73 14L74 14L74 13L73 13L73 10L72 10L72 9L73 9L73 8L70 8L70 9L69 9L69 8L68 8L68 9L67 9L67 8L65 8L65 7L66 7L66 6L65 6L65 7L64 7L64 5L63 5L63 4L64 4L64 3L63 3L63 4L62 4L62 6L61 6L61 8L62 8L62 6L63 6L63 7L64 7L64 8L65 8L65 9L63 9L63 10L65 10L65 11L64 11L64 12L65 12L65 13L64 13L64 14L62 14L62 13L63 13L63 12L60 12L60 13L57 13L57 12L59 12L59 10L61 10L61 11L62 11L62 9L59 9L59 10L58 10L58 9L56 9L56 10L57 10L57 11L56 11L56 13L54 13L54 12L55 12L55 9L54 9L54 6L53 6L53 10L52 10L52 9L50 9L50 10L49 10L49 9L48 9L48 8L47 8L47 7L48 7L48 5L46 5L46 4L44 4L44 5L46 5L46 6L45 6L45 7L46 7L46 8L45 8L45 9L46 9L46 11L47 11L47 12L45 12L45 11L44 11L44 12L45 12L45 14L44 14L44 16L43 16L43 11L42 11L42 10L44 10L44 9L42 9L42 8L43 8L43 7L44 7L44 6L43 6L43 7L42 7L42 6L41 6L41 5L42 5L42 3L41 3L41 5L39 5L39 4L38 4L38 3L37 3L37 5L35 5L35 3L31 3L31 4L32 4L32 6L31 6L31 5L30 5L30 6L29 6L29 7L30 7L30 8L29 8L29 9L28 9L28 12L29 12L29 9L30 9L30 8L31 8L31 7L32 7L32 6L33 6L33 8L32 8L32 9L31 9L31 10L30 10L30 11L32 11L32 13L28 13L28 15L26 15L26 14L27 14L27 13L26 13L26 14L25 14L25 13L23 13L23 14L22 14L22 13L21 13L21 12L20 12L20 11L21 11L21 9L20 9L20 10L19 10L19 11L18 11L18 13L21 13L21 14L20 14L20 15L19 15L19 14L18 14L18 15L17 15L17 13L16 13L16 12L17 12L17 11L15 11L15 12L13 12L13 11L12 11L12 10L13 10L13 9L11 9L11 8L12 8L12 6L13 6L13 8L14 8L14 10L16 10L16 8L15 8L15 7L16 7L16 6L17 6L17 7L18 7L18 8L19 8L19 7L20 7L20 8L21 8L21 7L22 7L22 6L23 6L23 7L24 7L24 5L22 5L22 4L23 4L23 3L24 3L24 2L25 2L25 1L24 1L24 2L23 2L23 3L22 3L22 2L19 2L19 3L20 3L20 4L21 4L21 7L20 7L20 6L19 6L19 4L18 4L18 2L17 2L17 1ZM48 1L48 2L49 2L49 3L48 3L48 4L49 4L49 3L50 3L50 1ZM62 1L62 2L63 2L63 1ZM16 2L16 3L17 3L17 2ZM46 2L46 3L47 3L47 2ZM10 3L10 4L11 4L11 3ZM21 3L21 4L22 4L22 3ZM65 3L65 4L66 4L66 5L67 5L67 4L66 4L66 3ZM14 4L14 5L13 5L13 6L14 6L14 7L15 7L15 4ZM16 4L16 5L18 5L18 4ZM25 5L25 8L28 8L28 5ZM34 5L34 9L32 9L32 11L33 11L33 13L32 13L32 14L33 14L33 16L32 16L32 17L31 17L31 14L30 14L30 15L28 15L28 16L27 16L27 17L28 17L28 18L25 18L25 19L28 19L28 20L27 20L27 21L26 21L26 22L25 22L25 20L23 20L23 19L22 19L22 20L23 20L23 21L24 21L24 22L23 22L23 24L24 24L24 28L23 28L23 29L22 29L22 30L23 30L23 31L24 31L24 34L22 34L22 36L21 36L21 34L18 34L18 33L17 33L17 32L16 32L16 37L18 37L18 35L19 35L19 38L18 38L18 40L17 40L17 41L16 41L16 40L14 40L14 41L13 41L13 39L11 39L11 40L10 40L10 41L11 41L11 42L10 42L10 43L9 43L9 41L8 41L8 40L6 40L6 41L7 41L7 42L6 42L6 43L5 43L5 44L6 44L6 45L7 45L7 44L9 44L9 45L13 45L13 43L14 43L14 42L15 42L15 41L16 41L16 44L14 44L14 47L15 47L15 46L16 46L16 45L18 45L18 47L17 47L17 48L18 48L18 47L19 47L19 43L20 43L20 44L21 44L21 45L20 45L20 46L22 46L22 44L23 44L23 46L24 46L24 47L25 47L25 48L24 48L24 49L23 49L23 50L24 50L24 52L23 52L23 54L24 54L24 55L25 55L25 56L24 56L24 57L26 57L26 53L30 53L30 55L31 55L31 56L29 56L29 57L27 57L27 58L28 58L28 59L27 59L27 60L25 60L25 59L23 59L23 60L24 60L24 61L25 61L25 64L24 64L24 65L23 65L23 66L24 66L24 67L25 67L25 66L26 66L26 65L27 65L27 64L28 64L28 66L29 66L29 67L30 67L30 68L28 68L28 67L27 67L27 68L28 68L28 69L29 69L29 70L34 70L34 71L31 71L31 73L30 73L30 74L31 74L31 75L30 75L30 76L31 76L31 77L32 77L32 74L33 74L33 72L34 72L34 71L37 71L37 72L39 72L39 74L40 74L40 71L37 71L37 70L34 70L34 69L33 69L33 68L35 68L35 69L37 69L37 67L36 67L36 68L35 68L35 67L34 67L34 66L36 66L36 65L37 65L37 66L39 66L39 65L42 65L42 67L41 67L41 68L40 68L40 67L38 67L38 68L39 68L39 69L38 69L38 70L40 70L40 69L42 69L42 70L43 70L43 72L42 72L42 71L41 71L41 73L43 73L43 72L45 72L45 73L44 73L44 74L43 74L43 75L44 75L44 74L45 74L45 75L46 75L46 74L45 74L45 73L46 73L46 72L47 72L47 71L48 71L48 69L50 69L50 70L51 70L51 67L52 67L52 65L53 65L53 66L55 66L55 67L56 67L56 66L57 66L57 61L58 61L58 62L59 62L59 61L60 61L60 63L58 63L58 66L60 66L60 67L59 67L59 68L57 68L57 69L62 69L62 68L63 68L63 67L64 67L64 69L63 69L63 70L65 70L65 66L64 66L64 65L65 65L65 64L66 64L66 63L65 63L65 64L64 64L64 62L63 62L63 64L62 64L62 65L63 65L63 66L62 66L62 68L61 68L61 64L60 64L60 63L62 63L62 61L61 61L61 60L60 60L60 59L61 59L61 58L60 58L60 59L59 59L59 60L57 60L57 61L56 61L56 59L57 59L57 58L56 58L56 59L55 59L55 57L57 57L57 56L56 56L56 55L55 55L55 54L54 54L54 53L56 53L56 52L58 52L58 51L55 51L55 49L56 49L56 50L57 50L57 49L58 49L58 50L59 50L59 49L60 49L60 50L61 50L61 48L60 48L60 47L61 47L61 46L60 46L60 45L62 45L62 47L63 47L63 48L62 48L62 49L63 49L63 50L62 50L62 51L64 51L64 52L62 52L62 53L64 53L64 52L65 52L65 51L64 51L64 48L65 48L65 49L66 49L66 50L67 50L67 49L66 49L66 48L65 48L65 46L64 46L64 47L63 47L63 45L62 45L62 44L60 44L60 43L59 43L59 42L60 42L60 41L61 41L61 40L60 40L60 38L59 38L59 37L60 37L60 36L59 36L59 35L60 35L60 34L58 34L58 36L57 36L57 34L56 34L56 35L55 35L55 34L54 34L54 35L53 35L53 37L54 37L54 38L52 38L52 37L51 37L51 38L52 38L52 41L51 41L51 40L49 40L49 39L48 39L48 40L46 40L46 39L45 39L45 38L44 38L44 37L43 37L43 35L44 35L44 34L42 34L42 33L41 33L41 32L40 32L40 31L43 31L43 33L45 33L45 35L46 35L46 38L47 38L47 36L48 36L48 37L49 37L49 38L50 38L50 36L52 36L52 35L51 35L51 32L52 32L52 31L53 31L53 30L52 30L52 31L49 31L49 32L48 32L48 34L47 34L47 35L46 35L46 33L47 33L47 32L46 32L46 33L45 33L45 31L47 31L47 30L45 30L45 29L47 29L47 27L48 27L48 29L54 29L54 30L55 30L55 31L54 31L54 32L53 32L53 33L56 33L56 32L57 32L57 31L58 31L58 29L56 29L56 28L59 28L59 33L60 33L60 32L61 32L61 30L60 30L60 29L61 29L61 28L62 28L62 27L61 27L61 28L60 28L60 26L58 26L58 27L53 27L53 23L51 23L51 24L50 24L50 18L51 18L51 17L52 17L52 18L53 18L53 17L54 17L54 18L55 18L55 19L54 19L54 22L55 22L55 21L56 21L56 23L54 23L54 25L55 25L55 26L57 26L57 25L60 25L60 23L59 23L59 22L60 22L60 20L61 20L61 19L60 19L60 18L59 18L59 20L57 20L57 21L56 21L56 18L55 18L55 17L56 17L56 16L57 16L57 13L56 13L56 14L54 14L54 16L53 16L53 15L52 15L52 14L53 14L53 11L51 11L51 10L50 10L50 11L49 11L49 12L51 12L51 13L50 13L50 14L51 14L51 17L50 17L50 18L49 18L49 16L50 16L50 15L49 15L49 16L48 16L48 14L49 14L49 13L48 13L48 12L47 12L47 14L46 14L46 15L45 15L45 17L43 17L43 16L42 16L42 17L40 17L40 16L39 16L39 15L40 15L40 14L41 14L41 15L42 15L42 11L41 11L41 10L40 10L40 11L39 11L39 8L38 8L38 10L37 10L37 9L35 9L35 8L37 8L37 6L38 6L38 7L39 7L39 5L37 5L37 6L36 6L36 7L35 7L35 5ZM49 5L49 8L52 8L52 5ZM59 5L59 7L60 7L60 5ZM18 6L18 7L19 7L19 6ZM26 6L26 7L27 7L27 6ZM30 6L30 7L31 7L31 6ZM40 6L40 8L42 8L42 7L41 7L41 6ZM46 6L46 7L47 7L47 6ZM50 6L50 7L51 7L51 6ZM55 6L55 7L56 7L56 6ZM57 6L57 8L58 8L58 6ZM67 6L67 7L68 7L68 6ZM69 6L69 7L70 7L70 6ZM71 6L71 7L72 7L72 6ZM2 8L2 9L1 9L1 11L0 11L0 12L2 12L2 9L3 9L3 8ZM22 8L22 9L23 9L23 10L22 10L22 11L24 11L24 10L25 10L25 12L26 12L26 10L25 10L25 9L24 9L24 8ZM34 9L34 10L35 10L35 11L34 11L34 13L33 13L33 14L34 14L34 13L35 13L35 15L37 15L37 16L38 16L38 17L39 17L39 19L38 19L38 18L37 18L37 17L36 17L36 16L35 16L35 17L33 17L33 19L32 19L32 18L30 18L30 16L28 16L28 17L29 17L29 20L28 20L28 21L27 21L27 22L26 22L26 23L25 23L25 22L24 22L24 24L26 24L26 23L27 23L27 24L28 24L28 21L29 21L29 20L30 20L30 22L31 22L31 25L32 25L32 22L33 22L33 24L34 24L34 22L33 22L33 21L35 21L35 19L34 19L34 18L37 18L37 19L36 19L36 21L37 21L37 22L38 22L38 24L40 24L40 25L39 25L39 26L38 26L38 25L36 25L36 22L35 22L35 25L36 25L36 27L35 27L35 26L31 26L31 27L30 27L30 26L29 26L29 30L28 30L28 29L27 29L27 30L25 30L25 29L23 29L23 30L25 30L25 32L26 32L26 33L25 33L25 34L24 34L24 35L23 35L23 37L20 37L20 38L19 38L19 40L18 40L18 42L17 42L17 43L19 43L19 42L22 42L22 43L24 43L24 42L25 42L25 43L26 43L26 44L27 44L27 45L26 45L26 46L25 46L25 47L26 47L26 48L28 48L28 47L27 47L27 45L29 45L29 43L30 43L30 44L31 44L31 43L32 43L32 42L31 42L31 43L30 43L30 42L29 42L29 41L32 41L32 39L33 39L33 38L34 38L34 41L36 41L36 44L35 44L35 43L34 43L34 42L33 42L33 43L34 43L34 44L32 44L32 45L30 45L30 47L29 47L29 48L30 48L30 47L31 47L31 48L34 48L34 49L35 49L35 51L36 51L36 52L34 52L34 53L33 53L33 52L32 52L32 51L33 51L33 49L29 49L29 52L30 52L30 53L31 53L31 55L32 55L32 54L33 54L33 55L35 55L35 56L36 56L36 57L35 57L35 58L33 58L33 57L34 57L34 56L33 56L33 57L32 57L32 58L33 58L33 59L32 59L32 60L31 60L31 59L30 59L30 60L29 60L29 61L30 61L30 60L31 60L31 61L33 61L33 62L35 62L35 61L34 61L34 60L35 60L35 58L36 58L36 59L37 59L37 58L38 58L38 61L37 61L37 60L36 60L36 61L37 61L37 62L38 62L38 61L39 61L39 60L40 60L40 61L41 61L41 63L38 63L38 64L37 64L37 65L39 65L39 64L42 64L42 65L43 65L43 66L44 66L44 64L43 64L43 63L44 63L44 62L43 62L43 61L41 61L41 60L42 60L42 59L39 59L39 57L40 57L40 56L39 56L39 55L40 55L40 54L41 54L41 51L40 51L40 50L41 50L41 48L42 48L42 51L45 51L45 50L46 50L46 51L47 51L47 52L46 52L46 53L45 53L45 54L43 54L43 53L42 53L42 54L43 54L43 56L41 56L41 58L43 58L43 60L45 60L45 62L46 62L46 60L47 60L47 59L48 59L48 60L49 60L49 61L51 61L51 63L52 63L52 64L53 64L53 63L55 63L55 62L54 62L54 61L53 61L53 60L55 60L55 59L54 59L54 58L51 58L51 60L49 60L49 59L50 59L50 58L48 58L48 57L49 57L49 56L50 56L50 57L54 57L54 54L53 54L53 53L54 53L54 52L53 52L53 53L50 53L50 55L49 55L49 56L48 56L48 51L47 51L47 50L46 50L46 49L47 49L47 48L48 48L48 47L47 47L47 45L44 45L44 46L41 46L41 43L40 43L40 46L37 46L37 45L39 45L39 44L37 44L37 43L38 43L38 42L37 42L37 41L39 41L39 40L37 40L37 39L38 39L38 38L39 38L39 39L40 39L40 38L42 38L42 39L41 39L41 41L40 41L40 42L42 42L42 45L43 45L43 43L44 43L44 44L45 44L45 42L42 42L42 40L44 40L44 38L42 38L42 36L41 36L41 35L40 35L40 34L41 34L41 33L40 33L40 32L39 32L39 33L38 33L38 32L37 32L37 34L36 34L36 33L35 33L35 34L36 34L36 35L33 35L33 32L34 32L34 31L37 31L37 29L39 29L39 30L38 30L38 31L39 31L39 30L40 30L40 29L41 29L41 28L42 28L42 27L44 27L44 26L45 26L45 27L47 27L47 25L46 25L46 24L45 24L45 21L44 21L44 23L43 23L43 20L45 20L45 19L47 19L47 20L49 20L49 18L47 18L47 17L48 17L48 16L47 16L47 15L46 15L46 18L44 18L44 19L43 19L43 18L41 18L41 19L40 19L40 17L39 17L39 16L38 16L38 15L39 15L39 14L40 14L40 12L41 12L41 11L40 11L40 12L39 12L39 11L37 11L37 10L35 10L35 9ZM47 9L47 10L48 10L48 9ZM68 9L68 10L66 10L66 11L67 11L67 12L66 12L66 13L68 13L68 12L69 12L69 11L68 11L68 10L69 10L69 9ZM70 9L70 10L71 10L71 11L72 11L72 10L71 10L71 9ZM36 11L36 14L37 14L37 15L38 15L38 14L37 14L37 11ZM38 12L38 13L39 13L39 12ZM70 12L70 13L71 13L71 14L72 14L72 12ZM6 13L6 14L8 14L8 15L9 15L9 14L8 14L8 13ZM51 13L51 14L52 14L52 13ZM21 14L21 16L22 16L22 14ZM24 14L24 15L25 15L25 14ZM64 14L64 15L65 15L65 14ZM79 16L79 17L81 17L81 16ZM19 18L19 19L20 19L20 18ZM30 19L30 20L32 20L32 19ZM37 19L37 21L38 21L38 19ZM39 19L39 20L40 20L40 19ZM42 19L42 20L41 20L41 22L42 22L42 20L43 20L43 19ZM51 19L51 21L52 21L52 22L53 22L53 19ZM73 19L73 20L74 20L74 19ZM80 19L80 20L81 20L81 19ZM76 20L76 21L77 21L77 22L75 22L75 21L74 21L74 22L72 22L72 23L73 23L73 24L74 24L74 22L75 22L75 24L77 24L77 23L78 23L78 21L77 21L77 20ZM46 21L46 23L48 23L48 22L49 22L49 21L48 21L48 22L47 22L47 21ZM57 21L57 24L56 24L56 25L57 25L57 24L58 24L58 22L59 22L59 21ZM64 21L64 22L65 22L65 23L64 23L64 24L65 24L65 28L66 28L66 26L67 26L67 25L66 25L66 24L67 24L67 23L66 23L66 21ZM39 22L39 23L40 23L40 22ZM41 23L41 24L43 24L43 23ZM29 24L29 25L30 25L30 24ZM70 24L70 25L71 25L71 24ZM79 24L79 26L80 26L80 27L79 27L79 28L81 28L81 24ZM5 25L5 28L8 28L8 25ZM25 25L25 28L28 28L28 25ZM40 25L40 26L41 26L41 27L42 27L42 26L44 26L44 25L42 25L42 26L41 26L41 25ZM49 25L49 28L52 28L52 25ZM73 25L73 28L76 28L76 25ZM6 26L6 27L7 27L7 26ZM26 26L26 27L27 27L27 26ZM50 26L50 27L51 27L51 26ZM74 26L74 27L75 27L75 26ZM0 27L0 28L1 28L1 29L0 29L0 30L1 30L1 29L3 29L3 28L1 28L1 27ZM18 27L18 28L19 28L19 29L20 29L20 28L19 28L19 27ZM33 27L33 28L32 28L32 29L31 29L31 30L29 30L29 31L28 31L28 32L27 32L27 33L26 33L26 35L28 35L28 34L29 34L29 35L32 35L32 33L29 33L29 32L30 32L30 31L31 31L31 32L32 32L32 31L33 31L33 30L36 30L36 29L37 29L37 28L39 28L39 29L40 29L40 28L39 28L39 27L37 27L37 28L35 28L35 29L34 29L34 27ZM43 28L43 29L42 29L42 30L43 30L43 31L44 31L44 29L45 29L45 28ZM54 28L54 29L55 29L55 30L56 30L56 31L57 31L57 30L56 30L56 29L55 29L55 28ZM17 29L17 30L18 30L18 31L20 31L20 30L18 30L18 29ZM65 29L65 30L66 30L66 29ZM31 30L31 31L32 31L32 30ZM62 30L62 31L63 31L63 30ZM65 31L65 32L66 32L66 31ZM49 32L49 33L50 33L50 32ZM77 32L77 33L76 33L76 34L75 34L75 35L74 35L74 38L77 38L77 39L78 39L78 38L79 38L79 39L80 39L80 38L79 38L79 37L80 37L80 36L79 36L79 35L80 35L80 33L78 33L78 32ZM17 34L17 35L18 35L18 34ZM38 34L38 35L36 35L36 36L35 36L35 37L36 37L36 36L37 36L37 38L38 38L38 37L39 37L39 36L38 36L38 35L39 35L39 34ZM48 34L48 35L49 35L49 34ZM66 34L66 35L67 35L67 34ZM68 34L68 37L67 37L67 38L69 38L69 36L70 36L70 35L69 35L69 34ZM76 34L76 35L75 35L75 37L77 37L77 38L78 38L78 37L77 37L77 36L78 36L78 35L79 35L79 34ZM24 36L24 37L23 37L23 39L20 39L20 41L21 41L21 40L23 40L23 41L22 41L22 42L24 42L24 41L25 41L25 42L26 42L26 43L27 43L27 44L28 44L28 43L29 43L29 42L28 42L28 41L29 41L29 40L28 40L28 41L27 41L27 40L26 40L26 41L25 41L25 39L26 39L26 36ZM27 36L27 37L28 37L28 36ZM29 36L29 38L30 38L30 40L31 40L31 39L32 39L32 38L33 38L33 36L32 36L32 38L31 38L31 37L30 37L30 36ZM54 36L54 37L55 37L55 36ZM56 36L56 38L57 38L57 39L56 39L56 41L55 41L55 40L54 40L54 41L52 41L52 43L54 43L54 41L55 41L55 44L54 44L54 45L53 45L53 46L54 46L54 45L55 45L55 46L57 46L57 48L58 48L58 49L59 49L59 44L58 44L58 42L59 42L59 41L57 41L57 40L58 40L58 37L59 37L59 36L58 36L58 37L57 37L57 36ZM6 38L6 39L7 39L7 38ZM24 38L24 39L25 39L25 38ZM27 38L27 39L28 39L28 38ZM54 38L54 39L55 39L55 38ZM74 39L74 41L73 41L73 42L72 42L72 40L71 40L71 42L72 42L72 45L73 45L73 46L72 46L72 48L73 48L73 46L74 46L74 45L76 45L76 46L77 46L77 45L76 45L76 43L74 43L74 45L73 45L73 42L75 42L75 41L76 41L76 39ZM36 40L36 41L37 41L37 40ZM45 40L45 41L46 41L46 40ZM27 42L27 43L28 43L28 42ZM46 42L46 44L48 44L48 45L49 45L49 42ZM56 42L56 44L55 44L55 45L58 45L58 44L57 44L57 42ZM6 43L6 44L7 44L7 43ZM24 44L24 45L25 45L25 44ZM50 44L50 45L51 45L51 46L52 46L52 45L51 45L51 44ZM32 45L32 46L31 46L31 47L32 47L32 46L33 46L33 47L34 47L34 46L35 46L35 49L36 49L36 51L37 51L37 54L36 54L36 53L35 53L35 54L36 54L36 55L38 55L38 51L39 51L39 47L38 47L38 48L37 48L37 46L35 46L35 45ZM2 46L2 47L1 47L1 48L2 48L2 49L1 49L1 51L3 51L3 52L4 52L4 49L3 49L3 48L4 48L4 46ZM40 46L40 47L41 47L41 46ZM44 46L44 47L42 47L42 48L44 48L44 49L45 49L45 47L46 47L46 46ZM2 47L2 48L3 48L3 47ZM51 47L51 48L52 48L52 47ZM53 47L53 48L55 48L55 47ZM74 47L74 48L76 48L76 47ZM78 47L78 49L77 49L77 50L80 50L80 49L79 49L79 48L80 48L80 47ZM9 48L9 49L10 49L10 48ZM14 48L14 49L13 49L13 50L15 50L15 51L14 51L14 52L15 52L15 51L16 51L16 49L15 49L15 48ZM2 49L2 50L3 50L3 49ZM5 49L5 52L8 52L8 49ZM25 49L25 52L28 52L28 49ZM49 49L49 52L52 52L52 49ZM53 49L53 50L54 50L54 49ZM73 49L73 52L76 52L76 49ZM6 50L6 51L7 51L7 50ZM26 50L26 51L27 51L27 50ZM30 50L30 51L32 51L32 50ZM37 50L37 51L38 51L38 50ZM50 50L50 51L51 51L51 50ZM74 50L74 51L75 51L75 50ZM59 51L59 53L60 53L60 51ZM31 52L31 53L32 53L32 52ZM39 52L39 53L40 53L40 52ZM17 53L17 54L18 54L18 53ZM24 53L24 54L25 54L25 53ZM72 53L72 54L74 54L74 53ZM3 54L3 55L4 55L4 58L6 58L6 57L5 57L5 56L6 56L6 55L8 55L8 56L9 56L9 55L10 55L10 54L9 54L9 55L8 55L8 54L6 54L6 55L5 55L5 54ZM11 54L11 55L12 55L12 54ZM28 54L28 55L29 55L29 54ZM45 54L45 55L44 55L44 57L45 57L45 58L46 58L46 57L47 57L47 54ZM51 54L51 55L52 55L52 56L53 56L53 55L52 55L52 54ZM58 54L58 55L59 55L59 54ZM45 55L45 57L46 57L46 55ZM37 56L37 57L39 57L39 56ZM76 56L76 58L77 58L77 56ZM11 57L11 59L12 59L12 57ZM30 57L30 58L31 58L31 57ZM33 59L33 60L34 60L34 59ZM20 60L20 61L22 61L22 62L23 62L23 61L22 61L22 60ZM27 60L27 61L26 61L26 64L25 64L25 65L24 65L24 66L25 66L25 65L26 65L26 64L27 64L27 63L28 63L28 60ZM51 60L51 61L52 61L52 60ZM71 60L71 61L72 61L72 62L73 62L73 60ZM77 60L77 61L78 61L78 60ZM47 61L47 63L48 63L48 66L49 66L49 68L50 68L50 67L51 67L51 64L49 64L49 63L48 63L48 61ZM42 62L42 63L43 63L43 62ZM79 62L79 63L80 63L80 62ZM3 63L3 64L2 64L2 65L3 65L3 64L4 64L4 63ZM29 63L29 66L30 66L30 67L31 67L31 66L30 66L30 65L31 65L31 63ZM32 63L32 64L34 64L34 65L36 65L36 64L35 64L35 63ZM45 64L45 65L46 65L46 66L45 66L45 67L44 67L44 68L42 68L42 69L44 69L44 71L45 71L45 72L46 72L46 71L45 71L45 70L47 70L47 69L48 69L48 67L46 67L46 66L47 66L47 64ZM69 64L69 65L70 65L70 64ZM55 65L55 66L56 66L56 65ZM32 67L32 68L33 68L33 67ZM53 67L53 68L54 68L54 67ZM73 67L73 68L75 68L75 67ZM30 68L30 69L31 69L31 68ZM44 68L44 69L47 69L47 68ZM79 68L79 72L80 72L80 71L81 71L81 68ZM11 69L11 70L10 70L10 72L9 72L9 71L6 71L6 72L9 72L9 74L10 74L10 72L11 72L11 74L12 74L12 72L13 72L13 71L12 71L12 69ZM23 69L23 70L22 70L22 72L20 72L20 71L19 71L19 72L20 72L20 74L21 74L21 75L20 75L20 76L19 76L19 77L20 77L20 78L21 78L21 77L20 77L20 76L22 76L22 74L21 74L21 73L23 73L23 76L24 76L24 73L23 73L23 72L25 72L25 69ZM52 69L52 70L53 70L53 69ZM69 69L69 72L70 72L70 69ZM16 70L16 73L18 73L18 74L19 74L19 73L18 73L18 71L17 71L17 70ZM23 70L23 71L24 71L24 70ZM59 70L59 73L58 73L58 74L57 74L57 75L58 75L58 76L59 76L59 77L58 77L58 79L60 79L60 78L61 78L61 77L60 77L60 76L61 76L61 74L60 74L60 75L58 75L58 74L59 74L59 73L60 73L60 72L61 72L61 73L62 73L62 74L64 74L64 73L65 73L65 72L64 72L64 71L63 71L63 72L61 72L61 71L60 71L60 70ZM11 71L11 72L12 72L12 71ZM71 71L71 72L73 72L73 71ZM74 71L74 72L76 72L76 71ZM25 73L25 76L28 76L28 73ZM31 73L31 74L32 74L32 73ZM49 73L49 76L52 76L52 73ZM73 73L73 76L76 76L76 73ZM79 73L79 74L78 74L78 75L79 75L79 77L81 77L81 73ZM26 74L26 75L27 75L27 74ZM36 74L36 75L37 75L37 74ZM50 74L50 75L51 75L51 74ZM74 74L74 75L75 75L75 74ZM25 77L25 78L27 78L27 79L28 79L28 80L29 80L29 79L28 79L28 78L27 78L27 77ZM35 77L35 78L34 78L34 79L35 79L35 78L36 78L36 77ZM42 77L42 79L43 79L43 77ZM52 77L52 78L51 78L51 79L53 79L53 77ZM64 77L64 80L66 80L66 78L67 78L67 77ZM48 78L48 79L49 79L49 78ZM75 78L75 79L76 79L76 78ZM79 78L79 79L81 79L81 78ZM31 79L31 80L32 80L32 79ZM54 79L54 80L55 80L55 79ZM80 80L80 81L81 81L81 80ZM0 0L0 7L7 7L7 0ZM1 1L1 6L6 6L6 1ZM2 2L2 5L5 5L5 2ZM74 0L74 7L81 7L81 0ZM75 1L75 6L80 6L80 1ZM76 2L76 5L79 5L79 2ZM0 74L0 81L7 81L7 74ZM1 75L1 80L6 80L6 75ZM2 76L2 79L5 79L5 76Z" fill="#000000"/></g></g></svg>
