<?xml version="1.0" encoding="UTF-8"?>
<svg xmlns="http://www.w3.org/2000/svg" version="1.1" width="200" height="200" viewBox="0 0 200 200"><rect x="0" y="0" width="200" height="200" fill="#ffffff"/><g transform="scale(2.469)"><g transform="translate(0,0)"><path fill-rule="evenodd" d="M8 0L8 3L9 3L9 5L8 5L8 9L12 9L12 11L13 11L13 13L11 13L11 11L10 11L10 10L6 10L6 11L4 11L4 9L5 9L5 8L2 8L2 9L0 9L0 10L2 10L2 9L3 9L3 11L4 11L4 12L6 12L6 13L5 13L5 14L6 14L6 15L7 15L7 16L4 16L4 13L3 13L3 12L0 12L0 13L1 13L1 14L0 14L0 15L2 15L2 13L3 13L3 18L1 18L1 17L2 17L2 16L0 16L0 18L1 18L1 20L0 20L0 26L1 26L1 27L2 27L2 26L4 26L4 27L3 27L3 28L4 28L4 29L3 29L3 31L2 31L2 30L1 30L1 31L0 31L0 32L3 32L3 33L0 33L0 35L2 35L2 34L3 34L3 35L4 35L4 36L2 36L2 39L1 39L1 37L0 37L0 39L1 39L1 40L0 40L0 42L1 42L1 40L3 40L3 39L4 39L4 41L7 41L7 42L5 42L5 44L4 44L4 42L3 42L3 43L0 43L0 44L2 44L2 45L0 45L0 46L2 46L2 50L0 50L0 52L1 52L1 53L0 53L0 54L1 54L1 53L2 53L2 55L3 55L3 56L5 56L5 57L2 57L2 58L0 58L0 59L1 59L1 60L0 60L0 62L2 62L2 63L4 63L4 64L1 64L1 65L0 65L0 67L1 67L1 68L0 68L0 70L1 70L1 73L4 73L4 72L2 72L2 71L4 71L4 69L7 69L7 70L6 70L6 71L5 71L5 72L6 72L6 73L7 73L7 72L6 72L6 71L7 71L7 70L9 70L9 71L11 71L11 72L12 72L12 73L8 73L8 74L9 74L9 75L10 75L10 76L11 76L11 77L9 77L9 76L8 76L8 79L9 79L9 78L11 78L11 77L13 77L13 76L11 76L11 75L12 75L12 74L13 74L13 75L15 75L15 73L16 73L16 77L15 77L15 76L14 76L14 78L16 78L16 79L12 79L12 80L15 80L15 81L16 81L16 80L19 80L19 81L20 81L20 80L21 80L21 81L24 81L24 80L27 80L27 81L28 81L28 80L27 80L27 79L24 79L24 78L23 78L23 77L22 77L22 76L23 76L23 75L24 75L24 77L28 77L28 78L29 78L29 75L30 75L30 74L29 74L29 73L30 73L30 72L34 72L34 74L33 74L33 73L32 73L32 75L31 75L31 76L32 76L32 78L34 78L34 79L31 79L31 78L30 78L30 79L29 79L29 80L30 80L30 79L31 79L31 80L33 80L33 81L34 81L34 79L35 79L35 81L36 81L36 79L38 79L38 81L40 81L40 80L41 80L41 79L42 79L42 78L45 78L45 79L43 79L43 80L46 80L46 81L55 81L55 80L57 80L57 79L55 79L55 78L56 78L56 77L55 77L55 78L54 78L54 77L53 77L53 76L56 76L56 75L57 75L57 76L58 76L58 77L57 77L57 78L60 78L60 77L59 77L59 76L60 76L60 75L62 75L62 76L63 76L63 77L62 77L62 78L61 78L61 79L68 79L68 80L70 80L70 79L71 79L71 81L73 81L73 80L72 80L72 79L74 79L74 78L72 78L72 77L76 77L76 78L77 78L77 79L78 79L78 80L79 80L79 81L80 81L80 80L79 80L79 78L77 78L77 76L79 76L79 77L80 77L80 74L81 74L81 72L80 72L80 71L79 71L79 70L81 70L81 69L78 69L78 68L79 68L79 67L77 67L77 68L75 68L75 69L73 69L73 68L71 68L71 69L70 69L70 67L71 67L71 66L72 66L72 67L73 67L73 65L74 65L74 66L76 66L76 65L79 65L79 66L81 66L81 64L80 64L80 62L81 62L81 61L80 61L80 60L79 60L79 59L80 59L80 58L81 58L81 57L80 57L80 58L79 58L79 57L77 57L77 56L80 56L80 54L81 54L81 51L80 51L80 53L78 53L78 52L79 52L79 49L78 49L78 52L77 52L77 48L79 48L79 46L78 46L78 45L77 45L77 46L78 46L78 47L76 47L76 46L75 46L75 44L79 44L79 45L80 45L80 46L81 46L81 45L80 45L80 44L79 44L79 43L80 43L80 42L81 42L81 41L80 41L80 38L81 38L81 37L80 37L80 34L81 34L81 33L80 33L80 34L79 34L79 32L80 32L80 31L77 31L77 30L76 30L76 31L75 31L75 30L74 30L74 31L75 31L75 32L74 32L74 33L72 33L72 34L73 34L73 35L71 35L71 31L72 31L72 32L73 32L73 31L72 31L72 30L71 30L71 29L78 29L78 30L79 30L79 29L80 29L80 30L81 30L81 27L80 27L80 26L81 26L81 25L78 25L78 26L79 26L79 27L77 27L77 24L79 24L79 22L81 22L81 18L79 18L79 17L78 17L78 16L79 16L79 15L81 15L81 13L80 13L80 10L81 10L81 8L78 8L78 9L80 9L80 10L75 10L75 9L76 9L76 8L73 8L73 9L74 9L74 10L73 10L73 11L72 11L72 12L73 12L73 11L74 11L74 12L75 12L75 11L78 11L78 12L77 12L77 13L78 13L78 14L75 14L75 13L74 13L74 14L75 14L75 15L74 15L74 16L76 16L76 17L73 17L73 15L72 15L72 14L73 14L73 13L71 13L71 14L70 14L70 13L69 13L69 12L71 12L71 11L69 11L69 10L71 10L71 9L72 9L72 7L73 7L73 6L72 6L72 5L71 5L71 6L70 6L70 7L71 7L71 8L69 8L69 5L67 5L67 6L66 6L66 5L64 5L64 4L65 4L65 3L64 3L64 2L66 2L66 3L68 3L68 4L71 4L71 2L72 2L72 4L73 4L73 1L69 1L69 0L68 0L68 1L69 1L69 2L66 2L66 1L64 1L64 2L63 2L63 3L62 3L62 1L61 1L61 0L60 0L60 2L59 2L59 1L58 1L58 0L54 0L54 1L53 1L53 0L52 0L52 1L51 1L51 0L50 0L50 2L49 2L49 0L45 0L45 1L46 1L46 2L44 2L44 1L43 1L43 0L40 0L40 2L38 2L38 4L36 4L36 3L37 3L37 1L36 1L36 0L34 0L34 1L35 1L35 2L36 2L36 3L34 3L34 2L33 2L33 3L34 3L34 5L35 5L35 4L36 4L36 7L35 7L35 6L34 6L34 7L35 7L35 9L34 9L34 10L33 10L33 6L32 6L32 5L33 5L33 4L32 4L32 5L31 5L31 4L27 4L27 2L28 2L28 3L31 3L31 2L32 2L32 1L33 1L33 0L32 0L32 1L30 1L30 0L29 0L29 1L27 1L27 2L26 2L26 0L24 0L24 1L23 1L23 0L17 0L17 3L19 3L19 5L18 5L18 7L17 7L17 6L16 6L16 5L14 5L14 4L13 4L13 3L11 3L11 2L12 2L12 1L14 1L14 2L15 2L15 1L16 1L16 0L15 0L15 1L14 1L14 0L12 0L12 1L11 1L11 0L10 0L10 2L9 2L9 0ZM38 0L38 1L39 1L39 0ZM19 1L19 3L20 3L20 5L19 5L19 7L20 7L20 6L21 6L21 8L19 8L19 9L18 9L18 8L16 8L16 6L15 6L15 7L14 7L14 6L13 6L13 4L12 4L12 6L11 6L11 8L13 8L13 9L14 9L14 10L13 10L13 11L15 11L15 9L18 9L18 10L16 10L16 12L15 12L15 13L14 13L14 15L12 15L12 14L11 14L11 13L10 13L10 12L9 12L9 11L6 11L6 12L7 12L7 13L6 13L6 14L8 14L8 16L9 16L9 17L6 17L6 18L7 18L7 19L5 19L5 17L4 17L4 19L3 19L3 21L4 21L4 22L7 22L7 23L3 23L3 22L2 22L2 20L1 20L1 26L2 26L2 24L7 24L7 23L8 23L8 22L9 22L9 23L10 23L10 24L9 24L9 25L12 25L12 27L10 27L10 28L9 28L9 29L4 29L4 31L3 31L3 32L5 32L5 33L3 33L3 34L5 34L5 35L6 35L6 36L7 36L7 37L6 37L6 38L8 38L8 39L6 39L6 40L7 40L7 41L8 41L8 39L9 39L9 36L10 36L10 37L11 37L11 38L10 38L10 40L9 40L9 41L10 41L10 42L7 42L7 43L6 43L6 44L7 44L7 43L9 43L9 44L10 44L10 46L12 46L12 44L14 44L14 45L13 45L13 46L14 46L14 47L12 47L12 49L13 49L13 48L14 48L14 49L15 49L15 50L17 50L17 49L16 49L16 48L17 48L17 46L20 46L20 45L18 45L18 44L20 44L20 43L21 43L21 44L22 44L22 43L21 43L21 41L22 41L22 38L23 38L23 39L24 39L24 40L23 40L23 41L24 41L24 44L23 44L23 45L21 45L21 47L19 47L19 48L18 48L18 51L16 51L16 52L15 52L15 53L14 53L14 54L12 54L12 50L10 50L10 49L11 49L11 48L10 48L10 47L9 47L9 45L8 45L8 46L7 46L7 45L6 45L6 46L7 46L7 47L6 47L6 48L8 48L8 47L9 47L9 52L10 52L10 53L9 53L9 54L10 54L10 53L11 53L11 55L10 55L10 56L11 56L11 58L10 58L10 59L8 59L8 58L7 58L7 57L8 57L8 53L4 53L4 55L5 55L5 54L7 54L7 55L6 55L6 56L7 56L7 57L6 57L6 58L7 58L7 59L6 59L6 60L4 60L4 58L3 58L3 60L1 60L1 61L2 61L2 62L3 62L3 61L4 61L4 63L5 63L5 61L6 61L6 62L10 62L10 59L11 59L11 58L14 58L14 57L16 57L16 56L17 56L17 57L18 57L18 56L19 56L19 55L20 55L20 57L19 57L19 58L16 58L16 59L15 59L15 60L17 60L17 61L16 61L16 62L17 62L17 64L15 64L15 62L14 62L14 59L13 59L13 60L12 60L12 61L11 61L11 64L15 64L15 65L13 65L13 66L11 66L11 65L10 65L10 66L11 66L11 67L10 67L10 69L9 69L9 67L8 67L8 68L7 68L7 67L5 67L5 65L1 65L1 67L3 67L3 68L2 68L2 69L1 69L1 70L2 70L2 69L4 69L4 68L7 68L7 69L9 69L9 70L10 70L10 69L12 69L12 70L11 70L11 71L12 71L12 70L15 70L15 69L13 69L13 68L15 68L15 67L16 67L16 68L17 68L17 67L18 67L18 68L19 68L19 70L18 70L18 69L17 69L17 71L14 71L14 72L13 72L13 73L15 73L15 72L19 72L19 73L20 73L20 74L19 74L19 75L18 75L18 74L17 74L17 75L18 75L18 76L17 76L17 77L16 77L16 78L17 78L17 77L18 77L18 79L19 79L19 80L20 80L20 78L19 78L19 77L20 77L20 76L19 76L19 75L23 75L23 74L24 74L24 71L27 71L27 72L30 72L30 71L31 71L31 69L33 69L33 70L34 70L34 72L36 72L36 74L34 74L34 75L32 75L32 76L34 76L34 78L35 78L35 79L36 79L36 78L38 78L38 76L40 76L40 75L41 75L41 74L42 74L42 75L43 75L43 77L46 77L46 79L47 79L47 77L48 77L48 74L47 74L47 76L45 76L45 75L44 75L44 73L43 73L43 74L42 74L42 72L43 72L43 71L44 71L44 70L45 70L45 67L46 67L46 71L47 71L47 72L51 72L51 71L52 71L52 70L51 70L51 71L49 71L49 70L50 70L50 67L51 67L51 66L53 66L53 67L52 67L52 68L51 68L51 69L52 69L52 68L53 68L53 67L54 67L54 66L55 66L55 69L53 69L53 74L54 74L54 75L56 75L56 74L57 74L57 72L59 72L59 74L60 74L60 73L61 73L61 74L62 74L62 75L63 75L63 76L64 76L64 77L63 77L63 78L66 78L66 75L64 75L64 74L66 74L66 73L65 73L65 72L66 72L66 71L70 71L70 73L71 73L71 74L72 74L72 72L73 72L73 71L74 71L74 72L75 72L75 70L76 70L76 71L77 71L77 72L78 72L78 73L79 73L79 74L78 74L78 75L79 75L79 74L80 74L80 73L79 73L79 72L78 72L78 70L77 70L77 69L75 69L75 70L73 70L73 71L72 71L72 70L71 70L71 71L70 71L70 70L68 70L68 69L69 69L69 68L67 68L67 70L66 70L66 69L65 69L65 68L66 68L66 67L70 67L70 66L66 66L66 65L68 65L68 64L66 64L66 65L65 65L65 63L64 63L64 62L66 62L66 63L68 63L68 61L69 61L69 60L67 60L67 62L66 62L66 60L65 60L65 58L66 58L66 59L67 59L67 57L69 57L69 55L70 55L70 58L68 58L68 59L72 59L72 61L75 61L75 62L76 62L76 64L78 64L78 63L77 63L77 62L78 62L78 61L79 61L79 60L78 60L78 59L79 59L79 58L78 58L78 59L77 59L77 57L75 57L75 56L76 56L76 55L77 55L77 54L78 54L78 55L79 55L79 54L78 54L78 53L76 53L76 54L75 54L75 55L74 55L74 53L73 53L73 55L72 55L72 54L71 54L71 55L70 55L70 54L69 54L69 53L72 53L72 52L69 52L69 51L71 51L71 50L72 50L72 48L71 48L71 47L74 47L74 48L75 48L75 46L74 46L74 44L75 44L75 42L76 42L76 43L77 43L77 42L78 42L78 43L79 43L79 42L80 42L80 41L79 41L79 40L75 40L75 37L74 37L74 36L76 36L76 39L77 39L77 36L76 36L76 35L78 35L78 33L77 33L77 32L75 32L75 33L74 33L74 36L73 36L73 37L74 37L74 40L73 40L73 41L71 41L71 40L70 40L70 41L71 41L71 43L70 43L70 42L69 42L69 41L68 41L68 40L69 40L69 39L70 39L70 38L71 38L71 39L73 39L73 38L72 38L72 37L70 37L70 36L71 36L71 35L70 35L70 34L69 34L69 33L70 33L70 32L69 32L69 33L68 33L68 32L67 32L67 31L70 31L70 30L68 30L68 29L69 29L69 27L70 27L70 29L71 29L71 28L72 28L72 25L71 25L71 24L74 24L74 23L76 23L76 24L77 24L77 23L76 23L76 21L75 21L75 20L76 20L76 19L78 19L78 18L76 18L76 19L75 19L75 18L73 18L73 17L71 17L71 15L70 15L70 14L69 14L69 13L68 13L68 12L67 12L67 15L66 15L66 16L67 16L67 17L68 17L68 18L67 18L67 19L66 19L66 20L65 20L65 19L63 19L63 18L62 18L62 17L63 17L63 16L64 16L64 18L66 18L66 17L65 17L65 14L66 14L66 13L65 13L65 12L66 12L66 11L65 11L65 10L66 10L66 9L67 9L67 11L68 11L68 8L67 8L67 7L68 7L68 6L67 6L67 7L66 7L66 6L65 6L65 7L64 7L64 6L63 6L63 5L62 5L62 3L61 3L61 2L60 2L60 3L58 3L58 5L57 5L57 7L58 7L58 5L59 5L59 7L60 7L60 8L58 8L58 9L59 9L59 11L58 11L58 10L57 10L57 8L55 8L55 7L56 7L56 6L55 6L55 4L54 4L54 2L55 2L55 3L56 3L56 4L57 4L57 3L56 3L56 2L58 2L58 1L54 1L54 2L50 2L50 4L51 4L51 3L53 3L53 5L54 5L54 6L53 6L53 8L55 8L55 9L56 9L56 10L54 10L54 9L53 9L53 10L54 10L54 11L53 11L53 12L52 12L52 10L51 10L51 9L50 9L50 11L51 11L51 12L52 12L52 13L53 13L53 14L54 14L54 13L53 13L53 12L54 12L54 11L56 11L56 12L55 12L55 15L50 15L50 16L51 16L51 17L52 17L52 19L53 19L53 20L55 20L55 21L53 21L53 22L54 22L54 23L53 23L53 24L55 24L55 25L56 25L56 24L55 24L55 22L56 22L56 23L59 23L59 21L61 21L61 22L60 22L60 23L61 23L61 24L58 24L58 26L57 26L57 30L59 30L59 31L58 31L58 32L57 32L57 33L56 33L56 32L55 32L55 31L56 31L56 28L55 28L55 26L54 26L54 25L53 25L53 26L54 26L54 28L53 28L53 30L54 30L54 31L52 31L52 29L49 29L49 30L51 30L51 31L52 31L52 35L53 35L53 34L54 34L54 32L55 32L55 34L56 34L56 35L59 35L59 37L58 37L58 38L57 38L57 37L56 37L56 36L55 36L55 35L54 35L54 36L53 36L53 37L52 37L52 36L51 36L51 37L50 37L50 36L49 36L49 35L51 35L51 34L49 34L49 33L47 33L47 31L48 31L48 32L49 32L49 31L48 31L48 29L47 29L47 28L48 28L48 27L47 27L47 28L46 28L46 26L47 26L47 25L48 25L48 24L49 24L49 23L50 23L50 24L51 24L51 23L52 23L52 22L51 22L51 21L52 21L52 20L51 20L51 19L50 19L50 17L48 17L48 19L50 19L50 20L49 20L49 21L50 21L50 22L49 22L49 23L48 23L48 20L46 20L46 18L47 18L47 17L45 17L45 19L44 19L44 18L43 18L43 15L44 15L44 16L47 16L47 15L49 15L49 14L50 14L50 13L49 13L49 12L48 12L48 11L49 11L49 10L48 10L48 11L47 11L47 13L46 13L46 11L45 11L45 10L47 10L47 9L46 9L46 8L47 8L47 7L48 7L48 4L46 4L46 3L45 3L45 8L43 8L43 7L44 7L44 6L43 6L43 7L42 7L42 5L44 5L44 4L42 4L42 3L43 3L43 2L42 2L42 1L41 1L41 2L40 2L40 3L39 3L39 4L40 4L40 6L39 6L39 7L38 7L38 6L37 6L37 7L36 7L36 11L33 11L33 10L32 10L32 8L31 8L31 9L30 9L30 10L29 10L29 9L27 9L27 10L26 10L26 11L24 11L24 12L22 12L22 11L21 11L21 10L22 10L22 9L21 9L21 8L22 8L22 6L23 6L23 7L24 7L24 4L23 4L23 1L21 1L21 2L20 2L20 1ZM47 2L47 3L48 3L48 2ZM69 2L69 3L70 3L70 2ZM15 3L15 4L16 4L16 3ZM25 3L25 4L26 4L26 3ZM40 3L40 4L41 4L41 5L42 5L42 4L41 4L41 3ZM60 3L60 4L61 4L61 3ZM21 5L21 6L22 6L22 5ZM25 5L25 8L28 8L28 5ZM49 5L49 8L52 8L52 5ZM61 5L61 6L60 6L60 7L61 7L61 6L62 6L62 8L63 8L63 10L61 10L61 8L60 8L60 11L59 11L59 12L60 12L60 11L61 11L61 13L60 13L60 15L55 15L55 16L54 16L54 17L55 17L55 16L56 16L56 17L57 17L57 18L56 18L56 19L55 19L55 20L56 20L56 22L58 22L58 19L59 19L59 20L60 20L60 19L59 19L59 18L58 18L58 17L57 17L57 16L60 16L60 18L61 18L61 19L62 19L62 18L61 18L61 16L62 16L62 15L63 15L63 13L64 13L64 12L62 12L62 11L64 11L64 8L63 8L63 6L62 6L62 5ZM9 6L9 7L10 7L10 6ZM12 6L12 7L13 7L13 6ZM26 6L26 7L27 7L27 6ZM29 6L29 7L30 7L30 6ZM31 6L31 7L32 7L32 6ZM40 6L40 7L39 7L39 8L40 8L40 9L38 9L38 8L37 8L37 9L38 9L38 10L40 10L40 9L42 9L42 10L41 10L41 11L42 11L42 10L43 10L43 8L41 8L41 6ZM46 6L46 7L47 7L47 6ZM50 6L50 7L51 7L51 6ZM54 6L54 7L55 7L55 6ZM71 6L71 7L72 7L72 6ZM65 7L65 9L66 9L66 7ZM6 8L6 9L7 9L7 8ZM14 8L14 9L15 9L15 8ZM23 9L23 10L24 10L24 9ZM44 9L44 10L45 10L45 9ZM18 10L18 11L17 11L17 12L19 12L19 13L20 13L20 11L19 11L19 10ZM27 10L27 11L26 11L26 12L27 12L27 13L28 13L28 12L27 12L27 11L29 11L29 12L30 12L30 14L27 14L27 16L26 16L26 17L27 17L27 20L25 20L25 19L24 19L24 21L26 21L26 24L25 24L25 23L23 23L23 22L22 22L22 23L21 23L21 21L20 21L20 20L21 20L21 19L23 19L23 18L25 18L25 15L26 15L26 13L25 13L25 12L24 12L24 14L23 14L23 13L22 13L22 12L21 12L21 14L20 14L20 15L23 15L23 16L24 16L24 17L22 17L22 18L21 18L21 17L20 17L20 16L19 16L19 15L18 15L18 16L19 16L19 18L18 18L18 17L16 17L16 16L17 16L17 14L18 14L18 13L17 13L17 14L15 14L15 15L14 15L14 16L13 16L13 17L12 17L12 18L11 18L11 16L12 16L12 15L10 15L10 14L9 14L9 13L8 13L8 14L9 14L9 15L10 15L10 17L9 17L9 20L8 20L8 21L7 21L7 20L5 20L5 19L4 19L4 20L5 20L5 21L7 21L7 22L8 22L8 21L9 21L9 22L10 22L10 21L11 21L11 20L12 20L12 22L11 22L11 24L13 24L13 28L14 28L14 29L12 29L12 28L10 28L10 29L12 29L12 31L10 31L10 30L6 30L6 31L5 31L5 32L6 32L6 33L9 33L9 34L8 34L8 35L9 35L9 34L10 34L10 32L11 32L11 34L12 34L12 35L10 35L10 36L11 36L11 37L12 37L12 36L15 36L15 35L13 35L13 34L12 34L12 33L14 33L14 32L12 32L12 31L13 31L13 30L14 30L14 29L15 29L15 28L16 28L16 27L15 27L15 26L16 26L16 25L15 25L15 24L14 24L14 23L15 23L15 21L16 21L16 19L19 19L19 20L17 20L17 21L18 21L18 23L17 23L17 22L16 22L16 24L17 24L17 25L18 25L18 24L20 24L20 23L21 23L21 25L19 25L19 26L18 26L18 27L17 27L17 28L18 28L18 29L19 29L19 33L18 33L18 31L16 31L16 30L17 30L17 29L16 29L16 30L15 30L15 33L17 33L17 35L16 35L16 38L17 38L17 39L20 39L20 40L19 40L19 41L16 41L16 40L15 40L15 41L14 41L14 40L12 40L12 38L11 38L11 40L12 40L12 41L11 41L11 42L12 42L12 43L10 43L10 44L12 44L12 43L13 43L13 42L14 42L14 43L15 43L15 45L14 45L14 46L15 46L15 48L16 48L16 46L15 46L15 45L17 45L17 44L18 44L18 42L19 42L19 41L20 41L20 40L21 40L21 38L22 38L22 36L23 36L23 33L25 33L25 34L26 34L26 35L24 35L24 36L27 36L27 39L26 39L26 40L24 40L24 41L26 41L26 40L27 40L27 39L28 39L28 37L29 37L29 40L28 40L28 41L27 41L27 43L26 43L26 42L25 42L25 45L24 45L24 46L22 46L22 47L21 47L21 48L20 48L20 49L19 49L19 50L21 50L21 51L20 51L20 52L18 52L18 54L17 54L17 53L15 53L15 55L14 55L14 56L15 56L15 55L16 55L16 54L17 54L17 55L18 55L18 54L22 54L22 56L21 56L21 57L22 57L22 58L21 58L21 62L18 62L18 61L17 61L17 62L18 62L18 63L20 63L20 64L18 64L18 65L17 65L17 66L18 66L18 67L19 67L19 68L22 68L22 70L21 70L21 71L23 71L23 68L24 68L24 70L26 70L26 69L25 69L25 68L26 68L26 67L27 67L27 66L28 66L28 67L29 67L29 65L30 65L30 64L32 64L32 63L31 63L31 62L33 62L33 65L31 65L31 66L33 66L33 68L34 68L34 70L35 70L35 68L34 68L34 67L36 67L36 66L37 66L37 67L38 67L38 68L36 68L36 72L37 72L37 74L38 74L38 75L37 75L37 76L36 76L36 75L34 75L34 76L36 76L36 77L37 77L37 76L38 76L38 75L39 75L39 74L38 74L38 73L41 73L41 72L39 72L39 69L40 69L40 68L39 68L39 66L40 66L40 67L43 67L43 70L44 70L44 67L43 67L43 66L40 66L40 62L41 62L41 63L42 63L42 64L43 64L43 65L44 65L44 66L45 66L45 65L44 65L44 64L45 64L45 63L46 63L46 65L47 65L47 66L48 66L48 67L50 67L50 66L51 66L51 65L52 65L52 64L51 64L51 62L52 62L52 63L53 63L53 62L54 62L54 64L53 64L53 66L54 66L54 65L55 65L55 66L56 66L56 67L57 67L57 68L56 68L56 69L57 69L57 70L58 70L58 71L59 71L59 72L60 72L60 71L59 71L59 70L58 70L58 67L59 67L59 68L60 68L60 70L61 70L61 71L62 71L62 72L63 72L63 73L62 73L62 74L63 74L63 73L64 73L64 72L63 72L63 71L62 71L62 70L61 70L61 68L60 68L60 67L62 67L62 69L63 69L63 68L65 68L65 67L66 67L66 66L65 66L65 67L64 67L64 66L63 66L63 67L62 67L62 66L60 66L60 65L62 65L62 64L61 64L61 62L62 62L62 63L63 63L63 62L64 62L64 61L65 61L65 60L63 60L63 59L64 59L64 58L63 58L63 59L62 59L62 58L61 58L61 56L60 56L60 55L62 55L62 56L63 56L63 57L67 57L67 56L68 56L68 55L67 55L67 56L63 56L63 55L66 55L66 54L68 54L68 53L67 53L67 52L68 52L68 51L69 51L69 50L70 50L70 47L69 47L69 46L70 46L70 45L69 45L69 43L66 43L66 42L67 42L67 40L68 40L68 39L69 39L69 38L70 38L70 37L68 37L68 36L69 36L69 35L68 35L68 34L67 34L67 33L66 33L66 34L65 34L65 35L64 35L64 33L65 33L65 31L64 31L64 32L63 32L63 33L62 33L62 34L61 34L61 33L60 33L60 34L61 34L61 35L60 35L60 36L61 36L61 35L64 35L64 36L63 36L63 37L62 37L62 38L61 38L61 37L60 37L60 38L61 38L61 39L58 39L58 40L56 40L56 39L55 39L55 40L56 40L56 41L57 41L57 42L59 42L59 43L56 43L56 42L51 42L51 41L49 41L49 40L48 40L48 41L43 41L43 39L44 39L44 40L45 40L45 39L48 39L48 38L49 38L49 39L51 39L51 40L54 40L54 39L51 39L51 38L50 38L50 37L49 37L49 36L48 36L48 35L49 35L49 34L48 34L48 35L47 35L47 34L44 34L44 35L45 35L45 36L42 36L42 35L43 35L43 33L42 33L42 32L46 32L46 28L45 28L45 27L44 27L44 25L45 25L45 26L46 26L46 25L45 25L45 24L43 24L43 28L42 28L42 29L41 29L41 28L39 28L39 27L41 27L41 26L39 26L39 25L38 25L38 26L37 26L37 24L38 24L38 23L41 23L41 24L40 24L40 25L42 25L42 22L44 22L44 23L46 23L46 24L48 24L48 23L47 23L47 22L44 22L44 21L40 21L40 20L41 20L41 19L40 19L40 17L41 17L41 18L42 18L42 19L43 19L43 18L42 18L42 14L41 14L41 13L42 13L42 12L41 12L41 13L39 13L39 14L38 14L38 17L37 17L37 16L36 16L36 14L33 14L33 12L32 12L32 10L31 10L31 12L30 12L30 11L29 11L29 10ZM74 10L74 11L75 11L75 10ZM43 11L43 12L44 12L44 11ZM57 11L57 12L56 12L56 14L58 14L58 11ZM31 12L31 14L32 14L32 12ZM35 12L35 13L38 13L38 12ZM78 12L78 13L79 13L79 14L80 14L80 13L79 13L79 12ZM43 13L43 14L44 14L44 15L45 15L45 14L46 14L46 13ZM47 13L47 14L48 14L48 13ZM61 13L61 14L62 14L62 13ZM15 15L15 16L16 16L16 15ZM30 15L30 16L31 16L31 15ZM40 15L40 16L41 16L41 15ZM60 15L60 16L61 16L61 15ZM67 15L67 16L68 16L68 17L69 17L69 18L70 18L70 17L69 17L69 15ZM76 15L76 16L78 16L78 15ZM32 16L32 17L29 17L29 18L28 18L28 19L29 19L29 21L32 21L32 20L33 20L33 22L31 22L31 23L30 23L30 22L27 22L27 23L30 23L30 24L31 24L31 23L32 23L32 24L33 24L33 23L35 23L35 24L34 24L34 25L33 25L33 26L32 26L32 25L30 25L30 26L31 26L31 27L32 27L32 28L35 28L35 29L36 29L36 27L37 27L37 26L35 26L35 27L34 27L34 25L35 25L35 24L37 24L37 23L38 23L38 22L39 22L39 21L38 21L38 20L40 20L40 19L39 19L39 18L38 18L38 20L35 20L35 19L36 19L36 17L35 17L35 16L34 16L34 17L33 17L33 16ZM13 17L13 18L14 18L14 17ZM15 17L15 19L16 19L16 17ZM20 18L20 19L21 19L21 18ZM29 18L29 19L30 19L30 18ZM33 18L33 20L34 20L34 22L35 22L35 23L37 23L37 22L36 22L36 21L35 21L35 20L34 20L34 19L35 19L35 18ZM53 18L53 19L54 19L54 18ZM57 18L57 19L56 19L56 20L57 20L57 19L58 19L58 18ZM72 18L72 19L73 19L73 18ZM10 19L10 20L9 20L9 21L10 21L10 20L11 20L11 19ZM13 19L13 22L14 22L14 19ZM31 19L31 20L32 20L32 19ZM67 19L67 20L66 20L66 21L67 21L67 20L68 20L68 21L69 21L69 22L68 22L68 23L67 23L67 22L65 22L65 23L66 23L66 24L65 24L65 25L64 25L64 24L63 24L63 23L64 23L64 22L63 22L63 21L64 21L64 20L63 20L63 21L62 21L62 22L61 22L61 23L62 23L62 24L61 24L61 25L62 25L62 24L63 24L63 26L61 26L61 27L58 27L58 29L59 29L59 28L61 28L61 29L64 29L64 30L65 30L65 29L64 29L64 28L65 28L65 27L67 27L67 28L66 28L66 29L67 29L67 28L68 28L68 27L69 27L69 26L70 26L70 27L71 27L71 26L70 26L70 25L69 25L69 24L70 24L70 23L71 23L71 22L70 22L70 19ZM74 19L74 20L75 20L75 19ZM79 19L79 20L77 20L77 22L79 22L79 20L80 20L80 19ZM45 20L45 21L46 21L46 20ZM50 20L50 21L51 21L51 20ZM71 20L71 21L72 21L72 20ZM19 21L19 22L20 22L20 21ZM73 21L73 23L74 23L74 21ZM50 22L50 23L51 23L51 22ZM22 23L22 25L21 25L21 26L19 26L19 27L21 27L21 28L20 28L20 29L21 29L21 28L22 28L22 30L20 30L20 31L21 31L21 33L19 33L19 35L22 35L22 30L23 30L23 32L25 32L25 33L27 33L27 34L28 34L28 33L29 33L29 32L28 32L28 33L27 33L27 32L25 32L25 31L24 31L24 27L23 27L23 28L22 28L22 26L24 26L24 25L23 25L23 23ZM68 23L68 24L67 24L67 27L68 27L68 26L69 26L69 25L68 25L68 24L69 24L69 23ZM5 25L5 28L8 28L8 25ZM25 25L25 28L28 28L28 25ZM49 25L49 28L52 28L52 25ZM65 25L65 26L63 26L63 27L62 27L62 28L64 28L64 27L65 27L65 26L66 26L66 25ZM73 25L73 28L76 28L76 25ZM6 26L6 27L7 27L7 26ZM26 26L26 27L27 27L27 26ZM50 26L50 27L51 27L51 26ZM74 26L74 27L75 27L75 26ZM29 27L29 28L30 28L30 29L29 29L29 31L30 31L30 29L31 29L31 28L30 28L30 27ZM78 28L78 29L79 29L79 28ZM32 29L32 30L33 30L33 31L32 31L32 32L33 32L33 31L34 31L34 29ZM40 29L40 30L39 30L39 32L38 32L38 33L36 33L36 32L37 32L37 31L38 31L38 30L36 30L36 32L34 32L34 33L32 33L32 34L31 34L31 32L30 32L30 34L29 34L29 35L28 35L28 36L29 36L29 37L30 37L30 38L31 38L31 39L30 39L30 40L29 40L29 41L30 41L30 42L31 42L31 40L32 40L32 41L33 41L33 42L32 42L32 43L33 43L33 46L34 46L34 44L35 44L35 43L37 43L37 44L36 44L36 45L35 45L35 47L34 47L34 48L35 48L35 49L36 49L36 50L34 50L34 49L33 49L33 47L32 47L32 44L31 44L31 43L29 43L29 44L28 44L28 43L27 43L27 45L29 45L29 46L28 46L28 47L27 47L27 46L26 46L26 45L25 45L25 46L24 46L24 47L22 47L22 48L21 48L21 49L22 49L22 52L21 52L21 53L22 53L22 54L25 54L25 55L26 55L26 56L25 56L25 58L24 58L24 57L23 57L23 56L24 56L24 55L23 55L23 56L22 56L22 57L23 57L23 58L22 58L22 60L23 60L23 58L24 58L24 60L25 60L25 61L26 61L26 62L24 62L24 61L23 61L23 62L24 62L24 63L22 63L22 62L21 62L21 64L20 64L20 67L21 67L21 66L22 66L22 68L23 68L23 65L21 65L21 64L24 64L24 63L26 63L26 66L27 66L27 65L29 65L29 64L30 64L30 62L31 62L31 61L30 61L30 62L27 62L27 61L29 61L29 60L28 60L28 59L30 59L30 58L29 58L29 57L30 57L30 55L28 55L28 54L27 54L27 53L26 53L26 54L25 54L25 53L22 53L22 52L23 52L23 49L24 49L24 48L25 48L25 46L26 46L26 48L28 48L28 47L29 47L29 54L32 54L32 55L33 55L33 56L31 56L31 57L32 57L32 58L31 58L31 59L32 59L32 60L33 60L33 61L34 61L34 64L35 64L35 63L36 63L36 64L37 64L37 63L38 63L38 64L39 64L39 62L40 62L40 61L39 61L39 62L38 62L38 60L39 60L39 59L38 59L38 58L40 58L40 60L41 60L41 62L42 62L42 60L44 60L44 59L42 59L42 57L44 57L44 58L45 58L45 59L46 59L46 60L45 60L45 61L47 61L47 62L46 62L46 63L47 63L47 62L49 62L49 64L47 64L47 65L50 65L50 61L48 61L48 60L47 60L47 59L46 59L46 58L48 58L48 59L50 59L50 58L51 58L51 59L52 59L52 60L55 60L55 61L54 61L54 62L55 62L55 63L56 63L56 64L55 64L55 65L56 65L56 64L57 64L57 65L60 65L60 64L57 64L57 63L58 63L58 62L57 62L57 63L56 63L56 60L57 60L57 59L58 59L58 61L59 61L59 62L61 62L61 61L60 61L60 60L59 60L59 59L58 59L58 58L53 58L53 59L52 59L52 56L50 56L50 55L51 55L51 53L50 53L50 54L49 54L49 53L46 53L46 55L47 55L47 56L44 56L44 55L45 55L45 52L46 52L46 50L47 50L47 52L48 52L48 50L47 50L47 49L48 49L48 48L50 48L50 47L51 47L51 46L49 46L49 45L50 45L50 44L48 44L48 43L51 43L51 44L52 44L52 45L53 45L53 46L52 46L52 47L53 47L53 53L52 53L52 54L54 54L54 55L55 55L55 54L57 54L57 55L56 55L56 56L55 56L55 57L56 57L56 56L57 56L57 57L60 57L60 56L59 56L59 54L62 54L62 55L63 55L63 50L66 50L66 51L65 51L65 52L67 52L67 51L68 51L68 50L69 50L69 47L68 47L68 46L69 46L69 45L68 45L68 44L65 44L65 45L64 45L64 46L62 46L62 44L64 44L64 43L65 43L65 42L66 42L66 40L67 40L67 39L65 39L65 41L63 41L63 40L64 40L64 39L61 39L61 40L62 40L62 41L61 41L61 42L60 42L60 43L61 43L61 46L62 46L62 47L61 47L61 48L62 48L62 49L60 49L60 48L59 48L59 47L60 47L60 46L59 46L59 45L60 45L60 44L59 44L59 45L58 45L58 46L57 46L57 44L56 44L56 43L54 43L54 44L52 44L52 43L51 43L51 42L49 42L49 41L48 41L48 43L47 43L47 44L45 44L45 43L46 43L46 42L45 42L45 43L44 43L44 44L41 44L41 43L43 43L43 41L41 41L41 40L42 40L42 39L43 39L43 37L40 37L40 36L41 36L41 35L42 35L42 34L41 34L41 32L42 32L42 30L41 30L41 29ZM43 29L43 30L44 30L44 31L45 31L45 30L44 30L44 29ZM27 30L27 31L28 31L28 30ZM40 30L40 31L41 31L41 30ZM60 30L60 31L59 31L59 32L58 32L58 33L57 33L57 34L58 34L58 33L59 33L59 32L60 32L60 31L62 31L62 30ZM66 30L66 31L67 31L67 30ZM6 31L6 32L10 32L10 31ZM50 32L50 33L51 33L51 32ZM34 33L34 34L32 34L32 35L33 35L33 36L34 36L34 37L32 37L32 36L31 36L31 34L30 34L30 35L29 35L29 36L31 36L31 37L32 37L32 40L33 40L33 41L34 41L34 42L37 42L37 39L36 39L36 38L37 38L37 37L38 37L38 40L39 40L39 41L40 41L40 40L41 40L41 39L40 39L40 40L39 40L39 38L40 38L40 37L39 37L39 36L40 36L40 35L39 35L39 36L37 36L37 37L36 37L36 38L34 38L34 37L35 37L35 36L34 36L34 34L35 34L35 33ZM39 33L39 34L40 34L40 33ZM6 34L6 35L7 35L7 34ZM37 34L37 35L38 35L38 34ZM67 35L67 36L68 36L68 35ZM4 36L4 37L5 37L5 36ZM17 36L17 38L18 38L18 37L20 37L20 38L21 38L21 36ZM45 36L45 37L44 37L44 39L45 39L45 37L47 37L47 38L48 38L48 37L47 37L47 36ZM65 36L65 37L64 37L64 38L67 38L67 37L66 37L66 36ZM78 36L78 37L79 37L79 36ZM13 37L13 38L14 38L14 39L15 39L15 37ZM24 37L24 39L25 39L25 38L26 38L26 37ZM55 37L55 38L56 38L56 37ZM33 39L33 40L36 40L36 39ZM58 40L58 41L60 41L60 40ZM74 40L74 41L75 41L75 40ZM12 41L12 42L13 42L13 41ZM78 41L78 42L79 42L79 41ZM15 42L15 43L17 43L17 42ZM39 42L39 43L40 43L40 42ZM61 42L61 43L63 43L63 42ZM71 43L71 44L74 44L74 43ZM30 44L30 46L31 46L31 44ZM39 44L39 45L41 45L41 47L42 47L42 45L41 45L41 44ZM3 45L3 47L5 47L5 46L4 46L4 45ZM36 45L36 48L38 48L38 47L37 47L37 46L38 46L38 45ZM43 45L43 48L44 48L44 49L47 49L47 47L46 47L46 46L48 46L48 47L49 47L49 46L48 46L48 45L45 45L45 47L46 47L46 48L44 48L44 45ZM71 45L71 46L72 46L72 45ZM54 46L54 49L55 49L55 48L57 48L57 49L56 49L56 50L54 50L54 51L55 51L55 52L56 52L56 53L57 53L57 54L58 54L58 53L59 53L59 52L61 52L61 53L62 53L62 52L61 52L61 51L62 51L62 50L61 50L61 51L60 51L60 50L59 50L59 48L58 48L58 47L59 47L59 46L58 46L58 47L55 47L55 46ZM65 46L65 47L64 47L64 48L63 48L63 49L65 49L65 47L66 47L66 48L68 48L68 47L66 47L66 46ZM39 47L39 48L40 48L40 49L39 49L39 50L40 50L40 49L41 49L41 50L43 50L43 49L41 49L41 48L40 48L40 47ZM80 47L80 48L81 48L81 47ZM22 48L22 49L23 49L23 48ZM30 48L30 52L31 52L31 48ZM5 49L5 52L8 52L8 49ZM25 49L25 52L28 52L28 49ZM49 49L49 52L52 52L52 49ZM73 49L73 52L76 52L76 49ZM80 49L80 50L81 50L81 49ZM3 50L3 51L4 51L4 50ZM6 50L6 51L7 51L7 50ZM26 50L26 51L27 51L27 50ZM32 50L32 53L33 53L33 54L34 54L34 56L35 56L35 57L34 57L34 59L35 59L35 62L37 62L37 61L36 61L36 58L35 58L35 57L37 57L37 56L36 56L36 55L37 55L37 54L38 54L38 55L39 55L39 54L40 54L40 53L41 53L41 54L42 54L42 55L40 55L40 56L41 56L41 57L40 57L40 58L41 58L41 57L42 57L42 55L43 55L43 53L44 53L44 51L43 51L43 52L42 52L42 51L41 51L41 52L40 52L40 51L39 51L39 52L38 52L38 50L36 50L36 53L35 53L35 51L34 51L34 50ZM50 50L50 51L51 51L51 50ZM57 50L57 53L58 53L58 52L59 52L59 51L58 51L58 50ZM74 50L74 51L75 51L75 50ZM13 51L13 52L14 52L14 51ZM33 51L33 52L34 52L34 51ZM2 52L2 53L3 53L3 52ZM37 52L37 53L38 53L38 54L39 54L39 53L38 53L38 52ZM41 52L41 53L42 53L42 52ZM34 53L34 54L35 54L35 55L36 55L36 54L35 54L35 53ZM64 53L64 54L66 54L66 53ZM26 54L26 55L27 55L27 54ZM47 54L47 55L49 55L49 54ZM12 55L12 57L13 57L13 55ZM57 55L57 56L58 56L58 55ZM73 55L73 56L71 56L71 58L72 58L72 59L73 59L73 60L74 60L74 59L75 59L75 61L77 61L77 60L76 60L76 58L75 58L75 57L74 57L74 59L73 59L73 56L74 56L74 55ZM26 56L26 57L27 57L27 58L25 58L25 59L27 59L27 58L28 58L28 57L29 57L29 56L28 56L28 57L27 57L27 56ZM47 56L47 57L48 57L48 56ZM49 57L49 58L50 58L50 57ZM19 59L19 61L20 61L20 59ZM37 59L37 60L38 60L38 59ZM55 59L55 60L56 60L56 59ZM6 60L6 61L7 61L7 60ZM70 60L70 61L71 61L71 60ZM43 61L43 63L45 63L45 62L44 62L44 61ZM52 61L52 62L53 62L53 61ZM62 61L62 62L63 62L63 61ZM26 62L26 63L27 63L27 62ZM70 62L70 63L72 63L72 62ZM6 63L6 64L7 64L7 63ZM9 63L9 64L8 64L8 65L6 65L6 66L9 66L9 64L10 64L10 63ZM28 63L28 64L29 64L29 63ZM73 63L73 64L74 64L74 65L75 65L75 63ZM63 64L63 65L64 65L64 64ZM71 64L71 65L72 65L72 64ZM79 64L79 65L80 65L80 64ZM15 65L15 66L16 66L16 65ZM18 65L18 66L19 66L19 65ZM33 65L33 66L34 66L34 65ZM57 66L57 67L58 67L58 66ZM31 67L31 68L32 68L32 67ZM47 68L47 70L49 70L49 68ZM27 69L27 70L28 70L28 71L30 71L30 69L29 69L29 70L28 70L28 69ZM37 69L37 70L38 70L38 69ZM41 69L41 70L40 70L40 71L41 71L41 70L42 70L42 69ZM64 69L64 71L66 71L66 70L65 70L65 69ZM54 70L54 71L55 71L55 72L54 72L54 73L55 73L55 72L56 72L56 71L55 71L55 70ZM20 72L20 73L21 73L21 72ZM22 72L22 74L23 74L23 72ZM67 72L67 75L69 75L69 77L68 77L68 76L67 76L67 77L68 77L68 78L69 78L69 79L70 79L70 78L71 78L71 79L72 79L72 78L71 78L71 77L72 77L72 75L70 75L70 74L68 74L68 73L69 73L69 72ZM25 73L25 76L28 76L28 73ZM49 73L49 76L52 76L52 73ZM73 73L73 76L76 76L76 73ZM10 74L10 75L11 75L11 74ZM26 74L26 75L27 75L27 74ZM50 74L50 75L51 75L51 74ZM74 74L74 75L75 75L75 74ZM18 76L18 77L19 77L19 76ZM70 76L70 77L69 77L69 78L70 78L70 77L71 77L71 76ZM21 77L21 79L22 79L22 80L23 80L23 78L22 78L22 77ZM39 77L39 79L41 79L41 78L42 78L42 77ZM49 77L49 78L50 78L50 79L51 79L51 80L52 80L52 78L53 78L53 79L54 79L54 78L53 78L53 77L51 77L51 78L50 78L50 77ZM10 80L10 81L11 81L11 80ZM60 80L60 81L61 81L61 80ZM63 80L63 81L64 81L64 80ZM66 80L66 81L67 81L67 80ZM74 80L74 81L76 81L76 80ZM0 0L0 7L7 7L7 0ZM1 1L1 6L6 6L6 1ZM2 2L2 5L5 5L5 2ZM74 0L74 7L81 7L81 0ZM75 1L75 6L80 6L80 1ZM76 2L76 5L79 5L79 2ZM0 74L0 81L7 81L7 74ZM1 75L1 80L6 80L6 75ZM2 76L2 79L5 79L5 76Z" fill="#000000"/></g></g></svg>
