<?xml version="1.0" encoding="UTF-8"?>
<svg xmlns="http://www.w3.org/2000/svg" version="1.1" width="200" height="200" viewBox="0 0 200 200"><rect x="0" y="0" width="200" height="200" fill="#ffffff"/><g transform="scale(2.469)"><g transform="translate(0,0)"><path fill-rule="evenodd" d="M8 0L8 3L9 3L9 4L10 4L10 5L8 5L8 9L9 9L9 10L6 10L6 9L7 9L7 8L6 8L6 9L5 9L5 8L2 8L2 11L3 11L3 12L2 12L2 13L1 13L1 12L0 12L0 14L1 14L1 15L2 15L2 16L1 16L1 18L0 18L0 24L3 24L3 25L0 25L0 26L1 26L1 27L0 27L0 31L1 31L1 34L0 34L0 35L1 35L1 36L2 36L2 35L1 35L1 34L3 34L3 37L0 37L0 38L1 38L1 39L0 39L0 44L1 44L1 46L0 46L0 47L1 47L1 46L2 46L2 48L0 48L0 49L2 49L2 50L1 50L1 51L0 51L0 54L1 54L1 57L0 57L0 58L1 58L1 60L0 60L0 61L1 61L1 62L0 62L0 65L1 65L1 66L3 66L3 67L2 67L2 68L4 68L4 70L3 70L3 69L2 69L2 70L1 70L1 68L0 68L0 70L1 70L1 73L4 73L4 72L2 72L2 71L4 71L4 70L6 70L6 71L5 71L5 72L6 72L6 73L7 73L7 72L8 72L8 74L9 74L9 75L10 75L10 76L11 76L11 78L10 78L10 77L9 77L9 76L8 76L8 79L9 79L9 81L11 81L11 78L12 78L12 76L13 76L13 77L14 77L14 78L15 78L15 79L13 79L13 80L12 80L12 81L13 81L13 80L14 80L14 81L15 81L15 79L17 79L17 78L18 78L18 80L17 80L17 81L20 81L20 80L21 80L21 81L22 81L22 80L24 80L24 79L23 79L23 77L25 77L25 78L26 78L26 77L27 77L27 78L28 78L28 79L29 79L29 80L27 80L27 79L25 79L25 80L26 80L26 81L33 81L33 80L35 80L35 78L34 78L34 77L35 77L35 75L36 75L36 80L37 80L37 81L39 81L39 80L40 80L40 79L39 79L39 80L38 80L38 78L41 78L41 76L42 76L42 78L44 78L44 79L43 79L43 81L44 81L44 80L45 80L45 81L46 81L46 80L47 80L47 78L48 78L48 77L52 77L52 78L53 78L53 76L54 76L54 77L55 77L55 78L54 78L54 80L52 80L52 79L51 79L51 78L49 78L49 79L48 79L48 81L49 81L49 80L50 80L50 81L55 81L55 80L56 80L56 81L58 81L58 80L60 80L60 81L61 81L61 79L63 79L63 78L64 78L64 79L65 79L65 80L66 80L66 81L67 81L67 78L65 78L65 77L64 77L64 76L66 76L66 77L67 77L67 76L69 76L69 75L66 75L66 74L68 74L68 73L66 73L66 74L65 74L65 75L64 75L64 74L63 74L63 73L65 73L65 72L61 72L61 71L66 71L66 72L70 72L70 71L71 71L71 72L72 72L72 74L71 74L71 73L69 73L69 74L71 74L71 75L70 75L70 77L68 77L68 80L70 80L70 79L71 79L71 81L73 81L73 80L72 80L72 79L75 79L75 78L74 78L74 77L76 77L76 78L77 78L77 79L78 79L78 80L79 80L79 81L80 81L80 80L79 80L79 77L78 77L78 76L80 76L80 77L81 77L81 76L80 76L80 75L78 75L78 74L81 74L81 72L80 72L80 70L81 70L81 69L80 69L80 70L79 70L79 69L78 69L78 68L79 68L79 67L78 67L78 64L80 64L80 65L79 65L79 66L81 66L81 64L80 64L80 62L81 62L81 61L80 61L80 60L81 60L81 59L80 59L80 58L81 58L81 56L79 56L79 55L77 55L77 56L75 56L75 53L78 53L78 54L79 54L79 53L80 53L80 54L81 54L81 52L80 52L80 50L81 50L81 49L80 49L80 50L79 50L79 49L78 49L78 52L77 52L77 48L79 48L79 47L80 47L80 46L81 46L81 45L80 45L80 42L81 42L81 41L80 41L80 40L79 40L79 39L77 39L77 40L79 40L79 41L78 41L78 43L77 43L77 42L76 42L76 43L75 43L75 40L74 40L74 39L75 39L75 37L76 37L76 38L77 38L77 37L78 37L78 38L79 38L79 37L78 37L78 36L79 36L79 35L80 35L80 38L81 38L81 35L80 35L80 34L81 34L81 32L80 32L80 31L76 31L76 30L77 30L77 28L79 28L79 29L78 29L78 30L81 30L81 28L79 28L79 27L77 27L77 25L78 25L78 26L79 26L79 25L78 25L78 24L79 24L79 23L78 23L78 22L81 22L81 19L80 19L80 21L76 21L76 19L77 19L77 20L79 20L79 18L81 18L81 17L77 17L77 16L79 16L79 15L81 15L81 13L80 13L80 12L79 12L79 11L80 11L80 10L81 10L81 8L78 8L78 10L79 10L79 11L78 11L78 12L77 12L77 14L75 14L75 13L74 13L74 14L75 14L75 15L74 15L74 16L76 16L76 17L73 17L73 16L72 16L72 15L71 15L71 14L70 14L70 13L69 13L69 12L71 12L71 11L69 11L69 10L71 10L71 9L72 9L72 7L73 7L73 6L72 6L72 5L71 5L71 6L70 6L70 8L69 8L69 5L70 5L70 4L71 4L71 2L72 2L72 4L73 4L73 1L69 1L69 2L70 2L70 3L69 3L69 4L67 4L67 3L68 3L68 2L67 2L67 3L66 3L66 4L67 4L67 6L66 6L66 5L65 5L65 4L64 4L64 5L65 5L65 6L64 6L64 7L65 7L65 6L66 6L66 8L68 8L68 9L69 9L69 10L67 10L67 12L66 12L66 13L67 13L67 12L68 12L68 13L69 13L69 14L70 14L70 15L71 15L71 17L73 17L73 18L75 18L75 19L74 19L74 20L75 20L75 22L76 22L76 23L74 23L74 21L73 21L73 23L74 23L74 24L72 24L72 23L71 23L71 22L70 22L70 19L67 19L67 18L68 18L68 17L67 17L67 16L69 16L69 15L68 15L68 14L67 14L67 15L66 15L66 14L65 14L65 11L66 11L66 10L64 10L64 8L63 8L63 6L62 6L62 5L63 5L63 3L65 3L65 2L63 2L63 3L62 3L62 1L61 1L61 0L60 0L60 1L61 1L61 3L62 3L62 5L60 5L60 4L59 4L59 5L58 5L58 2L59 2L59 3L60 3L60 2L59 2L59 0L54 0L54 1L53 1L53 3L52 3L52 0L50 0L50 1L51 1L51 3L50 3L50 2L49 2L49 3L50 3L50 4L48 4L48 5L47 5L47 6L46 6L46 7L47 7L47 6L48 6L48 9L46 9L46 8L45 8L45 9L46 9L46 10L44 10L44 11L43 11L43 13L42 13L42 14L40 14L40 13L39 13L39 12L38 12L38 11L37 11L37 10L39 10L39 9L37 9L37 10L35 10L35 9L36 9L36 8L35 8L35 6L36 6L36 7L37 7L37 8L38 8L38 7L39 7L39 5L41 5L41 1L42 1L42 0L39 0L39 1L38 1L38 0L36 0L36 1L35 1L35 0L30 0L30 1L31 1L31 3L30 3L30 4L28 4L28 2L29 2L29 1L28 1L28 2L27 2L27 0L26 0L26 1L24 1L24 0L23 0L23 1L21 1L21 0L19 0L19 2L18 2L18 0L15 0L15 1L16 1L16 3L13 3L13 1L14 1L14 0L13 0L13 1L12 1L12 0L11 0L11 1L12 1L12 3L11 3L11 2L10 2L10 0ZM43 0L43 2L42 2L42 7L43 7L43 2L44 2L44 5L45 5L45 4L47 4L47 3L48 3L48 2L47 2L47 1L48 1L48 0L46 0L46 2L44 2L44 0ZM66 0L66 1L67 1L67 0ZM23 1L23 2L22 2L22 3L21 3L21 2L20 2L20 3L19 3L19 5L18 5L18 6L17 6L17 5L12 5L12 4L13 4L13 3L12 3L12 4L11 4L11 3L10 3L10 2L9 2L9 3L10 3L10 4L11 4L11 5L10 5L10 6L9 6L9 8L11 8L11 9L12 9L12 8L14 8L14 9L13 9L13 10L12 10L12 11L11 11L11 10L10 10L10 11L11 11L11 13L10 13L10 12L8 12L8 11L6 11L6 10L4 10L4 9L3 9L3 11L4 11L4 12L3 12L3 13L2 13L2 15L4 15L4 14L5 14L5 15L6 15L6 16L7 16L7 17L6 17L6 18L7 18L7 17L8 17L8 19L9 19L9 20L10 20L10 19L9 19L9 17L12 17L12 18L11 18L11 19L12 19L12 20L11 20L11 23L10 23L10 21L9 21L9 22L8 22L8 23L6 23L6 24L9 24L9 26L10 26L10 27L9 27L9 29L3 29L3 27L2 27L2 28L1 28L1 31L2 31L2 30L5 30L5 32L7 32L7 31L6 31L6 30L8 30L8 31L9 31L9 29L10 29L10 30L11 30L11 31L10 31L10 34L9 34L9 33L8 33L8 34L7 34L7 33L4 33L4 32L2 32L2 33L3 33L3 34L5 34L5 35L4 35L4 37L3 37L3 38L5 38L5 40L7 40L7 41L4 41L4 39L3 39L3 40L2 40L2 41L4 41L4 42L2 42L2 43L3 43L3 45L2 45L2 46L3 46L3 48L4 48L4 47L5 47L5 48L8 48L8 47L9 47L9 48L11 48L11 47L12 47L12 48L13 48L13 49L14 49L14 51L13 51L13 50L12 50L12 49L11 49L11 50L9 50L9 53L10 53L10 54L13 54L13 55L14 55L14 54L15 54L15 53L12 53L12 51L13 51L13 52L14 52L14 51L15 51L15 52L18 52L18 53L19 53L19 52L20 52L20 53L22 53L22 55L20 55L20 54L17 54L17 55L16 55L16 56L17 56L17 57L15 57L15 59L14 59L14 60L13 60L13 57L14 57L14 56L13 56L13 57L12 57L12 56L11 56L11 55L9 55L9 54L8 54L8 53L6 53L6 54L5 54L5 56L7 56L7 57L6 57L6 58L4 58L4 59L6 59L6 60L3 60L3 58L2 58L2 60L1 60L1 61L4 61L4 62L7 62L7 63L3 63L3 62L1 62L1 63L2 63L2 64L1 64L1 65L2 65L2 64L5 64L5 65L4 65L4 66L8 66L8 64L9 64L9 63L10 63L10 64L11 64L11 61L16 61L16 63L13 63L13 62L12 62L12 63L13 63L13 64L15 64L15 65L14 65L14 66L13 66L13 69L12 69L12 71L11 71L11 73L12 73L12 75L15 75L15 73L13 73L13 72L14 72L14 70L15 70L15 72L17 72L17 73L16 73L16 76L17 76L17 75L18 75L18 74L19 74L19 73L20 73L20 72L22 72L22 71L23 71L23 72L26 72L26 71L27 71L27 70L28 70L28 72L30 72L30 71L31 71L31 73L30 73L30 74L31 74L31 77L30 77L30 76L29 76L29 77L28 77L28 78L29 78L29 79L31 79L31 80L33 80L33 79L31 79L31 77L32 77L32 74L33 74L33 75L34 75L34 74L33 74L33 73L34 73L34 71L35 71L35 72L36 72L36 73L35 73L35 74L36 74L36 75L37 75L37 76L38 76L38 77L37 77L37 78L38 78L38 77L39 77L39 76L40 76L40 75L43 75L43 76L47 76L47 77L48 77L48 76L47 76L47 75L43 75L43 73L44 73L44 74L46 74L46 73L44 73L44 72L42 72L42 71L40 71L40 70L41 70L41 69L42 69L42 70L43 70L43 71L47 71L47 72L50 72L50 71L49 71L49 70L51 70L51 72L54 72L54 73L56 73L56 74L57 74L57 75L56 75L56 76L55 76L55 75L54 75L54 74L53 74L53 75L54 75L54 76L55 76L55 77L56 77L56 78L55 78L55 79L56 79L56 80L57 80L57 79L59 79L59 78L60 78L60 77L61 77L61 78L62 78L62 77L63 77L63 76L64 76L64 75L63 75L63 74L62 74L62 73L61 73L61 74L62 74L62 75L61 75L61 76L59 76L59 75L60 75L60 74L59 74L59 73L60 73L60 72L59 72L59 71L58 71L58 70L59 70L59 69L60 69L60 71L61 71L61 70L63 70L63 69L62 69L62 67L63 67L63 66L67 66L67 65L68 65L68 67L69 67L69 68L70 68L70 69L71 69L71 68L73 68L73 72L74 72L74 71L75 71L75 72L78 72L78 73L79 73L79 72L78 72L78 71L77 71L77 69L75 69L75 68L77 68L77 65L75 65L75 63L76 63L76 64L78 64L78 63L77 63L77 62L78 62L78 61L79 61L79 60L78 60L78 57L79 57L79 58L80 58L80 57L79 57L79 56L77 56L77 57L75 57L75 56L74 56L74 57L73 57L73 58L74 58L74 57L75 57L75 58L77 58L77 59L76 59L76 60L78 60L78 61L75 61L75 59L74 59L74 60L73 60L73 59L72 59L72 58L71 58L71 57L72 57L72 56L70 56L70 58L69 58L69 57L68 57L68 56L67 56L67 57L68 57L68 59L69 59L69 60L67 60L67 58L66 58L66 55L67 55L67 54L68 54L68 53L70 53L70 52L71 52L71 53L72 53L72 54L71 54L71 55L73 55L73 53L72 53L72 49L71 49L71 47L70 47L70 46L69 46L69 45L68 45L68 44L65 44L65 45L64 45L64 46L63 46L63 44L64 44L64 43L62 43L62 45L61 45L61 43L60 43L60 40L55 40L55 43L54 43L54 44L53 44L53 46L51 46L51 45L50 45L50 46L51 46L51 47L53 47L53 46L54 46L54 44L55 44L55 47L54 47L54 49L55 49L55 50L53 50L53 51L55 51L55 50L57 50L57 52L58 52L58 53L60 53L60 52L59 52L59 51L58 51L58 50L57 50L57 49L56 49L56 48L55 48L55 47L57 47L57 48L59 48L59 50L60 50L60 51L61 51L61 52L62 52L62 53L61 53L61 54L62 54L62 53L63 53L63 52L62 52L62 51L63 51L63 48L64 48L64 50L66 50L66 51L65 51L65 52L66 52L66 53L64 53L64 55L61 55L61 56L57 56L57 55L56 55L56 56L54 56L54 54L53 54L53 56L52 56L52 55L51 55L51 56L50 56L50 55L48 55L48 54L50 54L50 53L47 53L47 52L48 52L48 51L46 51L46 52L45 52L45 50L43 50L43 49L42 49L42 48L44 48L44 47L46 47L46 46L47 46L47 49L48 49L48 48L50 48L50 47L48 47L48 46L49 46L49 45L46 45L46 43L47 43L47 42L48 42L48 43L49 43L49 44L50 44L50 43L51 43L51 44L52 44L52 43L51 43L51 42L52 42L52 41L53 41L53 42L54 42L54 41L53 41L53 40L54 40L54 39L53 39L53 38L54 38L54 37L53 37L53 36L54 36L54 35L53 35L53 36L51 36L51 38L52 38L52 39L51 39L51 41L48 41L48 40L49 40L49 37L48 37L48 39L47 39L47 37L46 37L46 38L45 38L45 35L49 35L49 36L50 36L50 35L52 35L52 33L53 33L53 34L55 34L55 35L56 35L56 34L57 34L57 35L58 35L58 37L59 37L59 36L61 36L61 37L60 37L60 39L61 39L61 38L63 38L63 36L64 36L64 39L63 39L63 40L61 40L61 42L62 42L62 41L63 41L63 42L66 42L66 43L70 43L70 44L71 44L71 43L74 43L74 44L73 44L73 45L71 45L71 46L72 46L72 47L73 47L73 45L74 45L74 48L75 48L75 45L77 45L77 46L76 46L76 47L77 47L77 46L78 46L78 45L79 45L79 44L75 44L75 43L74 43L74 42L72 42L72 41L73 41L73 40L72 40L72 41L71 41L71 39L73 39L73 38L72 38L72 37L74 37L74 36L75 36L75 34L74 34L74 33L72 33L72 34L71 34L71 35L70 35L70 34L69 34L69 33L68 33L68 32L66 32L66 31L70 31L70 32L71 32L71 31L70 31L70 30L64 30L64 29L65 29L65 26L67 26L67 27L66 27L66 29L71 29L71 30L72 30L72 31L73 31L73 30L72 30L72 29L71 29L71 28L69 28L69 27L70 27L70 26L69 26L69 25L71 25L71 27L72 27L72 25L71 25L71 23L68 23L68 22L69 22L69 21L68 21L68 20L67 20L67 19L64 19L64 18L66 18L66 15L60 15L60 12L61 12L61 11L59 11L59 9L60 9L60 8L59 8L59 9L58 9L58 5L57 5L57 4L56 4L56 3L57 3L57 2L58 2L58 1L57 1L57 2L56 2L56 1L54 1L54 2L55 2L55 3L54 3L54 4L53 4L53 5L54 5L54 6L53 6L53 8L54 8L54 6L55 6L55 7L56 7L56 8L55 8L55 11L56 11L56 12L54 12L54 11L53 11L53 14L52 14L52 11L50 11L50 12L51 12L51 15L53 15L53 16L50 16L50 17L49 17L49 19L48 19L48 18L42 18L42 17L41 17L41 16L43 16L43 17L45 17L45 16L49 16L49 15L50 15L50 14L49 14L49 15L45 15L45 14L48 14L48 12L49 12L49 10L47 10L47 11L45 11L45 12L47 12L47 13L43 13L43 15L41 15L41 16L40 16L40 14L39 14L39 15L37 15L37 14L36 14L36 13L37 13L37 11L36 11L36 12L35 12L35 10L34 10L34 12L31 12L31 11L30 11L30 14L31 14L31 13L33 13L33 14L32 14L32 15L33 15L33 16L36 16L36 15L37 15L37 17L35 17L35 19L37 19L37 17L41 17L41 19L39 19L39 18L38 18L38 20L41 20L41 21L42 21L42 22L40 22L40 21L38 21L38 23L37 23L37 21L36 21L36 20L35 20L35 21L34 21L34 20L33 20L33 22L32 22L32 21L31 21L31 19L33 19L33 18L34 18L34 17L32 17L32 16L31 16L31 15L30 15L30 21L29 21L29 20L28 20L28 19L29 19L29 15L28 15L28 14L29 14L29 13L28 13L28 12L29 12L29 11L28 11L28 12L27 12L27 13L28 13L28 14L27 14L27 15L26 15L26 11L27 11L27 10L28 10L28 9L22 9L22 10L21 10L21 8L19 8L19 7L20 7L20 6L21 6L21 7L22 7L22 5L20 5L20 3L21 3L21 4L22 4L22 3L23 3L23 2L24 2L24 3L25 3L25 4L27 4L27 3L26 3L26 2L24 2L24 1ZM32 1L32 2L33 2L33 1ZM17 2L17 3L18 3L18 2ZM37 2L37 3L34 3L34 6L33 6L33 4L32 4L32 3L31 3L31 4L30 4L30 6L29 6L29 9L31 9L31 10L33 10L33 8L34 8L34 6L35 6L35 4L36 4L36 5L37 5L37 7L38 7L38 5L37 5L37 4L38 4L38 2ZM39 2L39 3L40 3L40 2ZM23 4L23 8L24 8L24 4ZM54 4L54 5L55 5L55 4ZM25 5L25 8L28 8L28 5ZM49 5L49 8L52 8L52 5ZM56 5L56 7L57 7L57 5ZM59 5L59 7L60 7L60 5ZM10 6L10 7L11 7L11 6ZM12 6L12 7L13 7L13 6ZM14 6L14 8L15 8L15 6ZM16 6L16 9L17 9L17 10L15 10L15 9L14 9L14 11L13 11L13 15L12 15L12 13L11 13L11 14L10 14L10 13L8 13L8 12L4 12L4 13L3 13L3 14L4 14L4 13L8 13L8 14L6 14L6 15L7 15L7 16L8 16L8 17L9 17L9 15L12 15L12 16L13 16L13 19L14 19L14 20L13 20L13 22L12 22L12 23L13 23L13 22L14 22L14 24L15 24L15 28L14 28L14 27L13 27L13 28L14 28L14 29L12 29L12 30L13 30L13 33L12 33L12 31L11 31L11 34L10 34L10 35L9 35L9 36L10 36L10 35L14 35L14 36L12 36L12 37L7 37L7 36L8 36L8 35L7 35L7 34L6 34L6 35L7 35L7 36L5 36L5 37L7 37L7 38L6 38L6 39L7 39L7 40L8 40L8 42L6 42L6 43L7 43L7 44L6 44L6 45L7 45L7 46L5 46L5 42L4 42L4 46L5 46L5 47L7 47L7 46L9 46L9 45L7 45L7 44L8 44L8 43L9 43L9 42L12 42L12 41L11 41L11 40L12 40L12 39L13 39L13 38L12 38L12 37L15 37L15 35L16 35L16 38L19 38L19 36L20 36L20 35L21 35L21 38L20 38L20 41L19 41L19 39L15 39L15 38L14 38L14 39L15 39L15 40L13 40L13 42L14 42L14 43L13 43L13 45L10 45L10 47L11 47L11 46L12 46L12 47L13 47L13 48L14 48L14 49L15 49L15 50L17 50L17 48L18 48L18 47L21 47L21 48L22 48L22 49L20 49L20 50L21 50L21 51L20 51L20 52L21 52L21 51L22 51L22 50L24 50L24 51L23 51L23 52L22 52L22 53L23 53L23 52L24 52L24 54L23 54L23 55L22 55L22 56L24 56L24 58L23 58L23 59L22 59L22 60L23 60L23 62L22 62L22 61L19 61L19 62L20 62L20 63L19 63L19 64L18 64L18 66L17 66L17 63L16 63L16 66L15 66L15 67L14 67L14 69L13 69L13 70L14 70L14 69L15 69L15 70L16 70L16 69L17 69L17 72L18 72L18 69L17 69L17 68L15 68L15 67L16 67L16 66L17 66L17 67L18 67L18 68L19 68L19 66L20 66L20 67L21 67L21 68L20 68L20 69L19 69L19 71L20 71L20 70L23 70L23 71L24 71L24 70L25 70L25 69L24 69L24 67L25 67L25 66L26 66L26 65L23 65L23 64L24 64L24 63L25 63L25 61L28 61L28 63L27 63L27 62L26 62L26 64L28 64L28 66L29 66L29 67L28 67L28 68L27 68L27 67L26 67L26 68L27 68L27 69L28 69L28 70L29 70L29 71L30 71L30 69L31 69L31 70L32 70L32 69L31 69L31 68L33 68L33 67L34 67L34 66L35 66L35 69L36 69L36 68L39 68L39 69L38 69L38 70L40 70L40 69L41 69L41 68L42 68L42 67L41 67L41 68L39 68L39 67L40 67L40 66L43 66L43 67L44 67L44 68L45 68L45 70L47 70L47 71L48 71L48 70L49 70L49 69L48 69L48 68L47 68L47 69L46 69L46 68L45 68L45 67L44 67L44 66L45 66L45 65L44 65L44 63L45 63L45 57L46 57L46 58L48 58L48 59L49 59L49 60L47 60L47 62L46 62L46 64L47 64L47 65L46 65L46 66L47 66L47 67L49 67L49 68L50 68L50 69L51 69L51 70L52 70L52 71L53 71L53 70L55 70L55 71L54 71L54 72L56 72L56 71L57 71L57 72L58 72L58 71L57 71L57 70L58 70L58 69L56 69L56 68L58 68L58 67L56 67L56 68L55 68L55 69L53 69L53 68L54 68L54 67L55 67L55 65L54 65L54 64L52 64L52 63L54 63L54 62L55 62L55 61L54 61L54 60L53 60L53 58L54 58L54 59L55 59L55 60L56 60L56 63L55 63L55 64L56 64L56 63L57 63L57 62L58 62L58 63L59 63L59 64L58 64L58 65L56 65L56 66L58 66L58 65L59 65L59 64L60 64L60 65L62 65L62 64L63 64L63 65L64 65L64 64L63 64L63 63L66 63L66 62L67 62L67 64L66 64L66 65L67 65L67 64L68 64L68 65L69 65L69 66L70 66L70 67L71 67L71 66L72 66L72 67L73 67L73 68L74 68L74 66L75 66L75 67L76 67L76 66L75 66L75 65L74 65L74 63L73 63L73 62L75 62L75 61L72 61L72 59L70 59L70 61L71 61L71 62L69 62L69 61L67 61L67 60L66 60L66 62L63 62L63 61L65 61L65 60L63 60L63 59L64 59L64 58L65 58L65 59L66 59L66 58L65 58L65 57L64 57L64 56L65 56L65 55L66 55L66 54L67 54L67 53L66 53L66 54L65 54L65 55L64 55L64 56L63 56L63 59L62 59L62 58L61 58L61 57L60 57L60 58L61 58L61 59L62 59L62 60L63 60L63 61L62 61L62 62L63 62L63 63L62 63L62 64L60 64L60 63L61 63L61 61L59 61L59 62L58 62L58 61L57 61L57 60L60 60L60 59L59 59L59 58L58 58L58 57L57 57L57 56L56 56L56 58L57 58L57 60L56 60L56 59L55 59L55 57L54 57L54 56L53 56L53 58L52 58L52 56L51 56L51 57L48 57L48 56L47 56L47 57L46 57L46 55L47 55L47 53L45 53L45 54L44 54L44 53L43 53L43 54L44 54L44 55L43 55L43 57L44 57L44 63L42 63L42 62L41 62L41 63L39 63L39 62L40 62L40 60L41 60L41 59L40 59L40 58L39 58L39 57L40 57L40 56L42 56L42 53L41 53L41 55L40 55L40 54L39 54L39 53L40 53L40 52L42 52L42 51L43 51L43 52L44 52L44 51L43 51L43 50L42 50L42 49L41 49L41 48L42 48L42 47L44 47L44 46L46 46L46 45L45 45L45 43L43 43L43 40L45 40L45 41L44 41L44 42L46 42L46 39L45 39L45 38L43 38L43 37L42 37L42 35L39 35L39 36L38 36L38 34L37 34L37 32L36 32L36 34L35 34L35 35L37 35L37 36L36 36L36 37L40 37L40 36L41 36L41 37L42 37L42 38L40 38L40 40L39 40L39 38L37 38L37 39L36 39L36 38L35 38L35 37L34 37L34 38L33 38L33 37L32 37L32 38L31 38L31 43L30 43L30 44L31 44L31 45L30 45L30 46L29 46L29 45L28 45L28 44L26 44L26 42L25 42L25 38L29 38L29 41L27 41L27 39L26 39L26 41L27 41L27 43L29 43L29 41L30 41L30 38L29 38L29 37L28 37L28 36L27 36L27 37L26 37L26 36L25 36L25 38L23 38L23 37L24 37L24 35L25 35L25 34L26 34L26 35L27 35L27 34L26 34L26 33L23 33L23 34L22 34L22 35L21 35L21 34L20 34L20 33L19 33L19 30L20 30L20 31L21 31L21 33L22 33L22 32L26 32L26 31L25 31L25 29L26 29L26 30L27 30L27 31L29 31L29 32L27 32L27 33L28 33L28 35L29 35L29 34L30 34L30 37L31 37L31 35L32 35L32 36L33 36L33 35L34 35L34 33L33 33L33 32L35 32L35 31L32 31L32 32L31 32L31 31L30 31L30 30L31 30L31 28L32 28L32 27L34 27L34 28L35 28L35 27L36 27L36 28L37 28L37 31L38 31L38 33L39 33L39 34L42 34L42 33L43 33L43 34L44 34L44 35L45 35L45 34L44 34L44 32L47 32L47 33L46 33L46 34L47 34L47 33L48 33L48 34L49 34L49 35L50 35L50 33L49 33L49 32L47 32L47 30L49 30L49 31L54 31L54 32L57 32L57 34L58 34L58 35L59 35L59 34L60 34L60 35L64 35L64 36L65 36L65 35L66 35L66 37L67 37L67 35L69 35L69 36L68 36L68 37L69 37L69 38L70 38L70 39L71 39L71 37L70 37L70 35L69 35L69 34L67 34L67 33L66 33L66 34L61 34L61 33L59 33L59 32L61 32L61 31L63 31L63 30L61 30L61 31L58 31L58 30L59 30L59 29L58 29L58 28L61 28L61 29L62 29L62 28L61 28L61 27L62 27L62 26L63 26L63 25L64 25L64 26L65 26L65 25L64 25L64 24L68 24L68 25L69 25L69 24L68 24L68 23L66 23L66 22L63 22L63 21L64 21L64 20L63 20L63 17L64 17L64 16L63 16L63 17L62 17L62 18L61 18L61 16L60 16L60 18L61 18L61 19L62 19L62 20L61 20L61 21L58 21L58 20L60 20L60 19L58 19L58 20L57 20L57 22L59 22L59 24L60 24L60 25L61 25L61 24L62 24L62 23L64 23L64 24L63 24L63 25L62 25L62 26L61 26L61 27L56 27L56 26L59 26L59 25L58 25L58 24L57 24L57 25L56 25L56 26L55 26L55 25L54 25L54 24L56 24L56 23L54 23L54 22L56 22L56 21L55 21L55 20L56 20L56 19L57 19L57 18L58 18L58 17L57 17L57 18L53 18L53 17L55 17L55 16L56 16L56 13L55 13L55 15L54 15L54 14L53 14L53 15L54 15L54 16L53 16L53 17L52 17L52 19L51 19L51 18L50 18L50 19L49 19L49 20L48 20L48 19L42 19L42 20L43 20L43 22L42 22L42 23L44 23L44 20L47 20L47 23L48 23L48 24L43 24L43 25L41 25L41 23L40 23L40 25L39 25L39 23L38 23L38 24L37 24L37 23L35 23L35 24L37 24L37 25L36 25L36 26L34 26L34 25L32 25L32 24L34 24L34 23L32 23L32 22L31 22L31 24L30 24L30 25L29 25L29 23L28 23L28 22L27 22L27 24L24 24L24 23L25 23L25 22L26 22L26 18L25 18L25 17L24 17L24 16L23 16L23 17L24 17L24 18L23 18L23 20L22 20L22 21L21 21L21 22L18 22L18 26L17 26L17 28L16 28L16 24L17 24L17 23L16 23L16 20L15 20L15 18L16 18L16 16L17 16L17 21L18 21L18 20L19 20L19 21L20 21L20 20L19 20L19 19L18 19L18 18L20 18L20 17L22 17L22 16L21 16L21 15L20 15L20 13L21 13L21 12L22 12L22 13L23 13L23 15L24 15L24 13L25 13L25 11L26 11L26 10L22 10L22 11L21 11L21 10L20 10L20 9L18 9L18 7L19 7L19 6L18 6L18 7L17 7L17 6ZM26 6L26 7L27 7L27 6ZM30 6L30 8L31 8L31 6ZM32 6L32 7L33 7L33 6ZM40 6L40 8L41 8L41 9L40 9L40 10L41 10L41 9L42 9L42 10L43 10L43 9L44 9L44 8L41 8L41 6ZM44 6L44 7L45 7L45 6ZM50 6L50 7L51 7L51 6ZM61 6L61 8L62 8L62 6ZM67 6L67 7L68 7L68 6ZM71 6L71 7L72 7L72 6ZM73 8L73 11L72 11L72 13L73 13L73 11L74 11L74 12L76 12L76 11L77 11L77 10L76 10L76 11L74 11L74 9L76 9L76 8ZM0 9L0 11L1 11L1 9ZM51 9L51 10L52 10L52 9ZM53 9L53 10L54 10L54 9ZM57 9L57 10L58 10L58 9ZM61 9L61 10L62 10L62 11L63 11L63 12L64 12L64 11L63 11L63 9ZM79 9L79 10L80 10L80 9ZM18 10L18 11L16 11L16 12L18 12L18 13L15 13L15 12L14 12L14 13L15 13L15 15L14 15L14 16L15 16L15 15L18 15L18 17L20 17L20 16L19 16L19 15L18 15L18 14L19 14L19 11L20 11L20 12L21 12L21 11L20 11L20 10ZM23 11L23 12L24 12L24 11ZM40 11L40 12L41 12L41 11ZM57 11L57 12L58 12L58 11ZM78 12L78 13L79 13L79 14L80 14L80 13L79 13L79 12ZM34 13L34 14L33 14L33 15L35 15L35 13ZM57 13L57 14L58 14L58 13ZM61 13L61 14L62 14L62 13ZM8 14L8 15L9 15L9 14ZM77 14L77 15L76 15L76 16L77 16L77 15L78 15L78 14ZM25 15L25 16L26 16L26 15ZM43 15L43 16L44 16L44 15ZM58 15L58 16L59 16L59 15ZM27 16L27 18L28 18L28 16ZM2 17L2 18L1 18L1 19L2 19L2 18L3 18L3 20L1 20L1 23L2 23L2 21L3 21L3 22L4 22L4 24L5 24L5 21L6 21L6 22L7 22L7 21L8 21L8 20L7 20L7 19L5 19L5 18L3 18L3 17ZM14 17L14 18L15 18L15 17ZM31 17L31 18L32 18L32 17ZM69 17L69 18L70 18L70 17ZM77 18L77 19L78 19L78 18ZM4 19L4 20L3 20L3 21L5 21L5 19ZM24 19L24 20L23 20L23 21L24 21L24 20L25 20L25 19ZM50 19L50 20L51 20L51 19ZM52 19L52 20L53 20L53 21L52 21L52 24L53 24L53 22L54 22L54 19ZM71 19L71 20L72 20L72 19ZM6 20L6 21L7 21L7 20ZM14 20L14 22L15 22L15 20ZM62 20L62 21L61 21L61 22L60 22L60 23L61 23L61 22L62 22L62 21L63 21L63 20ZM35 21L35 22L36 22L36 21ZM45 21L45 23L46 23L46 21ZM48 21L48 22L49 22L49 21ZM23 22L23 23L22 23L22 24L20 24L20 23L19 23L19 24L20 24L20 26L19 26L19 27L20 27L20 28L19 28L19 29L18 29L18 28L17 28L17 29L16 29L16 28L15 28L15 29L14 29L14 30L15 30L15 29L16 29L16 30L17 30L17 29L18 29L18 30L19 30L19 29L20 29L20 30L22 30L22 31L24 31L24 30L23 30L23 28L24 28L24 27L23 27L23 28L21 28L21 27L20 27L20 26L23 26L23 25L22 25L22 24L23 24L23 23L24 23L24 22ZM9 23L9 24L10 24L10 26L11 26L11 27L12 27L12 26L13 26L13 25L12 25L12 26L11 26L11 24L10 24L10 23ZM76 23L76 24L77 24L77 23ZM80 23L80 24L81 24L81 23ZM5 25L5 28L8 28L8 25ZM25 25L25 28L28 28L28 25ZM30 25L30 26L31 26L31 25ZM37 25L37 28L38 28L38 25ZM44 25L44 27L45 27L45 28L43 28L43 30L41 30L41 29L42 29L42 28L41 28L41 26L40 26L40 28L39 28L39 29L40 29L40 30L41 30L41 33L42 33L42 31L43 31L43 30L46 30L46 29L45 29L45 28L47 28L47 29L48 29L48 27L46 27L46 25ZM47 25L47 26L48 26L48 25ZM49 25L49 28L52 28L52 25ZM53 25L53 26L54 26L54 27L53 27L53 28L55 28L55 30L54 30L54 29L52 29L52 30L54 30L54 31L55 31L55 30L57 30L57 29L56 29L56 28L55 28L55 26L54 26L54 25ZM73 25L73 28L76 28L76 25ZM80 25L80 26L81 26L81 25ZM6 26L6 27L7 27L7 26ZM26 26L26 27L27 27L27 26ZM42 26L42 27L43 27L43 26ZM50 26L50 27L51 27L51 26ZM68 26L68 27L67 27L67 28L68 28L68 27L69 27L69 26ZM74 26L74 27L75 27L75 26ZM29 27L29 29L27 29L27 30L30 30L30 27ZM10 28L10 29L11 29L11 28ZM20 28L20 29L21 29L21 28ZM63 28L63 29L64 29L64 28ZM32 29L32 30L35 30L35 29ZM49 29L49 30L51 30L51 29ZM74 29L74 32L75 32L75 33L77 33L77 35L78 35L78 33L79 33L79 34L80 34L80 33L79 33L79 32L75 32L75 29ZM38 30L38 31L39 31L39 33L40 33L40 31L39 31L39 30ZM15 31L15 33L13 33L13 34L14 34L14 35L15 35L15 34L16 34L16 35L17 35L17 37L18 37L18 35L17 35L17 34L19 34L19 35L20 35L20 34L19 34L19 33L18 33L18 31L17 31L17 32L16 32L16 31ZM63 32L63 33L64 33L64 32ZM31 33L31 34L32 34L32 35L33 35L33 34L32 34L32 33ZM23 34L23 35L22 35L22 36L23 36L23 35L24 35L24 34ZM71 35L71 36L74 36L74 35ZM55 36L55 39L59 39L59 38L56 38L56 36ZM76 36L76 37L77 37L77 36ZM7 38L7 39L8 39L8 40L11 40L11 39L10 39L10 38L9 38L9 39L8 39L8 38ZM65 38L65 39L64 39L64 40L63 40L63 41L65 41L65 40L66 40L66 41L67 41L67 42L70 42L70 43L71 43L71 41L70 41L70 40L68 40L68 39L67 39L67 38ZM23 39L23 41L24 41L24 39ZM34 39L34 41L33 41L33 40L32 40L32 42L33 42L33 43L32 43L32 44L33 44L33 45L34 45L34 44L35 44L35 45L36 45L36 46L34 46L34 47L33 47L33 46L32 46L32 45L31 45L31 46L32 46L32 47L31 47L31 48L32 48L32 49L31 49L31 50L30 50L30 49L29 49L29 52L31 52L31 51L32 51L32 50L33 50L33 48L34 48L34 49L36 49L36 51L38 51L38 53L39 53L39 50L37 50L37 49L36 49L36 48L39 48L39 49L40 49L40 48L41 48L41 47L42 47L42 46L44 46L44 45L42 45L42 44L43 44L43 43L42 43L42 42L41 42L41 40L40 40L40 41L38 41L38 39L37 39L37 41L38 41L38 44L37 44L37 45L36 45L36 44L35 44L35 39ZM42 39L42 40L43 40L43 39ZM52 39L52 40L53 40L53 39ZM66 39L66 40L67 40L67 41L68 41L68 40L67 40L67 39ZM15 40L15 41L14 41L14 42L16 42L16 41L17 41L17 40ZM18 41L18 43L19 43L19 44L18 44L18 45L19 45L19 46L21 46L21 45L22 45L22 48L23 48L23 49L24 49L24 48L23 48L23 46L24 46L24 47L25 47L25 48L26 48L26 47L27 47L27 48L28 48L28 46L27 46L27 45L25 45L25 44L24 44L24 43L25 43L25 42L21 42L21 41L20 41L20 42L21 42L21 44L20 44L20 43L19 43L19 41ZM57 41L57 42L59 42L59 41ZM36 42L36 43L37 43L37 42ZM10 43L10 44L11 44L11 43ZM15 43L15 45L13 45L13 47L15 47L15 46L16 46L16 47L18 47L18 46L16 46L16 45L17 45L17 44L16 44L16 43ZM33 43L33 44L34 44L34 43ZM41 43L41 44L42 44L42 43ZM55 43L55 44L56 44L56 43ZM57 43L57 45L56 45L56 46L58 46L58 47L59 47L59 48L60 48L60 50L61 50L61 51L62 51L62 50L61 50L61 47L62 47L62 46L61 46L61 45L60 45L60 46L61 46L61 47L59 47L59 46L58 46L58 45L59 45L59 44L60 44L60 43ZM22 44L22 45L23 45L23 44ZM38 44L38 46L36 46L36 47L34 47L34 48L36 48L36 47L39 47L39 48L40 48L40 46L39 46L39 44ZM74 44L74 45L75 45L75 44ZM41 45L41 46L42 46L42 45ZM67 45L67 46L68 46L68 47L66 47L66 46L65 46L65 47L64 47L64 48L65 48L65 47L66 47L66 49L67 49L67 48L68 48L68 47L69 47L69 50L70 50L70 47L69 47L69 46L68 46L68 45ZM29 47L29 48L30 48L30 47ZM32 47L32 48L33 48L33 47ZM45 48L45 49L46 49L46 48ZM3 49L3 50L2 50L2 52L1 52L1 53L2 53L2 52L4 52L4 51L3 51L3 50L4 50L4 49ZM5 49L5 52L8 52L8 49ZM25 49L25 52L28 52L28 49ZM49 49L49 52L52 52L52 49ZM73 49L73 52L76 52L76 49ZM6 50L6 51L7 51L7 50ZM11 50L11 51L10 51L10 53L11 53L11 51L12 51L12 50ZM18 50L18 52L19 52L19 50ZM26 50L26 51L27 51L27 50ZM34 50L34 51L33 51L33 52L32 52L32 53L30 53L30 54L29 54L29 55L27 55L27 54L24 54L24 55L27 55L27 56L26 56L26 57L27 57L27 59L23 59L23 60L28 60L28 61L30 61L30 59L31 59L31 58L30 58L30 57L29 57L29 58L28 58L28 57L27 57L27 56L29 56L29 55L30 55L30 56L31 56L31 55L32 55L32 56L33 56L33 54L32 54L32 53L33 53L33 52L35 52L35 53L34 53L34 55L35 55L35 56L34 56L34 58L35 58L35 59L36 59L36 61L34 61L34 59L32 59L32 61L33 61L33 62L30 62L30 65L31 65L31 64L32 64L32 63L34 63L34 64L35 64L35 66L36 66L36 67L39 67L39 66L36 66L36 64L35 64L35 63L36 63L36 62L38 62L38 61L39 61L39 60L40 60L40 59L38 59L38 57L39 57L39 56L40 56L40 55L38 55L38 54L37 54L37 53L36 53L36 52L35 52L35 50ZM41 50L41 51L42 51L42 50ZM50 50L50 51L51 51L51 50ZM74 50L74 51L75 51L75 50ZM67 51L67 52L69 52L69 51ZM53 52L53 53L55 53L55 54L57 54L57 53L56 53L56 52ZM78 52L78 53L79 53L79 52ZM35 53L35 55L36 55L36 56L37 56L37 57L35 57L35 58L36 58L36 59L37 59L37 57L38 57L38 56L37 56L37 55L36 55L36 53ZM2 54L2 56L3 56L3 57L4 57L4 55L3 55L3 54ZM6 54L6 55L7 55L7 54ZM45 54L45 55L46 55L46 54ZM59 54L59 55L60 55L60 54ZM69 54L69 55L70 55L70 54ZM8 55L8 56L9 56L9 57L8 57L8 58L6 58L6 59L7 59L7 60L6 60L6 61L7 61L7 62L8 62L8 59L9 59L9 60L11 60L11 59L12 59L12 57L11 57L11 59L9 59L9 58L10 58L10 56L9 56L9 55ZM18 55L18 56L19 56L19 57L20 57L20 56L19 56L19 55ZM16 58L16 61L17 61L17 60L18 60L18 59L19 59L19 60L20 60L20 58L18 58L18 59L17 59L17 58ZM42 59L42 61L43 61L43 59ZM50 59L50 61L51 61L51 62L50 62L50 63L52 63L52 62L54 62L54 61L53 61L53 60L52 60L52 61L51 61L51 59ZM9 61L9 62L10 62L10 61ZM23 62L23 63L24 63L24 62ZM47 62L47 63L48 63L48 65L47 65L47 66L48 66L48 65L49 65L49 62ZM59 62L59 63L60 63L60 62ZM68 62L68 64L69 64L69 62ZM71 62L71 63L70 63L70 64L71 64L71 65L72 65L72 64L71 64L71 63L72 63L72 62ZM7 63L7 64L6 64L6 65L7 65L7 64L8 64L8 63ZM21 63L21 64L22 64L22 63ZM28 63L28 64L29 64L29 63ZM37 63L37 64L38 64L38 65L39 65L39 64L38 64L38 63ZM19 64L19 65L20 65L20 64ZM40 64L40 65L43 65L43 64ZM32 65L32 66L33 66L33 65ZM51 65L51 66L52 66L52 65ZM73 65L73 66L74 66L74 65ZM11 66L11 68L12 68L12 66ZM21 66L21 67L22 67L22 68L21 68L21 69L22 69L22 68L23 68L23 66ZM30 66L30 67L31 67L31 66ZM49 66L49 67L50 67L50 66ZM53 66L53 67L52 67L52 68L53 68L53 67L54 67L54 66ZM60 66L60 67L59 67L59 68L60 68L60 67L62 67L62 66ZM4 67L4 68L5 68L5 69L6 69L6 70L8 70L8 71L10 71L10 67L6 67L6 68L5 68L5 67ZM64 67L64 68L65 68L65 69L64 69L64 70L66 70L66 71L70 71L70 70L69 70L69 69L68 69L68 68L67 68L67 67ZM6 68L6 69L9 69L9 68ZM29 68L29 69L30 69L30 68ZM66 68L66 69L67 69L67 68ZM74 69L74 70L75 70L75 69ZM33 70L33 71L32 71L32 72L33 72L33 71L34 71L34 70ZM36 70L36 72L39 72L39 71L37 71L37 70ZM71 70L71 71L72 71L72 70ZM6 71L6 72L7 72L7 71ZM22 73L22 77L20 77L20 76L21 76L21 74L20 74L20 76L19 76L19 77L18 77L18 78L19 78L19 79L20 79L20 78L22 78L22 77L23 77L23 76L24 76L24 74L23 74L23 73ZM25 73L25 76L28 76L28 73ZM31 73L31 74L32 74L32 73ZM37 73L37 74L38 74L38 73ZM41 73L41 74L42 74L42 73ZM49 73L49 76L52 76L52 73ZM57 73L57 74L58 74L58 73ZM73 73L73 76L76 76L76 73ZM26 74L26 75L27 75L27 74ZM39 74L39 75L40 75L40 74ZM50 74L50 75L51 75L51 74ZM74 74L74 75L75 75L75 74ZM57 75L57 78L56 78L56 79L57 79L57 78L58 78L58 75ZM62 75L62 76L63 76L63 75ZM71 75L71 77L70 77L70 78L69 78L69 79L70 79L70 78L73 78L73 77L72 77L72 75ZM77 75L77 76L78 76L78 75ZM15 77L15 78L17 78L17 77ZM19 77L19 78L20 78L20 77ZM29 77L29 78L30 78L30 77ZM44 77L44 78L45 78L45 79L46 79L46 78L45 78L45 77ZM9 78L9 79L10 79L10 78ZM21 79L21 80L22 80L22 79ZM41 79L41 81L42 81L42 79ZM50 79L50 80L51 80L51 79ZM62 80L62 81L64 81L64 80ZM74 80L74 81L76 81L76 80ZM0 0L0 7L7 7L7 0ZM1 1L1 6L6 6L6 1ZM2 2L2 5L5 5L5 2ZM74 0L74 7L81 7L81 0ZM75 1L75 6L80 6L80 1ZM76 2L76 5L79 5L79 2ZM0 74L0 81L7 81L7 74ZM1 75L1 80L6 80L6 75ZM2 76L2 79L5 79L5 76Z" fill="#000000"/></g></g></svg>
