<?xml version="1.0" encoding="UTF-8"?>
<svg xmlns="http://www.w3.org/2000/svg" version="1.1" width="200" height="200" viewBox="0 0 200 200"><rect x="0" y="0" width="200" height="200" fill="#ffffff"/><g transform="scale(2.899)"><g transform="translate(0,0)"><path fill-rule="evenodd" d="M10 0L10 1L11 1L11 2L9 2L9 3L10 3L10 4L11 4L11 2L12 2L12 3L13 3L13 5L12 5L12 7L13 7L13 8L15 8L15 6L16 6L16 7L17 7L17 8L16 8L16 9L15 9L15 10L14 10L14 11L15 11L15 12L14 12L14 13L13 13L13 11L12 11L12 10L13 10L13 9L10 9L10 7L11 7L11 6L10 6L10 5L9 5L9 4L8 4L8 5L9 5L9 6L8 6L8 8L6 8L6 9L10 9L10 10L9 10L9 13L10 13L10 14L11 14L11 19L14 19L14 16L13 16L13 15L15 15L15 14L16 14L16 16L18 16L18 15L19 15L19 17L20 17L20 15L21 15L21 17L23 17L23 18L24 18L24 19L27 19L27 20L23 20L23 19L22 19L22 20L21 20L21 22L20 22L20 21L19 21L19 19L20 19L20 18L19 18L19 19L18 19L18 17L17 17L17 21L15 21L15 20L13 20L13 21L12 21L12 22L10 22L10 21L9 21L9 22L8 22L8 19L7 19L7 18L6 18L6 17L7 17L7 16L6 16L6 15L8 15L8 18L9 18L9 17L10 17L10 15L8 15L8 14L6 14L6 13L8 13L8 12L6 12L6 11L7 11L7 10L6 10L6 11L4 11L4 12L2 12L2 13L1 13L1 14L0 14L0 16L1 16L1 19L0 19L0 20L1 20L1 19L2 19L2 17L3 17L3 18L4 18L4 20L5 20L5 21L7 21L7 22L6 22L6 23L7 23L7 22L8 22L8 24L9 24L9 25L10 25L10 23L12 23L12 25L11 25L11 26L8 26L8 25L7 25L7 24L4 24L4 25L3 25L3 24L2 24L2 22L3 22L3 23L5 23L5 22L4 22L4 21L3 21L3 20L2 20L2 22L1 22L1 23L0 23L0 27L1 27L1 28L0 28L0 33L1 33L1 31L4 31L4 32L2 32L2 33L3 33L3 35L4 35L4 36L2 36L2 35L0 35L0 36L2 36L2 37L1 37L1 38L0 38L0 39L1 39L1 41L0 41L0 43L1 43L1 42L2 42L2 43L4 43L4 45L3 45L3 44L0 44L0 46L1 46L1 47L2 47L2 48L3 48L3 47L2 47L2 46L4 46L4 45L5 45L5 46L6 46L6 47L5 47L5 49L4 49L4 51L3 51L3 50L2 50L2 49L1 49L1 48L0 48L0 49L1 49L1 50L2 50L2 52L1 52L1 53L2 53L2 54L1 54L1 55L0 55L0 57L1 57L1 58L0 58L0 61L1 61L1 58L2 58L2 59L3 59L3 58L4 58L4 59L8 59L8 58L5 58L5 57L7 57L7 56L8 56L8 57L9 57L9 58L10 58L10 59L9 59L9 60L8 60L8 63L10 63L10 62L11 62L11 63L12 63L12 64L11 64L11 65L10 65L10 64L9 64L9 65L8 65L8 67L9 67L9 68L10 68L10 67L11 67L11 68L12 68L12 67L11 67L11 66L14 66L14 67L13 67L13 68L14 68L14 69L16 69L16 68L17 68L17 69L22 69L22 68L23 68L23 69L24 69L24 68L25 68L25 67L26 67L26 66L28 66L28 67L27 67L27 69L28 69L28 67L29 67L29 69L31 69L31 68L32 68L32 67L31 67L31 68L30 68L30 67L29 67L29 65L31 65L31 64L32 64L32 66L34 66L34 67L33 67L33 68L34 68L34 67L35 67L35 68L36 68L36 69L37 69L37 68L36 68L36 67L37 67L37 66L38 66L38 69L39 69L39 68L42 68L42 69L43 69L43 68L42 68L42 65L43 65L43 66L44 66L44 68L45 68L45 69L46 69L46 67L47 67L47 66L48 66L48 68L49 68L49 69L51 69L51 67L52 67L52 69L54 69L54 68L55 68L55 67L56 67L56 65L57 65L57 63L56 63L56 62L58 62L58 61L59 61L59 60L60 60L60 62L59 62L59 63L58 63L58 64L59 64L59 65L58 65L58 66L57 66L57 68L58 68L58 67L59 67L59 68L62 68L62 69L63 69L63 67L64 67L64 68L65 68L65 69L67 69L67 68L66 68L66 67L67 67L67 66L68 66L68 65L69 65L69 63L68 63L68 61L66 61L66 60L64 60L64 59L66 59L66 58L68 58L68 59L69 59L69 57L68 57L68 55L67 55L67 54L66 54L66 53L67 53L67 51L68 51L68 54L69 54L69 51L68 51L68 49L69 49L69 44L66 44L66 45L65 45L65 46L66 46L66 47L64 47L64 45L63 45L63 44L65 44L65 43L66 43L66 42L65 42L65 40L66 40L66 41L67 41L67 42L69 42L69 40L68 40L68 39L67 39L67 38L68 38L68 37L69 37L69 32L68 32L68 30L69 30L69 27L68 27L68 25L69 25L69 19L68 19L68 18L66 18L66 17L67 17L67 16L65 16L65 14L66 14L66 13L67 13L67 15L68 15L68 17L69 17L69 15L68 15L68 13L67 13L67 12L65 12L65 14L64 14L64 13L62 13L62 15L63 15L63 18L62 18L62 20L60 20L60 21L59 21L59 20L57 20L57 21L56 21L56 18L55 18L55 20L54 20L54 18L53 18L53 17L55 17L55 16L56 16L56 17L58 17L58 18L57 18L57 19L59 19L59 15L60 15L60 17L62 17L62 16L61 16L61 14L60 14L60 12L59 12L59 15L58 15L58 13L55 13L55 14L54 14L54 13L53 13L53 14L52 14L52 13L51 13L51 12L52 12L52 11L55 11L55 9L54 9L54 10L52 10L52 9L53 9L53 4L54 4L54 3L53 3L53 4L52 4L52 2L56 2L56 3L55 3L55 5L54 5L54 8L55 8L55 6L56 6L56 7L57 7L57 6L58 6L58 7L59 7L59 8L60 8L60 10L57 10L57 9L58 9L58 8L57 8L57 9L56 9L56 12L57 12L57 11L61 11L61 12L62 12L62 10L61 10L61 9L63 9L63 8L61 8L61 6L60 6L60 7L59 7L59 4L56 4L56 3L57 3L57 2L58 2L58 3L59 3L59 2L58 2L58 1L61 1L61 0L57 0L57 1L55 1L55 0L54 0L54 1L53 1L53 0L51 0L51 1L52 1L52 2L51 2L51 3L50 3L50 2L48 2L48 1L50 1L50 0L47 0L47 1L46 1L46 0L45 0L45 2L44 2L44 0L40 0L40 1L37 1L37 0L33 0L33 1L36 1L36 2L31 2L31 0L30 0L30 3L32 3L32 4L31 4L31 5L30 5L30 4L29 4L29 3L28 3L28 2L29 2L29 0L27 0L27 1L26 1L26 0L25 0L25 1L26 1L26 3L28 3L28 7L27 7L27 6L26 6L26 7L25 7L25 6L24 6L24 7L23 7L23 5L24 5L24 2L22 2L22 1L24 1L24 0L22 0L22 1L21 1L21 0L20 0L20 2L22 2L22 3L19 3L19 2L18 2L18 3L17 3L17 2L16 2L16 1L17 1L17 0L16 0L16 1L15 1L15 0L14 0L14 1L12 1L12 0ZM41 1L41 2L40 2L40 3L39 3L39 2L36 2L36 3L39 3L39 5L40 5L40 6L39 6L39 7L40 7L40 6L41 6L41 7L42 7L42 6L43 6L43 8L44 8L44 9L42 9L42 10L44 10L44 11L41 11L41 12L40 12L40 11L39 11L39 10L38 10L38 11L37 11L37 10L35 10L35 12L34 12L34 9L31 9L31 8L32 8L32 5L31 5L31 8L30 8L30 5L29 5L29 7L28 7L28 8L27 8L27 7L26 7L26 8L25 8L25 7L24 7L24 8L25 8L25 9L24 9L24 10L21 10L21 11L23 11L23 12L24 12L24 13L23 13L23 15L22 15L22 16L23 16L23 17L24 17L24 18L25 18L25 17L24 17L24 16L25 16L25 15L24 15L24 14L25 14L25 12L27 12L27 9L28 9L28 10L29 10L29 11L28 11L28 14L30 14L30 15L31 15L31 16L30 16L30 17L29 17L29 16L28 16L28 17L27 17L27 18L28 18L28 20L27 20L27 21L28 21L28 22L27 22L27 23L25 23L25 22L26 22L26 21L25 21L25 22L24 22L24 21L23 21L23 20L22 20L22 22L21 22L21 23L22 23L22 25L21 25L21 24L20 24L20 22L19 22L19 21L17 21L17 24L18 24L18 23L19 23L19 25L21 25L21 26L22 26L22 27L18 27L18 25L16 25L16 26L15 26L15 24L13 24L13 27L12 27L12 28L11 28L11 29L10 29L10 30L9 30L9 29L8 29L8 28L10 28L10 27L8 27L8 26L7 26L7 25L6 25L6 26L7 26L7 27L6 27L6 28L5 28L5 31L6 31L6 32L7 32L7 31L8 31L8 32L9 32L9 34L10 34L10 35L9 35L9 37L8 37L8 40L7 40L7 39L6 39L6 38L7 38L7 37L5 37L5 39L6 39L6 40L5 40L5 41L4 41L4 40L3 40L3 39L4 39L4 37L3 37L3 39L2 39L2 38L1 38L1 39L2 39L2 41L4 41L4 42L7 42L7 41L8 41L8 42L9 42L9 41L10 41L10 42L11 42L11 41L13 41L13 38L14 38L14 39L15 39L15 40L14 40L14 45L12 45L12 46L14 46L14 45L15 45L15 46L16 46L16 47L18 47L18 46L19 46L19 45L18 45L18 44L19 44L19 42L20 42L20 41L21 41L21 44L22 44L22 45L20 45L20 46L21 46L21 47L22 47L22 48L20 48L20 49L22 49L22 50L21 50L21 52L19 52L19 53L18 53L18 51L17 51L17 52L16 52L16 54L17 54L17 53L18 53L18 54L19 54L19 55L20 55L20 56L18 56L18 58L19 58L19 59L20 59L20 58L19 58L19 57L20 57L20 56L21 56L21 53L22 53L22 54L23 54L23 55L22 55L22 59L24 59L24 57L23 57L23 55L25 55L25 56L26 56L26 57L25 57L25 58L26 58L26 57L28 57L28 59L25 59L25 60L24 60L24 62L22 62L22 64L20 64L20 63L21 63L21 62L20 62L20 61L21 61L21 60L20 60L20 61L19 61L19 62L18 62L18 61L17 61L17 62L16 62L16 63L15 63L15 64L14 64L14 66L15 66L15 64L16 64L16 66L20 66L20 65L22 65L22 66L23 66L23 68L24 68L24 66L26 66L26 65L27 65L27 64L28 64L28 65L29 65L29 64L28 64L28 62L27 62L27 61L28 61L28 60L29 60L29 56L31 56L31 53L32 53L32 52L31 52L31 53L30 53L30 54L28 54L28 55L27 55L27 53L29 53L29 52L27 52L27 51L30 51L30 49L33 49L33 48L34 48L34 46L35 46L35 47L37 47L37 48L36 48L36 49L35 49L35 50L36 50L36 51L35 51L35 52L36 52L36 51L38 51L38 52L37 52L37 53L38 53L38 54L36 54L36 53L35 53L35 54L33 54L33 55L32 55L32 57L30 57L30 59L32 59L32 60L31 60L31 61L30 61L30 62L29 62L29 63L30 63L30 62L31 62L31 61L32 61L32 60L33 60L33 59L32 59L32 58L33 58L33 56L34 56L34 55L38 55L38 56L39 56L39 57L40 57L40 54L41 54L41 55L42 55L42 56L41 56L41 57L42 57L42 58L41 58L41 59L40 59L40 60L39 60L39 59L38 59L38 58L36 58L36 56L35 56L35 59L36 59L36 60L37 60L37 61L38 61L38 62L37 62L37 63L38 63L38 64L37 64L37 65L38 65L38 64L39 64L39 65L42 65L42 64L43 64L43 65L44 65L44 63L45 63L45 66L47 66L47 65L46 65L46 64L47 64L47 63L48 63L48 66L49 66L49 68L50 68L50 66L52 66L52 67L55 67L55 65L56 65L56 64L55 64L55 65L53 65L53 64L54 64L54 62L56 62L56 61L58 61L58 60L56 60L56 57L57 57L57 56L58 56L58 55L56 55L56 54L57 54L57 53L56 53L56 50L55 50L55 49L58 49L58 53L59 53L59 57L58 57L58 58L59 58L59 59L61 59L61 58L63 58L63 59L64 59L64 56L65 56L65 58L66 58L66 56L67 56L67 55L66 55L66 56L65 56L65 55L63 55L63 54L61 54L61 52L62 52L62 51L63 51L63 48L64 48L64 47L63 47L63 48L62 48L62 46L63 46L63 45L62 45L62 44L63 44L63 43L65 43L65 42L62 42L62 39L63 39L63 37L62 37L62 39L61 39L61 37L60 37L60 35L58 35L58 34L59 34L59 33L58 33L58 32L57 32L57 31L58 31L58 29L59 29L59 28L60 28L60 29L61 29L61 28L64 28L64 30L67 30L67 29L68 29L68 27L67 27L67 26L65 26L65 25L68 25L68 24L67 24L67 23L68 23L68 22L66 22L66 20L67 20L67 21L68 21L68 20L67 20L67 19L66 19L66 18L64 18L64 19L65 19L65 22L66 22L66 24L65 24L65 23L64 23L64 21L61 21L61 22L60 22L60 25L57 25L57 24L56 24L56 25L57 25L57 26L55 26L55 23L56 23L56 22L55 22L55 23L53 23L53 22L54 22L54 20L53 20L53 22L52 22L52 21L49 21L49 20L50 20L50 18L51 18L51 17L50 17L50 18L49 18L49 16L50 16L50 15L49 15L49 14L47 14L47 12L48 12L48 10L47 10L47 8L48 8L48 9L49 9L49 10L50 10L50 12L49 12L49 13L50 13L50 12L51 12L51 9L52 9L52 4L51 4L51 8L50 8L50 3L49 3L49 4L48 4L48 3L46 3L46 2L45 2L45 3L44 3L44 4L46 4L46 5L44 5L44 6L43 6L43 3L42 3L42 2L43 2L43 1ZM13 2L13 3L14 3L14 2ZM15 2L15 3L16 3L16 2ZM22 3L22 5L21 5L21 7L22 7L22 5L23 5L23 3ZM34 3L34 4L35 4L35 3ZM60 3L60 5L61 5L61 3ZM14 4L14 5L15 5L15 4ZM18 4L18 5L20 5L20 4ZM25 4L25 5L27 5L27 4ZM40 4L40 5L42 5L42 4ZM47 4L47 5L48 5L48 4ZM16 5L16 6L17 6L17 7L18 7L18 11L19 11L19 12L18 12L18 13L17 13L17 10L15 10L15 11L16 11L16 12L15 12L15 13L14 13L14 14L15 14L15 13L17 13L17 15L18 15L18 13L19 13L19 12L20 12L20 9L19 9L19 8L20 8L20 6L19 6L19 7L18 7L18 6L17 6L17 5ZM33 5L33 8L36 8L36 5ZM37 5L37 7L38 7L38 5ZM9 6L9 7L10 7L10 6ZM13 6L13 7L14 7L14 6ZM34 6L34 7L35 7L35 6ZM44 6L44 8L45 8L45 6ZM46 6L46 8L47 8L47 6ZM48 6L48 7L49 7L49 6ZM2 8L2 9L3 9L3 10L4 10L4 8ZM21 8L21 9L23 9L23 8ZM26 8L26 9L27 9L27 8ZM28 8L28 9L29 9L29 10L31 10L31 11L30 11L30 12L31 12L31 13L32 13L32 14L31 14L31 15L32 15L32 14L33 14L33 16L31 16L31 17L32 17L32 19L33 19L33 20L35 20L35 22L34 22L34 21L32 21L32 25L30 25L30 26L28 26L28 25L29 25L29 24L30 24L30 21L29 21L29 20L28 20L28 21L29 21L29 24L28 24L28 25L25 25L25 23L24 23L24 25L25 25L25 27L27 27L27 28L26 28L26 29L28 29L28 30L30 30L30 28L29 28L29 27L31 27L31 26L32 26L32 31L31 31L31 32L30 32L30 35L28 35L28 34L27 34L27 37L25 37L25 38L27 38L27 37L28 37L28 38L29 38L29 39L27 39L27 42L26 42L26 40L25 40L25 39L24 39L24 36L25 36L25 35L24 35L24 36L23 36L23 35L22 35L22 34L23 34L23 33L24 33L24 32L23 32L23 30L24 30L24 31L25 31L25 33L29 33L29 32L27 32L27 31L26 31L26 30L24 30L24 29L22 29L22 28L21 28L21 29L20 29L20 30L21 30L21 31L19 31L19 30L16 30L16 29L17 29L17 28L18 28L18 27L17 27L17 26L16 26L16 27L17 27L17 28L14 28L14 27L13 27L13 28L12 28L12 29L11 29L11 30L10 30L10 31L9 31L9 30L8 30L8 29L7 29L7 28L6 28L6 29L7 29L7 30L6 30L6 31L7 31L7 30L8 30L8 31L9 31L9 32L11 32L11 35L10 35L10 40L12 40L12 38L13 38L13 37L15 37L15 38L16 38L16 37L15 37L15 36L14 36L14 35L15 35L15 34L14 34L14 33L13 33L13 32L14 32L14 30L15 30L15 31L16 31L16 33L17 33L17 34L21 34L21 35L20 35L20 38L19 38L19 35L16 35L16 36L17 36L17 40L16 40L16 42L17 42L17 44L15 44L15 45L17 45L17 46L18 46L18 45L17 45L17 44L18 44L18 42L19 42L19 40L18 40L18 38L19 38L19 39L20 39L20 40L22 40L22 44L23 44L23 45L24 45L24 46L25 46L25 48L24 48L24 50L22 50L22 52L24 52L24 51L26 51L26 50L27 50L27 49L28 49L28 47L27 47L27 44L28 44L28 46L31 46L31 48L33 48L33 47L32 47L32 46L33 46L33 45L32 45L32 43L34 43L34 44L37 44L37 46L39 46L39 47L40 47L40 48L39 48L39 49L38 49L38 50L39 50L39 52L38 52L38 53L39 53L39 52L40 52L40 53L41 53L41 51L42 51L42 52L43 52L43 54L44 54L44 53L45 53L45 55L46 55L46 58L45 58L45 59L41 59L41 60L40 60L40 61L39 61L39 62L41 62L41 64L42 64L42 62L45 62L45 63L46 63L46 62L45 62L45 59L46 59L46 61L47 61L47 62L48 62L48 63L51 63L51 64L49 64L49 65L52 65L52 64L53 64L53 63L51 63L51 61L52 61L52 62L53 62L53 61L52 61L52 60L51 60L51 59L48 59L48 58L47 58L47 55L46 55L46 54L48 54L48 52L47 52L47 51L51 51L51 52L53 52L53 50L54 50L54 51L55 51L55 50L54 50L54 49L55 49L55 48L54 48L54 47L55 47L55 45L56 45L56 44L55 44L55 45L53 45L53 44L54 44L54 43L52 43L52 42L50 42L50 41L52 41L52 40L53 40L53 39L54 39L54 37L55 37L55 36L53 36L53 35L55 35L55 33L56 33L56 31L57 31L57 29L56 29L56 28L55 28L55 26L54 26L54 27L52 27L52 25L50 25L50 24L51 24L51 23L50 23L50 22L49 22L49 23L50 23L50 24L48 24L48 22L47 22L47 23L46 23L46 21L47 21L47 20L44 20L44 18L45 18L45 17L46 17L46 18L47 18L47 19L48 19L48 20L49 20L49 18L47 18L47 17L46 17L46 14L45 14L45 13L46 13L46 12L47 12L47 10L46 10L46 9L45 9L45 10L46 10L46 12L45 12L45 11L44 11L44 13L43 13L43 12L41 12L41 14L42 14L42 15L43 15L43 17L41 17L41 16L37 16L37 14L38 14L38 13L37 13L37 12L36 12L36 13L37 13L37 14L33 14L33 13L34 13L34 12L33 12L33 11L32 11L32 10L31 10L31 9L30 9L30 8ZM37 8L37 9L38 9L38 8ZM39 8L39 9L40 9L40 10L41 10L41 8ZM49 8L49 9L50 9L50 8ZM64 8L64 9L65 9L65 8ZM0 9L0 10L1 10L1 11L0 11L0 12L1 12L1 11L2 11L2 10L1 10L1 9ZM66 9L66 10L68 10L68 12L69 12L69 9ZM24 10L24 11L26 11L26 10ZM63 10L63 11L65 11L65 10ZM10 11L10 12L11 12L11 13L12 13L12 11ZM31 11L31 12L32 12L32 11ZM38 11L38 12L39 12L39 14L40 14L40 12L39 12L39 11ZM5 12L5 13L6 13L6 12ZM21 12L21 14L22 14L22 12ZM3 13L3 14L2 14L2 16L3 16L3 15L4 15L4 13ZM26 13L26 16L27 16L27 13ZM12 14L12 15L13 15L13 14ZM51 14L51 15L52 15L52 14ZM55 14L55 15L57 15L57 16L58 16L58 15L57 15L57 14ZM35 15L35 16L34 16L34 18L33 18L33 19L36 19L36 21L38 21L38 22L39 22L39 23L38 23L38 25L37 25L37 24L36 24L36 23L37 23L37 22L35 22L35 25L36 25L36 26L34 26L34 24L33 24L33 25L32 25L32 26L34 26L34 27L33 27L33 28L34 28L34 29L35 29L35 28L37 28L37 30L34 30L34 31L32 31L32 32L31 32L31 33L32 33L32 32L39 32L39 33L41 33L41 34L38 34L38 36L37 36L37 37L36 37L36 38L37 38L37 39L38 39L38 42L37 42L37 44L41 44L41 45L40 45L40 47L41 47L41 45L42 45L42 44L43 44L43 43L44 43L44 45L45 45L45 43L46 43L46 44L47 44L47 43L48 43L48 44L49 44L49 42L48 42L48 41L49 41L49 40L52 40L52 39L53 39L53 38L52 38L52 35L53 35L53 34L54 34L54 33L55 33L55 29L53 29L53 28L51 28L51 26L50 26L50 25L45 25L45 26L44 26L44 27L43 27L43 25L44 25L44 23L43 23L43 21L44 21L44 20L43 20L43 18L44 18L44 17L43 17L43 18L41 18L41 19L40 19L40 20L42 20L42 23L41 23L41 21L40 21L40 22L39 22L39 21L38 21L38 20L39 20L39 17L37 17L37 16L36 16L36 15ZM44 15L44 16L45 16L45 15ZM53 15L53 16L52 16L52 17L53 17L53 16L54 16L54 15ZM12 16L12 18L13 18L13 16ZM64 16L64 17L65 17L65 16ZM15 17L15 19L16 19L16 17ZM35 17L35 18L37 18L37 20L38 20L38 18L37 18L37 17ZM30 18L30 20L31 20L31 18ZM52 18L52 19L51 19L51 20L52 20L52 19L53 19L53 18ZM60 18L60 19L61 19L61 18ZM5 19L5 20L7 20L7 19ZM9 19L9 20L10 20L10 19ZM14 21L14 23L16 23L16 22L15 22L15 21ZM57 21L57 23L58 23L58 22L59 22L59 21ZM22 22L22 23L23 23L23 22ZM61 22L61 24L62 24L62 22ZM42 23L42 24L41 24L41 25L40 25L40 24L39 24L39 25L38 25L38 26L36 26L36 27L41 27L41 28L42 28L42 29L43 29L43 31L42 31L42 30L41 30L41 29L40 29L40 30L41 30L41 31L42 31L42 32L41 32L41 33L42 33L42 35L41 35L41 36L40 36L40 35L39 35L39 37L38 37L38 39L39 39L39 40L40 40L40 42L39 42L39 43L40 43L40 42L41 42L41 43L42 43L42 42L41 42L41 36L42 36L42 39L43 39L43 40L42 40L42 41L44 41L44 42L45 42L45 39L44 39L44 38L46 38L46 39L48 39L48 38L47 38L47 37L49 37L49 39L52 39L52 38L51 38L51 37L50 37L50 36L51 36L51 35L52 35L52 33L53 33L53 32L54 32L54 31L52 31L52 29L51 29L51 28L49 28L49 29L48 29L48 27L47 27L47 29L46 29L46 26L45 26L45 28L43 28L43 27L42 27L42 26L41 26L41 25L43 25L43 23ZM45 23L45 24L46 24L46 23ZM1 24L1 25L2 25L2 24ZM53 24L53 25L54 25L54 24ZM4 25L4 26L3 26L3 27L2 27L2 28L3 28L3 27L4 27L4 26L5 26L5 25ZM22 25L22 26L23 26L23 28L24 28L24 26L23 26L23 25ZM62 25L62 27L64 27L64 28L65 28L65 29L67 29L67 27L66 27L66 28L65 28L65 26L63 26L63 25ZM49 26L49 27L50 27L50 26ZM60 26L60 28L61 28L61 26ZM57 27L57 28L58 28L58 27ZM28 28L28 29L29 29L29 28ZM38 28L38 30L37 30L37 31L39 31L39 32L40 32L40 31L39 31L39 28ZM1 29L1 30L4 30L4 29ZM13 29L13 30L11 30L11 31L13 31L13 30L14 30L14 29ZM44 29L44 30L45 30L45 31L46 31L46 29ZM50 29L50 31L49 31L49 32L48 32L48 30L47 30L47 32L45 32L45 34L43 34L43 36L44 36L44 37L45 37L45 36L44 36L44 35L46 35L46 36L48 36L48 35L49 35L49 36L50 36L50 35L51 35L51 33L52 33L52 31L51 31L51 29ZM62 29L62 31L61 31L61 30L59 30L59 32L60 32L60 31L61 31L61 32L64 32L64 31L63 31L63 29ZM43 31L43 33L44 33L44 31ZM50 31L50 32L49 32L49 33L48 33L48 34L49 34L49 35L50 35L50 34L49 34L49 33L51 33L51 31ZM66 31L66 32L67 32L67 34L66 34L66 33L65 33L65 35L66 35L66 36L65 36L65 37L64 37L64 38L65 38L65 39L66 39L66 38L67 38L67 34L68 34L68 32L67 32L67 31ZM22 32L22 33L21 33L21 34L22 34L22 33L23 33L23 32ZM5 33L5 36L8 36L8 33ZM12 33L12 34L13 34L13 33ZM33 33L33 36L36 36L36 33ZM46 33L46 34L47 34L47 33ZM61 33L61 36L64 36L64 33ZM6 34L6 35L7 35L7 34ZM31 34L31 36L28 36L28 37L29 37L29 38L31 38L31 37L32 37L32 34ZM34 34L34 35L35 35L35 34ZM56 34L56 36L58 36L58 35L57 35L57 34ZM62 34L62 35L63 35L63 34ZM12 35L12 36L11 36L11 37L13 37L13 35ZM33 37L33 38L32 38L32 39L29 39L29 40L28 40L28 42L27 42L27 43L26 43L26 42L23 42L23 43L25 43L25 44L27 44L27 43L28 43L28 42L29 42L29 44L31 44L31 43L32 43L32 42L34 42L34 41L35 41L35 43L36 43L36 41L37 41L37 40L36 40L36 39L35 39L35 38L34 38L34 37ZM56 37L56 38L55 38L55 41L57 41L57 40L58 40L58 43L59 43L59 41L60 41L60 45L61 45L61 46L59 46L59 47L58 47L58 45L59 45L59 44L57 44L57 46L56 46L56 48L60 48L60 49L61 49L61 50L59 50L59 53L60 53L60 52L61 52L61 50L62 50L62 49L61 49L61 48L60 48L60 47L61 47L61 46L62 46L62 45L61 45L61 44L62 44L62 43L61 43L61 39L58 39L58 38L57 38L57 37ZM59 37L59 38L60 38L60 37ZM65 37L65 38L66 38L66 37ZM21 38L21 39L23 39L23 40L24 40L24 39L23 39L23 38ZM39 38L39 39L40 39L40 38ZM56 38L56 39L57 39L57 38ZM6 40L6 41L7 41L7 40ZM8 40L8 41L9 41L9 40ZM29 40L29 42L32 42L32 41L33 41L33 40L32 40L32 41L31 41L31 40ZM46 40L46 43L47 43L47 41L48 41L48 40ZM63 40L63 41L64 41L64 40ZM17 41L17 42L18 42L18 41ZM53 41L53 42L54 42L54 41ZM55 42L55 43L56 43L56 42ZM6 43L6 44L7 44L7 45L6 45L6 46L7 46L7 45L8 45L8 44L7 44L7 43ZM9 43L9 46L8 46L8 47L9 47L9 49L8 49L8 48L7 48L7 47L6 47L6 48L7 48L7 49L6 49L6 50L5 50L5 51L4 51L4 52L7 52L7 53L6 53L6 54L7 54L7 55L6 55L6 56L7 56L7 55L8 55L8 54L7 54L7 53L9 53L9 54L10 54L10 55L9 55L9 56L11 56L11 57L10 57L10 58L11 58L11 59L13 59L13 62L15 62L15 61L14 61L14 60L15 60L15 59L13 59L13 58L12 58L12 57L14 57L14 58L17 58L17 55L16 55L16 56L15 56L15 54L13 54L13 53L14 53L14 52L13 52L13 51L15 51L15 50L18 50L18 48L17 48L17 49L15 49L15 48L14 48L14 49L15 49L15 50L11 50L11 51L10 51L10 49L12 49L12 48L11 48L11 44L10 44L10 43ZM12 43L12 44L13 44L13 43ZM51 44L51 45L50 45L50 46L49 46L49 45L47 45L47 47L45 47L45 46L44 46L44 48L45 48L45 49L42 49L42 48L40 48L40 49L39 49L39 50L40 50L40 51L41 51L41 50L43 50L43 51L45 51L45 53L46 53L46 51L47 51L47 50L46 50L46 48L48 48L48 49L49 49L49 48L50 48L50 49L52 49L52 50L51 50L51 51L52 51L52 50L53 50L53 47L51 47L51 46L53 46L53 45L52 45L52 44ZM1 45L1 46L2 46L2 45ZM25 45L25 46L26 46L26 45ZM31 45L31 46L32 46L32 45ZM67 45L67 46L68 46L68 45ZM9 46L9 47L10 47L10 46ZM42 46L42 47L43 47L43 46ZM48 46L48 47L49 47L49 46ZM50 47L50 48L51 48L51 47ZM66 47L66 48L65 48L65 49L64 49L64 50L66 50L66 51L67 51L67 50L66 50L66 49L67 49L67 48L68 48L68 47ZM26 48L26 49L25 49L25 50L26 50L26 49L27 49L27 48ZM29 48L29 49L30 49L30 48ZM7 49L7 50L6 50L6 51L7 51L7 50L8 50L8 49ZM32 50L32 51L33 51L33 52L34 52L34 51L33 51L33 50ZM8 51L8 52L9 52L9 53L10 53L10 52L9 52L9 51ZM64 51L64 52L65 52L65 53L66 53L66 52L65 52L65 51ZM11 52L11 53L13 53L13 52ZM26 52L26 53L24 53L24 54L25 54L25 55L26 55L26 56L27 56L27 55L26 55L26 53L27 53L27 52ZM49 52L49 54L50 54L50 56L49 56L49 55L48 55L48 56L49 56L49 58L50 58L50 57L51 57L51 54L50 54L50 52ZM3 53L3 54L2 54L2 55L1 55L1 56L2 56L2 57L5 57L5 56L4 56L4 55L5 55L5 54L4 54L4 53ZM19 53L19 54L20 54L20 53ZM52 53L52 57L53 57L53 58L52 58L52 59L53 59L53 60L54 60L54 61L56 61L56 60L54 60L54 59L55 59L55 57L56 57L56 56L55 56L55 55L54 55L54 54L53 54L53 53ZM11 54L11 56L12 56L12 54ZM38 54L38 55L39 55L39 54ZM60 54L60 56L61 56L61 54ZM13 55L13 56L14 56L14 57L15 57L15 56L14 56L14 55ZM43 55L43 56L42 56L42 57L43 57L43 58L44 58L44 55ZM53 55L53 57L54 57L54 55ZM46 58L46 59L47 59L47 60L48 60L48 59L47 59L47 58ZM17 59L17 60L18 60L18 59ZM3 60L3 61L5 61L5 60ZM6 60L6 61L7 61L7 60ZM10 60L10 61L12 61L12 60ZM22 60L22 61L23 61L23 60ZM25 60L25 61L27 61L27 60ZM41 60L41 62L42 62L42 61L43 61L43 60ZM49 60L49 62L50 62L50 60ZM33 61L33 64L36 64L36 61ZM61 61L61 64L64 64L64 61ZM65 61L65 62L66 62L66 61ZM19 62L19 63L18 63L18 64L17 64L17 65L20 65L20 64L19 64L19 63L20 63L20 62ZM24 62L24 63L25 63L25 64L26 64L26 63L27 63L27 62L26 62L26 63L25 63L25 62ZM34 62L34 63L35 63L35 62ZM62 62L62 63L63 63L63 62ZM59 63L59 64L60 64L60 63ZM67 63L67 65L66 65L66 64L65 64L65 65L64 65L64 67L66 67L66 66L67 66L67 65L68 65L68 63ZM12 64L12 65L13 65L13 64ZM23 65L23 66L24 66L24 65ZM34 65L34 66L36 66L36 65ZM59 65L59 66L60 66L60 65ZM61 65L61 66L62 66L62 67L63 67L63 65ZM9 66L9 67L10 67L10 66ZM39 66L39 67L41 67L41 66ZM14 67L14 68L15 68L15 67ZM18 67L18 68L22 68L22 67ZM68 67L68 68L69 68L69 67ZM0 0L0 7L7 7L7 0ZM1 1L1 6L6 6L6 1ZM2 2L2 5L5 5L5 2ZM62 0L62 7L69 7L69 0ZM63 1L63 6L68 6L68 1ZM64 2L64 5L67 5L67 2ZM0 62L0 69L7 69L7 62ZM1 63L1 68L6 68L6 63ZM2 64L2 67L5 67L5 64Z" fill="#000000"/></g></g></svg>
