<?xml version="1.0" encoding="UTF-8"?>
<svg xmlns="http://www.w3.org/2000/svg" version="1.1" width="200" height="200" viewBox="0 0 200 200"><rect x="0" y="0" width="200" height="200" fill="#ffffff"/><g transform="scale(2.469)"><g transform="translate(0,0)"><path fill-rule="evenodd" d="M9 0L9 2L8 2L8 4L9 4L9 5L10 5L10 7L9 7L9 6L8 6L8 7L9 7L9 8L11 8L11 5L12 5L12 4L13 4L13 6L12 6L12 7L13 7L13 9L11 9L11 13L10 13L10 12L6 12L6 11L7 11L7 10L5 10L5 13L4 13L4 12L3 12L3 10L2 10L2 12L3 12L3 14L2 14L2 13L1 13L1 12L0 12L0 14L2 14L2 15L0 15L0 16L1 16L1 17L2 17L2 15L3 15L3 17L7 17L7 18L6 18L6 19L5 19L5 20L4 20L4 18L2 18L2 19L1 19L1 20L0 20L0 21L3 21L3 22L5 22L5 23L7 23L7 22L5 22L5 21L7 21L7 20L6 20L6 19L7 19L7 18L9 18L9 19L8 19L8 21L9 21L9 20L12 20L12 19L15 19L15 18L13 18L13 16L14 16L14 14L15 14L15 16L16 16L16 20L15 20L15 21L13 21L13 22L14 22L14 23L13 23L13 24L12 24L12 23L11 23L11 22L10 22L10 23L11 23L11 25L13 25L13 24L14 24L14 23L15 23L15 24L16 24L16 25L14 25L14 27L13 27L13 26L12 26L12 27L13 27L13 29L12 29L12 30L11 30L11 29L10 29L10 24L9 24L9 23L8 23L8 24L4 24L4 23L0 23L0 30L1 30L1 31L3 31L3 32L4 32L4 33L5 33L5 34L2 34L2 32L1 32L1 34L0 34L0 35L2 35L2 36L3 36L3 38L1 38L1 36L0 36L0 42L1 42L1 45L0 45L0 48L1 48L1 46L2 46L2 47L3 47L3 48L2 48L2 49L3 49L3 50L2 50L2 51L1 51L1 50L0 50L0 51L1 51L1 52L0 52L0 53L1 53L1 55L0 55L0 57L1 57L1 55L2 55L2 57L3 57L3 58L2 58L2 59L1 59L1 60L2 60L2 59L3 59L3 60L4 60L4 59L3 59L3 58L6 58L6 59L5 59L5 60L6 60L6 61L5 61L5 63L4 63L4 64L5 64L5 66L6 66L6 67L7 67L7 66L6 66L6 65L7 65L7 64L6 64L6 63L8 63L8 64L9 64L9 62L10 62L10 61L11 61L11 62L12 62L12 61L13 61L13 60L12 60L12 59L14 59L14 58L15 58L15 60L14 60L14 62L13 62L13 64L12 64L12 63L11 63L11 65L10 65L10 66L9 66L9 65L8 65L8 67L9 67L9 68L8 68L8 70L9 70L9 71L7 71L7 70L6 70L6 71L5 71L5 72L6 72L6 73L8 73L8 75L9 75L9 76L8 76L8 78L12 78L12 79L10 79L10 80L9 80L9 81L13 81L13 80L12 80L12 79L13 79L13 78L12 78L12 77L13 77L13 76L11 76L11 75L10 75L10 74L12 74L12 75L13 75L13 73L12 73L12 72L11 72L11 71L12 71L12 70L11 70L11 71L10 71L10 70L9 70L9 69L10 69L10 67L11 67L11 65L12 65L12 68L11 68L11 69L13 69L13 70L14 70L14 73L16 73L16 74L14 74L14 75L15 75L15 76L14 76L14 79L16 79L16 80L14 80L14 81L18 81L18 80L19 80L19 81L21 81L21 80L19 80L19 79L20 79L20 78L21 78L21 77L20 77L20 75L17 75L17 74L21 74L21 75L22 75L22 76L23 76L23 77L22 77L22 80L24 80L24 81L25 81L25 79L26 79L26 77L29 77L29 73L30 73L30 75L31 75L31 76L30 76L30 77L31 77L31 76L34 76L34 77L35 77L35 76L36 76L36 75L37 75L37 74L38 74L38 76L39 76L39 80L38 80L38 81L39 81L39 80L41 80L41 81L44 81L44 80L45 80L45 81L46 81L46 80L47 80L47 79L44 79L44 80L42 80L42 79L43 79L43 75L42 75L42 74L45 74L45 75L44 75L44 76L45 76L45 75L46 75L46 76L47 76L47 75L48 75L48 77L47 77L47 78L48 78L48 77L50 77L50 78L52 78L52 80L53 80L53 79L54 79L54 78L55 78L55 77L53 77L53 76L54 76L54 75L53 75L53 74L55 74L55 76L56 76L56 78L57 78L57 77L58 77L58 75L57 75L57 76L56 76L56 74L57 74L57 72L59 72L59 78L58 78L58 79L59 79L59 80L60 80L60 79L59 79L59 78L61 78L61 77L60 77L60 75L61 75L61 74L62 74L62 73L64 73L64 74L63 74L63 76L62 76L62 78L63 78L63 79L61 79L61 81L62 81L62 80L63 80L63 81L64 81L64 78L66 78L66 77L65 77L65 76L66 76L66 74L65 74L65 73L67 73L67 74L69 74L69 73L70 73L70 75L69 75L69 76L68 76L68 77L69 77L69 76L70 76L70 78L72 78L72 79L71 79L71 80L70 80L70 81L77 81L77 80L76 80L76 79L77 79L77 78L79 78L79 79L78 79L78 80L81 80L81 78L79 78L79 77L77 77L77 74L80 74L80 73L78 73L78 72L80 72L80 71L81 71L81 70L80 70L80 68L79 68L79 67L81 67L81 65L78 65L78 66L77 66L77 62L79 62L79 61L81 61L81 58L78 58L78 59L77 59L77 57L78 57L78 56L79 56L79 57L80 57L80 55L81 55L81 53L80 53L80 52L81 52L81 51L80 51L80 49L81 49L81 48L80 48L80 49L78 49L78 48L79 48L79 47L81 47L81 46L79 46L79 47L78 47L78 45L77 45L77 42L78 42L78 44L79 44L79 45L80 45L80 44L81 44L81 39L79 39L79 38L80 38L80 37L81 37L81 34L80 34L80 36L79 36L79 34L78 34L78 36L79 36L79 38L78 38L78 37L77 37L77 36L76 36L76 34L77 34L77 32L79 32L79 33L80 33L80 31L81 31L81 27L80 27L80 26L79 26L79 25L81 25L81 24L80 24L80 23L81 23L81 22L79 22L79 23L78 23L78 24L79 24L79 25L78 25L78 26L77 26L77 22L78 22L78 21L77 21L77 22L76 22L76 24L75 24L75 21L76 21L76 20L74 20L74 19L75 19L75 16L74 16L74 17L73 17L73 16L72 16L72 17L70 17L70 19L69 19L69 18L68 18L68 17L64 17L64 16L65 16L65 15L63 15L63 14L62 14L62 13L61 13L61 12L63 12L63 13L64 13L64 14L65 14L65 13L66 13L66 12L67 12L67 13L68 13L68 14L67 14L67 16L68 16L68 14L69 14L69 10L68 10L68 8L67 8L67 6L68 6L68 7L69 7L69 9L70 9L70 8L71 8L71 9L72 9L72 7L73 7L73 6L72 6L72 5L71 5L71 6L70 6L70 4L71 4L71 2L72 2L72 4L73 4L73 1L70 1L70 4L68 4L68 5L67 5L67 6L66 6L66 8L67 8L67 9L66 9L66 10L67 10L67 11L66 11L66 12L65 12L65 13L64 13L64 12L63 12L63 9L64 9L64 7L65 7L65 6L64 6L64 5L66 5L66 4L67 4L67 3L65 3L65 2L66 2L66 1L67 1L67 2L68 2L68 3L69 3L69 2L68 2L68 1L69 1L69 0L64 0L64 1L63 1L63 0L60 0L60 2L59 2L59 0L57 0L57 1L55 1L55 0L53 0L53 2L54 2L54 4L52 4L52 2L51 2L51 1L52 1L52 0L49 0L49 1L48 1L48 2L47 2L47 0L44 0L44 2L43 2L43 0L41 0L41 1L40 1L40 0L39 0L39 1L38 1L38 0L37 0L37 1L36 1L36 3L35 3L35 4L34 4L34 2L35 2L35 0L34 0L34 1L33 1L33 2L31 2L31 3L29 3L29 4L28 4L28 1L29 1L29 2L30 2L30 1L31 1L31 0L30 0L30 1L29 1L29 0L26 0L26 1L22 1L22 0L21 0L21 1L22 1L22 2L16 2L16 3L12 3L12 2L14 2L14 1L15 1L15 0L12 0L12 2L11 2L11 1L10 1L10 0ZM19 0L19 1L20 1L20 0ZM26 1L26 2L27 2L27 1ZM41 1L41 3L40 3L40 4L41 4L41 3L43 3L43 2L42 2L42 1ZM49 1L49 2L50 2L50 3L51 3L51 2L50 2L50 1ZM54 1L54 2L55 2L55 1ZM61 1L61 5L62 5L62 6L61 6L61 7L60 7L60 3L58 3L58 2L57 2L57 3L58 3L58 5L59 5L59 7L58 7L58 6L57 6L57 4L56 4L56 6L55 6L55 5L54 5L54 6L53 6L53 11L52 11L52 10L51 10L51 9L50 9L50 10L51 10L51 12L52 12L52 13L50 13L50 12L49 12L49 13L47 13L47 18L46 18L46 16L45 16L45 18L44 18L44 16L42 16L42 14L43 14L43 15L45 15L45 12L46 12L46 11L40 11L40 10L43 10L43 9L44 9L44 10L47 10L47 11L48 11L48 10L47 10L47 9L48 9L48 6L47 6L47 4L46 4L46 3L45 3L45 2L44 2L44 3L45 3L45 4L44 4L44 6L43 6L43 4L42 4L42 6L41 6L41 5L40 5L40 6L39 6L39 5L37 5L37 3L39 3L39 2L37 2L37 3L36 3L36 5L34 5L34 4L33 4L33 5L31 5L31 7L30 7L30 5L29 5L29 9L25 9L25 11L21 11L21 12L23 12L23 14L22 14L22 15L23 15L23 16L21 16L21 13L18 13L18 12L20 12L20 10L19 10L19 9L20 9L20 8L22 8L22 6L23 6L23 7L24 7L24 6L23 6L23 5L24 5L24 4L27 4L27 3L17 3L17 4L19 4L19 7L18 7L18 5L16 5L16 4L15 4L15 5L16 5L16 6L15 6L15 7L14 7L14 6L13 6L13 7L14 7L14 8L19 8L19 9L17 9L17 10L16 10L16 9L14 9L14 12L13 12L13 13L14 13L14 12L15 12L15 13L16 13L16 14L17 14L17 15L16 15L16 16L17 16L17 21L16 21L16 22L15 22L15 23L16 23L16 24L17 24L17 23L18 23L18 25L16 25L16 27L18 27L18 28L15 28L15 27L14 27L14 28L15 28L15 29L17 29L17 32L18 32L18 34L19 34L19 31L18 31L18 30L20 30L20 32L21 32L21 33L22 33L22 34L24 34L24 35L25 35L25 36L26 36L26 33L28 33L28 34L27 34L27 36L28 36L28 37L26 37L26 40L24 40L24 39L25 39L25 38L24 38L24 36L23 36L23 38L22 38L22 35L21 35L21 34L20 34L20 36L21 36L21 37L18 37L18 38L17 38L17 37L14 37L14 34L13 34L13 35L11 35L11 36L12 36L12 37L11 37L11 42L9 42L9 41L10 41L10 37L8 37L8 38L7 38L7 37L6 37L6 36L8 36L8 35L6 35L6 34L8 34L8 33L9 33L9 34L10 34L10 32L15 32L15 31L16 31L16 30L15 30L15 31L13 31L13 30L12 30L12 31L10 31L10 29L9 29L9 30L8 30L8 31L5 31L5 30L7 30L7 29L5 29L5 30L4 30L4 27L3 27L3 26L1 26L1 28L2 28L2 27L3 27L3 31L4 31L4 32L5 32L5 33L6 33L6 34L5 34L5 35L3 35L3 36L5 36L5 37L4 37L4 38L3 38L3 39L4 39L4 38L5 38L5 39L6 39L6 40L4 40L4 41L3 41L3 40L2 40L2 39L1 39L1 40L2 40L2 41L3 41L3 42L2 42L2 44L3 44L3 45L4 45L4 44L3 44L3 43L4 43L4 41L5 41L5 43L6 43L6 44L7 44L7 45L6 45L6 46L7 46L7 47L6 47L6 48L9 48L9 47L8 47L8 46L7 46L7 45L9 45L9 46L10 46L10 47L12 47L12 46L14 46L14 47L13 47L13 48L12 48L12 49L13 49L13 50L16 50L16 52L17 52L17 50L18 50L18 47L19 47L19 48L20 48L20 47L23 47L23 46L24 46L24 47L25 47L25 46L26 46L26 45L25 45L25 44L24 44L24 45L22 45L22 44L23 44L23 43L24 43L24 41L25 41L25 43L27 43L27 45L28 45L28 46L27 46L27 47L26 47L26 48L27 48L27 47L28 47L28 48L29 48L29 46L30 46L30 48L31 48L31 50L30 50L30 53L27 53L27 54L26 54L26 53L24 53L24 54L22 54L22 53L21 53L21 52L20 52L20 51L19 51L19 52L18 52L18 53L17 53L17 54L16 54L16 53L15 53L15 51L13 51L13 52L11 52L11 51L12 51L12 50L11 50L11 48L10 48L10 49L9 49L9 50L11 50L11 51L10 51L10 52L9 52L9 53L4 53L4 50L3 50L3 51L2 51L2 52L1 52L1 53L2 53L2 55L3 55L3 57L4 57L4 56L5 56L5 57L6 57L6 58L7 58L7 59L6 59L6 60L7 60L7 59L8 59L8 61L10 61L10 60L9 60L9 56L11 56L11 53L12 53L12 55L13 55L13 56L12 56L12 58L14 58L14 57L15 57L15 55L18 55L18 56L17 56L17 57L16 57L16 58L17 58L17 59L16 59L16 61L15 61L15 63L16 63L16 64L13 64L13 66L14 66L14 67L13 67L13 68L14 68L14 69L16 69L16 67L17 67L17 68L18 68L18 67L17 67L17 66L19 66L19 67L20 67L20 68L19 68L19 69L20 69L20 71L21 71L21 70L22 70L22 69L25 69L25 72L28 72L28 71L29 71L29 72L30 72L30 71L31 71L31 72L33 72L33 73L31 73L31 74L32 74L32 75L33 75L33 73L34 73L34 76L35 76L35 72L36 72L36 73L38 73L38 74L39 74L39 75L40 75L40 78L42 78L42 77L41 77L41 75L40 75L40 74L41 74L41 73L40 73L40 72L42 72L42 73L44 73L44 72L42 72L42 71L43 71L43 70L44 70L44 69L45 69L45 68L46 68L46 66L47 66L47 67L48 67L48 65L47 65L47 64L48 64L48 63L49 63L49 62L50 62L50 63L51 63L51 64L50 64L50 65L49 65L49 68L48 68L48 69L47 69L47 70L48 70L48 69L49 69L49 70L50 70L50 71L47 71L47 72L45 72L45 74L46 74L46 75L47 75L47 74L48 74L48 73L47 73L47 72L50 72L50 71L51 71L51 72L52 72L52 71L54 71L54 70L55 70L55 71L56 71L56 72L57 72L57 71L58 71L58 69L57 69L57 70L56 70L56 69L55 69L55 68L54 68L54 67L57 67L57 68L59 68L59 69L60 69L60 68L59 68L59 65L57 65L57 64L58 64L58 63L60 63L60 65L61 65L61 66L60 66L60 67L62 67L62 68L63 68L63 67L62 67L62 66L63 66L63 65L61 65L61 64L62 64L62 63L61 63L61 62L62 62L62 61L63 61L63 60L61 60L61 59L60 59L60 58L59 58L59 57L61 57L61 58L62 58L62 57L63 57L63 58L64 58L64 59L67 59L67 58L68 58L68 59L70 59L70 60L69 60L69 62L68 62L68 61L67 61L67 62L66 62L66 61L65 61L65 60L64 60L64 61L65 61L65 62L64 62L64 63L65 63L65 64L64 64L64 65L66 65L66 66L64 66L64 67L66 67L66 68L65 68L65 70L64 70L64 71L68 71L68 70L67 70L67 69L66 69L66 68L68 68L68 69L69 69L69 72L68 72L68 73L69 73L69 72L70 72L70 73L71 73L71 74L72 74L72 72L70 72L70 68L73 68L73 67L71 67L71 66L72 66L72 65L69 65L69 64L71 64L71 63L72 63L72 62L71 62L71 61L70 61L70 60L71 60L71 58L70 58L70 56L71 56L71 57L72 57L72 59L73 59L73 60L72 60L72 61L73 61L73 62L74 62L74 63L73 63L73 66L74 66L74 69L73 69L73 72L76 72L76 70L75 70L75 68L76 68L76 69L77 69L77 72L78 72L78 69L79 69L79 68L78 68L78 69L77 69L77 68L76 68L76 66L74 66L74 63L75 63L75 61L73 61L73 60L74 60L74 58L75 58L75 56L74 56L74 57L72 57L72 55L70 55L70 53L69 53L69 51L70 51L70 52L72 52L72 50L71 50L71 51L70 51L70 49L72 49L72 47L73 47L73 46L74 46L74 48L77 48L77 46L76 46L76 44L75 44L75 46L74 46L74 45L73 45L73 46L72 46L72 47L71 47L71 48L70 48L70 49L69 49L69 50L68 50L68 52L66 52L66 51L67 51L67 48L66 48L66 49L65 49L65 47L68 47L68 48L69 48L69 47L70 47L70 44L71 44L71 45L72 45L72 44L71 44L71 39L75 39L75 40L74 40L74 41L75 41L75 42L77 42L77 39L75 39L75 38L77 38L77 37L75 37L75 35L74 35L74 36L73 36L73 37L74 37L74 38L70 38L70 37L72 37L72 35L73 35L73 34L72 34L72 33L73 33L73 32L71 32L71 33L69 33L69 34L68 34L68 33L67 33L67 32L70 32L70 31L71 31L71 30L72 30L72 31L73 31L73 30L74 30L74 29L73 29L73 30L72 30L72 29L71 29L71 28L67 28L67 27L64 27L64 29L63 29L63 31L64 31L64 29L65 29L65 28L67 28L67 30L68 30L68 29L69 29L69 31L67 31L67 32L66 32L66 30L65 30L65 32L64 32L64 33L63 33L63 32L62 32L62 28L60 28L60 29L61 29L61 30L60 30L60 31L61 31L61 32L59 32L59 30L58 30L58 31L55 31L55 30L57 30L57 29L58 29L58 28L59 28L59 27L58 27L58 25L59 25L59 26L60 26L60 27L62 27L62 26L63 26L63 23L68 23L68 24L69 24L69 23L72 23L72 21L71 21L71 20L72 20L72 18L71 18L71 19L70 19L70 21L69 21L69 22L68 22L68 21L67 21L67 22L66 22L66 21L65 21L65 20L64 20L64 21L63 21L63 20L61 20L61 19L63 19L63 18L62 18L62 16L61 16L61 15L62 15L62 14L61 14L61 15L60 15L60 16L61 16L61 17L60 17L60 20L58 20L58 18L59 18L59 16L58 16L58 15L59 15L59 14L60 14L60 13L59 13L59 14L58 14L58 13L57 13L57 12L58 12L58 10L59 10L59 9L60 9L60 10L62 10L62 8L63 8L63 7L64 7L64 6L63 6L63 4L65 4L65 3L63 3L63 2L62 2L62 1ZM64 1L64 2L65 2L65 1ZM10 2L10 3L9 3L9 4L12 4L12 3L11 3L11 2ZM31 3L31 4L32 4L32 3ZM48 3L48 4L49 4L49 3ZM21 4L21 5L22 5L22 4ZM45 4L45 6L44 6L44 7L43 7L43 6L42 6L42 8L41 8L41 6L40 6L40 7L39 7L39 6L38 6L38 7L39 7L39 8L38 8L38 9L39 9L39 8L40 8L40 9L42 9L42 8L44 8L44 9L46 9L46 8L45 8L45 6L46 6L46 7L47 7L47 6L46 6L46 4ZM25 5L25 8L28 8L28 5ZM33 5L33 6L32 6L32 7L31 7L31 10L30 10L30 9L29 9L29 10L30 10L30 11L33 11L33 10L32 10L32 9L33 9L33 8L34 8L34 10L35 10L35 13L32 13L32 16L33 16L33 17L34 17L34 18L33 18L33 19L31 19L31 15L30 15L30 16L29 16L29 14L31 14L31 13L30 13L30 12L29 12L29 11L28 11L28 12L25 12L25 13L24 13L24 14L23 14L23 15L24 15L24 16L26 16L26 17L25 17L25 18L23 18L23 17L19 17L19 16L20 16L20 15L18 15L18 18L19 18L19 20L18 20L18 21L19 21L19 20L20 20L20 21L22 21L22 22L24 22L24 23L23 23L23 25L21 25L21 26L20 26L20 27L21 27L21 28L19 28L19 29L21 29L21 31L22 31L22 30L23 30L23 32L22 32L22 33L25 33L25 32L28 32L28 31L25 31L25 30L23 30L23 27L21 27L21 26L23 26L23 25L24 25L24 29L26 29L26 30L28 30L28 29L29 29L29 31L31 31L31 32L32 32L32 33L31 33L31 34L32 34L32 39L31 39L31 36L30 36L30 35L29 35L29 34L28 34L28 36L30 36L30 37L28 37L28 39L29 39L29 38L30 38L30 40L26 40L26 41L27 41L27 43L28 43L28 45L29 45L29 41L30 41L30 40L31 40L31 41L32 41L32 40L33 40L33 42L32 42L32 43L34 43L34 45L35 45L35 44L36 44L36 45L37 45L37 46L38 46L38 44L39 44L39 47L36 47L36 46L34 46L34 48L33 48L33 47L31 47L31 48L32 48L32 50L31 50L31 54L30 54L30 55L29 55L29 54L27 54L27 55L29 55L29 56L28 56L28 57L27 57L27 58L25 58L25 57L26 57L26 56L25 56L25 55L26 55L26 54L24 54L24 55L21 55L21 53L20 53L20 55L21 55L21 56L22 56L22 58L20 58L20 57L17 57L17 58L19 58L19 59L20 59L20 60L18 60L18 61L16 61L16 62L17 62L17 64L18 64L18 65L20 65L20 64L21 64L21 68L20 68L20 69L22 69L22 68L23 68L23 67L26 67L26 66L27 66L27 65L28 65L28 67L27 67L27 68L26 68L26 70L27 70L27 71L28 71L28 70L29 70L29 71L30 71L30 68L31 68L31 70L32 70L32 71L34 71L34 72L35 72L35 69L37 69L37 70L39 70L39 71L36 71L36 72L40 72L40 68L41 68L41 70L43 70L43 69L42 69L42 68L41 68L41 67L40 67L40 66L42 66L42 67L45 67L45 66L46 66L46 64L47 64L47 62L49 62L49 61L50 61L50 62L51 62L51 63L52 63L52 62L53 62L53 58L56 58L56 59L55 59L55 62L54 62L54 63L55 63L55 64L56 64L56 63L55 63L55 62L57 62L57 63L58 63L58 62L57 62L57 60L56 60L56 59L57 59L57 57L59 57L59 56L60 56L60 55L61 55L61 57L62 57L62 55L61 55L61 54L60 54L60 53L62 53L62 54L63 54L63 57L66 57L66 56L64 56L64 54L66 54L66 52L63 52L63 51L64 51L64 50L65 50L65 51L66 51L66 50L65 50L65 49L64 49L64 46L65 46L65 44L67 44L67 46L69 46L69 45L68 45L68 44L67 44L67 43L69 43L69 44L70 44L70 43L69 43L69 42L67 42L67 43L61 43L61 42L59 42L59 41L61 41L61 38L62 38L62 41L63 41L63 42L66 42L66 40L64 40L64 34L63 34L63 36L62 36L62 34L61 34L61 35L60 35L60 34L59 34L59 37L60 37L60 39L59 39L59 38L58 38L58 39L59 39L59 40L58 40L58 44L57 44L57 45L56 45L56 44L55 44L55 43L54 43L54 47L51 47L51 46L53 46L53 43L52 43L52 44L51 44L51 42L54 42L54 41L55 41L55 42L56 42L56 43L57 43L57 39L56 39L56 38L57 38L57 37L58 37L58 36L57 36L57 34L55 34L55 33L56 33L56 32L54 32L54 31L53 31L53 30L54 30L54 29L53 29L53 28L56 28L56 27L57 27L57 28L58 28L58 27L57 27L57 26L56 26L56 25L58 25L58 24L59 24L59 25L60 25L60 26L62 26L62 24L61 24L61 23L62 23L62 22L61 22L61 21L59 21L59 22L58 22L58 23L57 23L57 21L58 21L58 20L57 20L57 19L56 19L56 20L54 20L54 21L55 21L55 22L54 22L54 23L53 23L53 24L51 24L51 23L50 23L50 21L49 21L49 23L48 23L48 26L45 26L45 27L44 27L44 28L45 28L45 29L43 29L43 28L42 28L42 27L43 27L43 26L44 26L44 25L45 25L45 24L47 24L47 23L46 23L46 22L48 22L48 19L46 19L46 18L45 18L45 19L46 19L46 20L45 20L45 21L44 21L44 22L43 22L43 23L44 23L44 22L45 22L45 24L44 24L44 25L43 25L43 24L42 24L42 25L40 25L40 26L39 26L39 24L38 24L38 23L39 23L39 21L40 21L40 20L41 20L41 22L40 22L40 23L42 23L42 19L40 19L40 17L41 17L41 18L42 18L42 17L41 17L41 13L43 13L43 12L40 12L40 11L38 11L38 10L37 10L37 6L36 6L36 7L35 7L35 6L34 6L34 5ZM49 5L49 8L52 8L52 5ZM68 5L68 6L69 6L69 7L70 7L70 6L69 6L69 5ZM16 6L16 7L17 7L17 6ZM20 6L20 7L19 7L19 8L20 8L20 7L21 7L21 6ZM26 6L26 7L27 7L27 6ZM33 6L33 7L34 7L34 6ZM50 6L50 7L51 7L51 6ZM54 6L54 7L55 7L55 6ZM56 6L56 8L55 8L55 9L59 9L59 8L60 8L60 7L59 7L59 8L57 8L57 6ZM62 6L62 7L61 7L61 8L62 8L62 7L63 7L63 6ZM71 6L71 7L72 7L72 6ZM3 8L3 9L5 9L5 8ZM6 8L6 9L8 9L8 10L9 10L9 11L10 11L10 10L9 10L9 9L8 9L8 8ZM23 8L23 9L22 9L22 10L24 10L24 8ZM77 8L77 9L76 9L76 10L74 10L74 9L73 9L73 10L74 10L74 11L73 11L73 12L72 12L72 10L70 10L70 13L71 13L71 12L72 12L72 15L74 15L74 13L75 13L75 12L76 12L76 13L77 13L77 12L79 12L79 13L81 13L81 10L80 10L80 9L79 9L79 8ZM35 9L35 10L36 10L36 9ZM77 9L77 11L78 11L78 10L79 10L79 11L80 11L80 10L79 10L79 9ZM12 10L12 11L13 11L13 10ZM17 10L17 11L19 11L19 10ZM26 10L26 11L27 11L27 10ZM64 10L64 11L65 11L65 10ZM36 11L36 13L35 13L35 14L33 14L33 15L35 15L35 18L34 18L34 19L36 19L36 21L35 21L35 20L34 20L34 21L35 21L35 22L34 22L34 23L33 23L33 20L31 20L31 21L30 21L30 17L29 17L29 16L28 16L28 14L29 14L29 13L28 13L28 14L27 14L27 15L26 15L26 13L25 13L25 14L24 14L24 15L26 15L26 16L28 16L28 17L26 17L26 18L28 18L28 19L22 19L22 18L20 18L20 19L22 19L22 20L23 20L23 21L25 21L25 23L24 23L24 24L25 24L25 23L27 23L27 24L28 24L28 21L27 21L27 22L26 22L26 21L25 21L25 20L28 20L28 19L29 19L29 21L30 21L30 22L29 22L29 24L30 24L30 26L32 26L32 28L31 28L31 27L30 27L30 28L29 28L29 29L30 29L30 30L31 30L31 29L34 29L34 28L37 28L37 30L38 30L38 28L39 28L39 26L38 26L38 27L36 27L36 26L35 26L35 27L34 27L34 26L32 26L32 25L33 25L33 24L34 24L34 25L35 25L35 24L34 24L34 23L35 23L35 22L36 22L36 21L37 21L37 23L36 23L36 24L37 24L37 25L38 25L38 24L37 24L37 23L38 23L38 20L40 20L40 19L38 19L38 20L37 20L37 18L36 18L36 17L37 17L37 15L38 15L38 16L39 16L39 17L38 17L38 18L39 18L39 17L40 17L40 15L38 15L38 14L40 14L40 12L38 12L38 11ZM53 11L53 12L54 12L54 14L50 14L50 13L49 13L49 14L48 14L48 16L49 16L49 17L48 17L48 18L49 18L49 19L50 19L50 20L51 20L51 19L52 19L52 20L53 20L53 19L52 19L52 18L54 18L54 17L55 17L55 18L56 18L56 17L58 17L58 16L57 16L57 14L56 14L56 12L57 12L57 11L55 11L55 12L54 12L54 11ZM59 11L59 12L60 12L60 11ZM16 12L16 13L17 13L17 14L18 14L18 13L17 13L17 12ZM5 13L5 14L3 14L3 15L5 15L5 16L7 16L7 15L8 15L8 16L9 16L9 15L10 15L10 17L9 17L9 18L11 18L11 19L12 19L12 18L11 18L11 17L12 17L12 16L13 16L13 14L12 14L12 15L11 15L11 14L9 14L9 13ZM36 13L36 15L37 15L37 14L38 14L38 13ZM6 14L6 15L7 15L7 14ZM49 14L49 16L50 16L50 18L51 18L51 15L50 15L50 14ZM75 14L75 15L76 15L76 17L77 17L77 15L76 15L76 14ZM78 14L78 16L79 16L79 14ZM80 14L80 17L78 17L78 18L77 18L77 20L79 20L79 21L80 21L80 20L81 20L81 14ZM52 15L52 17L54 17L54 16L53 16L53 15ZM69 15L69 16L71 16L71 15ZM55 16L55 17L56 17L56 16ZM64 18L64 19L66 19L66 18ZM67 18L67 20L69 20L69 19L68 19L68 18ZM2 19L2 20L3 20L3 19ZM43 19L43 20L44 20L44 19ZM79 19L79 20L80 20L80 19ZM56 20L56 21L57 21L57 20ZM31 21L31 22L30 22L30 23L31 23L31 24L32 24L32 21ZM45 21L45 22L46 22L46 21ZM51 21L51 22L52 22L52 21ZM70 21L70 22L71 22L71 21ZM16 22L16 23L17 23L17 22ZM20 22L20 24L22 24L22 23L21 23L21 22ZM55 22L55 23L56 23L56 22ZM59 22L59 24L60 24L60 25L61 25L61 24L60 24L60 23L61 23L61 22ZM73 23L73 24L74 24L74 23ZM2 24L2 25L3 25L3 24ZM53 24L53 26L54 26L54 27L55 27L55 26L54 26L54 24ZM65 24L65 25L64 25L64 26L66 26L66 24ZM70 24L70 25L69 25L69 27L72 27L72 24ZM5 25L5 28L8 28L8 25ZM25 25L25 28L28 28L28 25ZM49 25L49 28L52 28L52 25ZM67 25L67 26L68 26L68 25ZM73 25L73 28L76 28L76 25ZM6 26L6 27L7 27L7 26ZM18 26L18 27L19 27L19 26ZM26 26L26 27L27 27L27 26ZM41 26L41 27L42 27L42 26ZM50 26L50 27L51 27L51 26ZM74 26L74 27L75 27L75 26ZM78 26L78 27L79 27L79 28L78 28L78 29L80 29L80 27L79 27L79 26ZM33 27L33 28L34 28L34 27ZM46 27L46 28L47 28L47 29L48 29L48 31L46 31L46 30L44 30L44 31L43 31L43 33L42 33L42 36L40 36L40 38L37 38L37 37L36 37L36 35L35 35L35 34L36 34L36 32L35 32L35 31L36 31L36 30L35 30L35 31L34 31L34 30L32 30L32 31L33 31L33 33L32 33L32 34L33 34L33 37L34 37L34 39L33 39L33 40L34 40L34 41L35 41L35 37L36 37L36 39L37 39L37 40L36 40L36 41L38 41L38 39L40 39L40 38L42 38L42 37L43 37L43 36L44 36L44 37L45 37L45 36L46 36L46 35L47 35L47 37L46 37L46 38L44 38L44 39L43 39L43 40L39 40L39 42L40 42L40 43L41 43L41 42L42 42L42 45L41 45L41 44L40 44L40 50L39 50L39 52L38 52L38 53L39 53L39 56L38 56L38 54L37 54L37 55L34 55L34 53L33 53L33 52L35 52L35 50L34 50L34 49L33 49L33 51L32 51L32 53L33 53L33 55L32 55L32 54L31 54L31 55L30 55L30 57L31 57L31 58L29 58L29 57L28 57L28 59L27 59L27 60L26 60L26 59L24 59L24 61L26 61L26 62L25 62L25 63L26 63L26 65L27 65L27 64L28 64L28 65L29 65L29 64L30 64L30 63L31 63L31 65L32 65L32 66L30 66L30 67L29 67L29 68L30 68L30 67L31 67L31 68L33 68L33 69L34 69L34 67L36 67L36 66L35 66L35 65L34 65L34 64L35 64L35 62L34 62L34 60L35 60L35 61L36 61L36 58L35 58L35 59L34 59L34 58L33 58L33 59L32 59L32 60L31 60L31 62L30 62L30 61L29 61L29 60L30 60L30 59L31 59L31 58L32 58L32 57L33 57L33 56L35 56L35 57L37 57L37 58L39 58L39 56L40 56L40 59L38 59L38 60L39 60L39 61L37 61L37 62L38 62L38 63L40 63L40 64L41 64L41 63L44 63L44 65L43 65L43 66L44 66L44 65L45 65L45 64L46 64L46 62L47 62L47 60L48 60L48 61L49 61L49 59L50 59L50 58L51 58L51 60L50 60L50 61L51 61L51 62L52 62L52 57L54 57L54 55L55 55L55 56L56 56L56 57L57 57L57 56L59 56L59 55L60 55L60 54L59 54L59 53L57 53L57 51L60 51L60 52L61 52L61 51L63 51L63 45L61 45L61 43L60 43L60 44L58 44L58 45L57 45L57 47L56 47L56 46L55 46L55 47L54 47L54 48L55 48L55 47L56 47L56 48L58 48L58 45L61 45L61 46L60 46L60 47L59 47L59 48L60 48L60 47L61 47L61 48L62 48L62 50L61 50L61 51L60 51L60 49L59 49L59 50L58 50L58 49L53 49L53 53L54 53L54 54L53 54L53 56L52 56L52 53L51 53L51 54L50 54L50 53L49 53L49 54L50 54L50 55L49 55L49 56L48 56L48 53L47 53L47 55L46 55L46 51L47 51L47 52L48 52L48 51L47 51L47 50L48 50L48 49L47 49L47 47L46 47L46 46L45 46L45 44L46 44L46 45L47 45L47 46L48 46L48 48L50 48L50 47L49 47L49 46L50 46L50 45L51 45L51 44L49 44L49 43L48 43L48 44L47 44L47 43L46 43L46 42L50 42L50 41L48 41L48 40L47 40L47 39L46 39L46 38L47 38L47 37L48 37L48 38L49 38L49 37L48 37L48 36L49 36L49 35L50 35L50 36L51 36L51 40L52 40L52 39L53 39L53 41L54 41L54 40L55 40L55 41L56 41L56 40L55 40L55 39L53 39L53 38L54 38L54 37L53 37L53 35L54 35L54 33L53 33L53 32L51 32L51 33L50 33L50 34L49 34L49 33L47 33L47 32L49 32L49 30L50 30L50 29L48 29L48 27ZM40 28L40 29L39 29L39 31L40 31L40 30L43 30L43 29L42 29L42 28ZM51 29L51 30L52 30L52 29ZM75 29L75 30L77 30L77 29ZM78 30L78 31L79 31L79 30ZM8 31L8 32L10 32L10 31ZM44 31L44 33L45 33L45 34L44 34L44 36L45 36L45 35L46 35L46 34L47 34L47 33L46 33L46 31ZM6 32L6 33L7 33L7 32ZM29 32L29 33L30 33L30 32ZM58 32L58 33L59 33L59 32ZM11 33L11 34L12 34L12 33ZM16 33L16 34L15 34L15 36L19 36L19 35L16 35L16 34L17 34L17 33ZM34 33L34 34L35 34L35 33ZM40 33L40 35L41 35L41 33ZM51 33L51 34L52 34L52 33ZM66 33L66 35L65 35L65 37L67 37L67 38L65 38L65 39L67 39L67 40L68 40L68 41L69 41L69 40L70 40L70 39L69 39L69 37L70 37L70 36L68 36L68 34L67 34L67 33ZM75 33L75 34L76 34L76 33ZM38 34L38 35L37 35L37 36L38 36L38 35L39 35L39 34ZM70 34L70 35L72 35L72 34ZM5 35L5 36L6 36L6 35ZM9 35L9 36L10 36L10 35ZM34 35L34 36L35 36L35 35ZM51 35L51 36L52 36L52 35ZM56 36L56 37L57 37L57 36ZM60 36L60 37L62 37L62 38L63 38L63 37L62 37L62 36ZM5 37L5 38L6 38L6 39L7 39L7 40L6 40L6 41L7 41L7 40L8 40L8 39L7 39L7 38L6 38L6 37ZM12 38L12 40L13 40L13 41L12 41L12 42L13 42L13 41L14 41L14 43L13 43L13 44L15 44L15 43L16 43L16 47L15 47L15 48L14 48L14 49L15 49L15 48L16 48L16 47L18 47L18 46L19 46L19 47L20 47L20 46L22 46L22 45L20 45L20 43L22 43L22 42L23 42L23 39L24 39L24 38L23 38L23 39L22 39L22 38L20 38L20 39L22 39L22 41L20 41L20 40L18 40L18 39L19 39L19 38L18 38L18 39L17 39L17 38L16 38L16 39L15 39L15 38L14 38L14 39L15 39L15 40L13 40L13 38ZM44 39L44 40L43 40L43 45L44 45L44 44L45 44L45 43L44 43L44 42L45 42L45 41L44 41L44 40L46 40L46 41L47 41L47 40L46 40L46 39ZM17 40L17 42L18 42L18 44L17 44L17 45L19 45L19 46L20 46L20 45L19 45L19 43L20 43L20 42L19 42L19 41L18 41L18 40ZM72 40L72 41L73 41L73 40ZM75 40L75 41L76 41L76 40ZM78 40L78 41L79 41L79 43L80 43L80 41L79 41L79 40ZM40 41L40 42L41 42L41 41ZM6 42L6 43L7 43L7 44L11 44L11 45L10 45L10 46L11 46L11 45L12 45L12 44L11 44L11 43L9 43L9 42ZM37 42L37 43L36 43L36 44L37 44L37 43L38 43L38 42ZM72 42L72 43L73 43L73 44L74 44L74 42ZM30 43L30 44L31 44L31 43ZM32 44L32 46L33 46L33 44ZM44 46L44 47L41 47L41 48L42 48L42 49L41 49L41 50L42 50L42 51L40 51L40 54L42 54L42 55L43 55L43 56L41 56L41 57L42 57L42 58L43 58L43 57L44 57L44 60L42 60L42 59L40 59L40 61L42 61L42 62L45 62L45 60L46 60L46 59L49 59L49 58L50 58L50 57L52 57L52 56L51 56L51 55L50 55L50 57L49 57L49 58L48 58L48 56L47 56L47 57L46 57L46 55L43 55L43 54L45 54L45 53L43 53L43 52L44 52L44 51L45 51L45 50L46 50L46 49L44 49L44 48L45 48L45 46ZM61 46L61 47L62 47L62 46ZM75 46L75 47L76 47L76 46ZM4 47L4 48L3 48L3 49L4 49L4 48L5 48L5 47ZM35 47L35 48L36 48L36 49L37 49L37 48L36 48L36 47ZM21 48L21 51L22 51L22 52L24 52L24 51L23 51L23 50L24 50L24 49L22 49L22 48ZM38 48L38 49L39 49L39 48ZM5 49L5 52L8 52L8 49ZM16 49L16 50L17 50L17 49ZM25 49L25 52L28 52L28 49ZM42 49L42 50L43 50L43 51L44 51L44 50L43 50L43 49ZM49 49L49 52L52 52L52 49ZM73 49L73 52L76 52L76 49ZM77 49L77 53L78 53L78 55L76 55L76 54L74 54L74 53L72 53L72 54L73 54L73 55L76 55L76 57L77 57L77 56L78 56L78 55L80 55L80 54L79 54L79 52L80 52L80 51L79 51L79 50L78 50L78 49ZM6 50L6 51L7 51L7 50ZM26 50L26 51L27 51L27 50ZM50 50L50 51L51 51L51 50ZM54 50L54 51L55 51L55 52L54 52L54 53L55 53L55 52L56 52L56 51L57 51L57 50L56 50L56 51L55 51L55 50ZM74 50L74 51L75 51L75 50ZM36 51L36 53L37 53L37 51ZM78 51L78 52L79 52L79 51ZM10 52L10 53L11 53L11 52ZM13 52L13 55L14 55L14 54L15 54L15 53L14 53L14 52ZM62 52L62 53L63 53L63 54L64 54L64 53L63 53L63 52ZM3 53L3 55L4 55L4 53ZM42 53L42 54L43 54L43 53ZM5 54L5 55L7 55L7 56L6 56L6 57L7 57L7 58L8 58L8 57L7 57L7 56L9 56L9 55L10 55L10 54L8 54L8 55L7 55L7 54ZM56 54L56 55L58 55L58 54ZM67 54L67 55L68 55L68 54ZM31 55L31 57L32 57L32 55ZM13 56L13 57L14 57L14 56ZM23 56L23 57L25 57L25 56ZM67 56L67 57L68 57L68 58L69 58L69 56ZM10 58L10 59L11 59L11 58ZM45 58L45 59L46 59L46 58ZM58 58L58 61L60 61L60 62L61 62L61 61L60 61L60 60L59 60L59 58ZM21 59L21 61L20 61L20 62L19 62L19 63L18 63L18 64L20 64L20 62L21 62L21 64L22 64L22 65L23 65L23 66L22 66L22 67L23 67L23 66L24 66L24 63L23 63L23 64L22 64L22 61L23 61L23 60L22 60L22 59ZM28 59L28 60L27 60L27 62L26 62L26 63L27 63L27 62L28 62L28 64L29 64L29 63L30 63L30 62L28 62L28 60L29 60L29 59ZM33 59L33 60L32 60L32 62L33 62L33 60L34 60L34 59ZM11 60L11 61L12 61L12 60ZM76 60L76 62L77 62L77 60ZM78 60L78 61L79 61L79 60ZM3 61L3 62L0 62L0 64L2 64L2 65L0 65L0 70L1 70L1 73L4 73L4 72L2 72L2 71L4 71L4 70L5 70L5 68L4 68L4 70L3 70L3 67L4 67L4 66L3 66L3 64L2 64L2 63L3 63L3 62L4 62L4 61ZM6 61L6 62L7 62L7 61ZM40 62L40 63L41 63L41 62ZM65 62L65 63L66 63L66 62ZM67 62L67 64L66 64L66 65L67 65L67 67L69 67L69 66L68 66L68 65L67 65L67 64L69 64L69 63L68 63L68 62ZM70 62L70 63L71 63L71 62ZM32 63L32 64L34 64L34 63ZM78 63L78 64L81 64L81 63ZM36 64L36 65L39 65L39 66L40 66L40 65L39 65L39 64ZM51 64L51 67L50 67L50 68L51 68L51 69L50 69L50 70L51 70L51 71L52 71L52 70L54 70L54 68L52 68L52 67L53 67L53 66L54 66L54 65L53 65L53 64ZM14 65L14 66L15 66L15 67L14 67L14 68L15 68L15 67L16 67L16 66L15 66L15 65ZM1 66L1 70L2 70L2 66ZM32 66L32 67L34 67L34 66ZM37 66L37 68L38 68L38 69L39 69L39 68L40 68L40 67L39 67L39 68L38 68L38 66ZM6 68L6 69L7 69L7 68ZM27 68L27 70L28 70L28 68ZM61 69L61 70L62 70L62 72L63 72L63 70L62 70L62 69ZM16 70L16 71L15 71L15 72L16 72L16 73L18 73L18 72L19 72L19 71L18 71L18 70ZM23 70L23 71L22 71L22 73L21 73L21 72L20 72L20 73L21 73L21 74L22 74L22 75L23 75L23 72L24 72L24 70ZM45 70L45 71L46 71L46 70ZM74 70L74 71L75 71L75 70ZM79 70L79 71L80 71L80 70ZM6 71L6 72L7 72L7 71ZM9 71L9 72L8 72L8 73L11 73L11 72L10 72L10 71ZM16 71L16 72L17 72L17 71ZM59 71L59 72L61 72L61 71ZM64 72L64 73L65 73L65 72ZM25 73L25 76L28 76L28 73ZM39 73L39 74L40 74L40 73ZM46 73L46 74L47 74L47 73ZM49 73L49 76L52 76L52 73ZM55 73L55 74L56 74L56 73ZM60 73L60 74L61 74L61 73ZM73 73L73 76L76 76L76 73ZM26 74L26 75L27 75L27 74ZM50 74L50 75L51 75L51 74ZM74 74L74 75L75 75L75 74ZM16 75L16 76L15 76L15 78L16 78L16 79L17 79L17 80L18 80L18 79L19 79L19 78L18 78L18 77L19 77L19 76L17 76L17 75ZM64 75L64 76L65 76L65 75ZM70 75L70 76L72 76L72 75ZM78 75L78 76L80 76L80 77L81 77L81 75ZM9 76L9 77L11 77L11 76ZM16 77L16 78L17 78L17 77ZM23 77L23 79L24 79L24 78L25 78L25 77ZM32 77L32 78L31 78L31 80L30 80L30 78L27 78L27 80L26 80L26 81L27 81L27 80L28 80L28 81L29 81L29 80L30 80L30 81L32 81L32 78L33 78L33 79L34 79L34 81L37 81L37 80L35 80L35 79L36 79L36 78L37 78L37 79L38 79L38 78L37 78L37 77L36 77L36 78L33 78L33 77ZM44 77L44 78L46 78L46 77ZM52 77L52 78L53 78L53 77ZM63 77L63 78L64 78L64 77ZM72 77L72 78L73 78L73 79L72 79L72 80L73 80L73 79L76 79L76 78L77 78L77 77L76 77L76 78L75 78L75 77ZM67 78L67 79L65 79L65 80L67 80L67 81L68 81L68 79L69 79L69 78ZM28 79L28 80L29 80L29 79ZM48 79L48 81L50 81L50 80L51 80L51 79ZM56 79L56 80L55 80L55 81L56 81L56 80L57 80L57 81L58 81L58 80L57 80L57 79ZM0 0L0 7L7 7L7 0ZM1 1L1 6L6 6L6 1ZM2 2L2 5L5 5L5 2ZM74 0L74 7L81 7L81 0ZM75 1L75 6L80 6L80 1ZM76 2L76 5L79 5L79 2ZM0 74L0 81L7 81L7 74ZM1 75L1 80L6 80L6 75ZM2 76L2 79L5 79L5 76Z" fill="#000000"/></g></g></svg>
