<?xml version="1.0" encoding="UTF-8"?>
<svg xmlns="http://www.w3.org/2000/svg" version="1.1" width="200" height="200" viewBox="0 0 200 200"><rect x="0" y="0" width="200" height="200" fill="#ffffff"/><g transform="scale(2.899)"><g transform="translate(0,0)"><path fill-rule="evenodd" d="M14 0L14 1L13 1L13 3L12 3L12 4L13 4L13 5L12 5L12 7L11 7L11 2L8 2L8 4L10 4L10 5L9 5L9 6L8 6L8 7L9 7L9 9L10 9L10 10L9 10L9 11L11 11L11 12L9 12L9 13L10 13L10 15L9 15L9 14L8 14L8 10L3 10L3 9L5 9L5 8L3 8L3 9L2 9L2 10L0 10L0 11L1 11L1 15L0 15L0 19L1 19L1 17L2 17L2 18L3 18L3 17L2 17L2 16L5 16L5 17L7 17L7 18L6 18L6 19L3 19L3 23L5 23L5 21L8 21L8 20L9 20L9 22L6 22L6 23L7 23L7 24L4 24L4 25L2 25L2 26L1 26L1 24L2 24L2 22L1 22L1 21L2 21L2 20L0 20L0 22L1 22L1 23L0 23L0 26L1 26L1 27L2 27L2 29L3 29L3 30L4 30L4 29L5 29L5 31L3 31L3 33L4 33L4 36L3 36L3 35L2 35L2 37L0 37L0 40L1 40L1 41L0 41L0 42L1 42L1 41L2 41L2 40L3 40L3 42L2 42L2 43L1 43L1 44L0 44L0 46L3 46L3 45L5 45L5 44L6 44L6 45L7 45L7 46L6 46L6 47L7 47L7 46L9 46L9 43L8 43L8 44L6 44L6 43L7 43L7 42L6 42L6 43L5 43L5 41L7 41L7 40L8 40L8 41L10 41L10 40L11 40L11 39L12 39L12 41L13 41L13 42L12 42L12 44L13 44L13 45L11 45L11 44L10 44L10 45L11 45L11 47L12 47L12 48L10 48L10 47L9 47L9 49L8 49L8 48L6 48L6 49L8 49L8 50L6 50L6 51L7 51L7 52L6 52L6 53L5 53L5 47L4 47L4 48L2 48L2 49L3 49L3 52L1 52L1 51L2 51L2 50L1 50L1 51L0 51L0 54L1 54L1 53L2 53L2 54L3 54L3 55L1 55L1 58L0 58L0 61L1 61L1 58L2 58L2 59L3 59L3 58L2 58L2 57L3 57L3 55L4 55L4 56L5 56L5 57L4 57L4 59L7 59L7 60L6 60L6 61L8 61L8 63L9 63L9 64L8 64L8 66L11 66L11 67L12 67L12 69L15 69L15 67L14 67L14 62L15 62L15 61L16 61L16 60L17 60L17 58L19 58L19 59L18 59L18 60L20 60L20 61L18 61L18 62L17 62L17 63L16 63L16 64L15 64L15 65L16 65L16 64L18 64L18 62L20 62L20 63L19 63L19 64L20 64L20 65L18 65L18 66L17 66L17 67L19 67L19 68L21 68L21 69L22 69L22 68L21 68L21 67L23 67L23 65L24 65L24 66L25 66L25 65L26 65L26 63L25 63L25 62L26 62L26 61L27 61L27 62L28 62L28 63L27 63L27 67L25 67L25 68L28 68L28 69L31 69L31 68L32 68L32 66L34 66L34 65L36 65L36 66L35 66L35 67L34 67L34 68L35 68L35 67L37 67L37 68L36 68L36 69L38 69L38 67L39 67L39 69L41 69L41 68L42 68L42 69L43 69L43 67L45 67L45 66L46 66L46 65L47 65L47 68L48 68L48 69L49 69L49 68L48 68L48 67L50 67L50 65L51 65L51 66L52 66L52 65L51 65L51 63L53 63L53 67L51 67L51 69L53 69L53 67L54 67L54 68L56 68L56 67L57 67L57 69L58 69L58 66L59 66L59 65L61 65L61 66L60 66L60 67L59 67L59 68L61 68L61 66L62 66L62 69L66 69L66 68L69 68L69 66L67 66L67 65L65 65L65 64L67 64L67 63L68 63L68 62L67 62L67 61L66 61L66 60L68 60L68 61L69 61L69 60L68 60L68 59L69 59L69 58L67 58L67 57L68 57L68 56L67 56L67 54L66 54L66 56L65 56L65 55L64 55L64 54L65 54L65 53L66 53L66 52L68 52L68 55L69 55L69 51L67 51L67 50L68 50L68 49L67 49L67 50L64 50L64 48L65 48L65 49L66 49L66 48L69 48L69 46L67 46L67 45L69 45L69 44L68 44L68 43L69 43L69 40L68 40L68 39L64 39L64 38L63 38L63 40L62 40L62 41L61 41L61 42L60 42L60 40L61 40L61 39L62 39L62 38L61 38L61 37L66 37L66 38L68 38L68 37L69 37L69 34L68 34L68 35L67 35L67 33L68 33L68 32L69 32L69 28L67 28L67 27L68 27L68 25L69 25L69 24L67 24L67 22L68 22L68 23L69 23L69 22L68 22L68 21L69 21L69 17L68 17L68 16L69 16L69 15L68 15L68 14L67 14L67 13L68 13L68 12L69 12L69 10L68 10L68 9L67 9L67 8L65 8L65 9L64 9L64 10L63 10L63 9L62 9L62 10L61 10L61 9L60 9L60 10L59 10L59 9L57 9L57 10L56 10L56 13L55 13L55 8L56 8L56 7L57 7L57 6L58 6L58 7L59 7L59 4L58 4L58 3L59 3L59 2L58 2L58 1L61 1L61 0L57 0L57 1L56 1L56 0L52 0L52 1L51 1L51 0L50 0L50 1L51 1L51 3L48 3L48 2L47 2L47 1L48 1L48 0L45 0L45 2L44 2L44 1L43 1L43 0L39 0L39 3L38 3L38 4L37 4L37 3L34 3L34 4L32 4L32 3L33 3L33 2L32 2L32 1L35 1L35 2L38 2L38 0L37 0L37 1L36 1L36 0L28 0L28 1L26 1L26 2L25 2L25 3L24 3L24 4L23 4L23 5L22 5L22 3L20 3L20 4L18 4L18 5L17 5L17 6L16 6L16 8L15 8L15 5L16 5L16 3L15 3L15 5L14 5L14 1L15 1L15 2L17 2L17 3L18 3L18 2L23 2L23 1L20 1L20 0L19 0L19 1L18 1L18 0ZM28 1L28 3L27 3L27 4L31 4L31 7L30 7L30 6L29 6L29 5L28 5L28 6L27 6L27 5L26 5L26 3L25 3L25 4L24 4L24 6L23 6L23 7L22 7L22 6L21 6L21 8L19 8L19 7L20 7L20 5L19 5L19 7L18 7L18 6L17 6L17 8L16 8L16 9L15 9L15 8L14 8L14 5L13 5L13 7L12 7L12 8L11 8L11 11L12 11L12 12L11 12L11 13L12 13L12 14L11 14L11 15L10 15L10 16L9 16L9 15L8 15L8 14L7 14L7 13L6 13L6 12L7 12L7 11L6 11L6 12L5 12L5 11L2 11L2 13L4 13L4 15L6 15L6 16L7 16L7 15L8 15L8 16L9 16L9 18L8 18L8 19L6 19L6 20L8 20L8 19L10 19L10 22L9 22L9 23L10 23L10 24L13 24L13 25L14 25L14 26L11 26L11 25L8 25L8 24L7 24L7 25L6 25L6 26L8 26L8 27L5 27L5 25L4 25L4 27L3 27L3 28L5 28L5 29L6 29L6 30L7 30L7 31L5 31L5 32L9 32L9 31L10 31L10 30L9 30L9 29L10 29L10 28L9 28L9 29L6 29L6 28L8 28L8 27L10 27L10 26L11 26L11 27L12 27L12 28L13 28L13 27L15 27L15 28L14 28L14 29L13 29L13 30L12 30L12 29L11 29L11 30L12 30L12 31L11 31L11 32L13 32L13 33L15 33L15 31L16 31L16 32L17 32L17 33L18 33L18 35L17 35L17 34L16 34L16 35L15 35L15 36L12 36L12 35L14 35L14 34L11 34L11 38L12 38L12 37L13 37L13 39L14 39L14 38L15 38L15 40L14 40L14 41L15 41L15 40L17 40L17 39L16 39L16 38L15 38L15 37L16 37L16 35L17 35L17 38L18 38L18 37L19 37L19 36L18 36L18 35L20 35L20 36L22 36L22 37L21 37L21 38L19 38L19 39L18 39L18 42L17 42L17 44L16 44L16 43L15 43L15 42L13 42L13 44L14 44L14 45L13 45L13 47L14 47L14 50L15 50L15 49L16 49L16 50L17 50L17 51L13 51L13 50L8 50L8 52L9 52L9 51L10 51L10 52L11 52L11 51L12 51L12 54L11 54L11 53L10 53L10 55L8 55L8 53L6 53L6 54L4 54L4 52L3 52L3 54L4 54L4 55L5 55L5 56L7 56L7 57L5 57L5 58L7 58L7 59L8 59L8 61L9 61L9 60L10 60L10 61L12 61L12 62L14 62L14 61L15 61L15 59L16 59L16 58L15 58L15 57L14 57L14 56L15 56L15 54L16 54L16 52L17 52L17 55L16 55L16 57L19 57L19 58L20 58L20 56L22 56L22 57L21 57L21 58L22 58L22 59L23 59L23 61L22 61L22 60L21 60L21 63L20 63L20 64L21 64L21 63L22 63L22 62L24 62L24 59L25 59L25 60L26 60L26 59L28 59L28 60L27 60L27 61L28 61L28 62L29 62L29 63L28 63L28 64L29 64L29 63L32 63L32 62L30 62L30 61L32 61L32 59L34 59L34 57L36 57L36 58L35 58L35 59L36 59L36 58L37 58L37 57L36 57L36 55L37 55L37 54L38 54L38 56L39 56L39 57L38 57L38 59L37 59L37 60L38 60L38 61L37 61L37 62L38 62L38 63L39 63L39 64L37 64L37 67L38 67L38 66L39 66L39 67L40 67L40 66L39 66L39 64L40 64L40 63L39 63L39 62L42 62L42 65L41 65L41 66L42 66L42 67L43 67L43 66L42 66L42 65L44 65L44 66L45 66L45 65L46 65L46 64L47 64L47 63L48 63L48 64L49 64L49 63L50 63L50 62L49 62L49 61L48 61L48 60L50 60L50 61L51 61L51 62L52 62L52 61L51 61L51 58L53 58L53 57L57 57L57 60L58 60L58 61L56 61L56 58L54 58L54 59L52 59L52 60L54 60L54 59L55 59L55 62L53 62L53 63L54 63L54 64L55 64L55 66L54 66L54 67L56 67L56 66L58 66L58 65L59 65L59 64L60 64L60 63L59 63L59 62L60 62L60 61L59 61L59 60L62 60L62 59L60 59L60 58L59 58L59 60L58 60L58 57L60 57L60 56L59 56L59 54L58 54L58 55L56 55L56 56L55 56L55 54L56 54L56 52L57 52L57 51L59 51L59 50L62 50L62 52L63 52L63 53L61 53L61 52L60 52L60 53L61 53L61 54L63 54L63 53L64 53L64 51L63 51L63 50L62 50L62 49L58 49L58 48L57 48L57 49L56 49L56 52L55 52L55 54L51 54L51 53L54 53L54 51L55 51L55 50L54 50L54 49L55 49L55 48L54 48L54 47L59 47L59 48L60 48L60 47L59 47L59 46L60 46L60 45L62 45L62 44L63 44L63 43L64 43L64 40L63 40L63 43L60 43L60 42L59 42L59 43L56 43L56 44L55 44L55 46L54 46L54 45L51 45L51 46L50 46L50 45L49 45L49 44L50 44L50 43L53 43L53 44L54 44L54 43L55 43L55 42L56 42L56 40L57 40L57 42L58 42L58 41L59 41L59 39L61 39L61 38L59 38L59 37L57 37L57 38L56 38L56 37L55 37L55 38L56 38L56 40L55 40L55 39L53 39L53 38L54 38L54 36L52 36L52 35L54 35L54 33L53 33L53 34L52 34L52 33L51 33L51 34L50 34L50 33L48 33L48 32L49 32L49 31L50 31L50 30L51 30L51 32L52 32L52 30L51 30L51 29L48 29L48 28L50 28L50 27L51 27L51 28L52 28L52 29L53 29L53 28L54 28L54 27L55 27L55 28L56 28L56 29L55 29L55 30L53 30L53 32L54 32L54 31L57 31L57 33L56 33L56 32L55 32L55 34L56 34L56 35L55 35L55 36L56 36L56 35L57 35L57 36L58 36L58 35L57 35L57 34L58 34L58 31L59 31L59 30L60 30L60 32L61 32L61 31L62 31L62 32L63 32L63 31L62 31L62 30L63 30L63 29L64 29L64 31L67 31L67 32L65 32L65 36L66 36L66 37L67 37L67 36L66 36L66 33L67 33L67 32L68 32L68 29L67 29L67 28L66 28L66 26L65 26L65 25L67 25L67 24L65 24L65 21L64 21L64 19L65 19L65 20L66 20L66 21L68 21L68 20L66 20L66 19L68 19L68 17L67 17L67 18L66 18L66 16L67 16L67 15L66 15L66 12L65 12L65 11L66 11L66 9L65 9L65 10L64 10L64 12L65 12L65 15L63 15L63 16L62 16L62 15L61 15L61 16L59 16L59 14L60 14L60 13L61 13L61 12L62 12L62 13L63 13L63 14L64 14L64 13L63 13L63 10L62 10L62 11L61 11L61 10L60 10L60 11L61 11L61 12L59 12L59 13L58 13L58 14L54 14L54 13L52 13L52 12L53 12L53 11L54 11L54 10L53 10L53 9L52 9L52 6L53 6L53 7L54 7L54 8L55 8L55 7L56 7L56 5L54 5L54 6L53 6L53 5L51 5L51 8L50 8L50 4L49 4L49 7L48 7L48 6L47 6L47 4L48 4L48 3L47 3L47 4L45 4L45 8L46 8L46 9L45 9L45 10L44 10L44 11L46 11L46 9L47 9L47 12L49 12L49 15L48 15L48 16L46 16L46 15L47 15L47 13L46 13L46 12L44 12L44 13L43 13L43 12L42 12L42 11L43 11L43 10L42 10L42 9L41 9L41 8L43 8L43 9L44 9L44 8L43 8L43 7L44 7L44 5L43 5L43 7L42 7L42 6L41 6L41 7L40 7L40 6L39 6L39 5L42 5L42 2L43 2L43 3L44 3L44 2L43 2L43 1L41 1L41 3L40 3L40 4L39 4L39 5L37 5L37 8L38 8L38 9L37 9L37 10L36 10L36 11L38 11L38 12L35 12L35 11L32 11L32 12L31 12L31 11L28 11L28 9L26 9L26 8L27 8L27 7L28 7L28 6L29 6L29 7L30 7L30 9L29 9L29 10L31 10L31 9L32 9L32 10L33 10L33 9L32 9L32 4L31 4L31 3L30 3L30 1ZM53 1L53 2L52 2L52 3L51 3L51 4L52 4L52 3L56 3L56 2L55 2L55 1ZM45 2L45 3L46 3L46 2ZM60 3L60 5L61 5L61 3ZM57 4L57 5L58 5L58 4ZM25 5L25 6L24 6L24 7L23 7L23 9L21 9L21 10L19 10L19 8L18 8L18 10L19 10L19 11L17 11L17 9L16 9L16 10L15 10L15 9L14 9L14 10L13 10L13 11L14 11L14 10L15 10L15 11L17 11L17 12L12 12L12 13L14 13L14 14L13 14L13 15L12 15L12 16L10 16L10 17L14 17L14 15L15 15L15 17L16 17L16 16L18 16L18 18L16 18L16 20L15 20L15 19L14 19L14 18L13 18L13 19L11 19L11 20L13 20L13 22L12 22L12 21L11 21L11 22L10 22L10 23L14 23L14 21L15 21L15 22L16 22L16 23L15 23L15 25L17 25L17 26L16 26L16 30L17 30L17 31L18 31L18 30L19 30L19 31L20 31L20 32L19 32L19 33L20 33L20 32L21 32L21 33L22 33L22 34L23 34L23 33L24 33L24 34L25 34L25 33L26 33L26 37L25 37L25 35L24 35L24 36L23 36L23 37L25 37L25 38L22 38L22 42L21 42L21 45L23 45L23 46L24 46L24 47L26 47L26 48L22 48L22 46L21 46L21 47L20 47L20 46L19 46L19 45L18 45L18 44L19 44L19 42L18 42L18 44L17 44L17 45L15 45L15 46L16 46L16 47L15 47L15 48L16 48L16 49L18 49L18 50L19 50L19 51L17 51L17 52L18 52L18 55L17 55L17 56L19 56L19 54L20 54L20 55L22 55L22 56L23 56L23 55L22 55L22 54L21 54L21 53L19 53L19 52L20 52L20 51L21 51L21 52L22 52L22 53L23 53L23 54L24 54L24 56L25 56L25 57L24 57L24 58L23 58L23 57L22 57L22 58L23 58L23 59L24 59L24 58L25 58L25 57L26 57L26 56L27 56L27 57L28 57L28 58L29 58L29 59L32 59L32 58L31 58L31 57L30 57L30 56L29 56L29 54L30 54L30 55L31 55L31 54L32 54L32 53L31 53L31 50L32 50L32 52L33 52L33 53L35 53L35 52L36 52L36 51L37 51L37 50L38 50L38 49L39 49L39 47L37 47L37 46L38 46L38 45L39 45L39 44L38 44L38 43L43 43L43 42L41 42L41 41L44 41L44 44L43 44L43 45L42 45L42 44L40 44L40 46L41 46L41 47L40 47L40 48L41 48L41 47L42 47L42 46L43 46L43 48L42 48L42 49L43 49L43 50L44 50L44 51L45 51L45 53L43 53L43 51L42 51L42 53L41 53L41 52L40 52L40 50L41 50L41 49L40 49L40 50L39 50L39 51L38 51L38 53L39 53L39 56L41 56L41 55L42 55L42 54L43 54L43 56L42 56L42 57L44 57L44 58L42 58L42 59L41 59L41 58L40 58L40 59L39 59L39 61L38 61L38 62L39 62L39 61L42 61L42 62L44 62L44 63L43 63L43 64L46 64L46 63L45 63L45 62L44 62L44 61L45 61L45 59L44 59L44 58L45 58L45 57L47 57L47 56L48 56L48 58L46 58L46 60L48 60L48 59L49 59L49 58L51 58L51 57L53 57L53 56L54 56L54 55L50 55L50 54L49 54L49 55L50 55L50 56L48 56L48 53L50 53L50 52L53 52L53 49L54 49L54 48L52 48L52 46L51 46L51 47L50 47L50 46L49 46L49 47L46 47L46 45L45 45L45 41L46 41L46 42L47 42L47 43L46 43L46 44L47 44L47 45L48 45L48 44L49 44L49 43L48 43L48 41L51 41L51 35L50 35L50 34L48 34L48 33L47 33L47 34L48 34L48 35L49 35L49 36L47 36L47 37L46 37L46 32L48 32L48 31L49 31L49 30L48 30L48 29L46 29L46 30L48 30L48 31L45 31L45 32L44 32L44 33L45 33L45 34L43 34L43 31L44 31L44 30L43 30L43 29L45 29L45 28L47 28L47 27L46 27L46 26L45 26L45 25L43 25L43 22L42 22L42 21L43 21L43 20L44 20L44 21L45 21L45 20L44 20L44 19L43 19L43 18L44 18L44 17L45 17L45 16L44 16L44 15L45 15L45 13L44 13L44 14L42 14L42 13L41 13L41 10L40 10L40 8L39 8L39 6L38 6L38 8L39 8L39 10L38 10L38 11L39 11L39 12L38 12L38 13L36 13L36 14L37 14L37 15L36 15L36 17L38 17L38 19L39 19L39 20L38 20L38 21L37 21L37 19L36 19L36 18L35 18L35 17L34 17L34 18L35 18L35 19L34 19L34 20L35 20L35 23L36 23L36 25L34 25L34 26L33 26L33 24L34 24L34 23L33 23L33 24L31 24L31 23L30 23L30 21L31 21L31 22L32 22L32 19L33 19L33 18L32 18L32 19L31 19L31 18L29 18L29 14L30 14L30 17L31 17L31 16L32 16L32 15L33 15L33 16L35 16L35 15L34 15L34 13L35 13L35 12L34 12L34 13L33 13L33 14L32 14L32 15L31 15L31 12L30 12L30 13L29 13L29 12L28 12L28 11L26 11L26 12L24 12L24 13L22 13L22 15L21 15L21 14L19 14L19 15L21 15L21 16L26 16L26 18L25 18L25 17L24 17L24 18L23 18L23 20L21 20L21 18L22 18L22 17L20 17L20 16L18 16L18 15L15 15L15 13L16 13L16 14L17 14L17 13L18 13L18 12L20 12L20 13L21 13L21 12L22 12L22 10L24 10L24 11L25 11L25 10L26 10L26 9L24 9L24 7L25 7L25 6L26 6L26 7L27 7L27 6L26 6L26 5ZM33 5L33 8L36 8L36 5ZM9 6L9 7L10 7L10 6ZM34 6L34 7L35 7L35 6ZM46 6L46 7L47 7L47 6ZM54 6L54 7L55 7L55 6ZM60 6L60 7L61 7L61 6ZM6 8L6 9L8 9L8 8ZM47 8L47 9L48 9L48 10L49 10L49 12L52 12L52 10L51 10L51 9L50 9L50 10L49 10L49 8ZM34 9L34 10L35 10L35 9ZM39 10L39 11L40 11L40 10ZM50 10L50 11L51 11L51 10ZM57 10L57 12L58 12L58 10ZM67 10L67 12L68 12L68 10ZM20 11L20 12L21 12L21 11ZM26 12L26 13L25 13L25 14L24 14L24 15L25 15L25 14L27 14L27 13L28 13L28 14L29 14L29 13L28 13L28 12ZM39 12L39 13L38 13L38 15L37 15L37 16L38 16L38 17L39 17L39 16L38 16L38 15L39 15L39 13L40 13L40 14L41 14L41 15L40 15L40 16L41 16L41 15L42 15L42 14L41 14L41 13L40 13L40 12ZM50 13L50 16L51 16L51 15L54 15L54 16L53 16L53 17L51 17L51 19L49 19L49 16L48 16L48 19L47 19L47 17L46 17L46 19L47 19L47 20L46 20L46 22L47 22L47 23L45 23L45 24L46 24L46 25L47 25L47 26L48 26L48 27L49 27L49 26L52 26L52 25L54 25L54 26L55 26L55 25L54 25L54 22L56 22L56 26L57 26L57 25L59 25L59 26L61 26L61 27L60 27L60 28L59 28L59 27L58 27L58 28L57 28L57 27L56 27L56 28L57 28L57 29L56 29L56 30L57 30L57 31L58 31L58 30L59 30L59 29L63 29L63 28L64 28L64 27L65 27L65 26L64 26L64 27L63 27L63 24L61 24L61 23L59 23L59 22L61 22L61 21L62 21L62 22L63 22L63 23L64 23L64 22L63 22L63 19L62 19L62 16L61 16L61 17L59 17L59 16L55 16L55 15L54 15L54 14L52 14L52 13ZM2 14L2 15L3 15L3 14ZM6 14L6 15L7 15L7 14ZM43 16L43 17L44 17L44 16ZM54 16L54 17L55 17L55 18L53 18L53 20L54 20L54 19L55 19L55 18L57 18L57 17L55 17L55 16ZM63 16L63 17L64 17L64 18L65 18L65 17L64 17L64 16ZM40 17L40 20L39 20L39 22L40 22L40 23L37 23L37 24L40 24L40 23L41 23L41 22L40 22L40 20L42 20L42 19L41 19L41 17ZM19 18L19 20L18 20L18 21L17 21L17 20L16 20L16 21L17 21L17 22L18 22L18 24L19 24L19 23L21 23L21 21L20 21L20 22L19 22L19 20L20 20L20 18ZM27 18L27 19L25 19L25 20L26 20L26 22L25 22L25 21L24 21L24 22L23 22L23 23L22 23L22 24L23 24L23 27L21 27L21 30L20 30L20 31L21 31L21 30L22 30L22 31L23 31L23 30L24 30L24 27L26 27L26 26L27 26L27 25L28 25L28 26L29 26L29 27L27 27L27 28L25 28L25 29L26 29L26 30L25 30L25 31L24 31L24 32L26 32L26 30L27 30L27 31L29 31L29 30L30 30L30 32L29 32L29 34L27 34L27 35L29 35L29 36L27 36L27 38L28 38L28 37L29 37L29 38L30 38L30 39L29 39L29 40L30 40L30 41L28 41L28 42L26 42L26 41L27 41L27 40L26 40L26 41L25 41L25 39L26 39L26 38L25 38L25 39L23 39L23 40L24 40L24 41L23 41L23 42L24 42L24 43L23 43L23 45L24 45L24 46L25 46L25 45L26 45L26 47L27 47L27 49L25 49L25 50L24 50L24 51L23 51L23 52L24 52L24 54L25 54L25 55L26 55L26 54L25 54L25 52L27 52L27 51L28 51L28 50L29 50L29 51L30 51L30 49L29 49L29 48L28 48L28 47L30 47L30 46L31 46L31 48L32 48L32 46L33 46L33 47L34 47L34 50L33 50L33 52L34 52L34 50L35 50L35 49L38 49L38 48L37 48L37 47L36 47L36 46L37 46L37 45L36 45L36 44L37 44L37 43L38 43L38 41L40 41L40 38L41 38L41 39L42 39L42 40L43 40L43 38L44 38L44 39L45 39L45 40L46 40L46 41L47 41L47 40L50 40L50 38L49 38L49 39L48 39L48 37L47 37L47 40L46 40L46 39L45 39L45 38L44 38L44 36L43 36L43 38L41 38L41 37L40 37L40 36L42 36L42 35L43 35L43 34L42 34L42 31L43 31L43 30L41 30L41 29L43 29L43 28L41 28L41 29L39 29L39 30L38 30L38 31L39 31L39 32L38 32L38 33L37 33L37 35L38 35L38 33L39 33L39 34L40 34L40 36L37 36L37 37L38 37L38 38L39 38L39 40L38 40L38 39L35 39L35 38L36 38L36 37L35 37L35 38L34 38L34 37L32 37L32 38L31 38L31 35L32 35L32 34L30 34L30 33L32 33L32 30L31 30L31 29L32 29L32 28L33 28L33 29L35 29L35 30L37 30L37 26L36 26L36 29L35 29L35 27L32 27L32 25L31 25L31 24L30 24L30 26L29 26L29 23L26 23L26 22L27 22L27 21L28 21L28 22L29 22L29 21L30 21L30 20L29 20L29 21L28 21L28 20L27 20L27 19L28 19L28 18ZM58 18L58 19L56 19L56 20L55 20L55 21L57 21L57 24L58 24L58 21L61 21L61 20L62 20L62 19L61 19L61 20L59 20L59 18ZM35 19L35 20L36 20L36 19ZM48 19L48 20L47 20L47 22L50 22L50 23L49 23L49 25L50 25L50 24L51 24L51 25L52 25L52 24L53 24L53 22L52 22L52 23L51 23L51 22L50 22L50 20L49 20L49 19ZM51 19L51 21L52 21L52 19ZM4 20L4 21L5 21L5 20ZM48 20L48 21L49 21L49 20ZM57 20L57 21L58 21L58 20ZM36 21L36 22L37 22L37 21ZM16 23L16 24L17 24L17 23ZM23 23L23 24L24 24L24 26L25 26L25 24L24 24L24 23ZM47 23L47 25L48 25L48 23ZM26 24L26 25L27 25L27 24ZM59 24L59 25L61 25L61 24ZM64 24L64 25L65 25L65 24ZM18 25L18 27L17 27L17 28L18 28L18 29L17 29L17 30L18 30L18 29L19 29L19 28L20 28L20 27L19 27L19 26L20 26L20 25ZM21 25L21 26L22 26L22 25ZM39 25L39 28L40 28L40 27L41 27L41 26L42 26L42 27L43 27L43 25L41 25L41 26L40 26L40 25ZM30 26L30 27L29 27L29 28L27 28L27 29L31 29L31 28L30 28L30 27L31 27L31 26ZM18 27L18 28L19 28L19 27ZM61 27L61 28L62 28L62 27ZM0 28L0 30L1 30L1 31L2 31L2 30L1 30L1 28ZM22 28L22 30L23 30L23 28ZM65 28L65 30L67 30L67 29L66 29L66 28ZM14 29L14 31L15 31L15 29ZM8 30L8 31L9 31L9 30ZM33 31L33 32L37 32L37 31ZM27 32L27 33L28 33L28 32ZM40 32L40 33L41 33L41 32ZM5 33L5 36L8 36L8 33ZM33 33L33 36L36 36L36 33ZM61 33L61 36L64 36L64 33ZM6 34L6 35L7 35L7 34ZM9 34L9 35L10 35L10 34ZM29 34L29 35L30 35L30 34ZM34 34L34 35L35 35L35 34ZM59 34L59 35L60 35L60 34ZM62 34L62 35L63 35L63 34ZM29 36L29 37L30 37L30 36ZM49 36L49 37L50 37L50 36ZM5 37L5 38L7 38L7 37ZM9 37L9 38L8 38L8 40L9 40L9 38L10 38L10 37ZM39 37L39 38L40 38L40 37ZM52 37L52 38L53 38L53 37ZM1 38L1 40L2 40L2 39L4 39L4 38ZM33 38L33 39L32 39L32 40L31 40L31 41L32 41L32 40L33 40L33 39L34 39L34 41L33 41L33 42L31 42L31 43L29 43L29 42L28 42L28 43L29 43L29 44L28 44L28 45L27 45L27 47L28 47L28 46L29 46L29 44L32 44L32 43L33 43L33 45L35 45L35 46L34 46L34 47L35 47L35 46L36 46L36 45L35 45L35 44L36 44L36 43L35 43L35 44L34 44L34 43L33 43L33 42L34 42L34 41L35 41L35 39L34 39L34 38ZM5 39L5 40L4 40L4 41L5 41L5 40L7 40L7 39ZM20 39L20 40L19 40L19 41L20 41L20 40L21 40L21 39ZM52 39L52 41L53 41L53 39ZM57 39L57 40L58 40L58 39ZM36 40L36 42L37 42L37 41L38 41L38 40ZM54 40L54 42L53 42L53 43L54 43L54 42L55 42L55 40ZM65 40L65 41L66 41L66 42L65 42L65 43L67 43L67 42L68 42L68 40ZM3 42L3 43L2 43L2 45L3 45L3 43L4 43L4 42ZM10 42L10 43L11 43L11 42ZM47 43L47 44L48 44L48 43ZM59 43L59 44L58 44L58 46L59 46L59 44L60 44L60 43ZM64 44L64 45L63 45L63 46L64 46L64 47L65 47L65 46L66 46L66 47L67 47L67 46L66 46L66 45L67 45L67 44L66 44L66 45L65 45L65 44ZM17 45L17 46L18 46L18 47L16 47L16 48L18 48L18 47L19 47L19 50L20 50L20 47L19 47L19 46L18 46L18 45ZM64 45L64 46L65 46L65 45ZM61 46L61 47L62 47L62 46ZM0 47L0 48L1 48L1 47ZM44 47L44 48L43 48L43 49L44 49L44 50L45 50L45 51L46 51L46 50L48 50L48 52L50 52L50 51L49 51L49 50L50 50L50 48L47 48L47 49L46 49L46 47ZM21 48L21 49L22 49L22 50L23 50L23 49L22 49L22 48ZM27 49L27 50L26 50L26 51L27 51L27 50L28 50L28 49ZM51 49L51 50L52 50L52 49ZM57 49L57 50L58 50L58 49ZM65 51L65 52L66 52L66 51ZM29 52L29 53L28 53L28 54L29 54L29 53L30 53L30 54L31 54L31 53L30 53L30 52ZM46 52L46 53L45 53L45 54L44 54L44 55L45 55L45 54L46 54L46 55L47 55L47 54L46 54L46 53L47 53L47 52ZM13 53L13 54L12 54L12 55L11 55L11 56L9 56L9 59L10 59L10 60L12 60L12 58L10 58L10 57L11 57L11 56L12 56L12 57L13 57L13 54L15 54L15 53ZM40 53L40 54L41 54L41 53ZM6 54L6 55L7 55L7 54ZM34 54L34 55L32 55L32 57L33 57L33 56L35 56L35 54ZM62 55L62 56L61 56L61 58L62 58L62 57L63 57L63 55ZM28 56L28 57L29 57L29 56ZM50 56L50 57L51 57L51 56ZM57 56L57 57L58 57L58 56ZM66 56L66 57L64 57L64 58L66 58L66 57L67 57L67 56ZM7 57L7 58L8 58L8 57ZM13 58L13 60L14 60L14 59L15 59L15 58ZM43 59L43 60L44 60L44 59ZM64 59L64 60L65 60L65 59ZM3 60L3 61L5 61L5 60ZM28 60L28 61L30 61L30 60ZM33 61L33 64L36 64L36 61ZM47 61L47 62L48 62L48 63L49 63L49 62L48 62L48 61ZM61 61L61 64L64 64L64 61ZM9 62L9 63L11 63L11 64L9 64L9 65L11 65L11 66L12 66L12 67L13 67L13 65L11 65L11 64L13 64L13 63L11 63L11 62ZM34 62L34 63L35 63L35 62ZM55 62L55 63L56 63L56 62ZM62 62L62 63L63 63L63 62ZM57 63L57 64L56 64L56 65L58 65L58 63ZM30 64L30 65L31 65L31 66L32 66L32 64ZM68 64L68 65L69 65L69 64ZM21 65L21 66L22 66L22 65ZM28 65L28 68L31 68L31 67L29 67L29 65ZM62 65L62 66L63 66L63 65ZM64 65L64 66L65 66L65 65ZM19 66L19 67L20 67L20 66ZM63 67L63 68L66 68L66 67ZM10 68L10 69L11 69L11 68ZM17 68L17 69L18 69L18 68ZM45 68L45 69L46 69L46 68ZM0 0L0 7L7 7L7 0ZM1 1L1 6L6 6L6 1ZM2 2L2 5L5 5L5 2ZM62 0L62 7L69 7L69 0ZM63 1L63 6L68 6L68 1ZM64 2L64 5L67 5L67 2ZM0 62L0 69L7 69L7 62ZM1 63L1 68L6 68L6 63ZM2 64L2 67L5 67L5 64Z" fill="#000000"/></g></g></svg>
