<?xml version="1.0" encoding="UTF-8"?>
<svg xmlns="http://www.w3.org/2000/svg" version="1.1" width="200" height="200" viewBox="0 0 200 200"><rect x="0" y="0" width="200" height="200" fill="#ffffff"/><g transform="scale(4.878)"><g transform="translate(0,0)"><path fill-rule="evenodd" d="M8 0L8 3L10 3L10 5L8 5L8 9L7 9L7 8L6 8L6 9L5 9L5 8L2 8L2 9L0 9L0 10L2 10L2 9L4 9L4 11L5 11L5 13L4 13L4 12L3 12L3 11L2 11L2 12L3 12L3 13L0 13L0 15L2 15L2 16L1 16L1 17L0 17L0 18L2 18L2 19L3 19L3 20L2 20L2 22L1 22L1 23L0 23L0 24L1 24L1 23L2 23L2 26L1 26L1 25L0 25L0 26L1 26L1 27L3 27L3 29L2 29L2 33L3 33L3 32L4 32L4 31L3 31L3 30L5 30L5 31L7 31L7 30L6 30L6 29L7 29L7 28L5 28L5 29L4 29L4 26L3 26L3 25L7 25L7 26L6 26L6 27L7 27L7 26L8 26L8 28L9 28L9 26L11 26L11 27L10 27L10 28L11 28L11 29L12 29L12 30L14 30L14 29L15 29L15 30L16 30L16 31L18 31L18 32L15 32L15 31L13 31L13 33L12 33L12 31L10 31L10 30L8 30L8 31L10 31L10 32L8 32L8 34L10 34L10 32L11 32L11 36L12 36L12 34L13 34L13 35L14 35L14 37L12 37L12 38L11 38L11 41L13 41L13 39L15 39L15 38L16 38L16 40L15 40L15 41L20 41L20 40L17 40L17 39L18 39L18 38L19 38L19 37L20 37L20 36L18 36L18 35L17 35L17 34L16 34L16 33L20 33L20 34L19 34L19 35L21 35L21 37L22 37L22 34L23 34L23 33L24 33L24 34L25 34L25 31L26 31L26 32L27 32L27 30L29 30L29 29L30 29L30 31L31 31L31 29L30 29L30 28L29 28L29 29L28 29L28 28L25 28L25 30L24 30L24 27L23 27L23 26L24 26L24 25L22 25L22 26L21 26L21 24L25 24L25 25L26 25L26 27L28 27L28 26L27 26L27 25L30 25L30 26L29 26L29 27L31 27L31 28L32 28L32 29L33 29L33 30L32 30L32 31L33 31L33 32L32 32L32 33L30 33L30 32L29 32L29 31L28 31L28 33L30 33L30 35L32 35L32 37L31 37L31 36L30 36L30 37L31 37L31 38L29 38L29 39L28 39L28 38L27 38L27 37L29 37L29 35L28 35L28 34L27 34L27 33L26 33L26 34L27 34L27 36L26 36L26 35L24 35L24 36L23 36L23 38L22 38L22 39L21 39L21 38L20 38L20 39L21 39L21 41L22 41L22 39L25 39L25 40L27 40L27 41L32 41L32 40L33 40L33 39L35 39L35 41L37 41L37 39L38 39L38 38L39 38L39 40L40 40L40 38L41 38L41 36L40 36L40 34L41 34L41 32L38 32L38 33L40 33L40 34L38 34L38 35L39 35L39 36L38 36L38 37L37 37L37 32L36 32L36 31L37 31L37 29L39 29L39 30L38 30L38 31L39 31L39 30L41 30L41 29L40 29L40 26L41 26L41 23L40 23L40 26L38 26L38 27L37 27L37 25L39 25L39 24L38 24L38 23L39 23L39 22L38 22L38 23L37 23L37 25L33 25L33 24L36 24L36 23L34 23L34 22L36 22L36 21L37 21L37 20L38 20L38 21L39 21L39 20L38 20L38 18L37 18L37 17L39 17L39 18L41 18L41 17L40 17L40 16L41 16L41 15L40 15L40 14L41 14L41 13L40 13L40 14L39 14L39 15L40 15L40 16L37 16L37 17L33 17L33 15L35 15L35 14L36 14L36 15L38 15L38 13L39 13L39 12L40 12L40 10L41 10L41 8L38 8L38 10L37 10L37 9L36 9L36 8L33 8L33 5L32 5L32 4L33 4L33 0L30 0L30 2L31 2L31 1L32 1L32 4L31 4L31 3L30 3L30 4L31 4L31 5L27 5L27 6L26 6L26 7L25 7L25 6L24 6L24 8L26 8L26 7L27 7L27 8L28 8L28 9L31 9L31 10L32 10L32 8L33 8L33 9L34 9L34 10L33 10L33 11L34 11L34 10L35 10L35 12L37 12L37 11L39 11L39 12L38 12L38 13L35 13L35 14L33 14L33 13L34 13L34 12L33 12L33 13L32 13L32 11L30 11L30 12L28 12L28 11L29 11L29 10L27 10L27 9L26 9L26 10L27 10L27 11L26 11L26 12L25 12L25 11L24 11L24 10L25 10L25 9L24 9L24 10L23 10L23 12L24 12L24 13L22 13L22 12L18 12L18 11L17 11L17 10L19 10L19 11L21 11L21 10L22 10L22 9L18 9L18 7L19 7L19 8L22 8L22 7L23 7L23 6L22 6L22 2L23 2L23 3L24 3L24 4L23 4L23 5L24 5L24 4L25 4L25 5L26 5L26 4L29 4L29 2L28 2L28 1L27 1L27 0L24 0L24 2L23 2L23 0L18 0L18 1L15 1L15 0L12 0L12 3L10 3L10 2L9 2L9 1L10 1L10 0ZM14 1L14 2L13 2L13 3L12 3L12 4L13 4L13 5L14 5L14 6L13 6L13 7L12 7L12 5L10 5L10 6L9 6L9 11L8 11L8 10L7 10L7 9L6 9L6 10L5 10L5 11L6 11L6 12L7 12L7 11L8 11L8 13L5 13L5 14L7 14L7 15L6 15L6 16L5 16L5 15L3 15L3 14L2 14L2 15L3 15L3 16L2 16L2 17L4 17L4 18L3 18L3 19L4 19L4 18L5 18L5 17L6 17L6 18L7 18L7 17L6 17L6 16L7 16L7 15L9 15L9 14L11 14L11 15L10 15L10 16L8 16L8 17L11 17L11 18L8 18L8 19L5 19L5 20L4 20L4 21L5 21L5 22L3 22L3 23L4 23L4 24L8 24L8 23L9 23L9 25L10 25L10 22L11 22L11 20L12 20L12 21L13 21L13 23L12 23L12 24L11 24L11 25L12 25L12 26L13 26L13 25L14 25L14 26L16 26L16 28L15 28L15 27L14 27L14 28L13 28L13 29L14 29L14 28L15 28L15 29L16 29L16 30L17 30L17 29L16 29L16 28L18 28L18 29L19 29L19 30L18 30L18 31L19 31L19 32L20 32L20 33L23 33L23 32L24 32L24 31L22 31L22 32L20 32L20 31L19 31L19 30L20 30L20 28L18 28L18 27L19 27L19 24L18 24L18 22L17 22L17 23L16 23L16 24L15 24L15 25L14 25L14 24L13 24L13 23L14 23L14 21L15 21L15 22L16 22L16 21L17 21L17 20L16 20L16 19L14 19L14 17L16 17L16 18L18 18L18 19L21 19L21 17L22 17L22 16L24 16L24 17L23 17L23 19L22 19L22 20L18 20L18 21L20 21L20 22L19 22L19 23L21 23L21 21L23 21L23 22L22 22L22 23L25 23L25 24L28 24L28 23L27 23L27 22L29 22L29 24L30 24L30 25L32 25L32 26L31 26L31 27L32 27L32 28L33 28L33 29L34 29L34 30L33 30L33 31L34 31L34 32L35 32L35 30L36 30L36 29L37 29L37 27L36 27L36 29L34 29L34 28L33 28L33 27L34 27L34 26L33 26L33 25L32 25L32 24L30 24L30 22L29 22L29 21L32 21L32 22L31 22L31 23L33 23L33 21L36 21L36 20L35 20L35 18L33 18L33 17L32 17L32 18L30 18L30 19L31 19L31 20L29 20L29 19L28 19L28 21L27 21L27 22L25 22L25 21L26 21L26 19L27 19L27 18L29 18L29 17L26 17L26 15L25 15L25 14L26 14L26 13L27 13L27 12L26 12L26 13L25 13L25 14L24 14L24 15L22 15L22 14L21 14L21 13L20 13L20 14L19 14L19 13L18 13L18 12L17 12L17 11L16 11L16 10L15 10L15 9L16 9L16 8L17 8L17 7L18 7L18 5L16 5L16 4L19 4L19 5L20 5L20 6L19 6L19 7L20 7L20 6L21 6L21 7L22 7L22 6L21 6L21 5L20 5L20 3L19 3L19 2L22 2L22 1L18 1L18 2L17 2L17 3L16 3L16 4L15 4L15 3L14 3L14 2L15 2L15 1ZM26 2L26 3L25 3L25 4L26 4L26 3L28 3L28 2ZM13 3L13 4L14 4L14 3ZM31 5L31 8L32 8L32 5ZM10 6L10 8L11 8L11 9L10 9L10 10L13 10L13 9L12 9L12 8L11 8L11 6ZM14 6L14 7L13 7L13 8L14 8L14 9L15 9L15 6ZM16 6L16 7L17 7L17 6ZM27 6L27 7L28 7L28 6ZM29 6L29 8L30 8L30 6ZM35 9L35 10L36 10L36 9ZM6 10L6 11L7 11L7 10ZM14 10L14 11L15 11L15 10ZM0 11L0 12L1 12L1 11ZM10 11L10 13L12 13L12 12L13 12L13 13L14 13L14 16L16 16L16 17L19 17L19 18L20 18L20 17L21 17L21 16L22 16L22 15L21 15L21 14L20 14L20 15L18 15L18 13L17 13L17 16L16 16L16 15L15 15L15 13L16 13L16 12L13 12L13 11L12 11L12 12L11 12L11 11ZM30 12L30 13L28 13L28 14L30 14L30 15L28 15L28 16L30 16L30 17L31 17L31 16L30 16L30 15L31 15L31 14L32 14L32 15L33 15L33 14L32 14L32 13L31 13L31 12ZM8 13L8 14L9 14L9 13ZM30 13L30 14L31 14L31 13ZM12 14L12 15L11 15L11 17L12 17L12 15L13 15L13 14ZM20 15L20 16L19 16L19 17L20 17L20 16L21 16L21 15ZM4 16L4 17L5 17L5 16ZM25 17L25 19L26 19L26 17ZM11 18L11 19L12 19L12 20L13 20L13 21L14 21L14 19L12 19L12 18ZM32 18L32 19L33 19L33 20L34 20L34 19L33 19L33 18ZM9 19L9 20L6 20L6 21L10 21L10 19ZM23 19L23 21L25 21L25 20L24 20L24 19ZM40 19L40 20L41 20L41 19ZM40 21L40 22L41 22L41 21ZM5 22L5 23L7 23L7 22ZM16 24L16 25L17 25L17 24ZM11 27L11 28L12 28L12 27ZM38 27L38 28L39 28L39 27ZM21 28L21 30L22 30L22 28ZM0 29L0 33L1 33L1 29ZM5 32L5 33L7 33L7 32ZM14 32L14 33L13 33L13 34L14 34L14 35L15 35L15 36L16 36L16 37L17 37L17 38L18 38L18 37L17 37L17 35L16 35L16 34L14 34L14 33L15 33L15 32ZM33 33L33 36L36 36L36 33ZM34 34L34 35L35 35L35 34ZM8 36L8 39L10 39L10 37L9 37L9 36ZM14 37L14 38L15 38L15 37ZM24 37L24 38L25 38L25 39L26 39L26 37ZM32 37L32 38L31 38L31 40L32 40L32 39L33 39L33 37ZM34 37L34 38L35 38L35 37ZM36 37L36 38L37 38L37 37ZM27 39L27 40L28 40L28 39ZM29 39L29 40L30 40L30 39ZM9 40L9 41L10 41L10 40ZM23 40L23 41L24 41L24 40ZM0 0L0 7L7 7L7 0ZM1 1L1 6L6 6L6 1ZM2 2L2 5L5 5L5 2ZM34 0L34 7L41 7L41 0ZM35 1L35 6L40 6L40 1ZM36 2L36 5L39 5L39 2ZM0 34L0 41L7 41L7 34ZM1 35L1 40L6 40L6 35ZM2 36L2 39L5 39L5 36Z" fill="#000000"/></g></g></svg>
