<?xml version="1.0" encoding="UTF-8"?>
<svg xmlns="http://www.w3.org/2000/svg" version="1.1" width="200" height="200" viewBox="0 0 200 200"><rect x="0" y="0" width="200" height="200" fill="#ffffff"/><g transform="scale(4.878)"><g transform="translate(0,0)"><path fill-rule="evenodd" d="M8 0L8 3L10 3L10 4L12 4L12 8L11 8L11 6L10 6L10 8L9 8L9 5L8 5L8 9L7 9L7 8L6 8L6 9L7 9L7 10L5 10L5 12L4 12L4 9L5 9L5 8L2 8L2 9L0 9L0 18L1 18L1 15L2 15L2 17L4 17L4 16L5 16L5 17L7 17L7 18L2 18L2 19L0 19L0 20L3 20L3 19L4 19L4 23L8 23L8 24L9 24L9 25L10 25L10 23L9 23L9 21L8 21L8 20L9 20L9 18L11 18L11 19L10 19L10 22L11 22L11 19L12 19L12 16L11 16L11 15L10 15L10 14L11 14L11 13L12 13L12 14L13 14L13 16L15 16L15 18L13 18L13 19L14 19L14 20L13 20L13 21L12 21L12 22L13 22L13 23L14 23L14 24L12 24L12 23L11 23L11 25L12 25L12 26L10 26L10 27L9 27L9 26L8 26L8 25L7 25L7 24L5 24L5 28L6 28L6 29L5 29L5 30L4 30L4 32L6 32L6 33L7 33L7 32L6 32L6 31L7 31L7 30L6 30L6 29L7 29L7 28L6 28L6 27L7 27L7 26L8 26L8 28L11 28L11 30L12 30L12 29L13 29L13 31L12 31L12 32L11 32L11 31L10 31L10 29L8 29L8 31L9 31L9 32L8 32L8 34L9 34L9 36L8 36L8 39L9 39L9 40L10 40L10 39L9 39L9 37L10 37L10 38L11 38L11 40L12 40L12 41L15 41L15 40L16 40L16 38L15 38L15 40L14 40L14 38L13 38L13 36L12 36L12 35L14 35L14 37L15 37L15 35L17 35L17 37L18 37L18 38L17 38L17 39L18 39L18 40L17 40L17 41L18 41L18 40L19 40L19 39L20 39L20 41L27 41L27 40L28 40L28 41L31 41L31 40L34 40L34 39L35 39L35 41L37 41L37 39L38 39L38 38L39 38L39 40L40 40L40 38L41 38L41 36L40 36L40 34L41 34L41 33L40 33L40 32L38 32L38 34L39 34L39 36L38 36L38 37L37 37L37 32L36 32L36 31L38 31L38 30L37 30L37 29L40 29L40 30L39 30L39 31L40 31L40 30L41 30L41 29L40 29L40 28L41 28L41 27L40 27L40 28L38 28L38 27L39 27L39 26L41 26L41 23L40 23L40 25L39 25L39 24L38 24L38 23L39 23L39 22L38 22L38 23L37 23L37 25L36 25L36 23L35 23L35 25L33 25L33 24L32 24L32 25L31 25L31 24L28 24L28 23L29 23L29 22L30 22L30 23L31 23L31 22L32 22L32 21L29 21L29 22L27 22L27 20L28 20L28 19L29 19L29 20L32 20L32 19L33 19L33 20L36 20L36 21L33 21L33 22L36 22L36 21L40 21L40 22L41 22L41 21L40 21L40 18L41 18L41 17L40 17L40 16L37 16L37 15L36 15L36 14L37 14L37 13L35 13L35 14L33 14L33 13L34 13L34 12L33 12L33 13L32 13L32 11L30 11L30 12L28 12L28 11L29 11L29 10L27 10L27 8L28 8L28 9L31 9L31 10L32 10L32 8L33 8L33 11L34 11L34 10L37 10L37 11L35 11L35 12L37 12L37 11L39 11L39 12L38 12L38 14L41 14L41 13L40 13L40 12L41 12L41 11L40 11L40 10L41 10L41 8L38 8L38 10L37 10L37 9L36 9L36 8L33 8L33 5L32 5L32 4L33 4L33 2L32 2L32 4L31 4L31 3L30 3L30 4L31 4L31 5L29 5L29 4L28 4L28 3L29 3L29 2L28 2L28 1L27 1L27 0L25 0L25 1L24 1L24 2L23 2L23 1L22 1L22 0L20 0L20 1L19 1L19 4L18 4L18 5L17 5L17 3L18 3L18 2L17 2L17 1L18 1L18 0L14 0L14 1L16 1L16 2L14 2L14 3L16 3L16 5L15 5L15 4L12 4L12 3L13 3L13 1L11 1L11 3L10 3L10 1L9 1L9 0ZM30 0L30 2L31 2L31 1L33 1L33 0ZM21 1L21 2L22 2L22 4L23 4L23 5L21 5L21 7L22 7L22 10L21 10L21 11L22 11L22 12L20 12L20 13L19 13L19 12L18 12L18 11L20 11L20 9L19 9L19 7L20 7L20 6L19 6L19 7L18 7L18 6L17 6L17 5L16 5L16 6L15 6L15 5L14 5L14 6L13 6L13 10L12 10L12 12L13 12L13 14L14 14L14 13L15 13L15 15L17 15L17 17L16 17L16 20L15 20L15 21L17 21L17 20L18 20L18 18L17 18L17 17L18 17L18 15L19 15L19 18L20 18L20 17L21 17L21 16L22 16L22 15L23 15L23 14L24 14L24 15L25 15L25 17L24 17L24 18L25 18L25 19L27 19L27 18L29 18L29 17L26 17L26 14L25 14L25 13L26 13L26 12L27 12L27 13L28 13L28 14L29 14L29 15L28 15L28 16L30 16L30 17L31 17L31 14L32 14L32 15L33 15L33 17L32 17L32 18L30 18L30 19L32 19L32 18L33 18L33 19L35 19L35 18L33 18L33 17L37 17L37 20L39 20L39 19L38 19L38 18L40 18L40 17L37 17L37 16L35 16L35 15L33 15L33 14L32 14L32 13L28 13L28 12L27 12L27 10L25 10L25 7L26 7L26 8L27 8L27 7L28 7L28 6L27 6L27 5L28 5L28 4L26 4L26 3L28 3L28 2L26 2L26 3L25 3L25 2L24 2L24 4L23 4L23 2L22 2L22 1ZM16 2L16 3L17 3L17 2ZM19 4L19 5L20 5L20 4ZM25 4L25 5L23 5L23 6L22 6L22 7L23 7L23 6L24 6L24 7L25 7L25 6L26 6L26 7L27 7L27 6L26 6L26 4ZM31 5L31 8L32 8L32 5ZM14 6L14 7L15 7L15 8L14 8L14 9L16 9L16 10L17 10L17 11L18 11L18 10L19 10L19 9L18 9L18 10L17 10L17 9L16 9L16 8L18 8L18 7L17 7L17 6L16 6L16 7L15 7L15 6ZM29 6L29 8L30 8L30 6ZM2 9L2 10L1 10L1 11L2 11L2 12L1 12L1 13L2 13L2 12L3 12L3 11L2 11L2 10L3 10L3 9ZM9 9L9 10L8 10L8 11L6 11L6 12L5 12L5 13L4 13L4 15L5 15L5 13L6 13L6 14L10 14L10 12L11 12L11 10L10 10L10 9ZM23 9L23 10L22 10L22 11L23 11L23 12L25 12L25 11L24 11L24 9ZM9 10L9 11L10 11L10 10ZM14 10L14 11L15 11L15 10ZM6 12L6 13L9 13L9 12ZM16 12L16 14L17 14L17 15L18 15L18 14L19 14L19 15L20 15L20 16L21 16L21 15L20 15L20 14L22 14L22 13L20 13L20 14L19 14L19 13L17 13L17 12ZM2 14L2 15L3 15L3 14ZM6 15L6 16L7 16L7 17L10 17L10 15L9 15L9 16L7 16L7 15ZM7 18L7 19L5 19L5 20L7 20L7 19L8 19L8 18ZM19 19L19 21L18 21L18 24L17 24L17 23L16 23L16 24L15 24L15 25L13 25L13 26L12 26L12 27L11 27L11 28L12 28L12 27L15 27L15 28L16 28L16 26L17 26L17 25L19 25L19 26L20 26L20 27L21 27L21 28L22 28L22 30L21 30L21 31L22 31L22 30L24 30L24 31L23 31L23 32L22 32L22 33L23 33L23 32L24 32L24 34L23 34L23 35L24 35L24 34L25 34L25 35L27 35L27 36L29 36L29 37L27 37L27 38L26 38L26 36L23 36L23 37L25 37L25 38L26 38L26 40L27 40L27 38L29 38L29 39L28 39L28 40L31 40L31 39L33 39L33 38L32 38L32 36L31 36L31 35L30 35L30 33L31 33L31 34L32 34L32 32L33 32L33 31L34 31L34 32L35 32L35 30L36 30L36 29L37 29L37 27L38 27L38 26L39 26L39 25L37 25L37 27L36 27L36 29L34 29L34 28L33 28L33 27L34 27L34 26L33 26L33 25L32 25L32 26L31 26L31 25L30 25L30 26L29 26L29 25L28 25L28 24L27 24L27 23L25 23L25 24L27 24L27 25L26 25L26 26L25 26L25 25L24 25L24 22L26 22L26 20L25 20L25 21L24 21L24 22L22 22L22 21L23 21L23 20L22 20L22 19L21 19L21 21L20 21L20 19ZM1 21L1 22L0 22L0 24L3 24L3 25L1 25L1 27L0 27L0 28L1 28L1 29L0 29L0 33L1 33L1 30L2 30L2 31L3 31L3 28L4 28L4 27L3 27L3 28L2 28L2 26L3 26L3 25L4 25L4 24L3 24L3 23L1 23L1 22L3 22L3 21ZM5 21L5 22L7 22L7 21ZM13 21L13 22L14 22L14 23L15 23L15 22L14 22L14 21ZM19 22L19 23L20 23L20 22ZM16 24L16 25L17 25L17 24ZM19 24L19 25L20 25L20 26L21 26L21 27L22 27L22 26L23 26L23 28L25 28L25 34L26 34L26 30L29 30L29 31L28 31L28 33L30 33L30 32L29 32L29 31L31 31L31 30L29 30L29 29L31 29L31 28L32 28L32 29L33 29L33 30L32 30L32 31L33 31L33 30L34 30L34 29L33 29L33 28L32 28L32 27L31 27L31 26L30 26L30 28L29 28L29 27L28 27L28 26L26 26L26 28L25 28L25 26L23 26L23 25L22 25L22 26L21 26L21 25L20 25L20 24ZM6 25L6 26L7 26L7 25ZM35 25L35 26L36 26L36 25ZM27 27L27 28L26 28L26 29L27 29L27 28L28 28L28 29L29 29L29 28L28 28L28 27ZM13 28L13 29L14 29L14 31L15 31L15 32L16 32L16 33L15 33L15 34L14 34L14 35L15 35L15 34L17 34L17 35L18 35L18 36L20 36L20 35L22 35L22 34L20 34L20 33L21 33L21 32L20 32L20 31L18 31L18 32L20 32L20 33L19 33L19 35L18 35L18 33L17 33L17 32L16 32L16 31L17 31L17 30L16 30L16 31L15 31L15 29L14 29L14 28ZM17 28L17 29L18 29L18 28ZM19 28L19 29L20 29L20 28ZM5 30L5 31L6 31L6 30ZM9 32L9 33L10 33L10 34L11 34L11 35L10 35L10 37L11 37L11 38L12 38L12 36L11 36L11 35L12 35L12 33L13 33L13 32L12 32L12 33L10 33L10 32ZM33 33L33 36L36 36L36 33ZM39 33L39 34L40 34L40 33ZM27 34L27 35L28 35L28 34ZM34 34L34 35L35 35L35 34ZM30 36L30 37L31 37L31 36ZM34 37L34 38L35 38L35 37ZM36 37L36 38L37 38L37 37ZM20 38L20 39L21 39L21 40L23 40L23 39L24 39L24 38L23 38L23 39L22 39L22 38ZM12 39L12 40L13 40L13 39ZM0 0L0 7L7 7L7 0ZM1 1L1 6L6 6L6 1ZM2 2L2 5L5 5L5 2ZM34 0L34 7L41 7L41 0ZM35 1L35 6L40 6L40 1ZM36 2L36 5L39 5L39 2ZM0 34L0 41L7 41L7 34ZM1 35L1 40L6 40L6 35ZM2 36L2 39L5 39L5 36Z" fill="#000000"/></g></g></svg>
