<?xml version="1.0" encoding="UTF-8"?>
<svg xmlns="http://www.w3.org/2000/svg" version="1.1" width="200" height="200" viewBox="0 0 200 200"><rect x="0" y="0" width="200" height="200" fill="#ffffff"/><g transform="scale(2.469)"><g transform="translate(0,0)"><path fill-rule="evenodd" d="M9 0L9 2L8 2L8 4L9 4L9 5L10 5L10 7L9 7L9 6L8 6L8 7L9 7L9 8L11 8L11 4L9 4L9 3L10 3L10 2L11 2L11 3L12 3L12 7L13 7L13 10L11 10L11 11L13 11L13 12L14 12L14 13L10 13L10 12L6 12L6 11L7 11L7 10L5 10L5 13L1 13L1 12L2 12L2 11L3 11L3 12L4 12L4 9L5 9L5 8L3 8L3 9L0 9L0 11L1 11L1 12L0 12L0 13L1 13L1 14L2 14L2 15L3 15L3 17L7 17L7 18L6 18L6 19L5 19L5 20L4 20L4 18L0 18L0 21L3 21L3 22L5 22L5 23L7 23L7 24L4 24L4 23L0 23L0 30L1 30L1 31L3 31L3 32L4 32L4 33L5 33L5 34L2 34L2 32L1 32L1 34L0 34L0 35L2 35L2 36L3 36L3 38L1 38L1 36L0 36L0 42L1 42L1 45L0 45L0 48L1 48L1 46L2 46L2 47L3 47L3 48L2 48L2 49L3 49L3 50L2 50L2 51L1 51L1 50L0 50L0 51L1 51L1 52L0 52L0 53L1 53L1 55L0 55L0 57L1 57L1 55L2 55L2 57L3 57L3 58L2 58L2 59L1 59L1 60L2 60L2 59L3 59L3 60L4 60L4 59L3 59L3 58L6 58L6 59L5 59L5 60L6 60L6 61L5 61L5 63L8 63L8 64L10 64L10 65L8 65L8 67L9 67L9 68L8 68L8 70L9 70L9 71L7 71L7 70L6 70L6 71L5 71L5 72L6 72L6 73L8 73L8 75L9 75L9 76L8 76L8 78L12 78L12 76L13 76L13 75L12 75L12 76L11 76L11 75L10 75L10 74L12 74L12 73L13 73L13 71L10 71L10 70L9 70L9 69L10 69L10 67L11 67L11 66L13 66L13 67L14 67L14 68L11 68L11 70L14 70L14 73L16 73L16 74L14 74L14 75L15 75L15 76L14 76L14 79L16 79L16 80L14 80L14 81L18 81L18 80L19 80L19 81L21 81L21 80L20 80L20 78L19 78L19 77L21 77L21 75L22 75L22 76L23 76L23 77L22 77L22 80L24 80L24 81L25 81L25 79L26 79L26 77L29 77L29 73L30 73L30 75L31 75L31 76L30 76L30 77L31 77L31 76L33 76L33 77L32 77L32 78L31 78L31 79L32 79L32 78L33 78L33 80L30 80L30 78L27 78L27 80L26 80L26 81L27 81L27 80L28 80L28 81L29 81L29 80L30 80L30 81L33 81L33 80L34 80L34 81L37 81L37 80L35 80L35 79L36 79L36 78L37 78L37 79L38 79L38 78L37 78L37 77L36 77L36 78L35 78L35 76L36 76L36 75L37 75L37 74L38 74L38 76L39 76L39 80L38 80L38 81L42 81L42 77L41 77L41 78L40 78L40 75L42 75L42 76L43 76L43 75L42 75L42 73L43 73L43 74L45 74L45 75L44 75L44 76L45 76L45 75L46 75L46 76L47 76L47 75L48 75L48 77L47 77L47 78L48 78L48 77L50 77L50 78L52 78L52 80L53 80L53 79L54 79L54 78L55 78L55 77L53 77L53 76L54 76L54 75L53 75L53 74L55 74L55 76L56 76L56 78L57 78L57 77L58 77L58 75L57 75L57 76L56 76L56 74L57 74L57 72L59 72L59 78L58 78L58 79L59 79L59 80L60 80L60 79L59 79L59 78L61 78L61 77L60 77L60 75L61 75L61 74L62 74L62 73L64 73L64 74L63 74L63 76L62 76L62 78L63 78L63 79L61 79L61 81L62 81L62 80L63 80L63 81L64 81L64 78L66 78L66 77L65 77L65 76L66 76L66 74L65 74L65 73L67 73L67 74L69 74L69 73L68 73L68 72L69 72L69 69L68 69L68 68L66 68L66 67L64 67L64 66L66 66L66 65L67 65L67 67L69 67L69 66L68 66L68 65L67 65L67 64L69 64L69 65L72 65L72 66L71 66L71 67L73 67L73 68L71 68L71 69L70 69L70 72L71 72L71 73L72 73L72 74L70 74L70 75L69 75L69 76L68 76L68 77L69 77L69 76L70 76L70 78L72 78L72 79L71 79L71 80L70 80L70 81L77 81L77 80L76 80L76 79L77 79L77 78L78 78L78 80L81 80L81 78L78 78L78 77L77 77L77 74L78 74L78 76L81 76L81 75L80 75L80 74L79 74L79 73L78 73L78 72L80 72L80 71L81 71L81 70L79 70L79 69L78 69L78 68L79 68L79 67L80 67L80 68L81 68L81 65L78 65L78 66L77 66L77 62L79 62L79 61L81 61L81 58L78 58L78 59L77 59L77 57L78 57L78 56L79 56L79 57L80 57L80 55L81 55L81 53L80 53L80 52L81 52L81 51L80 51L80 49L81 49L81 48L80 48L80 49L78 49L78 48L79 48L79 47L81 47L81 46L79 46L79 47L78 47L78 45L77 45L77 42L78 42L78 44L79 44L79 45L80 45L80 44L81 44L81 39L79 39L79 38L80 38L80 37L81 37L81 34L80 34L80 36L79 36L79 34L78 34L78 36L79 36L79 38L78 38L78 37L77 37L77 36L76 36L76 34L77 34L77 32L79 32L79 33L80 33L80 31L81 31L81 27L80 27L80 26L79 26L79 25L81 25L81 24L80 24L80 23L81 23L81 22L79 22L79 23L78 23L78 24L79 24L79 25L78 25L78 26L77 26L77 22L78 22L78 21L77 21L77 22L76 22L76 24L75 24L75 21L76 21L76 20L74 20L74 19L75 19L75 16L74 16L74 17L73 17L73 16L72 16L72 17L70 17L70 19L69 19L69 18L68 18L68 17L64 17L64 16L65 16L65 15L63 15L63 14L62 14L62 13L61 13L61 12L63 12L63 13L64 13L64 14L65 14L65 13L66 13L66 12L67 12L67 13L68 13L68 14L67 14L67 16L68 16L68 14L69 14L69 10L68 10L68 8L67 8L67 6L68 6L68 7L69 7L69 9L70 9L70 7L71 7L71 9L72 9L72 7L73 7L73 6L72 6L72 5L71 5L71 6L70 6L70 5L69 5L69 4L68 4L68 5L67 5L67 6L66 6L66 8L67 8L67 9L66 9L66 10L67 10L67 11L66 11L66 12L65 12L65 13L64 13L64 12L63 12L63 10L60 10L60 9L59 9L59 8L60 8L60 7L61 7L61 9L64 9L64 7L65 7L65 6L64 6L64 5L66 5L66 4L67 4L67 3L65 3L65 2L66 2L66 1L67 1L67 2L68 2L68 3L69 3L69 2L68 2L68 1L69 1L69 0L64 0L64 1L63 1L63 0L60 0L60 2L59 2L59 0L57 0L57 1L55 1L55 0L53 0L53 2L54 2L54 4L52 4L52 2L51 2L51 1L52 1L52 0L49 0L49 1L48 1L48 2L47 2L47 0L44 0L44 2L43 2L43 0L41 0L41 1L40 1L40 0L39 0L39 1L38 1L38 0L37 0L37 1L36 1L36 3L35 3L35 0L34 0L34 1L33 1L33 2L31 2L31 3L29 3L29 4L28 4L28 1L29 1L29 2L30 2L30 1L31 1L31 0L30 0L30 1L29 1L29 0L26 0L26 1L22 1L22 0L19 0L19 1L18 1L18 2L16 2L16 3L12 3L12 2L11 2L11 1L12 1L12 0ZM13 0L13 2L14 2L14 1L15 1L15 0ZM19 1L19 3L17 3L17 4L20 4L20 6L19 6L19 7L18 7L18 5L16 5L16 4L15 4L15 5L16 5L16 6L15 6L15 7L14 7L14 6L13 6L13 7L14 7L14 8L19 8L19 9L17 9L17 10L16 10L16 9L14 9L14 12L15 12L15 13L16 13L16 14L17 14L17 15L16 15L16 16L15 16L15 14L14 14L14 16L13 16L13 14L9 14L9 13L5 13L5 14L3 14L3 15L5 15L5 16L7 16L7 15L8 15L8 16L9 16L9 15L10 15L10 17L9 17L9 18L8 18L8 19L6 19L6 20L8 20L8 19L9 19L9 18L11 18L11 19L12 19L12 20L9 20L9 21L8 21L8 23L9 23L9 24L10 24L10 29L5 29L5 30L4 30L4 27L3 27L3 26L1 26L1 28L2 28L2 27L3 27L3 31L4 31L4 32L5 32L5 33L6 33L6 34L5 34L5 35L3 35L3 36L5 36L5 37L4 37L4 38L3 38L3 39L4 39L4 38L5 38L5 39L6 39L6 40L4 40L4 41L3 41L3 40L2 40L2 39L1 39L1 40L2 40L2 41L3 41L3 42L2 42L2 44L3 44L3 45L4 45L4 44L3 44L3 43L4 43L4 41L5 41L5 43L6 43L6 44L7 44L7 45L6 45L6 46L7 46L7 47L6 47L6 48L9 48L9 47L8 47L8 46L7 46L7 45L9 45L9 46L10 46L10 47L12 47L12 46L14 46L14 47L13 47L13 48L12 48L12 49L13 49L13 50L16 50L16 52L17 52L17 54L16 54L16 53L15 53L15 51L13 51L13 52L11 52L11 53L10 53L10 52L9 52L9 53L4 53L4 50L3 50L3 51L2 51L2 52L1 52L1 53L2 53L2 55L3 55L3 57L4 57L4 56L5 56L5 57L6 57L6 58L7 58L7 59L6 59L6 60L7 60L7 59L8 59L8 61L9 61L9 63L10 63L10 64L11 64L11 65L13 65L13 66L14 66L14 67L15 67L15 68L14 68L14 69L16 69L16 67L17 67L17 68L18 68L18 67L17 67L17 66L18 66L18 65L17 65L17 62L16 62L16 61L17 61L17 59L16 59L16 61L15 61L15 63L16 63L16 64L11 64L11 63L13 63L13 62L14 62L14 60L15 60L15 58L14 58L14 57L15 57L15 55L17 55L17 56L18 56L18 57L16 57L16 58L19 58L19 57L20 57L20 58L22 58L22 56L21 56L21 55L23 55L23 54L22 54L22 53L21 53L21 52L20 52L20 51L19 51L19 52L17 52L17 51L18 51L18 47L19 47L19 48L20 48L20 47L24 47L24 48L25 48L25 47L26 47L26 48L28 48L28 47L30 47L30 48L29 48L29 49L30 49L30 48L31 48L31 50L32 50L32 48L31 48L31 47L33 47L33 48L34 48L34 46L36 46L36 47L37 47L37 46L39 46L39 43L38 43L38 41L39 41L39 42L40 42L40 43L41 43L41 42L42 42L42 45L41 45L41 44L40 44L40 50L38 50L38 49L39 49L39 48L38 48L38 49L37 49L37 48L35 48L35 50L34 50L34 49L33 49L33 51L32 51L32 53L33 53L33 55L32 55L32 54L31 54L31 51L30 51L30 50L29 50L29 51L30 51L30 53L27 53L27 54L26 54L26 53L24 53L24 54L26 54L26 55L25 55L25 56L23 56L23 57L25 57L25 58L27 58L27 54L28 54L28 55L30 55L30 57L31 57L31 58L29 58L29 56L28 56L28 59L27 59L27 60L26 60L26 59L24 59L24 61L26 61L26 62L25 62L25 63L26 63L26 65L27 65L27 66L26 66L26 67L23 67L23 66L24 66L24 63L23 63L23 64L22 64L22 61L23 61L23 60L22 60L22 59L21 59L21 61L20 61L20 62L19 62L19 65L21 65L21 64L22 64L22 65L23 65L23 66L22 66L22 67L23 67L23 68L22 68L22 69L21 69L21 66L20 66L20 67L19 67L19 68L20 68L20 70L19 70L19 71L18 71L18 70L16 70L16 71L15 71L15 72L16 72L16 73L18 73L18 72L19 72L19 73L20 73L20 75L19 75L19 74L17 74L17 75L16 75L16 76L15 76L15 78L16 78L16 79L17 79L17 80L18 80L18 79L19 79L19 78L18 78L18 77L19 77L19 76L20 76L20 75L21 75L21 74L22 74L22 75L23 75L23 72L24 72L24 70L23 70L23 71L22 71L22 73L21 73L21 72L20 72L20 70L22 70L22 69L25 69L25 72L28 72L28 71L29 71L29 72L30 72L30 71L31 71L31 72L33 72L33 71L34 71L34 73L31 73L31 74L32 74L32 75L33 75L33 76L34 76L34 75L35 75L35 72L36 72L36 73L38 73L38 74L39 74L39 75L40 75L40 74L41 74L41 73L42 73L42 72L41 72L41 71L42 71L42 70L44 70L44 69L45 69L45 68L46 68L46 66L47 66L47 67L48 67L48 65L47 65L47 64L48 64L48 63L49 63L49 62L47 62L47 60L48 60L48 61L49 61L49 60L50 60L50 59L46 59L46 58L45 58L45 56L43 56L43 55L42 55L42 54L43 54L43 53L42 53L42 54L40 54L40 51L42 51L42 50L45 50L45 48L43 48L43 49L42 49L42 48L41 48L41 47L44 47L44 46L45 46L45 47L47 47L47 46L48 46L48 48L50 48L50 47L49 47L49 46L50 46L50 45L51 45L51 44L52 44L52 43L53 43L53 46L51 46L51 47L54 47L54 48L55 48L55 47L56 47L56 48L58 48L58 45L61 45L61 46L60 46L60 47L59 47L59 48L60 48L60 47L61 47L61 48L62 48L62 50L61 50L61 51L60 51L60 49L59 49L59 50L58 50L58 49L53 49L53 52L55 52L55 53L53 53L53 55L55 55L55 56L56 56L56 57L55 57L55 59L54 59L54 56L52 56L52 53L51 53L51 55L50 55L50 53L49 53L49 55L50 55L50 57L49 57L49 56L48 56L48 53L47 53L47 55L46 55L46 51L43 51L43 52L44 52L44 55L46 55L46 57L47 57L47 56L48 56L48 58L50 58L50 57L51 57L51 61L50 61L50 62L52 62L52 63L51 63L51 64L49 64L49 66L51 66L51 64L53 64L53 65L54 65L54 67L52 67L52 68L54 68L54 70L52 70L52 71L51 71L51 70L50 70L50 69L51 69L51 68L48 68L48 69L47 69L47 70L48 70L48 69L49 69L49 70L50 70L50 71L47 71L47 72L45 72L45 74L46 74L46 75L47 75L47 74L48 74L48 73L47 73L47 72L50 72L50 71L51 71L51 72L52 72L52 71L54 71L54 70L55 70L55 71L56 71L56 72L57 72L57 71L58 71L58 69L57 69L57 70L56 70L56 69L55 69L55 66L56 66L56 67L57 67L57 68L59 68L59 69L60 69L60 68L59 68L59 65L57 65L57 66L56 66L56 64L55 64L55 63L56 63L56 62L55 62L55 61L54 61L54 64L53 64L53 62L52 62L52 57L53 57L53 60L55 60L55 59L56 59L56 61L57 61L57 62L58 62L58 63L57 63L57 64L58 64L58 63L60 63L60 65L61 65L61 66L60 66L60 67L63 67L63 65L61 65L61 64L62 64L62 63L61 63L61 62L62 62L62 61L63 61L63 62L64 62L64 63L65 63L65 64L64 64L64 65L66 65L66 64L67 64L67 62L68 62L68 63L69 63L69 64L71 64L71 63L72 63L72 62L71 62L71 61L70 61L70 60L71 60L71 58L70 58L70 56L71 56L71 57L72 57L72 59L73 59L73 60L72 60L72 61L73 61L73 62L74 62L74 63L73 63L73 66L74 66L74 69L73 69L73 70L72 70L72 72L76 72L76 70L75 70L75 68L76 68L76 69L77 69L77 68L76 68L76 66L74 66L74 63L75 63L75 61L73 61L73 60L74 60L74 58L75 58L75 56L74 56L74 57L72 57L72 55L70 55L70 53L69 53L69 51L70 51L70 52L72 52L72 50L71 50L71 51L70 51L70 49L72 49L72 47L73 47L73 46L74 46L74 48L77 48L77 46L76 46L76 44L75 44L75 46L74 46L74 45L73 45L73 46L72 46L72 47L71 47L71 48L70 48L70 49L69 49L69 50L68 50L68 52L66 52L66 51L67 51L67 48L66 48L66 49L65 49L65 47L68 47L68 48L69 48L69 47L70 47L70 44L71 44L71 45L72 45L72 44L71 44L71 39L75 39L75 40L74 40L74 41L75 41L75 42L77 42L77 39L75 39L75 38L77 38L77 37L75 37L75 35L74 35L74 36L73 36L73 37L74 37L74 38L70 38L70 37L72 37L72 35L73 35L73 34L72 34L72 33L73 33L73 32L71 32L71 33L69 33L69 34L68 34L68 33L67 33L67 32L70 32L70 31L71 31L71 30L72 30L72 31L73 31L73 30L74 30L74 29L73 29L73 30L72 30L72 29L71 29L71 28L69 28L69 27L72 27L72 24L70 24L70 25L69 25L69 23L72 23L72 21L71 21L71 20L72 20L72 18L71 18L71 19L70 19L70 21L69 21L69 22L68 22L68 21L67 21L67 22L66 22L66 21L65 21L65 20L64 20L64 21L63 21L63 20L61 20L61 19L63 19L63 18L62 18L62 16L61 16L61 15L62 15L62 14L61 14L61 15L60 15L60 16L61 16L61 17L60 17L60 20L58 20L58 18L59 18L59 16L58 16L58 15L59 15L59 14L60 14L60 13L59 13L59 14L58 14L58 13L57 13L57 12L58 12L58 10L59 10L59 9L55 9L55 8L56 8L56 6L57 6L57 8L59 8L59 7L60 7L60 3L58 3L58 2L57 2L57 3L58 3L58 5L59 5L59 7L58 7L58 6L57 6L57 4L56 4L56 6L55 6L55 5L54 5L54 6L53 6L53 11L52 11L52 10L51 10L51 9L50 9L50 10L51 10L51 12L52 12L52 13L50 13L50 12L49 12L49 13L47 13L47 18L46 18L46 16L45 16L45 18L44 18L44 16L43 16L43 15L45 15L45 12L46 12L46 11L43 11L43 9L44 9L44 10L47 10L47 11L48 11L48 10L47 10L47 9L48 9L48 6L47 6L47 4L46 4L46 3L45 3L45 2L44 2L44 3L45 3L45 4L44 4L44 6L43 6L43 4L42 4L42 5L40 5L40 6L39 6L39 5L37 5L37 3L39 3L39 2L37 2L37 3L36 3L36 5L35 5L35 7L34 7L34 5L31 5L31 7L30 7L30 5L29 5L29 9L25 9L25 11L21 11L21 9L20 9L20 6L21 6L21 8L22 8L22 6L23 6L23 7L24 7L24 6L23 6L23 5L24 5L24 4L27 4L27 3L21 3L21 4L20 4L20 2L22 2L22 1ZM26 1L26 2L27 2L27 1ZM41 1L41 3L40 3L40 4L41 4L41 3L43 3L43 2L42 2L42 1ZM49 1L49 2L50 2L50 3L51 3L51 2L50 2L50 1ZM54 1L54 2L55 2L55 1ZM61 1L61 5L62 5L62 6L61 6L61 7L62 7L62 8L63 8L63 7L64 7L64 6L63 6L63 4L65 4L65 3L63 3L63 2L62 2L62 1ZM64 1L64 2L65 2L65 1ZM70 1L70 4L71 4L71 2L72 2L72 4L73 4L73 1ZM31 3L31 4L32 4L32 3ZM33 3L33 4L35 4L35 3ZM48 3L48 4L49 4L49 3ZM21 4L21 5L22 5L22 4ZM45 4L45 6L44 6L44 7L43 7L43 6L42 6L42 7L41 7L41 6L40 6L40 7L39 7L39 6L38 6L38 7L39 7L39 8L38 8L38 9L39 9L39 8L40 8L40 9L43 9L43 8L44 8L44 9L46 9L46 8L45 8L45 6L46 6L46 7L47 7L47 6L46 6L46 4ZM25 5L25 8L28 8L28 5ZM49 5L49 8L52 8L52 5ZM68 5L68 6L69 6L69 7L70 7L70 6L69 6L69 5ZM16 6L16 7L17 7L17 6ZM26 6L26 7L27 7L27 6ZM32 6L32 7L31 7L31 10L30 10L30 9L29 9L29 10L30 10L30 11L33 11L33 12L35 12L35 13L32 13L32 15L30 15L30 16L29 16L29 14L31 14L31 13L30 13L30 12L29 12L29 11L28 11L28 12L25 12L25 13L24 13L24 14L23 14L23 12L21 12L21 11L20 11L20 9L19 9L19 10L17 10L17 11L20 11L20 12L18 12L18 13L17 13L17 12L16 12L16 13L17 13L17 14L18 14L18 13L19 13L19 15L18 15L18 18L19 18L19 20L18 20L18 21L19 21L19 20L20 20L20 21L22 21L22 22L20 22L20 24L21 24L21 26L20 26L20 27L21 27L21 28L19 28L19 29L21 29L21 30L22 30L22 31L21 31L21 32L20 32L20 30L18 30L18 31L19 31L19 34L18 34L18 32L17 32L17 33L16 33L16 31L17 31L17 29L14 29L14 30L13 30L13 29L12 29L12 30L11 30L11 29L10 29L10 31L8 31L8 30L5 30L5 31L8 31L8 32L10 32L10 34L8 34L8 33L7 33L7 32L6 32L6 33L7 33L7 34L6 34L6 35L5 35L5 36L6 36L6 37L5 37L5 38L6 38L6 39L7 39L7 40L6 40L6 41L7 41L7 40L8 40L8 39L7 39L7 38L8 38L8 37L10 37L10 41L9 41L9 42L6 42L6 43L7 43L7 44L11 44L11 45L10 45L10 46L11 46L11 45L12 45L12 44L11 44L11 43L9 43L9 42L11 42L11 37L12 37L12 36L11 36L11 35L13 35L13 32L10 32L10 31L12 31L12 30L13 30L13 31L14 31L14 33L16 33L16 36L15 36L15 34L14 34L14 37L16 37L16 36L17 36L17 38L18 38L18 39L16 39L16 38L14 38L14 39L16 39L16 40L13 40L13 38L12 38L12 40L13 40L13 41L12 41L12 42L13 42L13 41L14 41L14 43L13 43L13 44L16 44L16 43L17 43L17 44L18 44L18 42L16 42L16 41L17 41L17 40L18 40L18 41L19 41L19 42L20 42L20 43L19 43L19 45L17 45L17 46L16 46L16 45L15 45L15 47L18 47L18 46L19 46L19 47L20 47L20 46L22 46L22 45L23 45L23 44L22 44L22 45L20 45L20 43L22 43L22 42L23 42L23 43L24 43L24 44L25 44L25 43L24 43L24 42L25 42L25 41L26 41L26 43L27 43L27 42L28 42L28 43L29 43L29 42L30 42L30 41L32 41L32 40L33 40L33 42L32 42L32 43L34 43L34 45L35 45L35 44L36 44L36 45L38 45L38 43L37 43L37 41L36 41L36 40L43 40L43 45L44 45L44 44L45 44L45 43L46 43L46 44L48 44L48 43L49 43L49 44L51 44L51 42L54 42L54 41L55 41L55 42L56 42L56 43L57 43L57 39L56 39L56 38L57 38L57 37L56 37L56 36L57 36L57 34L55 34L55 33L56 33L56 32L54 32L54 31L53 31L53 30L54 30L54 29L53 29L53 28L56 28L56 27L57 27L57 28L58 28L58 29L57 29L57 30L55 30L55 31L58 31L58 30L59 30L59 32L61 32L61 31L60 31L60 30L59 30L59 29L61 29L61 28L62 28L62 32L63 32L63 33L64 33L64 32L65 32L65 30L66 30L66 32L67 32L67 31L69 31L69 28L68 28L68 27L67 27L67 26L69 26L69 25L68 25L68 23L63 23L63 26L62 26L62 24L61 24L61 23L62 23L62 22L61 22L61 21L59 21L59 22L58 22L58 23L57 23L57 21L58 21L58 20L57 20L57 19L56 19L56 20L54 20L54 21L55 21L55 22L54 22L54 23L52 23L52 22L51 22L51 23L50 23L50 21L49 21L49 20L48 20L48 19L50 19L50 20L51 20L51 19L53 19L53 18L54 18L54 17L55 17L55 18L56 18L56 17L58 17L58 16L57 16L57 14L56 14L56 12L57 12L57 11L55 11L55 12L54 12L54 11L53 11L53 12L54 12L54 14L50 14L50 13L49 13L49 14L48 14L48 16L49 16L49 18L47 18L47 19L46 19L46 18L45 18L45 19L46 19L46 20L45 20L45 21L44 21L44 22L43 22L43 23L44 23L44 22L45 22L45 24L44 24L44 25L43 25L43 24L42 24L42 25L41 25L41 23L42 23L42 19L43 19L43 20L44 20L44 19L43 19L43 16L42 16L42 19L41 19L41 18L40 18L40 17L39 17L39 16L38 16L38 15L40 15L40 16L41 16L41 15L42 15L42 12L43 12L43 11L42 11L42 10L40 10L40 11L38 11L38 10L37 10L37 6L36 6L36 7L35 7L35 9L34 9L34 7L33 7L33 6ZM50 6L50 7L51 7L51 6ZM54 6L54 7L55 7L55 6ZM62 6L62 7L63 7L63 6ZM71 6L71 7L72 7L72 6ZM42 7L42 8L43 8L43 7ZM6 8L6 9L8 9L8 10L9 10L9 11L10 11L10 10L9 10L9 9L8 9L8 8ZM23 8L23 9L22 9L22 10L24 10L24 8ZM77 8L77 9L76 9L76 12L75 12L75 9L73 9L73 10L74 10L74 11L73 11L73 12L72 12L72 10L71 10L71 12L70 12L70 13L71 13L71 12L72 12L72 15L74 15L74 13L76 13L76 12L77 12L77 13L78 13L78 12L79 12L79 13L81 13L81 12L80 12L80 11L81 11L81 10L80 10L80 9L79 9L79 8ZM32 9L32 10L34 10L34 11L35 11L35 10L36 10L36 9L35 9L35 10L34 10L34 9ZM77 9L77 10L78 10L78 11L77 11L77 12L78 12L78 11L80 11L80 10L78 10L78 9ZM1 10L1 11L2 11L2 10ZM26 10L26 11L27 11L27 10ZM64 10L64 11L65 11L65 10ZM36 11L36 13L35 13L35 15L34 15L34 14L33 14L33 15L32 15L32 16L31 16L31 17L32 17L32 18L33 18L33 19L32 19L32 20L31 20L31 21L30 21L30 17L29 17L29 16L28 16L28 14L29 14L29 13L28 13L28 14L27 14L27 15L26 15L26 13L25 13L25 14L24 14L24 15L23 15L23 14L22 14L22 15L23 15L23 16L21 16L21 15L20 15L20 16L19 16L19 17L23 17L23 18L25 18L25 17L26 17L26 18L28 18L28 19L22 19L22 21L25 21L25 23L24 23L24 22L22 22L22 23L21 23L21 24L22 24L22 25L23 25L23 28L21 28L21 29L23 29L23 30L25 30L25 31L26 31L26 32L27 32L27 33L28 33L28 34L26 34L26 33L23 33L23 34L24 34L24 35L27 35L27 36L26 36L26 39L25 39L25 38L22 38L22 35L21 35L21 34L22 34L22 33L21 33L21 34L20 34L20 36L21 36L21 37L18 37L18 38L19 38L19 39L18 39L18 40L20 40L20 41L22 41L22 39L24 39L24 40L23 40L23 41L24 41L24 40L26 40L26 41L27 41L27 40L28 40L28 42L29 42L29 41L30 41L30 40L31 40L31 39L32 39L32 34L33 34L33 37L34 37L34 39L33 39L33 40L34 40L34 41L35 41L35 37L36 37L36 39L40 39L40 38L42 38L42 37L43 37L43 36L44 36L44 37L45 37L45 38L44 38L44 39L43 39L43 40L44 40L44 41L45 41L45 42L44 42L44 43L45 43L45 42L50 42L50 41L48 41L48 40L46 40L46 37L48 37L48 38L49 38L49 37L48 37L48 36L49 36L49 35L50 35L50 36L51 36L51 35L52 35L52 37L51 37L51 40L52 40L52 39L53 39L53 41L54 41L54 40L55 40L55 41L56 41L56 40L55 40L55 39L53 39L53 38L54 38L54 37L53 37L53 35L54 35L54 33L50 33L50 34L49 34L49 33L48 33L48 32L49 32L49 30L50 30L50 29L48 29L48 28L47 28L47 27L46 27L46 28L47 28L47 29L48 29L48 31L46 31L46 30L44 30L44 31L43 31L43 33L42 33L42 36L40 36L40 38L39 38L39 37L36 37L36 35L35 35L35 34L36 34L36 32L35 32L35 31L36 31L36 30L35 30L35 31L34 31L34 30L33 30L33 29L34 29L34 28L37 28L37 30L38 30L38 28L39 28L39 26L40 26L40 30L43 30L43 29L45 29L45 28L44 28L44 27L45 27L45 26L48 26L48 24L49 24L49 21L48 21L48 22L46 22L46 21L45 21L45 22L46 22L46 23L48 23L48 24L45 24L45 25L44 25L44 26L43 26L43 27L42 27L42 26L41 26L41 25L40 25L40 23L38 23L38 20L39 20L39 21L40 21L40 22L41 22L41 21L40 21L40 20L41 20L41 19L40 19L40 18L39 18L39 17L38 17L38 18L39 18L39 19L38 19L38 20L37 20L37 18L36 18L36 17L37 17L37 15L38 15L38 14L40 14L40 12L42 12L42 11L40 11L40 12L38 12L38 11ZM59 11L59 12L60 12L60 11ZM20 12L20 13L21 13L21 12ZM36 13L36 15L37 15L37 14L38 14L38 13ZM6 14L6 15L7 15L7 14ZM49 14L49 16L50 16L50 18L52 18L52 17L54 17L54 16L53 16L53 15L52 15L52 17L51 17L51 15L50 15L50 14ZM75 14L75 15L76 15L76 17L77 17L77 15L76 15L76 14ZM78 14L78 16L79 16L79 14ZM80 14L80 17L78 17L78 18L77 18L77 20L79 20L79 21L80 21L80 20L81 20L81 14ZM0 15L0 16L1 16L1 15ZM24 15L24 16L26 16L26 17L28 17L28 16L26 16L26 15ZM69 15L69 16L71 16L71 15ZM12 16L12 17L11 17L11 18L12 18L12 19L13 19L13 20L14 20L14 21L13 21L13 22L14 22L14 21L15 21L15 22L16 22L16 23L14 23L14 25L13 25L13 24L12 24L12 23L11 23L11 22L10 22L10 23L11 23L11 25L13 25L13 26L12 26L12 27L13 27L13 28L14 28L14 27L13 27L13 26L14 26L14 25L15 25L15 28L18 28L18 27L19 27L19 26L18 26L18 27L16 27L16 25L18 25L18 23L17 23L17 22L16 22L16 21L17 21L17 16L16 16L16 20L15 20L15 18L13 18L13 16ZM32 16L32 17L33 17L33 18L35 18L35 17L34 17L34 16ZM55 16L55 17L56 17L56 16ZM20 18L20 19L21 19L21 18ZM64 18L64 19L66 19L66 18ZM67 18L67 20L69 20L69 19L68 19L68 18ZM1 19L1 20L3 20L3 19ZM28 19L28 20L25 20L25 21L26 21L26 22L27 22L27 21L28 21L28 24L27 24L27 23L25 23L25 24L24 24L24 23L22 23L22 24L23 24L23 25L24 25L24 29L26 29L26 30L28 30L28 29L29 29L29 31L31 31L31 32L32 32L32 33L31 33L31 34L32 34L32 33L33 33L33 31L32 31L32 29L31 29L31 30L30 30L30 29L29 29L29 28L30 28L30 27L32 27L32 26L30 26L30 24L29 24L29 22L30 22L30 23L32 23L32 24L33 24L33 26L34 26L34 27L33 27L33 28L34 28L34 27L35 27L35 26L36 26L36 27L38 27L38 26L39 26L39 24L38 24L38 23L37 23L37 21L36 21L36 19L33 19L33 21L32 21L32 22L30 22L30 21L29 21L29 19ZM39 19L39 20L40 20L40 19ZM79 19L79 20L80 20L80 19ZM34 20L34 21L35 21L35 22L34 22L34 23L33 23L33 24L34 24L34 25L35 25L35 24L34 24L34 23L35 23L35 22L36 22L36 21L35 21L35 20ZM56 20L56 21L57 21L57 20ZM5 21L5 22L7 22L7 21ZM70 21L70 22L71 22L71 21ZM55 22L55 23L56 23L56 22ZM59 22L59 24L58 24L58 25L56 25L56 26L57 26L57 27L58 27L58 28L59 28L59 27L62 27L62 26L61 26L61 25L60 25L60 26L59 26L59 27L58 27L58 25L59 25L59 24L60 24L60 23L61 23L61 22ZM16 23L16 24L15 24L15 25L16 25L16 24L17 24L17 23ZM36 23L36 24L37 24L37 25L38 25L38 24L37 24L37 23ZM51 23L51 24L52 24L52 23ZM73 23L73 24L74 24L74 23ZM2 24L2 25L3 25L3 24ZM53 24L53 26L54 26L54 27L55 27L55 26L54 26L54 24ZM65 24L65 25L64 25L64 26L66 26L66 24ZM5 25L5 28L8 28L8 25ZM25 25L25 28L28 28L28 25ZM49 25L49 28L52 28L52 25ZM73 25L73 28L76 28L76 25ZM6 26L6 27L7 27L7 26ZM21 26L21 27L22 27L22 26ZM26 26L26 27L27 27L27 26ZM50 26L50 27L51 27L51 26ZM74 26L74 27L75 27L75 26ZM78 26L78 27L79 27L79 28L78 28L78 29L80 29L80 27L79 27L79 26ZM41 27L41 28L42 28L42 29L43 29L43 28L42 28L42 27ZM64 27L64 29L63 29L63 31L64 31L64 29L65 29L65 28L67 28L67 30L68 30L68 28L67 28L67 27ZM51 29L51 30L52 30L52 29ZM75 29L75 30L77 30L77 29ZM15 30L15 31L16 31L16 30ZM78 30L78 31L79 31L79 30ZM22 31L22 32L23 32L23 31ZM27 31L27 32L28 32L28 31ZM44 31L44 33L45 33L45 34L44 34L44 36L45 36L45 37L46 37L46 36L45 36L45 35L46 35L46 34L47 34L47 35L49 35L49 34L47 34L47 33L46 33L46 31ZM29 32L29 33L30 33L30 32ZM57 32L57 33L58 33L58 34L59 34L59 37L60 37L60 39L59 39L59 38L58 38L58 39L59 39L59 40L58 40L58 41L61 41L61 38L62 38L62 41L63 41L63 42L66 42L66 41L67 41L67 40L68 40L68 41L69 41L69 40L70 40L70 39L69 39L69 37L70 37L70 36L68 36L68 34L67 34L67 33L66 33L66 35L65 35L65 36L67 36L67 37L66 37L66 38L65 38L65 39L67 39L67 40L64 40L64 34L63 34L63 36L62 36L62 34L61 34L61 33L60 33L60 34L59 34L59 33L58 33L58 32ZM11 33L11 34L12 34L12 33ZM34 33L34 34L35 34L35 33ZM40 33L40 35L41 35L41 33ZM75 33L75 34L76 34L76 33ZM7 34L7 35L6 35L6 36L8 36L8 34ZM28 34L28 36L27 36L27 38L28 38L28 40L29 40L29 39L31 39L31 36L30 36L30 37L29 37L29 38L28 38L28 36L29 36L29 34ZM38 34L38 35L37 35L37 36L38 36L38 35L39 35L39 34ZM60 34L60 35L61 35L61 34ZM70 34L70 35L72 35L72 34ZM9 35L9 36L10 36L10 35ZM17 35L17 36L19 36L19 35ZM34 35L34 36L35 36L35 35ZM23 36L23 37L24 37L24 36ZM60 36L60 37L62 37L62 38L63 38L63 37L62 37L62 36ZM6 37L6 38L7 38L7 37ZM20 38L20 39L22 39L22 38ZM26 39L26 40L27 40L27 39ZM44 39L44 40L45 40L45 41L46 41L46 40L45 40L45 39ZM72 40L72 41L73 41L73 40ZM75 40L75 41L76 41L76 40ZM78 40L78 41L79 41L79 43L80 43L80 41L79 41L79 40ZM40 41L40 42L41 42L41 41ZM58 42L58 44L57 44L57 45L56 45L56 44L55 44L55 43L54 43L54 47L55 47L55 46L56 46L56 47L57 47L57 45L58 45L58 44L60 44L60 43L61 43L61 45L63 45L63 51L61 51L61 52L60 52L60 51L57 51L57 50L56 50L56 51L55 51L55 50L54 50L54 51L55 51L55 52L56 52L56 51L57 51L57 53L59 53L59 54L60 54L60 55L59 55L59 56L57 56L57 55L58 55L58 54L57 54L57 55L56 55L56 56L57 56L57 57L56 57L56 59L57 59L57 57L59 57L59 58L58 58L58 61L60 61L60 62L61 62L61 61L60 61L60 60L59 60L59 58L60 58L60 59L61 59L61 60L63 60L63 61L64 61L64 62L65 62L65 63L66 63L66 62L67 62L67 61L68 61L68 62L69 62L69 60L70 60L70 59L68 59L68 58L69 58L69 56L67 56L67 57L68 57L68 58L67 58L67 59L64 59L64 58L65 58L65 57L66 57L66 56L65 56L65 54L66 54L66 52L63 52L63 51L64 51L64 50L65 50L65 51L66 51L66 50L65 50L65 49L64 49L64 46L65 46L65 44L67 44L67 46L69 46L69 45L68 45L68 44L67 44L67 43L69 43L69 44L70 44L70 43L69 43L69 42L67 42L67 43L61 43L61 42ZM72 42L72 43L73 43L73 44L74 44L74 42ZM36 43L36 44L37 44L37 43ZM27 44L27 46L30 46L30 47L31 47L31 45L29 45L29 44ZM32 44L32 46L33 46L33 44ZM19 45L19 46L20 46L20 45ZM25 45L25 46L26 46L26 45ZM45 45L45 46L47 46L47 45ZM61 46L61 47L62 47L62 46ZM75 46L75 47L76 47L76 46ZM4 47L4 48L3 48L3 49L4 49L4 48L5 48L5 47ZM10 48L10 49L9 49L9 51L10 51L10 50L11 50L11 51L12 51L12 50L11 50L11 48ZM14 48L14 49L15 49L15 48ZM21 48L21 51L22 51L22 52L23 52L23 50L24 50L24 49L22 49L22 48ZM46 48L46 49L47 49L47 50L48 50L48 49L47 49L47 48ZM5 49L5 52L8 52L8 49ZM16 49L16 50L17 50L17 49ZM25 49L25 52L28 52L28 49ZM36 49L36 50L35 50L35 52L33 52L33 53L34 53L34 55L36 55L36 56L37 56L37 54L38 54L38 56L39 56L39 58L36 58L36 57L35 57L35 56L33 56L33 57L32 57L32 55L31 55L31 54L30 54L30 55L31 55L31 57L32 57L32 58L31 58L31 59L30 59L30 60L29 60L29 59L28 59L28 60L27 60L27 62L26 62L26 63L27 63L27 62L28 62L28 64L27 64L27 65L28 65L28 67L27 67L27 68L26 68L26 70L27 70L27 71L28 71L28 70L29 70L29 71L30 71L30 68L31 68L31 70L32 70L32 71L33 71L33 69L34 69L34 70L35 70L35 69L37 69L37 70L39 70L39 71L36 71L36 72L40 72L40 73L39 73L39 74L40 74L40 73L41 73L41 72L40 72L40 68L41 68L41 70L42 70L42 69L43 69L43 67L45 67L45 66L46 66L46 64L47 64L47 62L46 62L46 64L45 64L45 65L44 65L44 61L45 61L45 60L46 60L46 59L45 59L45 60L44 60L44 59L43 59L43 60L42 60L42 59L40 59L40 56L39 56L39 53L38 53L38 52L39 52L39 51L38 51L38 50L37 50L37 49ZM41 49L41 50L42 50L42 49ZM49 49L49 52L52 52L52 49ZM73 49L73 52L76 52L76 49ZM77 49L77 53L78 53L78 55L76 55L76 54L74 54L74 53L72 53L72 54L73 54L73 55L76 55L76 57L77 57L77 56L78 56L78 55L80 55L80 54L79 54L79 52L80 52L80 51L79 51L79 50L78 50L78 49ZM6 50L6 51L7 51L7 50ZM26 50L26 51L27 51L27 50ZM50 50L50 51L51 51L51 50ZM74 50L74 51L75 51L75 50ZM36 51L36 52L35 52L35 53L36 53L36 54L37 54L37 53L36 53L36 52L37 52L37 51ZM47 51L47 52L48 52L48 51ZM78 51L78 52L79 52L79 51ZM13 52L13 55L12 55L12 53L11 53L11 56L10 56L10 57L9 57L9 59L11 59L11 60L12 60L12 61L10 61L10 60L9 60L9 61L10 61L10 63L11 63L11 62L12 62L12 61L13 61L13 60L12 60L12 59L14 59L14 58L12 58L12 56L13 56L13 57L14 57L14 56L13 56L13 55L14 55L14 54L15 54L15 53L14 53L14 52ZM62 52L62 53L60 53L60 54L61 54L61 55L60 55L60 56L59 56L59 57L61 57L61 58L62 58L62 57L63 57L63 58L64 58L64 57L65 57L65 56L64 56L64 57L63 57L63 54L64 54L64 53L63 53L63 52ZM3 53L3 55L4 55L4 53ZM9 53L9 54L8 54L8 55L7 55L7 54L5 54L5 55L7 55L7 56L6 56L6 57L7 57L7 58L8 58L8 57L7 57L7 56L9 56L9 54L10 54L10 53ZM18 53L18 54L19 54L19 53ZM20 53L20 55L21 55L21 53ZM62 53L62 54L63 54L63 53ZM67 54L67 55L68 55L68 54ZM61 55L61 57L62 57L62 55ZM25 56L25 57L26 57L26 56ZM41 56L41 57L42 57L42 58L44 58L44 57L43 57L43 56ZM51 56L51 57L52 57L52 56ZM33 58L33 59L32 59L32 60L31 60L31 62L30 62L30 61L29 61L29 60L28 60L28 62L30 62L30 63L29 63L29 64L28 64L28 65L29 65L29 64L30 64L30 63L31 63L31 65L32 65L32 66L30 66L30 67L29 67L29 68L30 68L30 67L31 67L31 68L33 68L33 67L32 67L32 66L34 66L34 69L35 69L35 67L36 67L36 66L35 66L35 65L34 65L34 64L35 64L35 62L36 62L36 63L37 63L37 62L38 62L38 63L40 63L40 64L41 64L41 63L43 63L43 62L42 62L42 61L40 61L40 59L38 59L38 60L39 60L39 61L37 61L37 62L36 62L36 61L35 61L35 62L34 62L34 60L35 60L35 59L36 59L36 60L37 60L37 59L36 59L36 58L35 58L35 59L34 59L34 58ZM18 59L18 61L19 61L19 60L20 60L20 59ZM33 59L33 60L32 60L32 62L33 62L33 60L34 60L34 59ZM76 60L76 62L77 62L77 60ZM78 60L78 61L79 61L79 60ZM3 61L3 62L4 62L4 61ZM6 61L6 62L7 62L7 61ZM65 61L65 62L66 62L66 61ZM0 62L0 64L2 64L2 62ZM20 62L20 64L21 64L21 62ZM40 62L40 63L41 63L41 62ZM70 62L70 63L71 63L71 62ZM32 63L32 64L34 64L34 63ZM78 63L78 64L81 64L81 63ZM3 64L3 65L4 65L4 66L3 66L3 68L2 68L2 70L1 70L1 66L2 66L2 65L0 65L0 70L1 70L1 73L4 73L4 72L2 72L2 71L4 71L4 70L5 70L5 69L7 69L7 68L5 68L5 67L7 67L7 66L5 66L5 65L4 65L4 64ZM6 64L6 65L7 65L7 64ZM36 64L36 65L39 65L39 66L40 66L40 67L39 67L39 68L38 68L38 66L37 66L37 68L38 68L38 69L39 69L39 68L40 68L40 67L42 67L42 66L40 66L40 65L39 65L39 64ZM54 64L54 65L55 65L55 64ZM14 65L14 66L15 66L15 67L16 67L16 66L15 66L15 65ZM43 65L43 66L44 66L44 65ZM4 66L4 67L5 67L5 66ZM3 68L3 69L5 69L5 68ZM27 68L27 70L28 70L28 68ZM65 68L65 70L64 70L64 71L68 71L68 70L67 70L67 69L66 69L66 68ZM61 69L61 70L62 70L62 69ZM45 70L45 71L46 71L46 70ZM74 70L74 71L75 71L75 70ZM78 70L78 71L77 71L77 72L78 72L78 71L79 71L79 70ZM6 71L6 72L7 72L7 71ZM9 71L9 72L8 72L8 73L12 73L12 72L10 72L10 71ZM16 71L16 72L17 72L17 71ZM59 71L59 72L61 72L61 71ZM43 72L43 73L44 73L44 72ZM64 72L64 73L65 73L65 72ZM25 73L25 76L28 76L28 73ZM46 73L46 74L47 74L47 73ZM49 73L49 76L52 76L52 73ZM55 73L55 74L56 74L56 73ZM60 73L60 74L61 74L61 73ZM73 73L73 76L76 76L76 73ZM26 74L26 75L27 75L27 74ZM33 74L33 75L34 75L34 74ZM50 74L50 75L51 75L51 74ZM74 74L74 75L75 75L75 74ZM17 75L17 76L19 76L19 75ZM64 75L64 76L65 76L65 75ZM70 75L70 76L72 76L72 75ZM9 76L9 77L11 77L11 76ZM16 77L16 78L17 78L17 77ZM23 77L23 79L24 79L24 78L25 78L25 77ZM33 77L33 78L34 78L34 79L35 79L35 78L34 78L34 77ZM44 77L44 78L46 78L46 77ZM52 77L52 78L53 78L53 77ZM63 77L63 78L64 78L64 77ZM72 77L72 78L73 78L73 79L72 79L72 80L73 80L73 79L76 79L76 78L77 78L77 77L76 77L76 78L75 78L75 77ZM67 78L67 79L65 79L65 80L67 80L67 81L68 81L68 79L69 79L69 78ZM10 79L10 80L9 80L9 81L13 81L13 80L12 80L12 79ZM28 79L28 80L29 80L29 79ZM40 79L40 80L41 80L41 79ZM44 79L44 80L43 80L43 81L44 81L44 80L45 80L45 81L46 81L46 80L47 80L47 79ZM48 79L48 81L50 81L50 80L51 80L51 79ZM56 79L56 80L55 80L55 81L56 81L56 80L57 80L57 81L58 81L58 80L57 80L57 79ZM0 0L0 7L7 7L7 0ZM1 1L1 6L6 6L6 1ZM2 2L2 5L5 5L5 2ZM74 0L74 7L81 7L81 0ZM75 1L75 6L80 6L80 1ZM76 2L76 5L79 5L79 2ZM0 74L0 81L7 81L7 74ZM1 75L1 80L6 80L6 75ZM2 76L2 79L5 79L5 76Z" fill="#000000"/></g></g></svg>
