<?xml version="1.0" encoding="UTF-8"?>
<svg xmlns="http://www.w3.org/2000/svg" version="1.1" width="200" height="200" viewBox="0 0 200 200"><rect x="0" y="0" width="200" height="200" fill="#ffffff"/><g transform="scale(2.469)"><g transform="translate(0,0)"><path fill-rule="evenodd" d="M8 0L8 3L9 3L9 5L8 5L8 9L9 9L9 10L8 10L8 11L9 11L9 13L7 13L7 12L6 12L6 13L7 13L7 14L6 14L6 15L8 15L8 16L6 16L6 17L5 17L5 16L3 16L3 14L2 14L2 13L3 13L3 12L2 12L2 13L1 13L1 12L0 12L0 14L1 14L1 15L0 15L0 21L2 21L2 23L0 23L0 30L4 30L4 31L5 31L5 30L6 30L6 31L7 31L7 32L6 32L6 33L1 33L1 34L0 34L0 35L2 35L2 36L0 36L0 42L2 42L2 45L0 45L0 48L1 48L1 50L0 50L0 51L1 51L1 52L0 52L0 53L1 53L1 54L2 54L2 55L0 55L0 57L2 57L2 58L3 58L3 56L4 56L4 55L5 55L5 54L6 54L6 55L8 55L8 54L6 54L6 53L12 53L12 52L13 52L13 54L14 54L14 55L10 55L10 54L9 54L9 57L8 57L8 56L6 56L6 57L5 57L5 59L4 59L4 61L3 61L3 60L2 60L2 59L1 59L1 62L0 62L0 64L2 64L2 65L0 65L0 70L1 70L1 73L4 73L4 72L2 72L2 71L4 71L4 70L3 70L3 69L4 69L4 68L6 68L6 69L9 69L9 70L8 70L8 71L7 71L7 70L6 70L6 71L5 71L5 72L6 72L6 73L7 73L7 72L8 72L8 74L9 74L9 75L11 75L11 72L10 72L10 70L11 70L11 71L12 71L12 72L13 72L13 73L12 73L12 74L13 74L13 75L12 75L12 76L11 76L11 77L13 77L13 75L14 75L14 76L15 76L15 75L16 75L16 76L17 76L17 78L16 78L16 77L14 77L14 78L13 78L13 80L11 80L11 79L12 79L12 78L10 78L10 79L9 79L9 76L8 76L8 79L9 79L9 81L10 81L10 80L11 80L11 81L16 81L16 80L17 80L17 81L18 81L18 80L20 80L20 81L21 81L21 80L22 80L22 81L23 81L23 80L24 80L24 81L27 81L27 79L28 79L28 78L30 78L30 77L31 77L31 76L32 76L32 79L33 79L33 80L32 80L32 81L40 81L40 80L41 80L41 79L40 79L40 78L41 78L41 77L42 77L42 78L43 78L43 79L42 79L42 81L43 81L43 80L44 80L44 79L45 79L45 76L46 76L46 75L48 75L48 76L47 76L47 77L46 77L46 80L45 80L45 81L47 81L47 79L48 79L48 81L49 81L49 79L51 79L51 80L52 80L52 81L53 81L53 79L51 79L51 77L52 77L52 78L53 78L53 77L54 77L54 78L55 78L55 80L56 80L56 79L57 79L57 81L59 81L59 80L60 80L60 78L61 78L61 79L65 79L65 80L63 80L63 81L65 81L65 80L67 80L67 79L66 79L66 78L64 78L64 77L66 77L66 74L65 74L65 72L63 72L63 71L64 71L64 70L63 70L63 71L62 71L62 70L61 70L61 67L64 67L64 68L62 68L62 69L64 69L64 68L66 68L66 69L67 69L67 70L68 70L68 69L67 69L67 68L70 68L70 67L71 67L71 66L72 66L72 67L73 67L73 62L75 62L75 63L76 63L76 62L75 62L75 61L77 61L77 62L79 62L79 63L78 63L78 64L75 64L75 65L74 65L74 68L75 68L75 69L74 69L74 70L75 70L75 69L77 69L77 70L76 70L76 71L75 71L75 72L73 72L73 71L72 71L72 74L71 74L71 71L66 71L66 70L65 70L65 71L66 71L66 73L67 73L67 72L68 72L68 73L69 73L69 74L70 74L70 75L72 75L72 77L71 77L71 76L70 76L70 77L69 77L69 78L70 78L70 79L68 79L68 80L70 80L70 79L71 79L71 81L73 81L73 80L72 80L72 79L71 79L71 78L73 78L73 79L75 79L75 78L73 78L73 77L76 77L76 78L79 78L79 77L80 77L80 75L77 75L77 72L79 72L79 73L78 73L78 74L81 74L81 72L80 72L80 70L81 70L81 69L80 69L80 68L79 68L79 66L81 66L81 64L80 64L80 62L81 62L81 61L77 61L77 60L75 60L75 59L78 59L78 60L81 60L81 59L80 59L80 58L81 58L81 57L80 57L80 58L75 58L75 57L78 57L78 56L79 56L79 55L80 55L80 56L81 56L81 55L80 55L80 54L81 54L81 52L79 52L79 51L78 51L78 52L77 52L77 47L76 47L76 45L75 45L75 44L74 44L74 42L75 42L75 43L76 43L76 44L77 44L77 43L78 43L78 44L79 44L79 43L80 43L80 42L81 42L81 41L80 41L80 38L81 38L81 37L80 37L80 38L78 38L78 36L79 36L79 34L77 34L77 35L76 35L76 32L79 32L79 31L76 31L76 30L77 30L77 28L79 28L79 27L78 27L78 26L81 26L81 25L78 25L78 24L80 24L80 22L81 22L81 21L80 21L80 22L79 22L79 23L78 23L78 21L77 21L77 20L80 20L80 19L79 19L79 18L81 18L81 17L77 17L77 16L79 16L79 15L81 15L81 13L80 13L80 11L79 11L79 10L81 10L81 8L78 8L78 10L76 10L76 11L73 11L73 12L71 12L71 11L68 11L68 10L71 10L71 9L72 9L72 7L73 7L73 6L72 6L72 5L71 5L71 6L70 6L70 8L69 8L69 6L68 6L68 5L67 5L67 6L66 6L66 5L65 5L65 4L67 4L67 3L68 3L68 4L69 4L69 5L70 5L70 4L71 4L71 2L72 2L72 4L73 4L73 1L68 1L68 2L67 2L67 3L64 3L64 2L63 2L63 3L62 3L62 1L61 1L61 0L59 0L59 1L58 1L58 0L54 0L54 1L53 1L53 0L51 0L51 3L52 3L52 4L50 4L50 3L49 3L49 2L50 2L50 1L48 1L48 0L47 0L47 1L46 1L46 0L45 0L45 1L46 1L46 2L45 2L45 4L44 4L44 3L43 3L43 2L44 2L44 0L42 0L42 3L43 3L43 4L41 4L41 3L40 3L40 2L41 2L41 0L38 0L38 1L40 1L40 2L39 2L39 3L40 3L40 4L39 4L39 5L40 5L40 8L41 8L41 9L39 9L39 6L38 6L38 7L37 7L37 6L36 6L36 5L35 5L35 4L36 4L36 3L37 3L37 5L38 5L38 2L37 2L37 1L36 1L36 0L35 0L35 1L34 1L34 2L35 2L35 1L36 1L36 3L33 3L33 0L29 0L29 2L27 2L27 1L28 1L28 0L27 0L27 1L26 1L26 0L25 0L25 1L24 1L24 0L21 0L21 2L20 2L20 0L19 0L19 2L17 2L17 3L21 3L21 5L19 5L19 4L18 4L18 5L17 5L17 4L16 4L16 7L15 7L15 5L14 5L14 2L16 2L16 1L18 1L18 0L16 0L16 1L14 1L14 2L13 2L13 1L12 1L12 3L11 3L11 0ZM66 0L66 1L65 1L65 2L66 2L66 1L67 1L67 0ZM9 1L9 2L10 2L10 1ZM25 1L25 3L23 3L23 2L22 2L22 3L23 3L23 4L22 4L22 5L23 5L23 7L24 7L24 5L23 5L23 4L26 4L26 1ZM30 1L30 2L29 2L29 3L31 3L31 4L32 4L32 5L31 5L31 7L30 7L30 6L29 6L29 9L30 9L30 10L31 10L31 9L32 9L32 8L33 8L33 10L32 10L32 11L30 11L30 12L29 12L29 10L26 10L26 9L25 9L25 11L24 11L24 8L22 8L22 9L21 9L21 8L20 8L20 9L17 9L17 8L19 8L19 7L20 7L20 6L19 6L19 7L18 7L18 6L17 6L17 7L16 7L16 10L15 10L15 11L14 11L14 13L12 13L12 11L13 11L13 10L10 10L10 11L11 11L11 13L12 13L12 14L11 14L11 16L10 16L10 13L9 13L9 14L8 14L8 15L9 15L9 16L8 16L8 17L6 17L6 18L7 18L7 19L6 19L6 20L7 20L7 19L8 19L8 22L9 22L9 23L6 23L6 22L7 22L7 21L5 21L5 19L3 19L3 17L1 17L1 20L2 20L2 19L3 19L3 20L4 20L4 21L3 21L3 24L4 24L4 23L6 23L6 24L9 24L9 23L10 23L10 22L9 22L9 21L10 21L10 19L11 19L11 18L12 18L12 17L11 17L11 16L13 16L13 19L12 19L12 20L11 20L11 22L12 22L12 23L11 23L11 25L9 25L9 26L11 26L11 28L10 28L10 27L9 27L9 28L10 28L10 30L9 30L9 31L8 31L8 32L9 32L9 33L8 33L8 35L5 35L5 36L4 36L4 37L3 37L3 39L2 39L2 38L1 38L1 40L4 40L4 42L3 42L3 45L2 45L2 46L1 46L1 48L2 48L2 49L3 49L3 51L4 51L4 47L3 47L3 46L5 46L5 48L11 48L11 49L10 49L10 50L9 50L9 52L10 52L10 51L12 51L12 50L11 50L11 49L13 49L13 48L14 48L14 49L16 49L16 48L15 48L15 47L13 47L13 48L12 48L12 47L11 47L11 46L14 46L14 45L15 45L15 46L16 46L16 45L15 45L15 43L16 43L16 44L17 44L17 45L19 45L19 46L17 46L17 47L19 47L19 51L17 51L17 52L19 52L19 54L18 54L18 53L16 53L16 54L15 54L15 56L12 56L12 58L11 58L11 60L14 60L14 62L13 62L13 61L12 61L12 62L10 62L10 60L9 60L9 59L10 59L10 57L11 57L11 56L10 56L10 57L9 57L9 59L8 59L8 58L7 58L7 57L6 57L6 58L7 58L7 59L5 59L5 60L7 60L7 61L6 61L6 62L7 62L7 63L6 63L6 64L4 64L4 67L6 67L6 68L7 68L7 67L6 67L6 66L8 66L8 67L9 67L9 68L11 68L11 67L12 67L12 69L11 69L11 70L12 70L12 71L13 71L13 72L14 72L14 73L15 73L15 72L14 72L14 71L15 71L15 70L16 70L16 72L17 72L17 68L18 68L18 65L17 65L17 64L19 64L19 67L20 67L20 68L19 68L19 71L18 71L18 72L20 72L20 74L16 74L16 75L19 75L19 76L18 76L18 77L20 77L20 78L21 78L21 79L23 79L23 77L24 77L24 78L25 78L25 79L26 79L26 78L27 78L27 77L26 77L26 78L25 78L25 77L24 77L24 76L23 76L23 75L22 75L22 76L21 76L21 77L20 77L20 75L21 75L21 72L22 72L22 71L21 71L21 72L20 72L20 68L22 68L22 67L21 67L21 66L23 66L23 69L22 69L22 70L23 70L23 69L25 69L25 72L27 72L27 71L26 71L26 70L27 70L27 69L28 69L28 72L29 72L29 76L31 76L31 75L32 75L32 76L33 76L33 78L34 78L34 79L35 79L35 80L37 80L37 79L38 79L38 78L40 78L40 77L41 77L41 76L40 76L40 75L41 75L41 72L40 72L40 71L42 71L42 73L43 73L43 74L44 74L44 75L42 75L42 77L43 77L43 78L44 78L44 76L45 76L45 73L46 73L46 72L47 72L47 74L48 74L48 72L50 72L50 71L48 71L48 69L49 69L49 70L52 70L52 72L53 72L53 73L54 73L54 71L53 71L53 68L54 68L54 70L55 70L55 71L56 71L56 72L55 72L55 73L56 73L56 74L53 74L53 75L54 75L54 77L55 77L55 78L56 78L56 77L57 77L57 76L58 76L58 77L59 77L59 78L57 78L57 79L58 79L58 80L59 80L59 78L60 78L60 77L61 77L61 78L62 78L62 77L63 77L63 76L64 76L64 75L65 75L65 74L64 74L64 75L63 75L63 72L62 72L62 71L60 71L60 70L59 70L59 69L60 69L60 68L59 68L59 67L61 67L61 66L66 66L66 68L67 68L67 67L70 67L70 66L69 66L69 65L68 65L68 64L69 64L69 63L72 63L72 62L71 62L71 61L75 61L75 60L74 60L74 59L75 59L75 58L74 58L74 57L75 57L75 56L78 56L78 55L79 55L79 52L78 52L78 53L75 53L75 55L73 55L73 57L72 57L72 54L74 54L74 53L72 53L72 50L69 50L69 48L71 48L71 47L73 47L73 46L75 46L75 45L74 45L74 44L73 44L73 46L71 46L71 45L72 45L72 44L71 44L71 43L73 43L73 42L72 42L72 41L73 41L73 40L70 40L70 38L69 38L69 35L70 35L70 34L69 34L69 33L68 33L68 32L66 32L66 31L65 31L65 30L66 30L66 28L67 28L67 30L68 30L68 31L70 31L70 30L69 30L69 29L72 29L72 28L71 28L71 27L72 27L72 25L70 25L70 26L69 26L69 24L72 24L72 23L71 23L71 22L72 22L72 21L70 21L70 22L69 22L69 21L68 21L68 20L67 20L67 22L66 22L66 21L65 21L65 22L63 22L63 23L61 23L61 22L62 22L62 21L63 21L63 20L64 20L64 19L61 19L61 18L62 18L62 17L63 17L63 18L66 18L66 17L68 17L68 19L69 19L69 20L72 20L72 19L71 19L71 18L72 18L72 17L71 17L71 16L73 16L73 17L76 17L76 16L77 16L77 15L78 15L78 14L79 14L79 12L78 12L78 11L76 11L76 13L75 13L75 12L73 12L73 15L72 15L72 13L71 13L71 12L65 12L65 15L64 15L64 14L63 14L63 15L62 15L62 16L61 16L61 15L60 15L60 16L59 16L59 15L58 15L58 14L57 14L57 15L56 15L56 12L55 12L55 11L56 11L56 8L57 8L57 7L58 7L58 9L60 9L60 10L59 10L59 11L58 11L58 10L57 10L57 11L58 11L58 13L59 13L59 14L60 14L60 12L59 12L59 11L60 11L60 10L62 10L62 11L64 11L64 10L62 10L62 6L63 6L63 8L65 8L65 10L66 10L66 11L67 11L67 10L66 10L66 9L69 9L69 8L66 8L66 6L65 6L65 7L64 7L64 5L62 5L62 3L61 3L61 5L62 5L62 6L61 6L61 7L60 7L60 6L59 6L59 4L60 4L60 3L59 3L59 2L60 2L60 1L59 1L59 2L58 2L58 1L54 1L54 2L53 2L53 1L52 1L52 2L53 2L53 9L51 9L51 10L50 10L50 11L52 11L52 10L54 10L54 11L53 11L53 12L55 12L55 15L56 15L56 16L55 16L55 17L52 17L52 21L51 21L51 17L50 17L50 18L49 18L49 19L48 19L48 18L47 18L47 17L46 17L46 16L48 16L48 17L49 17L49 16L50 16L50 15L49 15L49 16L48 16L48 14L50 14L50 13L51 13L51 12L50 12L50 13L48 13L48 11L46 11L46 13L45 13L45 14L44 14L44 16L42 16L42 14L43 14L43 12L45 12L45 10L44 10L44 11L43 11L43 12L42 12L42 13L41 13L41 12L40 12L40 10L39 10L39 13L41 13L41 14L40 14L40 15L39 15L39 16L38 16L38 18L36 18L36 21L32 21L32 19L31 19L31 21L30 21L30 19L29 19L29 20L28 20L28 22L27 22L27 21L26 21L26 20L25 20L25 19L27 19L27 16L24 16L24 15L25 15L25 14L24 14L24 13L26 13L26 14L27 14L27 15L28 15L28 17L30 17L30 15L31 15L31 14L29 14L29 13L31 13L31 12L33 12L33 13L32 13L32 14L33 14L33 15L32 15L32 16L31 16L31 17L32 17L32 18L33 18L33 20L34 20L34 18L35 18L35 17L34 17L34 16L36 16L36 17L37 17L37 15L36 15L36 13L37 13L37 14L38 14L38 13L37 13L37 12L38 12L38 11L36 11L36 9L35 9L35 7L36 7L36 6L35 6L35 7L34 7L34 5L33 5L33 3L32 3L32 2L31 2L31 1ZM47 1L47 2L46 2L46 5L44 5L44 6L43 6L43 5L41 5L41 8L42 8L42 9L41 9L41 11L42 11L42 10L43 10L43 8L45 8L45 7L46 7L46 8L47 8L47 9L48 9L48 4L49 4L49 3L48 3L48 4L47 4L47 2L48 2L48 1ZM54 2L54 5L55 5L55 6L54 6L54 7L55 7L55 8L56 8L56 7L57 7L57 6L56 6L56 5L58 5L58 4L59 4L59 3L58 3L58 4L56 4L56 3L57 3L57 2L56 2L56 3L55 3L55 2ZM69 2L69 3L70 3L70 2ZM12 3L12 5L10 5L10 6L9 6L9 9L10 9L10 6L11 6L11 8L13 8L13 9L14 9L14 6L13 6L13 3ZM27 3L27 4L28 4L28 3ZM29 4L29 5L30 5L30 4ZM25 5L25 8L28 8L28 5ZM46 5L46 7L47 7L47 5ZM49 5L49 8L52 8L52 5ZM12 6L12 7L13 7L13 6ZM21 6L21 7L22 7L22 6ZM26 6L26 7L27 7L27 6ZM32 6L32 7L33 7L33 8L34 8L34 7L33 7L33 6ZM42 6L42 7L43 7L43 6ZM44 6L44 7L45 7L45 6ZM50 6L50 7L51 7L51 6ZM55 6L55 7L56 7L56 6ZM58 6L58 7L59 7L59 8L60 8L60 7L59 7L59 6ZM67 6L67 7L68 7L68 6ZM71 6L71 7L72 7L72 6ZM2 8L2 10L3 10L3 11L4 11L4 15L5 15L5 11L4 11L4 10L5 10L5 8ZM6 8L6 9L7 9L7 8ZM73 8L73 9L74 9L74 10L75 10L75 9L76 9L76 8ZM3 9L3 10L4 10L4 9ZM20 9L20 11L21 11L21 12L20 12L20 13L22 13L22 14L20 14L20 17L19 17L19 15L18 15L18 16L17 16L17 15L16 15L16 14L15 14L15 15L13 15L13 16L14 16L14 17L15 17L15 18L16 18L16 17L17 17L17 19L15 19L15 21L14 21L14 20L13 20L13 23L14 23L14 24L12 24L12 25L14 25L14 26L15 26L15 27L17 27L17 31L19 31L19 30L18 30L18 27L20 27L20 28L19 28L19 29L20 29L20 28L21 28L21 27L23 27L23 26L21 26L21 23L20 23L20 24L19 24L19 26L18 26L18 27L17 27L17 26L15 26L15 25L14 25L14 24L15 24L15 21L16 21L16 24L17 24L17 23L18 23L18 22L17 22L17 21L16 21L16 20L17 20L17 19L18 19L18 18L20 18L20 19L21 19L21 20L18 20L18 21L20 21L20 22L21 22L21 21L23 21L23 22L22 22L22 23L25 23L25 24L24 24L24 28L22 28L22 30L24 30L24 31L22 31L22 34L20 34L20 33L21 33L21 30L20 30L20 33L19 33L19 34L18 34L18 32L17 32L17 33L16 33L16 32L14 32L14 31L15 31L15 29L14 29L14 31L13 31L13 32L11 32L11 33L12 33L12 35L11 35L11 34L10 34L10 33L9 33L9 35L8 35L8 36L9 36L9 37L8 37L8 38L6 38L6 37L7 37L7 36L5 36L5 38L6 38L6 39L5 39L5 43L4 43L4 44L5 44L5 46L6 46L6 47L7 47L7 46L8 46L8 44L6 44L6 43L7 43L7 42L6 42L6 41L7 41L7 40L8 40L8 41L9 41L9 40L10 40L10 41L11 41L11 42L10 42L10 45L9 45L9 47L10 47L10 45L12 45L12 44L11 44L11 43L12 43L12 42L13 42L13 43L14 43L14 42L15 42L15 41L14 41L14 40L16 40L16 39L17 39L17 41L16 41L16 42L18 42L18 41L19 41L19 43L20 43L20 44L22 44L22 43L23 43L23 45L22 45L22 46L23 46L23 47L24 47L24 48L23 48L23 49L24 49L24 52L23 52L23 50L22 50L22 49L21 49L21 50L20 50L20 51L21 51L21 50L22 50L22 52L20 52L20 54L19 54L19 55L17 55L17 54L16 54L16 56L15 56L15 57L16 57L16 58L12 58L12 59L16 59L16 60L15 60L15 62L14 62L14 63L11 63L11 64L10 64L10 62L8 62L8 63L9 63L9 64L8 64L8 66L9 66L9 67L10 67L10 66L12 66L12 67L13 67L13 68L14 68L14 67L15 67L15 68L17 68L17 65L15 65L15 64L14 64L14 63L15 63L15 62L16 62L16 64L17 64L17 63L20 63L20 66L21 66L21 65L22 65L22 63L21 63L21 62L23 62L23 63L24 63L24 64L23 64L23 66L24 66L24 67L25 67L25 69L27 69L27 66L28 66L28 63L27 63L27 61L29 61L29 60L30 60L30 62L29 62L29 63L30 63L30 66L31 66L31 67L30 67L30 68L29 68L29 67L28 67L28 68L29 68L29 70L30 70L30 68L32 68L32 69L31 69L31 70L32 70L32 69L33 69L33 70L34 70L34 71L33 71L33 73L31 73L31 71L29 71L29 72L30 72L30 75L31 75L31 74L33 74L33 73L34 73L34 74L35 74L35 77L34 77L34 78L37 78L37 77L36 77L36 75L39 75L39 71L40 71L40 70L43 70L43 73L44 73L44 72L45 72L45 71L44 71L44 70L43 70L43 69L44 69L44 68L45 68L45 69L46 69L46 68L47 68L47 69L48 69L48 68L49 68L49 69L50 69L50 68L51 68L51 69L52 69L52 68L51 68L51 67L52 67L52 66L51 66L51 67L49 67L49 65L53 65L53 67L54 67L54 65L55 65L55 66L56 66L56 67L57 67L57 68L56 68L56 69L57 69L57 70L56 70L56 71L57 71L57 70L58 70L58 71L59 71L59 72L58 72L58 73L57 73L57 74L58 74L58 76L60 76L60 75L62 75L62 76L63 76L63 75L62 75L62 74L60 74L60 73L61 73L61 72L60 72L60 71L59 71L59 70L58 70L58 67L59 67L59 64L60 64L60 63L59 63L59 62L58 62L58 61L57 61L57 60L58 60L58 59L59 59L59 60L60 60L60 59L61 59L61 61L60 61L60 62L62 62L62 63L66 63L66 62L68 62L68 61L67 61L67 60L69 60L69 58L70 58L70 57L69 57L69 56L70 56L70 55L69 55L69 54L70 54L70 53L71 53L71 51L70 51L70 52L69 52L69 51L66 51L66 50L65 50L65 47L66 47L66 48L68 48L68 47L69 47L69 46L70 46L70 47L71 47L71 46L70 46L70 45L69 45L69 46L68 46L68 45L67 45L67 46L68 46L68 47L66 47L66 46L65 46L65 47L64 47L64 46L63 46L63 45L64 45L64 44L66 44L66 43L67 43L67 44L69 44L69 43L67 43L67 41L66 41L66 40L65 40L65 39L67 39L67 40L68 40L68 39L69 39L69 38L68 38L68 39L67 39L67 36L68 36L68 35L69 35L69 34L67 34L67 33L66 33L66 34L65 34L65 31L64 31L64 32L63 32L63 33L62 33L62 30L64 30L64 28L65 28L65 27L67 27L67 28L68 28L68 29L69 29L69 27L67 27L67 26L68 26L68 25L67 25L67 24L68 24L68 23L69 23L69 22L68 22L68 23L66 23L66 22L65 22L65 23L66 23L66 24L65 24L65 25L66 25L66 26L65 26L65 27L64 27L64 26L63 26L63 25L64 25L64 24L62 24L62 26L61 26L61 25L60 25L60 26L61 26L61 27L58 27L58 29L59 29L59 28L60 28L60 29L61 29L61 28L62 28L62 27L64 27L64 28L63 28L63 29L62 29L62 30L61 30L61 31L59 31L59 30L57 30L57 31L55 31L55 32L54 32L54 30L52 30L52 29L54 29L54 28L56 28L56 29L57 29L57 26L59 26L59 24L61 24L61 23L60 23L60 22L61 22L61 21L62 21L62 20L61 20L61 21L59 21L59 20L60 20L60 19L57 19L57 18L59 18L59 17L58 17L58 15L57 15L57 18L56 18L56 17L55 17L55 20L54 20L54 21L55 21L55 22L53 22L53 23L51 23L51 21L50 21L50 19L49 19L49 20L48 20L48 21L49 21L49 24L48 24L48 22L47 22L47 24L46 24L46 25L44 25L44 24L42 24L42 23L41 23L41 22L42 22L42 19L41 19L41 18L42 18L42 17L41 17L41 18L39 18L39 19L38 19L38 20L37 20L37 21L36 21L36 23L37 23L37 24L36 24L36 25L35 25L35 24L34 24L34 22L32 22L32 23L31 23L31 22L30 22L30 21L29 21L29 22L28 22L28 23L27 23L27 22L26 22L26 23L25 23L25 21L23 21L23 20L22 20L22 19L21 19L21 15L24 15L24 14L23 14L23 13L24 13L24 11L23 11L23 9L22 9L22 10L21 10L21 9ZM37 9L37 10L38 10L38 9ZM0 10L0 11L1 11L1 10ZM6 10L6 11L7 11L7 10ZM18 10L18 11L15 11L15 12L17 12L17 14L18 14L18 13L19 13L19 12L18 12L18 11L19 11L19 10ZM34 10L34 11L35 11L35 10ZM27 11L27 13L28 13L28 11ZM22 12L22 13L23 13L23 12ZM77 12L77 13L78 13L78 12ZM34 13L34 14L35 14L35 13ZM46 13L46 14L45 14L45 15L46 15L46 14L47 14L47 13ZM52 13L52 15L51 15L51 16L52 16L52 15L53 15L53 14L54 14L54 13ZM61 13L61 14L62 14L62 13ZM67 13L67 14L68 14L68 13ZM69 13L69 14L70 14L70 15L71 15L71 14L70 14L70 13ZM74 13L74 14L75 14L75 15L74 15L74 16L76 16L76 15L77 15L77 14L75 14L75 13ZM1 15L1 16L2 16L2 15ZM15 15L15 17L16 17L16 15ZM33 15L33 16L32 16L32 17L33 17L33 18L34 18L34 17L33 17L33 16L34 16L34 15ZM40 15L40 16L41 16L41 15ZM67 15L67 16L68 16L68 17L69 17L69 18L70 18L70 17L69 17L69 15ZM9 16L9 17L8 17L8 18L9 18L9 19L10 19L10 18L11 18L11 17L10 17L10 16ZM23 16L23 18L24 18L24 19L25 19L25 18L26 18L26 17L25 17L25 18L24 18L24 16ZM60 16L60 17L61 17L61 16ZM63 16L63 17L64 17L64 16ZM65 16L65 17L66 17L66 16ZM44 17L44 18L43 18L43 19L44 19L44 20L43 20L43 21L44 21L44 20L45 20L45 22L43 22L43 23L46 23L46 20L47 20L47 18L46 18L46 17ZM53 18L53 19L54 19L54 18ZM73 18L73 21L74 21L74 23L73 23L73 24L74 24L74 23L76 23L76 24L77 24L77 23L76 23L76 22L75 22L75 21L74 21L74 19L76 19L76 20L77 20L77 19L78 19L78 18L77 18L77 19L76 19L76 18ZM39 19L39 20L40 20L40 19ZM56 19L56 20L55 20L55 21L56 21L56 22L55 22L55 23L57 23L57 24L55 24L55 26L54 26L54 25L53 25L53 26L54 26L54 27L56 27L56 25L57 25L57 24L59 24L59 23L58 23L58 22L57 22L57 19ZM37 21L37 23L38 23L38 25L37 25L37 27L36 27L36 26L34 26L34 25L32 25L32 24L33 24L33 23L32 23L32 24L31 24L31 23L30 23L30 24L29 24L29 23L28 23L28 24L29 24L29 25L30 25L30 26L31 26L31 27L30 27L30 29L29 29L29 31L28 31L28 29L27 29L27 34L25 34L25 33L26 33L26 32L25 32L25 33L23 33L23 34L22 34L22 36L21 36L21 35L20 35L20 36L19 36L19 35L18 35L18 34L16 34L16 33L14 33L14 32L13 32L13 33L14 33L14 34L13 34L13 35L12 35L12 36L11 36L11 35L10 35L10 37L11 37L11 38L8 38L8 39L10 39L10 40L12 40L12 41L13 41L13 42L14 42L14 41L13 41L13 40L14 40L14 39L13 39L13 40L12 40L12 38L13 38L13 36L14 36L14 37L15 37L15 39L16 39L16 38L17 38L17 39L18 39L18 40L20 40L20 39L18 39L18 38L19 38L19 37L24 37L24 35L26 35L26 36L25 36L25 37L26 37L26 38L25 38L25 39L24 39L24 40L23 40L23 39L22 39L22 40L21 40L21 42L20 42L20 43L21 43L21 42L23 42L23 41L24 41L24 43L25 43L25 42L26 42L26 43L27 43L27 44L26 44L26 45L25 45L25 44L24 44L24 45L25 45L25 46L24 46L24 47L25 47L25 46L26 46L26 45L27 45L27 46L28 46L28 45L27 45L27 44L28 44L28 43L30 43L30 44L29 44L29 46L31 46L31 47L29 47L29 49L31 49L31 47L32 47L32 46L33 46L33 47L34 47L34 49L35 49L35 52L36 52L36 51L37 51L37 50L38 50L38 52L39 52L39 53L40 53L40 54L38 54L38 57L36 57L36 54L37 54L37 53L34 53L34 54L32 54L32 55L30 55L30 57L31 57L31 58L30 58L30 59L31 59L31 58L32 58L32 63L31 63L31 62L30 62L30 63L31 63L31 65L32 65L32 67L33 67L33 68L35 68L35 67L33 67L33 65L34 65L34 62L33 62L33 61L35 61L35 62L36 62L36 63L38 63L38 64L35 64L35 66L36 66L36 65L38 65L38 64L40 64L40 63L44 63L44 62L42 62L42 60L43 60L43 61L44 61L44 60L45 60L45 61L46 61L46 62L45 62L45 63L46 63L46 65L45 65L45 66L44 66L44 65L43 65L43 67L42 67L42 68L41 68L41 69L43 69L43 67L47 67L47 66L46 66L46 65L48 65L48 63L49 63L49 64L51 64L51 63L50 63L50 61L53 61L53 62L54 62L54 63L53 63L53 64L55 64L55 65L56 65L56 66L57 66L57 67L58 67L58 66L57 66L57 63L56 63L56 62L57 62L57 61L56 61L56 60L57 60L57 59L58 59L58 58L57 58L57 55L56 55L56 56L55 56L55 57L56 57L56 58L53 58L53 57L54 57L54 53L52 53L52 54L51 54L51 55L49 55L49 56L48 56L48 55L47 55L47 53L48 53L48 51L46 51L46 50L48 50L48 48L49 48L49 46L50 46L50 47L51 47L51 48L53 48L53 51L54 51L54 52L55 52L55 54L57 54L57 53L56 53L56 52L55 52L55 51L54 51L54 50L55 50L55 49L57 49L57 47L58 47L58 49L59 49L59 51L58 51L58 50L57 50L57 52L59 52L59 54L62 54L62 53L60 53L60 52L61 52L61 51L60 51L60 48L59 48L59 47L61 47L61 50L62 50L62 52L63 52L63 50L64 50L64 49L63 49L63 50L62 50L62 48L64 48L64 47L61 47L61 46L62 46L62 44L64 44L64 42L66 42L66 41L63 41L63 40L64 40L64 39L61 39L61 41L60 41L60 40L59 40L59 39L60 39L60 37L61 37L61 38L62 38L62 37L63 37L63 38L66 38L66 37L63 37L63 36L64 36L64 35L65 35L65 36L66 36L66 35L65 35L65 34L64 34L64 35L62 35L62 37L61 37L61 36L60 36L60 35L61 35L61 34L62 34L62 33L61 33L61 34L59 34L59 35L58 35L58 34L56 34L56 33L60 33L60 32L59 32L59 31L58 31L58 32L55 32L55 34L56 34L56 35L58 35L58 36L57 36L57 37L56 37L56 36L55 36L55 39L52 39L52 38L54 38L54 35L53 35L53 34L54 34L54 33L53 33L53 34L51 34L51 35L50 35L50 34L48 34L48 33L45 33L45 34L44 34L44 33L42 33L42 34L40 34L40 33L41 33L41 32L40 32L40 31L39 31L39 30L41 30L41 31L42 31L42 30L43 30L43 31L44 31L44 32L49 32L49 33L50 33L50 32L51 32L51 31L52 31L52 32L53 32L53 31L52 31L52 30L50 30L50 29L49 29L49 31L48 31L48 30L47 30L47 29L48 29L48 24L47 24L47 25L46 25L46 27L45 27L45 26L44 26L44 25L43 25L43 26L44 26L44 27L42 27L42 26L40 26L40 27L39 27L39 25L41 25L41 24L39 24L39 21ZM53 23L53 24L54 24L54 23ZM1 24L1 26L2 26L2 27L1 27L1 28L2 28L2 29L4 29L4 30L5 30L5 29L4 29L4 28L3 28L3 26L4 26L4 25L2 25L2 24ZM22 24L22 25L23 25L23 24ZM5 25L5 28L8 28L8 25ZM25 25L25 28L28 28L28 25ZM31 25L31 26L32 26L32 25ZM49 25L49 28L52 28L52 25ZM73 25L73 28L76 28L76 25ZM77 25L77 26L78 26L78 25ZM6 26L6 27L7 27L7 26ZM12 26L12 27L13 27L13 28L14 28L14 27L13 27L13 26ZM26 26L26 27L27 27L27 26ZM50 26L50 27L51 27L51 26ZM70 26L70 27L71 27L71 26ZM74 26L74 27L75 27L75 26ZM34 27L34 29L35 29L35 27ZM38 27L38 28L39 28L39 29L38 29L38 30L39 30L39 29L41 29L41 30L42 30L42 29L43 29L43 30L44 30L44 31L45 31L45 29L47 29L47 27L46 27L46 28L44 28L44 29L43 29L43 28L42 28L42 27L41 27L41 28L39 28L39 27ZM11 28L11 30L13 30L13 29L12 29L12 28ZM31 28L31 30L30 30L30 31L31 31L31 30L32 30L32 31L33 31L33 32L31 32L31 34L34 34L34 33L35 33L35 32L36 32L36 35L35 35L35 36L34 36L34 35L32 35L32 36L28 36L28 35L30 35L30 34L29 34L29 33L30 33L30 32L28 32L28 35L27 35L27 36L26 36L26 37L28 37L28 40L27 40L27 39L25 39L25 40L24 40L24 41L26 41L26 42L27 42L27 41L29 41L29 42L31 42L31 45L33 45L33 46L34 46L34 47L35 47L35 45L33 45L33 44L36 44L36 45L37 45L37 44L36 44L36 43L38 43L38 44L39 44L39 45L40 45L40 46L39 46L39 47L38 47L38 46L37 46L37 47L36 47L36 48L35 48L35 49L36 49L36 50L37 50L37 49L41 49L41 50L40 50L40 51L39 51L39 52L40 52L40 53L41 53L41 52L42 52L42 53L43 53L43 54L40 54L40 55L39 55L39 57L38 57L38 58L34 58L34 60L38 60L38 58L39 58L39 60L40 60L40 58L41 58L41 59L42 59L42 58L43 58L43 60L44 60L44 59L45 59L45 58L43 58L43 56L40 56L40 55L44 55L44 57L47 57L47 58L46 58L46 61L47 61L47 62L49 62L49 61L47 61L47 60L48 60L48 59L49 59L49 60L50 60L50 59L51 59L51 60L52 60L52 59L53 59L53 60L54 60L54 62L56 62L56 61L55 61L55 60L56 60L56 59L55 59L55 60L54 60L54 59L53 59L53 58L52 58L52 57L53 57L53 55L51 55L51 56L50 56L50 57L49 57L49 58L48 58L48 56L45 56L45 54L46 54L46 53L47 53L47 52L46 52L46 51L44 51L44 50L45 50L45 49L44 49L44 50L42 50L42 49L43 49L43 47L42 47L42 46L41 46L41 45L42 45L42 43L41 43L41 42L42 42L42 40L43 40L43 42L44 42L44 43L45 43L45 45L44 45L44 46L45 46L45 47L44 47L44 48L45 48L45 47L46 47L46 49L47 49L47 47L46 47L46 44L48 44L48 43L49 43L49 42L48 42L48 41L50 41L50 42L51 42L51 41L55 41L55 43L54 43L54 42L52 42L52 43L51 43L51 45L52 45L52 44L53 44L53 43L54 43L54 46L53 46L53 47L55 47L55 48L54 48L54 49L55 49L55 48L56 48L56 47L55 47L55 46L56 46L56 45L55 45L55 44L57 44L57 46L58 46L58 47L59 47L59 46L61 46L61 45L59 45L59 44L60 44L60 43L63 43L63 42L60 42L60 41L59 41L59 42L60 42L60 43L56 43L56 42L58 42L58 39L59 39L59 36L58 36L58 37L57 37L57 38L58 38L58 39L57 39L57 41L55 41L55 40L56 40L56 39L55 39L55 40L52 40L52 39L51 39L51 38L52 38L52 37L53 37L53 36L52 36L52 35L51 35L51 36L52 36L52 37L51 37L51 38L50 38L50 39L49 39L49 38L48 38L48 37L49 37L49 36L50 36L50 35L49 35L49 36L47 36L47 35L48 35L48 34L47 34L47 35L46 35L46 34L45 34L45 35L44 35L44 37L46 37L46 38L45 38L45 40L43 40L43 37L42 37L42 36L37 36L37 35L40 35L40 34L38 34L38 33L40 33L40 32L38 32L38 33L37 33L37 28L36 28L36 30L35 30L35 32L34 32L34 31L33 31L33 30L32 30L32 28ZM6 29L6 30L7 30L7 29ZM24 29L24 30L26 30L26 29ZM73 29L73 30L71 30L71 31L73 31L73 32L70 32L70 33L71 33L71 35L73 35L73 34L72 34L72 33L74 33L74 36L76 36L76 39L77 39L77 36L76 36L76 35L75 35L75 33L74 33L74 32L76 32L76 31L75 31L75 30L74 30L74 29ZM78 29L78 30L81 30L81 29ZM1 31L1 32L3 32L3 31ZM80 31L80 32L81 32L81 31ZM33 32L33 33L34 33L34 32ZM6 33L6 34L7 34L7 33ZM80 33L80 34L81 34L81 33ZM2 34L2 35L3 35L3 34ZM14 34L14 36L16 36L16 37L17 37L17 38L18 38L18 37L19 37L19 36L18 36L18 35L17 35L17 36L16 36L16 34ZM45 35L45 36L46 36L46 37L47 37L47 36L46 36L46 35ZM80 35L80 36L81 36L81 35ZM17 36L17 37L18 37L18 36ZM32 36L32 38L35 38L35 37L34 37L34 36ZM36 37L36 39L37 39L37 38L38 38L38 37ZM39 37L39 40L38 40L38 41L37 41L37 40L34 40L34 41L31 41L31 40L30 40L30 39L31 39L31 38L30 38L30 39L29 39L29 41L31 41L31 42L32 42L32 43L33 43L33 42L34 42L34 43L36 43L36 41L37 41L37 42L38 42L38 43L39 43L39 44L40 44L40 43L39 43L39 42L38 42L38 41L40 41L40 42L41 42L41 38L42 38L42 37ZM73 37L73 38L71 38L71 39L73 39L73 38L74 38L74 40L75 40L75 38L74 38L74 37ZM6 39L6 40L7 40L7 39ZM32 39L32 40L33 40L33 39ZM46 39L46 41L45 41L45 43L48 43L48 42L47 42L47 39ZM50 39L50 41L51 41L51 39ZM22 40L22 41L23 41L23 40ZM26 40L26 41L27 41L27 40ZM76 40L76 41L77 41L77 42L76 42L76 43L77 43L77 42L78 42L78 41L79 41L79 42L80 42L80 41L79 41L79 40ZM69 41L69 42L70 42L70 43L71 43L71 41ZM17 43L17 44L18 44L18 43ZM13 44L13 45L14 45L14 44ZM49 44L49 45L50 45L50 44ZM6 45L6 46L7 46L7 45ZM58 45L58 46L59 46L59 45ZM77 45L77 46L78 46L78 45ZM80 45L80 46L79 46L79 47L78 47L78 48L79 48L79 49L78 49L78 50L79 50L79 49L80 49L80 50L81 50L81 49L80 49L80 48L79 48L79 47L80 47L80 46L81 46L81 45ZM19 46L19 47L20 47L20 48L21 48L21 46ZM40 46L40 47L39 47L39 48L40 48L40 47L41 47L41 48L42 48L42 47L41 47L41 46ZM26 47L26 48L27 48L27 47ZM74 47L74 48L75 48L75 47ZM32 48L32 50L31 50L31 51L30 51L30 52L29 52L29 53L27 53L27 54L29 54L29 53L30 53L30 54L31 54L31 51L32 51L32 50L33 50L33 51L34 51L34 50L33 50L33 48ZM5 49L5 52L8 52L8 49ZM17 49L17 50L18 50L18 49ZM25 49L25 52L28 52L28 49ZM49 49L49 52L52 52L52 49ZM73 49L73 52L76 52L76 49ZM6 50L6 51L7 51L7 50ZM13 50L13 52L14 52L14 50ZM26 50L26 51L27 51L27 50ZM41 50L41 51L40 51L40 52L41 52L41 51L42 51L42 50ZM50 50L50 51L51 51L51 50ZM74 50L74 51L75 51L75 50ZM15 51L15 52L16 52L16 51ZM59 51L59 52L60 52L60 51ZM65 51L65 53L64 53L64 55L63 55L63 56L62 56L62 55L60 55L60 56L59 56L59 55L58 55L58 57L61 57L61 58L62 58L62 59L63 59L63 60L65 60L65 62L66 62L66 59L67 59L67 58L69 58L69 57L68 57L68 56L67 56L67 55L68 55L68 54L69 54L69 53L68 53L68 52L66 52L66 51ZM1 52L1 53L2 53L2 54L4 54L4 52L3 52L3 53L2 53L2 52ZM45 52L45 53L46 53L46 52ZM22 53L22 54L20 54L20 55L21 55L21 56L20 56L20 57L22 57L22 58L23 58L23 59L22 59L22 60L20 60L20 59L21 59L21 58L20 58L20 59L19 59L19 58L18 58L18 57L19 57L19 56L16 56L16 57L17 57L17 59L19 59L19 60L17 60L17 62L20 62L20 61L22 61L22 60L23 60L23 61L25 61L25 62L26 62L26 61L25 61L25 60L26 60L26 59L27 59L27 58L26 58L26 57L28 57L28 55L27 55L27 56L22 56L22 54L24 54L24 53ZM25 53L25 55L26 55L26 53ZM49 53L49 54L50 54L50 53ZM65 54L65 55L64 55L64 56L63 56L63 57L64 57L64 58L63 58L63 59L64 59L64 58L65 58L65 59L66 59L66 58L65 58L65 57L66 57L66 56L65 56L65 55L66 55L66 54ZM2 55L2 56L3 56L3 55ZM32 55L32 56L33 56L33 57L34 57L34 55ZM23 57L23 58L24 58L24 59L26 59L26 58L25 58L25 57ZM39 57L39 58L40 58L40 57ZM41 57L41 58L42 58L42 57ZM71 57L71 58L72 58L72 57ZM28 58L28 60L29 60L29 58ZM47 58L47 59L48 59L48 58ZM49 58L49 59L50 59L50 58ZM51 58L51 59L52 59L52 58ZM7 59L7 60L8 60L8 61L9 61L9 60L8 60L8 59ZM70 59L70 60L71 60L71 59ZM72 59L72 60L73 60L73 59ZM4 61L4 62L1 62L1 63L4 63L4 62L5 62L5 61ZM36 61L36 62L40 62L40 61ZM62 61L62 62L63 62L63 61ZM69 61L69 62L70 62L70 61ZM55 63L55 64L56 64L56 63ZM58 63L58 64L59 64L59 63ZM67 63L67 64L65 64L65 65L67 65L67 66L68 66L68 65L67 65L67 64L68 64L68 63ZM6 64L6 65L7 65L7 64ZM13 64L13 65L12 65L12 66L13 66L13 67L14 67L14 64ZM32 64L32 65L33 65L33 64ZM41 64L41 65L40 65L40 66L42 66L42 64ZM61 64L61 65L60 65L60 66L61 66L61 65L62 65L62 64ZM63 64L63 65L64 65L64 64ZM71 64L71 65L72 65L72 64ZM78 64L78 65L80 65L80 64ZM75 65L75 67L78 67L78 66L77 66L77 65ZM2 66L2 67L3 67L3 66ZM25 66L25 67L26 67L26 66ZM38 66L38 68L37 68L37 69L35 69L35 70L36 70L36 71L38 71L38 70L40 70L40 69L39 69L39 66ZM2 68L2 69L1 69L1 70L2 70L2 69L3 69L3 68ZM71 68L71 70L73 70L73 68ZM78 68L78 69L79 69L79 70L80 70L80 69L79 69L79 68ZM12 69L12 70L14 70L14 69ZM37 69L37 70L38 70L38 69ZM69 69L69 70L70 70L70 69ZM46 70L46 71L47 71L47 72L48 72L48 71L47 71L47 70ZM6 71L6 72L7 72L7 71ZM34 71L34 72L35 72L35 73L37 73L37 74L38 74L38 73L37 73L37 72L35 72L35 71ZM76 71L76 72L77 72L77 71ZM9 72L9 74L10 74L10 72ZM23 72L23 73L22 73L22 74L23 74L23 73L24 73L24 72ZM59 72L59 73L58 73L58 74L59 74L59 73L60 73L60 72ZM69 72L69 73L70 73L70 72ZM25 73L25 76L28 76L28 73ZM49 73L49 76L52 76L52 73ZM73 73L73 76L76 76L76 73ZM26 74L26 75L27 75L27 74ZM50 74L50 75L51 75L51 74ZM67 74L67 75L68 75L68 76L69 76L69 75L68 75L68 74ZM74 74L74 75L75 75L75 74ZM33 75L33 76L34 76L34 75ZM55 75L55 76L57 76L57 75ZM38 76L38 77L40 77L40 76ZM77 76L77 77L79 77L79 76ZM21 77L21 78L22 78L22 77ZM47 77L47 78L48 78L48 79L49 79L49 78L50 78L50 77ZM70 77L70 78L71 78L71 77ZM14 78L14 79L15 79L15 78ZM18 78L18 79L17 79L17 80L18 80L18 79L19 79L19 78ZM29 79L29 80L30 80L30 81L31 81L31 80L30 80L30 79ZM39 79L39 80L40 80L40 79ZM78 79L78 80L79 80L79 81L80 81L80 80L79 80L79 79ZM74 80L74 81L76 81L76 80ZM0 0L0 7L7 7L7 0ZM1 1L1 6L6 6L6 1ZM2 2L2 5L5 5L5 2ZM74 0L74 7L81 7L81 0ZM75 1L75 6L80 6L80 1ZM76 2L76 5L79 5L79 2ZM0 74L0 81L7 81L7 74ZM1 75L1 80L6 80L6 75ZM2 76L2 79L5 79L5 76Z" fill="#000000"/></g></g></svg>
