<?xml version="1.0" encoding="UTF-8"?>
<svg xmlns="http://www.w3.org/2000/svg" version="1.1" width="200" height="200" viewBox="0 0 200 200"><rect x="0" y="0" width="200" height="200" fill="#ffffff"/><g transform="scale(2.469)"><g transform="translate(0,0)"><path fill-rule="evenodd" d="M8 0L8 3L9 3L9 4L10 4L10 5L8 5L8 9L9 9L9 10L6 10L6 9L7 9L7 8L6 8L6 9L5 9L5 8L2 8L2 10L1 10L1 9L0 9L0 11L2 11L2 12L1 12L1 13L2 13L2 14L3 14L3 13L2 13L2 12L4 12L4 13L8 13L8 12L10 12L10 13L9 13L9 15L8 15L8 16L6 16L6 15L7 15L7 14L6 14L6 15L5 15L5 14L4 14L4 15L1 15L1 14L0 14L0 15L1 15L1 16L0 16L0 17L1 17L1 18L2 18L2 19L1 19L1 20L0 20L0 24L3 24L3 25L0 25L0 26L1 26L1 27L0 27L0 31L1 31L1 34L0 34L0 35L1 35L1 36L2 36L2 35L1 35L1 34L3 34L3 37L0 37L0 38L1 38L1 39L0 39L0 44L1 44L1 46L0 46L0 47L1 47L1 46L2 46L2 48L0 48L0 49L2 49L2 50L1 50L1 51L0 51L0 52L2 52L2 53L1 53L1 54L0 54L0 56L2 56L2 57L0 57L0 58L1 58L1 60L2 60L2 58L3 58L3 60L4 60L4 61L5 61L5 59L7 59L7 60L6 60L6 61L7 61L7 62L6 62L6 63L7 63L7 64L6 64L6 65L7 65L7 64L8 64L8 66L5 66L5 67L10 67L10 71L8 71L8 70L6 70L6 71L5 71L5 72L6 72L6 73L7 73L7 72L8 72L8 74L9 74L9 75L10 75L10 76L11 76L11 77L12 77L12 78L13 78L13 79L12 79L12 80L11 80L11 78L10 78L10 77L9 77L9 76L8 76L8 79L9 79L9 81L12 81L12 80L13 80L13 81L14 81L14 80L15 80L15 79L17 79L17 78L18 78L18 80L17 80L17 81L20 81L20 80L21 80L21 81L23 81L23 80L24 80L24 79L23 79L23 77L25 77L25 78L26 78L26 77L27 77L27 78L28 78L28 77L29 77L29 78L30 78L30 77L31 77L31 79L29 79L29 80L27 80L27 79L25 79L25 80L26 80L26 81L31 81L31 80L32 80L32 81L34 81L34 80L35 80L35 78L36 78L36 80L37 80L37 81L40 81L40 80L41 80L41 81L44 81L44 80L45 80L45 81L46 81L46 80L47 80L47 78L48 78L48 77L52 77L52 78L53 78L53 76L54 76L54 77L55 77L55 78L54 78L54 80L52 80L52 79L51 79L51 78L49 78L49 79L48 79L48 81L49 81L49 80L50 80L50 81L55 81L55 80L56 80L56 81L57 81L57 80L60 80L60 81L61 81L61 79L63 79L63 78L64 78L64 79L66 79L66 80L62 80L62 81L66 81L66 80L67 80L67 78L65 78L65 77L64 77L64 76L66 76L66 77L67 77L67 76L69 76L69 75L66 75L66 74L68 74L68 73L66 73L66 74L65 74L65 75L64 75L64 74L63 74L63 73L64 73L64 72L63 72L63 71L66 71L66 72L70 72L70 73L69 73L69 74L70 74L70 73L71 73L71 72L72 72L72 74L71 74L71 75L70 75L70 77L68 77L68 80L70 80L70 79L71 79L71 81L73 81L73 80L72 80L72 79L75 79L75 78L74 78L74 77L76 77L76 78L79 78L79 77L80 77L80 74L81 74L81 72L80 72L80 70L81 70L81 69L80 69L80 70L79 70L79 69L78 69L78 68L81 68L81 67L80 67L80 66L81 66L81 64L80 64L80 62L81 62L81 61L80 61L80 60L81 60L81 59L80 59L80 58L81 58L81 56L79 56L79 55L77 55L77 56L75 56L75 53L78 53L78 54L79 54L79 53L80 53L80 54L81 54L81 52L80 52L80 50L81 50L81 49L80 49L80 50L79 50L79 49L78 49L78 52L77 52L77 48L79 48L79 47L80 47L80 46L81 46L81 45L80 45L80 42L81 42L81 41L80 41L80 40L79 40L79 39L77 39L77 40L79 40L79 41L78 41L78 43L77 43L77 42L76 42L76 43L75 43L75 40L74 40L74 39L75 39L75 38L77 38L77 37L78 37L78 38L79 38L79 37L78 37L78 36L79 36L79 35L80 35L80 38L81 38L81 35L80 35L80 34L81 34L81 32L80 32L80 31L76 31L76 30L77 30L77 28L79 28L79 29L78 29L78 30L81 30L81 28L79 28L79 27L77 27L77 25L78 25L78 26L79 26L79 25L78 25L78 24L79 24L79 23L78 23L78 22L81 22L81 19L80 19L80 21L76 21L76 19L77 19L77 20L79 20L79 18L81 18L81 17L78 17L78 16L79 16L79 15L81 15L81 13L80 13L80 14L79 14L79 13L78 13L78 12L80 12L80 11L78 11L78 12L77 12L77 13L78 13L78 14L79 14L79 15L78 15L78 16L76 16L76 15L77 15L77 14L76 14L76 11L77 11L77 10L76 10L76 11L74 11L74 9L76 9L76 8L73 8L73 11L72 11L72 13L73 13L73 11L74 11L74 12L75 12L75 13L74 13L74 14L75 14L75 15L74 15L74 16L76 16L76 17L73 17L73 16L72 16L72 15L71 15L71 14L70 14L70 13L69 13L69 12L70 12L70 11L71 11L71 9L72 9L72 7L73 7L73 6L72 6L72 5L71 5L71 6L70 6L70 8L69 8L69 5L70 5L70 4L71 4L71 2L72 2L72 4L73 4L73 1L69 1L69 2L70 2L70 3L69 3L69 4L67 4L67 3L68 3L68 2L67 2L67 3L66 3L66 4L67 4L67 6L66 6L66 5L65 5L65 4L64 4L64 5L65 5L65 6L64 6L64 7L65 7L65 6L66 6L66 8L68 8L68 9L69 9L69 10L67 10L67 12L66 12L66 13L67 13L67 12L68 12L68 13L69 13L69 14L70 14L70 15L71 15L71 17L73 17L73 18L75 18L75 19L74 19L74 20L75 20L75 22L76 22L76 23L74 23L74 21L73 21L73 23L74 23L74 24L72 24L72 23L71 23L71 22L70 22L70 19L67 19L67 18L68 18L68 17L67 17L67 16L69 16L69 15L68 15L68 14L67 14L67 15L66 15L66 14L65 14L65 11L66 11L66 10L64 10L64 9L65 9L65 8L63 8L63 6L62 6L62 5L63 5L63 3L65 3L65 2L63 2L63 3L62 3L62 1L61 1L61 0L60 0L60 1L61 1L61 3L62 3L62 5L60 5L60 4L59 4L59 5L58 5L58 2L59 2L59 3L60 3L60 2L59 2L59 0L54 0L54 1L53 1L53 3L52 3L52 0L50 0L50 1L51 1L51 3L50 3L50 2L49 2L49 3L50 3L50 4L48 4L48 5L47 5L47 6L46 6L46 7L47 7L47 6L48 6L48 9L46 9L46 8L45 8L45 9L46 9L46 10L44 10L44 12L42 12L42 11L43 11L43 9L44 9L44 8L43 8L43 9L40 9L40 10L41 10L41 11L40 11L40 12L41 12L41 14L40 14L40 13L39 13L39 12L38 12L38 11L37 11L37 10L39 10L39 9L37 9L37 10L34 10L34 11L33 11L33 10L31 10L31 9L29 9L29 6L30 6L30 8L31 8L31 6L30 6L30 4L31 4L31 3L32 3L32 4L34 4L34 3L35 3L35 5L36 5L36 7L37 7L37 8L38 8L38 7L39 7L39 5L42 5L42 7L43 7L43 6L44 6L44 7L45 7L45 6L44 6L44 4L47 4L47 3L48 3L48 2L47 2L47 1L48 1L48 0L46 0L46 2L45 2L45 1L42 1L42 0L39 0L39 1L38 1L38 0L34 0L34 1L33 1L33 0L30 0L30 1L31 1L31 3L30 3L30 4L28 4L28 2L29 2L29 1L28 1L28 2L27 2L27 0L26 0L26 1L24 1L24 0L23 0L23 1L22 1L22 2L21 2L21 3L22 3L22 2L23 2L23 4L22 4L22 5L23 5L23 4L24 4L24 8L23 8L23 6L22 6L22 7L21 7L21 4L20 4L20 3L19 3L19 2L18 2L18 1L21 1L21 0L15 0L15 1L16 1L16 3L14 3L14 0L12 0L12 1L13 1L13 2L11 2L11 1L10 1L10 0ZM66 0L66 1L67 1L67 0ZM23 1L23 2L24 2L24 3L25 3L25 4L27 4L27 3L26 3L26 2L24 2L24 1ZM32 1L32 2L33 2L33 3L34 3L34 2L33 2L33 1ZM36 1L36 2L35 2L35 3L36 3L36 2L37 2L37 4L36 4L36 5L37 5L37 7L38 7L38 5L37 5L37 4L38 4L38 2L37 2L37 1ZM54 1L54 2L55 2L55 3L54 3L54 4L53 4L53 5L54 5L54 6L53 6L53 8L54 8L54 6L55 6L55 7L56 7L56 8L55 8L55 11L56 11L56 12L54 12L54 11L53 11L53 14L52 14L52 11L50 11L50 12L51 12L51 15L53 15L53 16L52 16L52 17L51 17L51 16L50 16L50 17L49 17L49 19L47 19L47 18L48 18L48 17L47 17L47 18L41 18L41 17L42 17L42 16L41 16L41 15L44 15L44 16L43 16L43 17L45 17L45 16L49 16L49 15L50 15L50 14L49 14L49 15L45 15L45 14L48 14L48 12L49 12L49 10L47 10L47 11L45 11L45 12L44 12L44 13L45 13L45 14L43 14L43 13L42 13L42 14L41 14L41 15L40 15L40 14L39 14L39 15L37 15L37 17L34 17L34 16L36 16L36 14L35 14L35 15L34 15L34 14L32 14L32 15L30 15L30 19L29 19L29 15L28 15L28 14L29 14L29 13L28 13L28 12L29 12L29 11L28 11L28 12L27 12L27 10L28 10L28 9L22 9L22 10L26 10L26 12L27 12L27 13L28 13L28 14L27 14L27 15L26 15L26 14L25 14L25 13L24 13L24 15L23 15L23 14L22 14L22 15L21 15L21 14L20 14L20 15L21 15L21 16L19 16L19 15L18 15L18 14L19 14L19 13L23 13L23 12L24 12L24 11L21 11L21 7L20 7L20 4L19 4L19 5L18 5L18 6L17 6L17 5L15 5L15 8L14 8L14 5L13 5L13 8L12 8L12 6L11 6L11 5L12 5L12 4L11 4L11 3L10 3L10 2L9 2L9 3L10 3L10 4L11 4L11 5L10 5L10 6L9 6L9 8L11 8L11 9L12 9L12 11L11 11L11 10L10 10L10 11L11 11L11 13L10 13L10 14L11 14L11 15L9 15L9 17L11 17L11 15L12 15L12 13L14 13L14 14L13 14L13 15L14 15L14 16L15 16L15 15L18 15L18 17L22 17L22 15L23 15L23 16L24 16L24 17L23 17L23 18L18 18L18 19L21 19L21 20L20 20L20 21L21 21L21 22L20 22L20 23L21 23L21 24L20 24L20 26L19 26L19 27L20 27L20 26L21 26L21 24L22 24L22 23L21 23L21 22L23 22L23 23L24 23L24 24L25 24L25 23L24 23L24 22L23 22L23 21L24 21L24 20L25 20L25 22L26 22L26 24L27 24L27 22L28 22L28 23L29 23L29 25L30 25L30 26L31 26L31 27L29 27L29 28L31 28L31 27L32 27L32 26L33 26L33 25L34 25L34 26L36 26L36 25L37 25L37 27L38 27L38 29L39 29L39 30L38 30L38 33L39 33L39 34L38 34L38 35L35 35L35 34L36 34L36 32L37 32L37 28L36 28L36 27L35 27L35 28L34 28L34 27L33 27L33 28L32 28L32 29L35 29L35 30L33 30L33 31L31 31L31 29L30 29L30 30L29 30L29 29L27 29L27 30L25 30L25 31L26 31L26 32L23 32L23 31L24 31L24 30L23 30L23 28L24 28L24 27L23 27L23 25L22 25L22 30L21 30L21 31L20 31L20 32L19 32L19 33L18 33L18 31L15 31L15 32L14 32L14 33L13 33L13 31L14 31L14 29L16 29L16 30L17 30L17 29L18 29L18 30L20 30L20 29L18 29L18 28L17 28L17 26L18 26L18 22L19 22L19 20L18 20L18 21L17 21L17 16L16 16L16 18L15 18L15 17L14 17L14 18L13 18L13 19L12 19L12 18L11 18L11 20L12 20L12 21L11 21L11 23L10 23L10 21L9 21L9 20L10 20L10 19L9 19L9 20L8 20L8 19L5 19L5 18L4 18L4 19L3 19L3 22L4 22L4 24L5 24L5 21L6 21L6 22L8 22L8 21L9 21L9 23L6 23L6 24L9 24L9 26L10 26L10 27L9 27L9 29L10 29L10 30L11 30L11 31L10 31L10 34L9 34L9 39L8 39L8 40L7 40L7 39L6 39L6 38L7 38L7 37L8 37L8 35L6 35L6 34L8 34L8 32L9 32L9 31L6 31L6 30L8 30L8 29L4 29L4 27L3 27L3 28L1 28L1 31L2 31L2 30L5 30L5 32L7 32L7 33L4 33L4 32L2 32L2 33L3 33L3 34L5 34L5 35L4 35L4 37L3 37L3 38L5 38L5 40L7 40L7 41L4 41L4 39L3 39L3 40L2 40L2 41L4 41L4 42L2 42L2 43L3 43L3 45L2 45L2 46L3 46L3 48L4 48L4 47L5 47L5 48L10 48L10 49L9 49L9 50L10 50L10 49L11 49L11 50L12 50L12 51L9 51L9 53L10 53L10 52L11 52L11 54L13 54L13 55L14 55L14 54L18 54L18 58L17 58L17 57L15 57L15 59L14 59L14 60L13 60L13 57L14 57L14 56L13 56L13 57L12 57L12 56L11 56L11 55L10 55L10 54L9 54L9 56L7 56L7 55L6 55L6 54L7 54L7 53L6 53L6 54L4 54L4 55L3 55L3 54L1 54L1 55L2 55L2 56L3 56L3 57L4 57L4 59L5 59L5 58L8 58L8 57L10 57L10 59L11 59L11 61L16 61L16 60L17 60L17 64L18 64L18 63L20 63L20 64L19 64L19 66L20 66L20 67L19 67L19 68L18 68L18 67L17 67L17 66L16 66L16 62L15 62L15 63L13 63L13 62L12 62L12 64L15 64L15 65L14 65L14 67L13 67L13 66L12 66L12 67L11 67L11 66L10 66L10 67L11 67L11 70L12 70L12 72L11 72L11 73L12 73L12 74L13 74L13 75L11 75L11 76L13 76L13 75L15 75L15 73L13 73L13 72L14 72L14 71L15 71L15 72L17 72L17 73L16 73L16 76L17 76L17 75L18 75L18 74L21 74L21 72L22 72L22 71L23 71L23 72L26 72L26 71L27 71L27 70L28 70L28 71L29 71L29 72L30 72L30 71L31 71L31 73L30 73L30 74L31 74L31 77L32 77L32 74L33 74L33 73L35 73L35 74L36 74L36 75L37 75L37 76L38 76L38 77L37 77L37 78L38 78L38 80L39 80L39 79L41 79L41 78L45 78L45 79L46 79L46 78L45 78L45 77L44 77L44 76L43 76L43 75L41 75L41 74L42 74L42 73L41 73L41 72L42 72L42 71L43 71L43 70L44 70L44 71L47 71L47 72L50 72L50 71L49 71L49 70L51 70L51 72L54 72L54 73L56 73L56 74L57 74L57 75L56 75L56 76L55 76L55 75L54 75L54 74L53 74L53 75L54 75L54 76L55 76L55 77L56 77L56 78L55 78L55 79L56 79L56 80L57 80L57 79L59 79L59 78L60 78L60 77L61 77L61 78L62 78L62 77L63 77L63 76L64 76L64 75L63 75L63 74L62 74L62 73L63 73L63 72L62 72L62 71L63 71L63 69L62 69L62 68L63 68L63 67L60 67L60 66L67 66L67 65L68 65L68 67L70 67L70 68L73 68L73 72L74 72L74 71L75 71L75 72L78 72L78 73L77 73L77 76L78 76L78 77L79 77L79 76L78 76L78 74L80 74L80 73L79 73L79 72L78 72L78 71L77 71L77 69L75 69L75 68L77 68L77 65L75 65L75 63L76 63L76 64L78 64L78 67L79 67L79 66L80 66L80 64L78 64L78 63L79 63L79 62L78 62L78 61L79 61L79 60L78 60L78 57L79 57L79 58L80 58L80 57L79 57L79 56L77 56L77 57L75 57L75 56L74 56L74 57L73 57L73 58L74 58L74 57L75 57L75 58L77 58L77 59L76 59L76 60L78 60L78 61L75 61L75 59L74 59L74 60L73 60L73 59L72 59L72 58L71 58L71 57L72 57L72 56L70 56L70 58L69 58L69 57L68 57L68 56L67 56L67 57L68 57L68 59L69 59L69 60L67 60L67 58L66 58L66 55L67 55L67 54L68 54L68 53L70 53L70 52L71 52L71 53L72 53L72 54L71 54L71 55L73 55L73 53L72 53L72 49L71 49L71 47L70 47L70 46L69 46L69 45L68 45L68 44L65 44L65 45L64 45L64 46L63 46L63 44L64 44L64 43L62 43L62 45L61 45L61 43L60 43L60 41L61 41L61 42L62 42L62 41L63 41L63 42L66 42L66 43L70 43L70 44L71 44L71 43L74 43L74 44L73 44L73 45L71 45L71 46L72 46L72 47L73 47L73 45L74 45L74 48L75 48L75 45L77 45L77 46L76 46L76 47L77 47L77 46L78 46L78 45L79 45L79 44L75 44L75 43L74 43L74 42L72 42L72 41L73 41L73 40L72 40L72 41L71 41L71 39L73 39L73 38L72 38L72 37L74 37L74 36L75 36L75 34L74 34L74 33L72 33L72 34L71 34L71 35L70 35L70 34L69 34L69 33L68 33L68 32L66 32L66 31L70 31L70 32L71 32L71 31L70 31L70 30L69 30L69 29L71 29L71 30L72 30L72 31L73 31L73 30L72 30L72 29L71 29L71 28L72 28L72 25L71 25L71 23L68 23L68 22L69 22L69 21L68 21L68 20L67 20L67 19L64 19L64 18L67 18L67 17L66 17L66 15L60 15L60 12L61 12L61 11L59 11L59 9L60 9L60 8L59 8L59 9L58 9L58 5L57 5L57 4L56 4L56 3L57 3L57 2L58 2L58 1L57 1L57 2L56 2L56 1ZM17 2L17 3L18 3L18 2ZM39 2L39 3L40 3L40 2ZM41 2L41 4L42 4L42 5L43 5L43 4L42 4L42 3L44 3L44 2ZM54 4L54 5L55 5L55 4ZM25 5L25 8L28 8L28 5ZM49 5L49 8L52 8L52 5ZM56 5L56 7L57 7L57 5ZM59 5L59 7L60 7L60 5ZM10 6L10 7L11 7L11 6ZM16 6L16 9L17 9L17 10L15 10L15 9L14 9L14 8L13 8L13 9L14 9L14 10L13 10L13 12L14 12L14 13L18 13L18 12L16 12L16 11L18 11L18 10L19 10L19 12L21 12L21 11L20 11L20 8L19 8L19 9L18 9L18 7L19 7L19 6L18 6L18 7L17 7L17 6ZM26 6L26 7L27 7L27 6ZM32 6L32 7L33 7L33 6ZM34 6L34 8L33 8L33 9L36 9L36 8L35 8L35 6ZM40 6L40 8L41 8L41 6ZM50 6L50 7L51 7L51 6ZM61 6L61 10L62 10L62 9L63 9L63 8L62 8L62 6ZM67 6L67 7L68 7L68 6ZM71 6L71 7L72 7L72 6ZM56 8L56 9L57 9L57 10L58 10L58 9L57 9L57 8ZM78 8L78 10L81 10L81 8ZM51 9L51 10L52 10L52 9ZM53 9L53 10L54 10L54 9ZM4 10L4 12L8 12L8 11L6 11L6 10ZM69 10L69 11L70 11L70 10ZM30 11L30 14L31 14L31 13L33 13L33 12L31 12L31 11ZM35 11L35 12L34 12L34 13L35 13L35 12L36 12L36 13L37 13L37 12L36 12L36 11ZM57 11L57 12L58 12L58 11ZM62 11L62 12L64 12L64 11ZM45 12L45 13L47 13L47 12ZM55 13L55 15L54 15L54 14L53 14L53 15L54 15L54 16L53 16L53 17L55 17L55 16L56 16L56 13ZM57 13L57 14L58 14L58 13ZM61 13L61 14L62 14L62 13ZM25 15L25 16L26 16L26 15ZM58 15L58 16L59 16L59 15ZM1 16L1 17L2 17L2 18L3 18L3 17L4 17L4 16L3 16L3 17L2 17L2 16ZM27 16L27 18L28 18L28 16ZM31 16L31 18L32 18L32 19L30 19L30 20L29 20L29 19L28 19L28 20L29 20L29 22L30 22L30 23L31 23L31 22L32 22L32 25L33 25L33 24L34 24L34 23L33 23L33 20L34 20L34 21L35 21L35 22L36 22L36 21L38 21L38 22L37 22L37 23L35 23L35 24L37 24L37 25L38 25L38 27L39 27L39 29L40 29L40 30L39 30L39 32L40 32L40 33L41 33L41 34L40 34L40 35L39 35L39 37L38 37L38 36L36 36L36 37L37 37L37 38L39 38L39 37L40 37L40 38L41 38L41 39L40 39L40 40L38 40L38 39L36 39L36 38L35 38L35 37L34 37L34 38L33 38L33 37L32 37L32 36L33 36L33 35L34 35L34 33L33 33L33 32L35 32L35 31L33 31L33 32L32 32L32 33L30 33L30 32L31 32L31 31L30 31L30 32L26 32L26 33L23 33L23 34L24 34L24 35L23 35L23 36L22 36L22 35L21 35L21 34L22 34L22 31L21 31L21 34L20 34L20 33L19 33L19 34L18 34L18 35L16 35L16 33L17 33L17 32L15 32L15 35L14 35L14 34L13 34L13 33L12 33L12 31L13 31L13 30L12 30L12 28L10 28L10 29L11 29L11 30L12 30L12 31L11 31L11 34L10 34L10 35L14 35L14 36L12 36L12 37L10 37L10 38L11 38L11 40L9 40L9 42L8 42L8 41L7 41L7 42L6 42L6 43L5 43L5 42L4 42L4 43L5 43L5 45L4 45L4 46L5 46L5 47L7 47L7 46L8 46L8 47L9 47L9 46L12 46L12 47L11 47L11 49L12 49L12 50L13 50L13 51L12 51L12 53L18 53L18 54L20 54L20 55L22 55L22 56L25 56L25 57L24 57L24 58L23 58L23 59L22 59L22 60L23 60L23 62L22 62L22 61L19 61L19 62L20 62L20 63L22 63L22 64L20 64L20 66L23 66L23 67L21 67L21 68L20 68L20 70L19 70L19 71L20 71L20 72L19 72L19 73L20 73L20 72L21 72L21 68L22 68L22 69L24 69L24 68L23 68L23 67L25 67L25 66L26 66L26 65L23 65L23 64L24 64L24 63L25 63L25 61L28 61L28 59L29 59L29 57L30 57L30 58L31 58L31 59L30 59L30 61L29 61L29 62L26 62L26 64L27 64L27 63L28 63L28 65L29 65L29 67L28 67L28 68L27 68L27 67L26 67L26 68L27 68L27 69L28 69L28 70L29 70L29 71L30 71L30 69L31 69L31 70L32 70L32 69L31 69L31 68L33 68L33 70L35 70L35 71L32 71L32 72L35 72L35 73L36 73L36 72L39 72L39 71L37 71L37 68L39 68L39 69L38 69L38 70L40 70L40 71L42 71L42 69L43 69L43 68L39 68L39 67L40 67L40 66L41 66L41 65L40 65L40 64L42 64L42 65L45 65L45 64L44 64L44 63L43 63L43 64L42 64L42 63L39 63L39 62L40 62L40 60L42 60L42 62L45 62L45 60L44 60L44 59L40 59L40 58L39 58L39 57L40 57L40 56L42 56L42 54L43 54L43 55L45 55L45 57L43 57L43 58L45 58L45 57L46 57L46 58L48 58L48 59L49 59L49 60L47 60L47 62L46 62L46 64L47 64L47 65L46 65L46 66L47 66L47 67L49 67L49 68L50 68L50 69L51 69L51 70L52 70L52 71L53 71L53 70L55 70L55 71L54 71L54 72L56 72L56 71L57 71L57 72L58 72L58 71L59 71L59 72L60 72L60 73L59 73L59 74L60 74L60 75L59 75L59 76L61 76L61 75L62 75L62 76L63 76L63 75L62 75L62 74L61 74L61 71L62 71L62 70L61 70L61 71L60 71L60 69L59 69L59 70L58 70L58 69L56 69L56 68L58 68L58 67L56 67L56 68L55 68L55 66L56 66L56 65L55 65L55 66L54 66L54 65L53 65L53 64L52 64L52 63L53 63L53 62L55 62L55 61L53 61L53 62L52 62L52 63L49 63L49 64L50 64L50 65L52 65L52 66L49 66L49 65L48 65L48 63L47 63L47 62L49 62L49 61L50 61L50 62L51 62L51 61L52 61L52 60L53 60L53 59L54 59L54 60L56 60L56 61L57 61L57 62L56 62L56 63L54 63L54 64L56 64L56 63L57 63L57 62L58 62L58 63L59 63L59 64L58 64L58 65L57 65L57 66L58 66L58 65L59 65L59 64L60 64L60 65L62 65L62 64L63 64L63 65L64 65L64 64L63 64L63 63L66 63L66 62L67 62L67 64L66 64L66 65L67 65L67 64L68 64L68 65L69 65L69 66L70 66L70 67L71 67L71 66L72 66L72 67L73 67L73 68L74 68L74 66L75 66L75 67L76 67L76 66L75 66L75 65L74 65L74 63L73 63L73 62L75 62L75 61L72 61L72 59L70 59L70 61L71 61L71 62L69 62L69 61L67 61L67 60L66 60L66 62L63 62L63 61L65 61L65 60L63 60L63 59L64 59L64 58L65 58L65 59L66 59L66 58L65 58L65 57L64 57L64 56L65 56L65 55L66 55L66 54L67 54L67 53L66 53L66 52L65 52L65 51L66 51L66 50L64 50L64 48L65 48L65 47L66 47L66 49L67 49L67 48L68 48L68 47L69 47L69 50L71 50L71 49L70 49L70 47L69 47L69 46L68 46L68 45L67 45L67 46L68 46L68 47L66 47L66 46L65 46L65 47L64 47L64 48L63 48L63 49L62 49L62 50L61 50L61 51L59 51L59 50L60 50L60 49L59 49L59 48L61 48L61 47L62 47L62 46L61 46L61 45L60 45L60 46L61 46L61 47L59 47L59 46L58 46L58 45L59 45L59 44L60 44L60 43L59 43L59 41L58 41L58 40L63 40L63 41L65 41L65 40L66 40L66 41L67 41L67 42L70 42L70 43L71 43L71 41L70 41L70 40L69 40L69 41L67 41L67 40L68 40L68 39L67 39L67 38L65 38L65 39L64 39L64 36L65 36L65 35L66 35L66 36L67 36L67 35L69 35L69 36L68 36L68 37L69 37L69 38L70 38L70 39L71 39L71 37L70 37L70 35L69 35L69 34L67 34L67 33L66 33L66 34L61 34L61 31L63 31L63 30L61 30L61 31L58 31L58 30L59 30L59 29L58 29L58 28L60 28L60 29L62 29L62 28L60 28L60 27L62 27L62 26L63 26L63 25L64 25L64 26L65 26L65 29L64 29L64 28L63 28L63 29L64 29L64 30L68 30L68 29L66 29L66 27L67 27L67 28L68 28L68 27L69 27L69 28L71 28L71 25L69 25L69 24L68 24L68 23L66 23L66 22L63 22L63 21L64 21L64 20L63 20L63 17L64 17L64 16L63 16L63 17L62 17L62 18L61 18L61 16L60 16L60 18L61 18L61 19L62 19L62 20L61 20L61 21L58 21L58 20L60 20L60 19L58 19L58 20L57 20L57 22L59 22L59 24L60 24L60 27L56 27L56 26L58 26L58 24L57 24L57 25L56 25L56 26L55 26L55 25L54 25L54 24L56 24L56 23L54 23L54 22L56 22L56 21L55 21L55 20L56 20L56 19L57 19L57 18L58 18L58 17L57 17L57 18L50 18L50 19L49 19L49 21L48 21L48 20L47 20L47 21L48 21L48 23L47 23L47 22L45 22L45 23L47 23L47 24L43 24L43 25L41 25L41 23L40 23L40 22L42 22L42 23L44 23L44 20L45 20L45 21L46 21L46 20L45 20L45 19L42 19L42 20L43 20L43 22L42 22L42 21L40 21L40 20L39 20L39 21L38 21L38 18L39 18L39 17L41 17L41 16L39 16L39 17L37 17L37 19L35 19L35 18L34 18L34 17L32 17L32 16ZM6 17L6 18L8 18L8 17ZM24 17L24 18L23 18L23 20L24 20L24 19L26 19L26 18L25 18L25 17ZM69 17L69 18L70 18L70 17ZM33 18L33 19L32 19L32 20L31 20L31 21L30 21L30 22L31 22L31 21L32 21L32 20L33 20L33 19L34 19L34 18ZM40 18L40 19L41 19L41 18ZM77 18L77 19L78 19L78 18ZM4 19L4 21L5 21L5 19ZM13 19L13 20L14 20L14 21L13 21L13 22L12 22L12 23L11 23L11 24L10 24L10 23L9 23L9 24L10 24L10 26L11 26L11 27L12 27L12 26L14 26L14 25L15 25L15 28L16 28L16 29L17 29L17 28L16 28L16 24L17 24L17 23L16 23L16 20L15 20L15 19ZM50 19L50 20L51 20L51 23L52 23L52 24L53 24L53 23L52 23L52 21L53 21L53 22L54 22L54 19ZM71 19L71 20L72 20L72 19ZM6 20L6 21L8 21L8 20ZM26 20L26 21L27 21L27 20ZM35 20L35 21L36 21L36 20ZM62 20L62 21L61 21L61 22L60 22L60 23L61 23L61 22L62 22L62 21L63 21L63 20ZM1 21L1 23L2 23L2 21ZM14 21L14 22L13 22L13 23L12 23L12 24L11 24L11 26L12 26L12 25L14 25L14 24L13 24L13 23L15 23L15 21ZM39 21L39 22L38 22L38 23L37 23L37 24L38 24L38 23L39 23L39 25L40 25L40 26L39 26L39 27L41 27L41 25L40 25L40 23L39 23L39 22L40 22L40 21ZM48 23L48 24L47 24L47 25L48 25L48 24L49 24L49 23ZM62 23L62 24L61 24L61 26L62 26L62 25L63 25L63 24L64 24L64 25L65 25L65 26L67 26L67 27L68 27L68 24L64 24L64 23ZM76 23L76 24L77 24L77 23ZM80 23L80 24L81 24L81 23ZM30 24L30 25L31 25L31 24ZM5 25L5 28L8 28L8 25ZM25 25L25 28L28 28L28 25ZM44 25L44 27L46 27L46 28L47 28L47 32L46 32L46 31L45 31L45 32L44 32L44 34L43 34L43 33L42 33L42 31L43 31L43 30L45 30L45 28L43 28L43 30L40 30L40 31L41 31L41 33L42 33L42 34L41 34L41 35L42 35L42 37L41 37L41 36L40 36L40 37L41 37L41 38L42 38L42 37L43 37L43 38L46 38L46 36L47 36L47 37L49 37L49 36L50 36L50 35L49 35L49 36L47 36L47 35L46 35L46 36L45 36L45 35L44 35L44 34L46 34L46 33L48 33L48 34L51 34L51 35L52 35L52 36L51 36L51 38L54 38L54 37L53 37L53 36L54 36L54 35L53 35L53 34L55 34L55 35L56 35L56 34L57 34L57 35L59 35L59 36L57 36L57 37L58 37L58 38L56 38L56 36L55 36L55 39L59 39L59 36L61 36L61 37L60 37L60 39L61 39L61 38L63 38L63 36L64 36L64 35L60 35L60 34L59 34L59 33L60 33L60 32L59 32L59 33L58 33L58 32L54 32L54 31L55 31L55 30L57 30L57 29L56 29L56 28L55 28L55 26L54 26L54 25L53 25L53 26L54 26L54 27L53 27L53 28L55 28L55 30L54 30L54 29L52 29L52 30L54 30L54 31L49 31L49 30L51 30L51 29L49 29L49 30L48 30L48 27L46 27L46 25ZM49 25L49 28L52 28L52 25ZM73 25L73 28L76 28L76 25ZM80 25L80 26L81 26L81 25ZM6 26L6 27L7 27L7 26ZM26 26L26 27L27 27L27 26ZM42 26L42 27L43 27L43 26ZM50 26L50 27L51 27L51 26ZM69 26L69 27L70 27L70 26ZM74 26L74 27L75 27L75 26ZM13 28L13 29L14 29L14 28ZM40 28L40 29L42 29L42 28ZM74 29L74 32L75 32L75 33L77 33L77 35L78 35L78 33L79 33L79 34L80 34L80 33L79 33L79 32L75 32L75 29ZM27 30L27 31L29 31L29 30ZM45 32L45 33L46 33L46 32ZM48 32L48 33L50 33L50 32ZM51 32L51 34L52 34L52 32ZM63 32L63 33L64 33L64 32ZM27 33L27 34L26 34L26 37L27 37L27 36L28 36L28 38L29 38L29 41L30 41L30 42L31 42L31 41L30 41L30 39L32 39L32 38L29 38L29 37L31 37L31 36L29 36L29 35L28 35L28 33ZM32 33L32 34L31 34L31 35L32 35L32 34L33 34L33 33ZM57 33L57 34L58 34L58 33ZM19 34L19 35L18 35L18 36L17 36L17 37L12 37L12 38L13 38L13 39L12 39L12 40L11 40L11 41L12 41L12 42L9 42L9 43L8 43L8 42L7 42L7 43L6 43L6 44L7 44L7 45L5 45L5 46L7 46L7 45L9 45L9 43L11 43L11 44L10 44L10 45L13 45L13 47L12 47L12 48L13 48L13 49L14 49L14 51L13 51L13 52L14 52L14 51L15 51L15 49L14 49L14 48L13 48L13 47L15 47L15 48L16 48L16 47L18 47L18 48L17 48L17 49L16 49L16 50L17 50L17 51L16 51L16 52L20 52L20 53L22 53L22 55L27 55L27 54L24 54L24 51L23 51L23 50L22 50L22 51L21 51L21 50L20 50L20 49L22 49L22 48L23 48L23 49L24 49L24 48L26 48L26 47L24 47L24 46L25 46L25 45L24 45L24 43L25 43L25 44L26 44L26 45L28 45L28 46L27 46L27 48L28 48L28 47L29 47L29 45L30 45L30 47L31 47L31 48L32 48L32 49L31 49L31 50L30 50L30 51L29 51L29 52L31 52L31 51L32 51L32 50L33 50L33 48L34 48L34 49L35 49L35 50L34 50L34 51L33 51L33 52L32 52L32 53L30 53L30 54L29 54L29 55L28 55L28 56L29 56L29 55L30 55L30 56L31 56L31 55L32 55L32 56L33 56L33 55L35 55L35 54L34 54L34 53L36 53L36 57L35 57L35 56L34 56L34 58L36 58L36 59L37 59L37 61L36 61L36 60L35 60L35 59L34 59L34 62L35 62L35 63L36 63L36 64L34 64L34 65L36 65L36 68L35 68L35 67L34 67L34 69L36 69L36 68L37 68L37 67L39 67L39 66L37 66L37 64L38 64L38 65L39 65L39 64L38 64L38 63L37 63L37 62L38 62L38 61L39 61L39 60L40 60L40 59L38 59L38 57L39 57L39 56L40 56L40 55L41 55L41 53L42 53L42 50L43 50L43 49L44 49L44 50L46 50L46 52L45 52L45 51L43 51L43 53L44 53L44 52L45 52L45 53L47 53L47 55L46 55L46 54L45 54L45 55L46 55L46 57L47 57L47 56L48 56L48 57L49 57L49 59L50 59L50 60L51 60L51 59L50 59L50 56L49 56L49 55L48 55L48 52L47 52L47 51L48 51L48 50L47 50L47 48L48 48L48 46L50 46L50 45L46 45L46 44L48 44L48 43L50 43L50 44L51 44L51 43L50 43L50 42L52 42L52 41L53 41L53 42L54 42L54 41L53 41L53 40L54 40L54 39L53 39L53 40L52 40L52 39L51 39L51 40L50 40L50 39L49 39L49 38L48 38L48 39L47 39L47 40L48 40L48 41L47 41L47 43L46 43L46 44L45 44L45 45L46 45L46 46L47 46L47 48L45 48L45 46L44 46L44 45L42 45L42 44L43 44L43 43L45 43L45 42L44 42L44 41L46 41L46 39L45 39L45 40L43 40L43 39L42 39L42 40L43 40L43 43L42 43L42 42L41 42L41 40L40 40L40 41L39 41L39 43L37 43L37 42L36 42L36 43L37 43L37 44L39 44L39 46L38 46L38 45L36 45L36 44L35 44L35 39L34 39L34 41L33 41L33 40L32 40L32 42L33 42L33 43L34 43L34 44L32 44L32 43L31 43L31 45L30 45L30 43L29 43L29 44L27 44L27 42L28 42L28 41L27 41L27 42L26 42L26 40L27 40L27 39L26 39L26 38L23 38L23 39L24 39L24 41L23 41L23 42L21 42L21 41L20 41L20 38L21 38L21 35L20 35L20 34ZM19 35L19 36L20 36L20 35ZM24 35L24 36L23 36L23 37L24 37L24 36L25 36L25 35ZM71 35L71 36L74 36L74 35ZM5 36L5 37L7 37L7 36ZM76 36L76 37L77 37L77 36ZM18 37L18 38L19 38L19 37ZM14 38L14 39L15 39L15 40L13 40L13 42L14 42L14 43L13 43L13 45L16 45L16 46L18 46L18 47L21 47L21 48L22 48L22 45L23 45L23 44L22 44L22 45L21 45L21 46L19 46L19 45L18 45L18 44L19 44L19 43L20 43L20 44L21 44L21 42L20 42L20 41L19 41L19 39L17 39L17 38L16 38L16 39L15 39L15 38ZM16 39L16 40L15 40L15 41L14 41L14 42L16 42L16 45L17 45L17 39ZM25 39L25 40L26 40L26 39ZM63 39L63 40L64 40L64 39ZM66 39L66 40L67 40L67 39ZM51 40L51 41L52 41L52 40ZM55 40L55 43L52 43L52 44L54 44L54 45L53 45L53 46L51 46L51 47L53 47L53 46L55 46L55 47L54 47L54 49L55 49L55 50L53 50L53 51L55 51L55 50L57 50L57 52L58 52L58 53L60 53L60 52L59 52L59 51L58 51L58 50L57 50L57 49L56 49L56 48L55 48L55 47L57 47L57 48L59 48L59 47L58 47L58 46L56 46L56 45L57 45L57 43L58 43L58 44L59 44L59 43L58 43L58 42L57 42L57 40ZM18 41L18 43L19 43L19 41ZM25 42L25 43L26 43L26 42ZM7 43L7 44L8 44L8 43ZM40 43L40 44L42 44L42 43ZM55 43L55 44L56 44L56 43ZM34 44L34 45L33 45L33 46L32 46L32 45L31 45L31 46L32 46L32 48L33 48L33 47L34 47L34 48L35 48L35 49L37 49L37 50L38 50L38 51L35 51L35 52L36 52L36 53L37 53L37 54L38 54L38 55L40 55L40 54L39 54L39 53L40 53L40 52L41 52L41 50L42 50L42 49L43 49L43 48L42 48L42 47L44 47L44 46L42 46L42 45L40 45L40 46L39 46L39 48L40 48L40 49L39 49L39 50L38 50L38 49L37 49L37 48L35 48L35 47L34 47L34 46L36 46L36 47L38 47L38 46L36 46L36 45L35 45L35 44ZM74 44L74 45L75 45L75 44ZM41 46L41 47L40 47L40 48L41 48L41 49L42 49L42 48L41 48L41 47L42 47L42 46ZM49 47L49 48L50 48L50 47ZM18 48L18 50L19 50L19 48ZM29 48L29 49L30 49L30 48ZM3 49L3 50L2 50L2 52L4 52L4 51L3 51L3 50L4 50L4 49ZM5 49L5 52L8 52L8 49ZM25 49L25 52L28 52L28 49ZM49 49L49 52L52 52L52 49ZM73 49L73 52L76 52L76 49ZM6 50L6 51L7 51L7 50ZM26 50L26 51L27 51L27 50ZM50 50L50 51L51 51L51 50ZM62 50L62 51L61 51L61 52L62 52L62 53L61 53L61 54L62 54L62 53L63 53L63 52L62 52L62 51L63 51L63 50ZM74 50L74 51L75 51L75 50ZM20 51L20 52L21 52L21 51ZM38 51L38 53L39 53L39 51ZM67 51L67 52L69 52L69 51ZM22 52L22 53L23 53L23 52ZM33 52L33 53L32 53L32 54L33 54L33 53L34 53L34 52ZM53 52L53 53L54 53L54 52ZM55 52L55 54L57 54L57 53L56 53L56 52ZM78 52L78 53L79 53L79 52ZM49 53L49 54L50 54L50 53ZM64 53L64 55L61 55L61 56L57 56L57 55L56 55L56 56L55 56L55 57L54 57L54 55L53 55L53 54L52 54L52 55L51 55L51 57L52 57L52 58L53 58L53 57L54 57L54 59L56 59L56 60L57 60L57 61L58 61L58 62L59 62L59 63L60 63L60 64L62 64L62 63L63 63L63 62L62 62L62 61L63 61L63 60L62 60L62 59L63 59L63 56L64 56L64 55L65 55L65 54L66 54L66 53ZM59 54L59 55L60 55L60 54ZM69 54L69 55L70 55L70 54ZM5 55L5 57L7 57L7 56L6 56L6 55ZM16 55L16 56L17 56L17 55ZM52 55L52 56L53 56L53 55ZM10 56L10 57L11 57L11 59L12 59L12 57L11 57L11 56ZM19 56L19 57L20 57L20 56ZM26 56L26 57L27 57L27 58L28 58L28 57L27 57L27 56ZM37 56L37 57L38 57L38 56ZM56 56L56 57L55 57L55 58L56 58L56 57L57 57L57 60L60 60L60 59L59 59L59 58L58 58L58 57L57 57L57 56ZM60 57L60 58L61 58L61 59L62 59L62 58L61 58L61 57ZM16 58L16 59L17 59L17 58ZM19 58L19 60L20 60L20 58ZM24 58L24 59L23 59L23 60L24 60L24 59L25 59L25 60L27 60L27 59L25 59L25 58ZM8 59L8 62L7 62L7 63L8 63L8 64L11 64L11 63L10 63L10 60L9 60L9 59ZM32 59L32 61L33 61L33 59ZM0 61L0 62L1 62L1 63L0 63L0 66L2 66L2 67L1 67L1 68L0 68L0 70L1 70L1 73L4 73L4 72L2 72L2 71L4 71L4 70L3 70L3 69L4 69L4 65L5 65L5 63L4 63L4 62L3 62L3 61ZM35 61L35 62L36 62L36 61ZM59 61L59 62L60 62L60 63L61 63L61 61ZM2 62L2 64L3 64L3 65L4 65L4 63L3 63L3 62ZM30 62L30 65L31 65L31 64L32 64L32 63L33 63L33 62ZM68 62L68 64L69 64L69 62ZM71 62L71 63L70 63L70 64L71 64L71 65L72 65L72 64L71 64L71 63L72 63L72 62ZM77 62L77 63L78 63L78 62ZM32 65L32 66L33 66L33 65ZM47 65L47 66L48 66L48 65ZM73 65L73 66L74 66L74 65ZM15 66L15 67L14 67L14 68L15 68L15 70L16 70L16 69L17 69L17 72L18 72L18 69L17 69L17 68L15 68L15 67L16 67L16 66ZM30 66L30 67L31 67L31 66ZM43 66L43 67L44 67L44 66ZM52 67L52 68L53 68L53 69L55 69L55 68L53 68L53 67ZM59 67L59 68L60 68L60 67ZM64 67L64 68L65 68L65 69L64 69L64 70L66 70L66 71L70 71L70 72L71 72L71 71L72 71L72 70L71 70L71 71L70 71L70 70L69 70L69 69L68 69L68 68L67 68L67 67ZM1 68L1 70L2 70L2 68ZM5 68L5 69L9 69L9 68ZM29 68L29 69L30 69L30 68ZM44 68L44 69L45 69L45 70L47 70L47 71L48 71L48 70L49 70L49 69L48 69L48 68L47 68L47 69L46 69L46 68ZM66 68L66 69L67 69L67 68ZM13 69L13 70L14 70L14 69ZM40 69L40 70L41 70L41 69ZM74 69L74 70L75 70L75 69ZM57 70L57 71L58 71L58 70ZM6 71L6 72L7 72L7 71ZM35 71L35 72L36 72L36 71ZM43 72L43 73L44 73L44 74L46 74L46 73L44 73L44 72ZM22 73L22 75L20 75L20 77L21 77L21 79L22 79L22 77L23 77L23 76L24 76L24 74L23 74L23 73ZM25 73L25 76L28 76L28 73ZM31 73L31 74L32 74L32 73ZM37 73L37 74L38 74L38 73ZM49 73L49 76L52 76L52 73ZM57 73L57 74L58 74L58 73ZM73 73L73 76L76 76L76 73ZM26 74L26 75L27 75L27 74ZM39 74L39 75L40 75L40 76L39 76L39 77L38 77L38 78L41 78L41 77L42 77L42 76L41 76L41 75L40 75L40 74ZM50 74L50 75L51 75L51 74ZM74 74L74 75L75 75L75 74ZM22 75L22 76L23 76L23 75ZM45 75L45 76L47 76L47 77L48 77L48 76L47 76L47 75ZM57 75L57 78L56 78L56 79L57 79L57 78L58 78L58 75ZM71 75L71 77L70 77L70 78L69 78L69 79L70 79L70 78L71 78L71 79L72 79L72 78L73 78L73 77L72 77L72 75ZM14 76L14 77L13 77L13 78L14 78L14 79L15 79L15 78L17 78L17 77L15 77L15 76ZM29 76L29 77L30 77L30 76ZM33 76L33 78L35 78L35 77L34 77L34 76ZM14 77L14 78L15 78L15 77ZM18 77L18 78L19 78L19 79L20 79L20 78L19 78L19 77ZM71 77L71 78L72 78L72 77ZM9 78L9 79L10 79L10 78ZM32 79L32 80L34 80L34 79ZM50 79L50 80L51 80L51 79ZM78 79L78 80L79 80L79 81L80 81L80 80L79 80L79 79ZM74 80L74 81L76 81L76 80ZM0 0L0 7L7 7L7 0ZM1 1L1 6L6 6L6 1ZM2 2L2 5L5 5L5 2ZM74 0L74 7L81 7L81 0ZM75 1L75 6L80 6L80 1ZM76 2L76 5L79 5L79 2ZM0 74L0 81L7 81L7 74ZM1 75L1 80L6 80L6 75ZM2 76L2 79L5 79L5 76Z" fill="#000000"/></g></g></svg>
