<?xml version="1.0" encoding="UTF-8"?>
<svg xmlns="http://www.w3.org/2000/svg" version="1.1" width="200" height="200" viewBox="0 0 200 200"><rect x="0" y="0" width="200" height="200" fill="#ffffff"/><g transform="scale(2.899)"><g transform="translate(0,0)"><path fill-rule="evenodd" d="M8 0L8 3L9 3L9 2L10 2L10 1L12 1L12 0L10 0L10 1L9 1L9 0ZM14 0L14 2L13 2L13 3L10 3L10 4L9 4L9 5L8 5L8 9L9 9L9 10L8 10L8 11L7 11L7 10L5 10L5 12L4 12L4 11L3 11L3 9L5 9L5 8L2 8L2 11L3 11L3 12L1 12L1 11L0 11L0 12L1 12L1 13L0 13L0 14L3 14L3 16L2 16L2 15L0 15L0 18L1 18L1 17L3 17L3 19L4 19L4 20L2 20L2 19L0 19L0 21L1 21L1 22L2 22L2 23L0 23L0 24L2 24L2 25L0 25L0 26L2 26L2 27L3 27L3 28L0 28L0 29L1 29L1 30L0 30L0 31L2 31L2 32L1 32L1 33L3 33L3 34L1 34L1 36L2 36L2 37L0 37L0 39L1 39L1 38L2 38L2 39L3 39L3 40L1 40L1 41L2 41L2 43L4 43L4 44L5 44L5 46L6 46L6 47L4 47L4 46L3 46L3 47L2 47L2 46L1 46L1 45L0 45L0 50L2 50L2 54L1 54L1 51L0 51L0 54L1 54L1 55L5 55L5 54L4 54L4 53L3 53L3 52L4 52L4 50L5 50L5 49L7 49L7 50L6 50L6 51L8 51L8 53L9 53L9 54L8 54L8 55L7 55L7 54L6 54L6 55L7 55L7 56L6 56L6 57L7 57L7 56L8 56L8 55L9 55L9 56L10 56L10 54L11 54L11 53L12 53L12 54L15 54L15 55L11 55L11 56L13 56L13 57L11 57L11 59L12 59L12 58L13 58L13 60L12 60L12 61L13 61L13 60L14 60L14 63L12 63L12 62L10 62L10 61L11 61L11 60L10 60L10 59L9 59L9 60L8 60L8 58L10 58L10 57L8 57L8 58L4 58L4 57L5 57L5 56L2 56L2 57L1 57L1 58L0 58L0 61L1 61L1 58L2 58L2 59L3 59L3 58L4 58L4 59L7 59L7 60L6 60L6 61L7 61L7 60L8 60L8 62L10 62L10 63L12 63L12 65L11 65L11 66L10 66L10 67L11 67L11 66L12 66L12 65L15 65L15 63L16 63L16 64L17 64L17 65L16 65L16 66L15 66L15 67L14 67L14 66L13 66L13 67L12 67L12 68L9 68L9 69L13 69L13 68L14 68L14 69L15 69L15 67L16 67L16 69L18 69L18 68L19 68L19 69L20 69L20 68L22 68L22 67L20 67L20 65L22 65L22 66L24 66L24 67L23 67L23 68L24 68L24 69L28 69L28 67L29 67L29 68L30 68L30 67L29 67L29 66L28 66L28 64L32 64L32 66L33 66L33 65L34 65L34 67L31 67L31 69L32 69L32 68L35 68L35 67L36 67L36 68L37 68L37 66L38 66L38 65L39 65L39 67L40 67L40 68L38 68L38 69L41 69L41 67L40 67L40 65L39 65L39 63L40 63L40 64L41 64L41 62L42 62L42 61L37 61L37 60L38 60L38 59L37 59L37 58L38 58L38 57L36 57L36 58L34 58L34 57L35 57L35 56L34 56L34 55L33 55L33 53L32 53L32 54L31 54L31 52L32 52L32 51L33 51L33 52L34 52L34 53L35 53L35 51L36 51L36 52L37 52L37 54L38 54L38 53L39 53L39 54L40 54L40 55L37 55L37 56L39 56L39 58L40 58L40 59L39 59L39 60L43 60L43 64L42 64L42 65L41 65L41 66L42 66L42 68L43 68L43 69L47 69L47 68L48 68L48 69L49 69L49 68L48 68L48 67L49 67L49 66L50 66L50 67L51 67L51 68L50 68L50 69L52 69L52 68L53 68L53 69L56 69L56 68L57 68L57 69L59 69L59 68L57 68L57 67L61 67L61 68L60 68L60 69L66 69L66 68L67 68L67 69L68 69L68 68L67 68L67 65L66 65L66 64L67 64L67 63L68 63L68 64L69 64L69 63L68 63L68 62L69 62L69 61L68 61L68 60L67 60L67 58L69 58L69 57L68 57L68 56L67 56L67 54L69 54L69 53L66 53L66 52L69 52L69 51L68 51L68 50L69 50L69 47L68 47L68 46L69 46L69 43L68 43L68 46L67 46L67 45L65 45L65 44L67 44L67 43L66 43L66 42L67 42L67 41L68 41L68 42L69 42L69 41L68 41L68 38L69 38L69 37L68 37L68 36L67 36L67 35L68 35L68 34L69 34L69 31L68 31L68 30L69 30L69 29L68 29L68 30L67 30L67 29L66 29L66 30L67 30L67 31L66 31L66 32L65 32L65 29L64 29L64 30L63 30L63 31L62 31L62 30L61 30L61 31L62 31L62 32L60 32L60 31L59 31L59 30L60 30L60 29L62 29L62 28L61 28L61 27L63 27L63 26L64 26L64 25L63 25L63 26L61 26L61 25L62 25L62 23L63 23L63 24L67 24L67 22L69 22L69 20L68 20L68 17L66 17L66 18L65 18L65 17L64 17L64 18L62 18L62 17L63 17L63 16L61 16L61 15L63 15L63 14L61 14L61 13L59 13L59 14L58 14L58 15L56 15L56 14L57 14L57 13L54 13L54 14L53 14L53 15L52 15L52 14L50 14L50 13L51 13L51 12L50 12L50 13L49 13L49 12L48 12L48 10L49 10L49 11L51 11L51 10L52 10L52 12L53 12L53 10L52 10L52 8L54 8L54 10L55 10L55 9L56 9L56 10L57 10L57 9L56 9L56 8L58 8L58 9L59 9L59 8L58 8L58 7L59 7L59 4L58 4L58 7L57 7L57 5L56 5L56 3L59 3L59 2L54 2L54 3L53 3L53 0L51 0L51 1L50 1L50 0L48 0L48 1L50 1L50 2L52 2L52 3L50 3L50 4L51 4L51 5L49 5L49 3L48 3L48 2L47 2L47 1L46 1L46 0L45 0L45 1L41 1L41 2L40 2L40 0L38 0L38 1L39 1L39 2L40 2L40 3L41 3L41 2L43 2L43 4L42 4L42 7L41 7L41 4L39 4L39 3L38 3L38 2L35 2L35 3L37 3L37 4L34 4L34 3L33 3L33 2L34 2L34 1L37 1L37 0L33 0L33 1L32 1L32 3L31 3L31 2L30 2L30 1L31 1L31 0L30 0L30 1L29 1L29 2L28 2L28 3L31 3L31 4L32 4L32 7L31 7L31 5L30 5L30 4L28 4L28 5L27 5L27 6L26 6L26 4L27 4L27 2L25 2L25 1L26 1L26 0L25 0L25 1L24 1L24 0L22 0L22 2L23 2L23 3L22 3L22 4L21 4L21 1L19 1L19 0L18 0L18 1L17 1L17 0L16 0L16 1L17 1L17 2L19 2L19 3L16 3L16 2L15 2L15 0ZM27 0L27 1L28 1L28 0ZM54 0L54 1L61 1L61 0ZM45 1L45 2L44 2L44 4L43 4L43 7L42 7L42 8L41 8L41 7L40 7L40 5L39 5L39 4L38 4L38 5L39 5L39 7L38 7L38 6L37 6L37 7L38 7L38 8L39 8L39 9L40 9L40 8L41 8L41 11L40 11L40 10L39 10L39 11L40 11L40 13L41 13L41 14L40 14L40 15L39 15L39 14L38 14L38 15L36 15L36 14L37 14L37 13L39 13L39 12L37 12L37 11L36 11L36 10L32 10L32 8L30 8L30 5L28 5L28 6L27 6L27 7L28 7L28 10L27 10L27 9L25 9L25 7L26 7L26 6L25 6L25 5L24 5L24 6L23 6L23 9L25 9L25 10L24 10L24 11L23 11L23 10L22 10L22 9L21 9L21 10L20 10L20 6L21 6L21 7L22 7L22 6L21 6L21 5L20 5L20 4L19 4L19 5L18 5L18 4L17 4L17 5L18 5L18 6L17 6L17 7L16 7L16 4L15 4L15 3L14 3L14 4L10 4L10 5L9 5L9 7L10 7L10 8L9 8L9 9L10 9L10 8L11 8L11 9L12 9L12 6L13 6L13 7L14 7L14 9L13 9L13 11L12 11L12 10L11 10L11 12L9 12L9 13L8 13L8 14L9 14L9 16L10 16L10 17L11 17L11 16L10 16L10 13L11 13L11 14L13 14L13 15L14 15L14 16L13 16L13 18L14 18L14 16L16 16L16 17L15 17L15 18L16 18L16 20L15 20L15 21L14 21L14 19L12 19L12 20L10 20L10 21L12 21L12 20L13 20L13 22L15 22L15 23L11 23L11 24L10 24L10 22L9 22L9 20L7 20L7 19L11 19L11 18L9 18L9 17L6 17L6 16L8 16L8 15L6 15L6 16L5 16L5 14L7 14L7 13L6 13L6 12L7 12L7 11L6 11L6 12L5 12L5 14L4 14L4 16L3 16L3 17L4 17L4 16L5 16L5 19L6 19L6 20L7 20L7 21L4 21L4 22L3 22L3 23L2 23L2 24L3 24L3 25L2 25L2 26L4 26L4 27L5 27L5 26L7 26L7 27L6 27L6 28L4 28L4 29L2 29L2 30L3 30L3 33L4 33L4 32L5 32L5 31L4 31L4 30L5 30L5 29L6 29L6 30L7 30L7 31L6 31L6 32L9 32L9 35L10 35L10 36L9 36L9 38L10 38L10 39L9 39L9 40L7 40L7 39L8 39L8 38L7 38L7 37L6 37L6 38L5 38L5 39L4 39L4 40L3 40L3 42L4 42L4 43L6 43L6 44L7 44L7 45L6 45L6 46L7 46L7 45L8 45L8 46L11 46L11 44L12 44L12 43L11 43L11 42L10 42L10 41L11 41L11 40L12 40L12 38L14 38L14 39L13 39L13 41L12 41L12 42L13 42L13 43L15 43L15 44L13 44L13 45L12 45L12 47L11 47L11 48L10 48L10 47L8 47L8 48L9 48L9 49L10 49L10 51L9 51L9 50L8 50L8 51L9 51L9 53L11 53L11 52L12 52L12 51L11 51L11 50L12 50L12 49L11 49L11 48L14 48L14 50L13 50L13 51L16 51L16 50L17 50L17 51L18 51L18 52L13 52L13 53L15 53L15 54L16 54L16 53L17 53L17 54L19 54L19 55L15 55L15 56L14 56L14 60L15 60L15 62L17 62L17 64L20 64L20 63L22 63L22 65L23 65L23 63L22 63L22 62L25 62L25 61L24 61L24 60L27 60L27 59L29 59L29 58L30 58L30 60L29 60L29 61L31 61L31 62L28 62L28 61L27 61L27 62L28 62L28 63L24 63L24 64L26 64L26 65L27 65L27 64L28 64L28 63L31 63L31 62L32 62L32 60L35 60L35 59L34 59L34 58L33 58L33 56L31 56L31 57L30 57L30 56L29 56L29 54L28 54L28 53L29 53L29 52L30 52L30 50L31 50L31 49L30 49L30 48L31 48L31 47L30 47L30 46L28 46L28 45L29 45L29 44L28 44L28 41L30 41L30 42L29 42L29 43L32 43L32 42L33 42L33 40L34 40L34 45L33 45L33 44L30 44L30 45L31 45L31 46L32 46L32 47L33 47L33 48L32 48L32 50L33 50L33 48L34 48L34 50L35 50L35 46L37 46L37 47L36 47L36 49L37 49L37 50L38 50L38 51L39 51L39 50L40 50L40 51L41 51L41 52L42 52L42 50L41 50L41 49L40 49L40 47L41 47L41 48L42 48L42 47L41 47L41 46L43 46L43 45L45 45L45 44L46 44L46 46L45 46L45 47L43 47L43 48L45 48L45 49L47 49L47 50L44 50L44 49L43 49L43 50L44 50L44 52L43 52L43 54L42 54L42 53L41 53L41 56L40 56L40 57L41 57L41 59L43 59L43 60L44 60L44 59L43 59L43 58L42 58L42 57L45 57L45 54L44 54L44 52L46 52L46 54L47 54L47 55L48 55L48 56L47 56L47 57L46 57L46 58L47 58L47 59L46 59L46 60L45 60L45 61L44 61L44 63L46 63L46 68L47 68L47 67L48 67L48 66L47 66L47 65L48 65L48 64L50 64L50 66L51 66L51 65L53 65L53 66L52 66L52 67L53 67L53 68L56 68L56 67L57 67L57 64L58 64L58 66L61 66L61 65L60 65L60 64L58 64L58 62L59 62L59 63L60 63L60 60L59 60L59 59L57 59L57 58L60 58L60 59L61 59L61 60L62 60L62 59L63 59L63 60L64 60L64 59L63 59L63 58L64 58L64 57L67 57L67 56L66 56L66 55L64 55L64 57L63 57L63 56L62 56L62 55L63 55L63 54L65 54L65 53L64 53L64 52L65 52L65 51L64 51L64 52L63 52L63 53L62 53L62 52L61 52L61 55L60 55L60 52L56 52L56 51L55 51L55 50L54 50L54 49L53 49L53 48L55 48L55 49L56 49L56 50L57 50L57 51L58 51L58 50L59 50L59 49L60 49L60 48L59 48L59 47L63 47L63 48L61 48L61 50L60 50L60 51L63 51L63 50L62 50L62 49L64 49L64 50L65 50L65 49L64 49L64 48L65 48L65 45L64 45L64 47L63 47L63 45L62 45L62 46L61 46L61 44L62 44L62 43L63 43L63 44L64 44L64 43L65 43L65 42L66 42L66 41L67 41L67 40L66 40L66 41L63 41L63 40L65 40L65 39L67 39L67 38L66 38L66 37L67 37L67 36L65 36L65 37L64 37L64 39L63 39L63 38L61 38L61 40L59 40L59 41L58 41L58 42L57 42L57 40L56 40L56 43L55 43L55 42L52 42L52 43L50 43L50 44L48 44L48 43L49 43L49 42L51 42L51 41L53 41L53 40L55 40L55 39L58 39L58 38L60 38L60 34L59 34L59 32L58 32L58 30L59 30L59 29L60 29L60 27L61 27L61 26L59 26L59 25L58 25L58 26L59 26L59 27L58 27L58 30L57 30L57 32L55 32L55 34L54 34L54 31L55 31L55 30L56 30L56 29L55 29L55 28L57 28L57 24L60 24L60 25L61 25L61 24L60 24L60 23L57 23L57 22L60 22L60 21L61 21L61 22L64 22L64 21L65 21L65 22L67 22L67 20L64 20L64 19L65 19L65 18L64 18L64 19L62 19L62 18L61 18L61 20L60 20L60 21L59 21L59 19L60 19L60 17L61 17L61 16L60 16L60 17L58 17L58 16L59 16L59 15L60 15L60 14L59 14L59 15L58 15L58 16L54 16L54 15L55 15L55 14L54 14L54 15L53 15L53 16L50 16L50 14L49 14L49 13L47 13L47 11L46 11L46 14L45 14L45 13L44 13L44 12L43 12L43 7L44 7L44 8L45 8L45 7L46 7L46 6L45 6L45 7L44 7L44 4L45 4L45 5L47 5L47 7L48 7L48 3L47 3L47 2L46 2L46 1ZM45 2L45 3L46 3L46 2ZM23 3L23 4L25 4L25 3ZM32 3L32 4L33 4L33 3ZM52 3L52 4L53 4L53 3ZM54 3L54 4L55 4L55 3ZM60 3L60 5L61 5L61 3ZM14 4L14 7L15 7L15 9L16 9L16 7L15 7L15 4ZM10 5L10 7L11 7L11 5ZM33 5L33 8L36 8L36 5ZM52 5L52 6L51 6L51 7L50 7L50 6L49 6L49 10L51 10L51 7L52 7L52 6L53 6L53 7L54 7L54 8L56 8L56 5ZM18 6L18 8L17 8L17 10L16 10L16 11L15 11L15 12L14 12L14 11L13 11L13 12L12 12L12 13L13 13L13 14L14 14L14 15L15 15L15 14L17 14L17 13L18 13L18 14L20 14L20 12L21 12L21 11L22 11L22 10L21 10L21 11L19 11L19 13L18 13L18 12L17 12L17 13L15 13L15 12L16 12L16 11L18 11L18 9L19 9L19 6ZM24 6L24 7L25 7L25 6ZM28 6L28 7L29 7L29 6ZM34 6L34 7L35 7L35 6ZM54 6L54 7L55 7L55 6ZM60 6L60 7L61 7L61 6ZM39 7L39 8L40 8L40 7ZM6 8L6 9L7 9L7 8ZM61 8L61 9L60 9L60 10L61 10L61 11L60 11L60 12L61 12L61 11L62 11L62 12L65 12L65 13L66 13L66 15L67 15L67 14L69 14L69 12L68 12L68 11L67 11L67 10L69 10L69 8L66 8L66 10L64 10L64 11L63 11L63 10L61 10L61 9L64 9L64 8ZM0 9L0 10L1 10L1 9ZM30 9L30 10L28 10L28 12L26 12L26 11L27 11L27 10L25 10L25 12L22 12L22 13L21 13L21 14L23 14L23 13L28 13L28 14L29 14L29 16L30 16L30 18L28 18L28 19L27 19L27 17L26 17L26 16L25 16L25 15L24 15L24 16L22 16L22 15L21 15L21 16L22 16L22 17L19 17L19 16L18 16L18 15L16 15L16 16L17 16L17 17L16 17L16 18L17 18L17 19L18 19L18 18L20 18L20 19L19 19L19 21L21 21L21 23L22 23L22 24L21 24L21 26L20 26L20 25L18 25L18 24L20 24L20 23L19 23L19 22L16 22L16 21L15 21L15 22L16 22L16 23L17 23L17 24L16 24L16 25L15 25L15 24L14 24L14 25L13 25L13 24L12 24L12 25L13 25L13 26L14 26L14 25L15 25L15 26L16 26L16 27L15 27L15 28L14 28L14 29L13 29L13 28L12 28L12 26L10 26L10 24L9 24L9 23L7 23L7 22L8 22L8 21L7 21L7 22L4 22L4 23L3 23L3 24L4 24L4 25L7 25L7 24L9 24L9 25L8 25L8 26L10 26L10 28L9 28L9 27L8 27L8 29L7 29L7 28L6 28L6 29L7 29L7 30L8 30L8 31L10 31L10 30L8 30L8 29L10 29L10 28L12 28L12 29L11 29L11 30L13 30L13 31L12 31L12 32L10 32L10 34L11 34L11 35L12 35L12 34L13 34L13 35L14 35L14 36L16 36L16 34L14 34L14 32L15 32L15 33L16 33L16 32L17 32L17 34L20 34L20 36L19 36L19 35L17 35L17 36L18 36L18 38L16 38L16 37L14 37L14 38L15 38L15 39L14 39L14 42L15 42L15 41L16 41L16 44L17 44L17 43L18 43L18 46L19 46L19 47L20 47L20 48L18 48L18 47L16 47L16 45L15 45L15 47L14 47L14 45L13 45L13 47L14 47L14 48L15 48L15 50L16 50L16 49L17 49L17 48L18 48L18 50L20 50L20 51L19 51L19 52L21 52L21 53L19 53L19 54L20 54L20 55L19 55L19 56L15 56L15 57L17 57L17 58L16 58L16 59L17 59L17 60L16 60L16 61L17 61L17 62L19 62L19 61L20 61L20 60L21 60L21 59L20 59L20 60L19 60L19 61L17 61L17 60L18 60L18 57L19 57L19 58L21 58L21 57L22 57L22 55L23 55L23 54L22 54L22 53L26 53L26 54L25 54L25 55L26 55L26 54L27 54L27 53L26 53L26 52L28 52L28 51L26 51L26 52L24 52L24 49L26 49L26 48L27 48L27 50L28 50L28 48L30 48L30 47L28 47L28 46L26 46L26 45L28 45L28 44L26 44L26 45L25 45L25 44L24 44L24 47L25 47L25 48L24 48L24 49L23 49L23 50L20 50L20 48L21 48L21 47L22 47L22 48L23 48L23 47L22 47L22 46L23 46L23 45L21 45L21 44L22 44L22 43L21 43L21 41L22 41L22 42L24 42L24 41L22 41L22 40L21 40L21 41L19 41L19 42L17 42L17 41L16 41L16 40L15 40L15 39L17 39L17 40L18 40L18 39L19 39L19 40L20 40L20 39L21 39L21 38L23 38L23 39L24 39L24 40L29 40L29 39L30 39L30 38L32 38L32 37L33 37L33 39L35 39L35 40L36 40L36 41L35 41L35 42L36 42L36 43L37 43L37 42L38 42L38 41L39 41L39 43L38 43L38 45L37 45L37 44L36 44L36 45L37 45L37 46L38 46L38 47L39 47L39 46L40 46L40 45L39 45L39 44L40 44L40 41L43 41L43 42L44 42L44 41L45 41L45 42L46 42L46 43L47 43L47 42L46 42L46 41L47 41L47 40L45 40L45 39L46 39L46 38L48 38L48 39L51 39L51 38L52 38L52 40L53 40L53 39L55 39L55 36L57 36L57 35L58 35L58 36L59 36L59 34L57 34L57 35L54 35L54 36L52 36L52 35L51 35L51 34L52 34L52 32L53 32L53 31L51 31L51 32L50 32L50 33L51 33L51 34L49 34L49 32L47 32L47 31L50 31L50 30L49 30L49 29L50 29L50 28L48 28L48 27L49 27L49 25L50 25L50 24L53 24L53 26L52 26L52 27L51 27L51 29L52 29L52 28L55 28L55 27L56 27L56 24L57 24L57 23L56 23L56 24L55 24L55 23L54 23L54 24L53 24L53 23L51 23L51 22L48 22L48 23L47 23L47 24L46 24L46 23L44 23L44 22L46 22L46 21L44 21L44 22L42 22L42 21L43 21L43 19L41 19L41 22L42 22L42 23L41 23L41 25L40 25L40 21L39 21L39 19L38 19L38 17L37 17L37 19L36 19L36 20L35 20L35 19L34 19L34 20L33 20L33 21L31 21L31 20L32 20L32 19L30 19L30 18L31 18L31 17L32 17L32 16L31 16L31 15L32 15L32 14L33 14L33 13L34 13L34 11L33 11L33 13L32 13L32 10L31 10L31 9ZM46 9L46 10L47 10L47 9ZM30 10L30 11L31 11L31 10ZM58 10L58 11L54 11L54 12L59 12L59 10ZM35 11L35 14L34 14L34 15L33 15L33 16L36 16L36 15L35 15L35 14L36 14L36 11ZM65 11L65 12L66 12L66 11ZM13 12L13 13L14 13L14 12ZM29 12L29 14L30 14L30 13L31 13L31 12ZM41 12L41 13L42 13L42 14L41 14L41 15L40 15L40 16L39 16L39 15L38 15L38 16L39 16L39 18L40 18L40 17L41 17L41 18L42 18L42 17L44 17L44 15L45 15L45 16L46 16L46 15L47 15L47 14L46 14L46 15L45 15L45 14L44 14L44 13L43 13L43 12ZM67 12L67 13L68 13L68 12ZM42 14L42 15L41 15L41 16L43 16L43 15L44 15L44 14ZM48 14L48 15L49 15L49 14ZM64 15L64 16L65 16L65 15ZM68 15L68 16L69 16L69 15ZM24 16L24 17L25 17L25 18L26 18L26 17L25 17L25 16ZM47 16L47 17L48 17L48 18L47 18L47 20L48 20L48 21L49 21L49 20L48 20L48 19L49 19L49 17L50 17L50 16ZM34 17L34 18L36 18L36 17ZM45 17L45 18L46 18L46 17ZM54 17L54 18L53 18L53 19L52 19L52 18L50 18L50 19L51 19L51 20L50 20L50 21L51 21L51 20L53 20L53 19L54 19L54 20L58 20L58 19L59 19L59 18L58 18L58 17L57 17L57 19L56 19L56 18L55 18L55 17ZM6 18L6 19L7 19L7 18ZM21 18L21 21L23 21L23 22L24 22L24 21L23 21L23 19L24 19L24 18ZM54 18L54 19L55 19L55 18ZM66 18L66 19L67 19L67 18ZM25 19L25 22L26 22L26 24L24 24L24 27L26 27L26 28L23 28L23 27L22 27L22 26L21 26L21 27L20 27L20 26L19 26L19 27L18 27L18 29L19 29L19 30L16 30L16 31L15 31L15 29L17 29L17 28L15 28L15 29L14 29L14 31L15 31L15 32L16 32L16 31L19 31L19 32L18 32L18 33L19 33L19 32L20 32L20 34L21 34L21 33L22 33L22 34L23 34L23 35L22 35L22 36L23 36L23 35L24 35L24 34L25 34L25 35L26 35L26 36L24 36L24 37L23 37L23 38L24 38L24 37L26 37L26 38L25 38L25 39L27 39L27 37L28 37L28 39L29 39L29 37L28 37L28 36L29 36L29 35L31 35L31 34L32 34L32 33L31 33L31 32L29 32L29 31L33 31L33 30L34 30L34 32L37 32L37 31L38 31L38 33L37 33L37 34L39 34L39 35L40 35L40 36L42 36L42 35L44 35L44 34L42 34L42 33L43 33L43 32L46 32L46 30L48 30L48 28L47 28L47 27L48 27L48 26L47 26L47 25L46 25L46 26L45 26L45 27L44 27L44 28L42 28L42 29L41 29L41 30L42 30L42 33L41 33L41 34L42 34L42 35L40 35L40 33L39 33L39 31L40 31L40 32L41 32L41 31L40 31L40 29L39 29L39 28L41 28L41 27L43 27L43 26L40 26L40 25L39 25L39 21L38 21L38 23L37 23L37 22L36 22L36 27L35 27L35 26L33 26L33 27L35 27L35 28L32 28L32 27L31 27L31 25L32 25L32 24L31 24L31 25L29 25L29 26L28 26L28 28L27 28L27 24L29 24L29 22L30 22L30 23L33 23L33 25L34 25L34 24L35 24L35 23L34 23L34 22L35 22L35 21L34 21L34 22L30 22L30 21L29 21L29 19L28 19L28 21L27 21L27 22L26 22L26 19ZM45 19L45 20L46 20L46 19ZM17 20L17 21L18 21L18 20ZM62 20L62 21L63 21L63 20ZM52 21L52 22L53 22L53 21ZM54 21L54 22L57 22L57 21ZM5 23L5 24L7 24L7 23ZM68 23L68 25L67 25L67 26L65 26L65 27L64 27L64 28L65 28L65 27L66 27L66 28L67 28L67 26L69 26L69 23ZM22 24L22 25L23 25L23 24ZM37 24L37 25L38 25L38 24ZM42 24L42 25L43 25L43 24ZM54 24L54 25L55 25L55 24ZM17 25L17 26L18 26L18 25ZM25 25L25 26L26 26L26 25ZM29 26L29 27L30 27L30 26ZM38 26L38 27L36 27L36 28L35 28L35 29L36 29L36 30L38 30L38 31L39 31L39 30L38 30L38 29L36 29L36 28L38 28L38 27L40 27L40 26ZM46 26L46 27L45 27L45 28L46 28L46 27L47 27L47 26ZM53 26L53 27L55 27L55 26ZM68 27L68 28L69 28L69 27ZM20 28L20 30L21 30L21 32L26 32L26 33L27 33L27 32L28 32L28 31L27 31L27 32L26 32L26 30L28 30L28 29L27 29L27 28L26 28L26 30L25 30L25 31L24 31L24 29L23 29L23 31L22 31L22 30L21 30L21 28ZM30 28L30 29L29 29L29 30L33 30L33 29L31 29L31 28ZM42 29L42 30L44 30L44 31L45 31L45 30L46 30L46 29ZM54 29L54 30L55 30L55 29ZM63 31L63 32L64 32L64 31ZM57 32L57 33L58 33L58 32ZM66 32L66 33L65 33L65 34L66 34L66 33L67 33L67 34L68 34L68 33L67 33L67 32ZM5 33L5 36L8 36L8 33ZM23 33L23 34L24 34L24 33ZM30 33L30 34L31 34L31 33ZM33 33L33 36L36 36L36 33ZM45 33L45 34L46 34L46 35L45 35L45 36L44 36L44 38L43 38L43 37L40 37L40 38L39 38L39 37L38 37L38 35L37 35L37 37L35 37L35 38L36 38L36 39L37 39L37 41L38 41L38 39L37 39L37 38L39 38L39 39L40 39L40 38L42 38L42 39L45 39L45 38L46 38L46 37L45 37L45 36L46 36L46 35L47 35L47 36L49 36L49 35L47 35L47 34L46 34L46 33ZM61 33L61 36L64 36L64 33ZM3 34L3 35L2 35L2 36L3 36L3 35L4 35L4 34ZM6 34L6 35L7 35L7 34ZM26 34L26 35L27 35L27 34ZM34 34L34 35L35 35L35 34ZM62 34L62 35L63 35L63 34ZM11 36L11 37L13 37L13 36ZM20 36L20 37L19 37L19 38L21 38L21 36ZM30 36L30 37L32 37L32 36ZM50 36L50 37L49 37L49 38L51 38L51 37L52 37L52 36ZM2 37L2 38L3 38L3 37ZM53 37L53 38L54 38L54 37ZM57 37L57 38L58 38L58 37ZM6 38L6 39L7 39L7 38ZM10 39L10 40L9 40L9 41L10 41L10 40L11 40L11 39ZM62 39L62 40L61 40L61 42L60 42L60 43L59 43L59 42L58 42L58 43L56 43L56 44L58 44L58 43L59 43L59 44L60 44L60 43L62 43L62 40L63 40L63 39ZM6 40L6 41L7 41L7 40ZM48 40L48 41L49 41L49 40ZM50 40L50 41L51 41L51 40ZM4 41L4 42L5 42L5 41ZM0 42L0 44L1 44L1 42ZM6 42L6 43L7 43L7 44L8 44L8 43L10 43L10 42ZM25 42L25 43L27 43L27 42ZM41 42L41 43L42 43L42 45L43 45L43 44L45 44L45 43L42 43L42 42ZM52 43L52 44L51 44L51 45L52 45L52 44L53 44L53 43ZM54 43L54 44L55 44L55 43ZM2 44L2 45L3 45L3 44ZM9 44L9 45L10 45L10 44ZM19 44L19 45L20 45L20 47L21 47L21 45L20 45L20 44ZM47 44L47 45L48 45L48 44ZM32 45L32 46L33 46L33 45ZM54 45L54 46L52 46L52 47L51 47L51 46L49 46L49 47L48 47L48 46L46 46L46 48L47 48L47 49L48 49L48 48L49 48L49 50L50 50L50 51L51 51L51 52L48 52L48 53L47 53L47 54L49 54L49 53L51 53L51 54L50 54L50 55L51 55L51 56L50 56L50 57L49 57L49 56L48 56L48 57L49 57L49 58L48 58L48 59L49 59L49 58L50 58L50 61L51 61L51 62L50 62L50 63L51 63L51 64L53 64L53 62L55 62L55 61L56 61L56 60L57 60L57 62L58 62L58 61L59 61L59 60L57 60L57 59L53 59L53 58L55 58L55 57L53 57L53 58L50 58L50 57L52 57L52 56L54 56L54 54L56 54L56 56L57 56L57 55L59 55L59 56L60 56L60 57L62 57L62 56L60 56L60 55L59 55L59 54L56 54L56 53L54 53L54 54L52 54L52 52L55 52L55 51L52 51L52 50L50 50L50 48L53 48L53 47L54 47L54 46L55 46L55 45ZM57 45L57 46L58 46L58 45ZM25 46L25 47L26 47L26 46ZM3 47L3 48L1 48L1 49L5 49L5 48L4 48L4 47ZM6 47L6 48L7 48L7 47ZM27 47L27 48L28 48L28 47ZM47 47L47 48L48 48L48 47ZM55 47L55 48L57 48L57 47ZM37 48L37 49L38 49L38 48ZM66 48L66 50L68 50L68 49L67 49L67 48ZM47 50L47 51L46 51L46 52L47 52L47 51L48 51L48 50ZM21 51L21 52L22 52L22 51ZM5 52L5 53L7 53L7 52ZM30 54L30 55L31 55L31 54ZM51 54L51 55L52 55L52 54ZM27 55L27 57L26 57L26 58L25 58L25 56L23 56L23 58L25 58L25 59L26 59L26 58L28 58L28 57L29 57L29 56L28 56L28 55ZM43 55L43 56L44 56L44 55ZM41 56L41 57L42 57L42 56ZM31 57L31 58L32 58L32 57ZM56 57L56 58L57 58L57 57ZM61 58L61 59L62 59L62 58ZM23 59L23 60L22 60L22 61L23 61L23 60L24 60L24 59ZM31 59L31 60L32 60L32 59ZM65 59L65 60L66 60L66 63L67 63L67 62L68 62L68 61L67 61L67 60L66 60L66 59ZM3 60L3 61L5 61L5 60ZM9 60L9 61L10 61L10 60ZM46 60L46 61L45 61L45 62L46 62L46 63L47 63L47 64L48 64L48 63L47 63L47 62L46 62L46 61L49 61L49 60ZM52 60L52 61L54 61L54 60ZM33 61L33 64L36 64L36 61ZM61 61L61 64L64 64L64 61ZM34 62L34 63L35 63L35 62ZM38 62L38 63L39 63L39 62ZM62 62L62 63L63 63L63 62ZM54 63L54 64L57 64L57 63ZM8 64L8 67L9 67L9 64ZM30 65L30 66L31 66L31 65ZM35 65L35 66L37 66L37 65ZM42 65L42 66L43 66L43 67L44 67L44 68L45 68L45 65ZM54 65L54 66L55 66L55 67L56 67L56 66L55 66L55 65ZM62 65L62 68L63 68L63 66L64 66L64 67L65 67L65 68L66 68L66 65L65 65L65 66L64 66L64 65ZM25 66L25 67L24 67L24 68L25 68L25 67L26 67L26 68L27 68L27 67L28 67L28 66L27 66L27 67L26 67L26 66ZM17 67L17 68L18 68L18 67ZM19 67L19 68L20 68L20 67ZM0 0L0 7L7 7L7 0ZM1 1L1 6L6 6L6 1ZM2 2L2 5L5 5L5 2ZM62 0L62 7L69 7L69 0ZM63 1L63 6L68 6L68 1ZM64 2L64 5L67 5L67 2ZM0 62L0 69L7 69L7 62ZM1 63L1 68L6 68L6 63ZM2 64L2 67L5 67L5 64Z" fill="#000000"/></g></g></svg>
