<?xml version="1.0" encoding="UTF-8"?>
<svg xmlns="http://www.w3.org/2000/svg" version="1.1" width="200" height="200" viewBox="0 0 200 200"><rect x="0" y="0" width="200" height="200" fill="#ffffff"/><g transform="scale(4.878)"><g transform="translate(0,0)"><path fill-rule="evenodd" d="M8 0L8 1L10 1L10 0ZM12 0L12 1L13 1L13 3L10 3L10 2L8 2L8 3L9 3L9 4L8 4L8 5L9 5L9 6L8 6L8 8L9 8L9 9L10 9L10 7L11 7L11 9L12 9L12 7L13 7L13 8L14 8L14 9L13 9L13 10L11 10L11 12L12 12L12 13L11 13L11 14L10 14L10 13L8 13L8 14L6 14L6 13L7 13L7 12L8 12L8 11L7 11L7 10L5 10L5 9L7 9L7 8L5 8L5 9L1 9L1 10L0 10L0 12L1 12L1 14L2 14L2 15L0 15L0 16L1 16L1 17L0 17L0 20L2 20L2 21L0 21L0 22L3 22L3 24L2 24L2 25L3 25L3 26L1 26L1 27L0 27L0 33L1 33L1 31L3 31L3 32L2 32L2 33L4 33L4 31L5 31L5 33L7 33L7 32L6 32L6 31L8 31L8 32L9 32L9 33L8 33L8 34L9 34L9 35L8 35L8 36L10 36L10 34L9 34L9 33L10 33L10 32L9 32L9 31L8 31L8 30L9 30L9 29L10 29L10 31L11 31L11 35L12 35L12 33L13 33L13 36L14 36L14 37L13 37L13 38L12 38L12 39L11 39L11 40L9 40L9 41L12 41L12 39L13 39L13 41L16 41L16 40L15 40L15 39L14 39L14 37L15 37L15 36L14 36L14 34L16 34L16 37L17 37L17 36L18 36L18 34L17 34L17 32L18 32L18 31L19 31L19 32L20 32L20 33L19 33L19 35L20 35L20 36L19 36L19 37L18 37L18 38L19 38L19 37L20 37L20 36L22 36L22 37L23 37L23 38L25 38L25 37L26 37L26 39L25 39L25 40L27 40L27 41L31 41L31 40L32 40L32 39L31 39L31 38L28 38L28 37L26 37L26 35L29 35L29 34L28 34L28 33L27 33L27 32L29 32L29 33L31 33L31 34L30 34L30 35L32 35L32 36L29 36L29 37L35 37L35 38L33 38L33 41L34 41L34 40L35 40L35 41L37 41L37 39L38 39L38 40L39 40L39 39L40 39L40 40L41 40L41 39L40 39L40 38L41 38L41 37L40 37L40 36L39 36L39 37L38 37L38 36L37 36L37 34L39 34L39 35L40 35L40 33L41 33L41 32L38 32L38 33L37 33L37 32L36 32L36 31L37 31L37 30L38 30L38 29L39 29L39 31L41 31L41 27L40 27L40 26L41 26L41 25L39 25L39 26L38 26L38 27L37 27L37 25L36 25L36 26L35 26L35 24L36 24L36 23L34 23L34 20L36 20L36 21L35 21L35 22L36 22L36 21L38 21L38 23L37 23L37 24L38 24L38 23L39 23L39 24L41 24L41 23L39 23L39 22L40 22L40 21L39 21L39 20L37 20L37 19L38 19L38 18L37 18L37 17L39 17L39 15L40 15L40 14L41 14L41 12L40 12L40 10L37 10L37 8L36 8L36 9L35 9L35 8L34 8L34 9L35 9L35 11L36 11L36 12L34 12L34 10L33 10L33 9L32 9L32 8L33 8L33 5L32 5L32 4L31 4L31 3L32 3L32 2L31 2L31 1L30 1L30 0L28 0L28 1L30 1L30 2L31 2L31 3L30 3L30 4L31 4L31 5L28 5L28 9L27 9L27 6L26 6L26 4L23 4L23 3L24 3L24 1L25 1L25 3L26 3L26 2L27 2L27 4L28 4L28 2L27 2L27 1L25 1L25 0L24 0L24 1L23 1L23 2L22 2L22 0L19 0L19 1L18 1L18 3L17 3L17 1L16 1L16 0L14 0L14 1L13 1L13 0ZM32 0L32 1L33 1L33 0ZM14 1L14 3L13 3L13 4L14 4L14 3L15 3L15 4L16 4L16 6L15 6L15 5L14 5L14 6L13 6L13 7L14 7L14 8L16 8L16 9L14 9L14 10L13 10L13 12L15 12L15 10L16 10L16 12L17 12L17 13L15 13L15 14L14 14L14 13L13 13L13 14L11 14L11 15L12 15L12 18L11 18L11 17L10 17L10 16L9 16L9 15L6 15L6 16L8 16L8 17L9 17L9 20L8 20L8 19L5 19L5 18L7 18L7 17L5 17L5 14L4 14L4 15L3 15L3 17L4 17L4 18L1 18L1 19L4 19L4 20L5 20L5 22L4 22L4 24L5 24L5 25L4 25L4 26L3 26L3 28L2 28L2 30L3 30L3 31L4 31L4 29L5 29L5 30L7 30L7 29L8 29L8 27L10 27L10 26L11 26L11 27L12 27L12 30L11 30L11 31L12 31L12 32L13 32L13 33L14 33L14 32L17 32L17 31L15 31L15 30L13 30L13 28L14 28L14 29L15 29L15 28L17 28L17 29L16 29L16 30L19 30L19 31L20 31L20 29L18 29L18 28L17 28L17 27L16 27L16 26L17 26L17 25L18 25L18 27L19 27L19 28L20 28L20 27L22 27L22 28L21 28L21 31L22 31L22 33L20 33L20 34L22 34L22 36L24 36L24 35L25 35L25 32L24 32L24 31L26 31L26 32L27 32L27 31L28 31L28 29L29 29L29 30L30 30L30 29L31 29L31 30L32 30L32 31L29 31L29 32L31 32L31 33L32 33L32 32L35 32L35 31L36 31L36 29L37 29L37 27L36 27L36 29L34 29L34 28L35 28L35 27L34 27L34 26L33 26L33 24L34 24L34 23L32 23L32 22L30 22L30 21L33 21L33 20L34 20L34 17L37 17L37 16L38 16L38 14L39 14L39 11L37 11L37 12L36 12L36 13L37 13L37 12L38 12L38 14L35 14L35 13L34 13L34 14L35 14L35 16L33 16L33 14L32 14L32 12L33 12L33 10L30 10L30 9L31 9L31 8L32 8L32 5L31 5L31 8L30 8L30 6L29 6L29 8L30 8L30 9L29 9L29 12L28 12L28 11L26 11L26 10L27 10L27 9L26 9L26 8L24 8L24 6L23 6L23 5L22 5L22 4L21 4L21 5L22 5L22 6L21 6L21 7L20 7L20 2L19 2L19 4L17 4L17 3L16 3L16 2L15 2L15 1ZM21 2L21 3L22 3L22 2ZM9 4L9 5L10 5L10 6L9 6L9 7L10 7L10 6L11 6L11 7L12 7L12 6L11 6L11 5L12 5L12 4ZM14 6L14 7L15 7L15 6ZM16 6L16 7L17 7L17 6ZM18 6L18 9L19 9L19 8L20 8L20 9L22 9L22 7L23 7L23 6L22 6L22 7L21 7L21 8L20 8L20 7L19 7L19 6ZM25 6L25 7L26 7L26 6ZM38 8L38 9L39 9L39 8ZM40 8L40 9L41 9L41 8ZM16 9L16 10L17 10L17 11L18 11L18 12L19 12L19 13L20 13L20 14L21 14L21 16L20 16L20 17L19 17L19 18L18 18L18 20L16 20L16 19L15 19L15 20L16 20L16 21L18 21L18 22L16 22L16 23L17 23L17 24L16 24L16 25L17 25L17 24L18 24L18 23L19 23L19 25L22 25L22 27L23 27L23 28L22 28L22 30L23 30L23 31L24 31L24 30L25 30L25 29L26 29L26 31L27 31L27 29L28 29L28 28L29 28L29 29L30 29L30 28L29 28L29 27L31 27L31 28L32 28L32 29L33 29L33 27L31 27L31 26L32 26L32 24L30 24L30 25L31 25L31 26L29 26L29 24L28 24L28 25L27 25L27 23L28 23L28 22L29 22L29 21L28 21L28 19L29 19L29 20L32 20L32 17L33 17L33 16L32 16L32 14L30 14L30 13L31 13L31 12L32 12L32 11L30 11L30 13L29 13L29 14L25 14L25 13L24 13L24 12L26 12L26 13L28 13L28 12L26 12L26 11L25 11L25 10L26 10L26 9L25 9L25 10L20 10L20 11L19 11L19 10L17 10L17 9ZM1 10L1 12L2 12L2 13L3 13L3 11L4 11L4 12L7 12L7 11L5 11L5 10L3 10L3 11L2 11L2 10ZM22 11L22 12L21 12L21 13L22 13L22 14L24 14L24 13L22 13L22 12L24 12L24 11ZM17 13L17 14L18 14L18 15L17 15L17 17L18 17L18 15L19 15L19 14L18 14L18 13ZM29 14L29 16L31 16L31 15L30 15L30 14ZM13 15L13 17L14 17L14 18L16 18L16 17L14 17L14 15ZM24 15L24 16L25 16L25 17L24 17L24 18L23 18L23 17L22 17L22 16L21 16L21 17L20 17L20 18L19 18L19 19L20 19L20 20L19 20L19 21L20 21L20 22L19 22L19 23L20 23L20 24L22 24L22 25L24 25L24 28L23 28L23 29L24 29L24 28L25 28L25 27L26 27L26 28L27 28L27 27L26 27L26 26L27 26L27 25L26 25L26 26L25 26L25 25L24 25L24 21L25 21L25 24L26 24L26 22L27 22L27 21L25 21L25 20L27 20L27 19L26 19L26 18L27 18L27 17L26 17L26 16L25 16L25 15ZM27 15L27 16L28 16L28 15ZM36 15L36 16L37 16L37 15ZM28 17L28 18L29 18L29 19L31 19L31 17L30 17L30 18L29 18L29 17ZM40 17L40 19L41 19L41 17ZM10 18L10 19L11 19L11 18ZM12 18L12 19L13 19L13 18ZM24 18L24 19L23 19L23 20L22 20L22 19L21 19L21 20L20 20L20 21L21 21L21 20L22 20L22 22L23 22L23 21L24 21L24 20L25 20L25 18ZM35 18L35 19L36 19L36 18ZM6 20L6 21L7 21L7 22L5 22L5 24L6 24L6 25L7 25L7 26L6 26L6 27L5 27L5 28L6 28L6 29L7 29L7 28L6 28L6 27L7 27L7 26L8 26L8 25L10 25L10 24L11 24L11 25L13 25L13 24L15 24L15 23L13 23L13 24L11 24L11 23L12 23L12 21L13 21L13 22L14 22L14 20L11 20L11 23L10 23L10 22L8 22L8 20ZM9 20L9 21L10 21L10 20ZM20 22L20 23L21 23L21 22ZM0 23L0 24L1 24L1 23ZM6 23L6 24L7 24L7 25L8 25L8 24L9 24L9 23ZM12 26L12 27L13 27L13 26ZM14 26L14 27L15 27L15 26ZM19 26L19 27L20 27L20 26ZM28 26L28 27L29 27L29 26ZM3 28L3 29L4 29L4 28ZM34 30L34 31L35 31L35 30ZM23 32L23 34L24 34L24 32ZM33 33L33 36L36 36L36 33ZM34 34L34 35L35 35L35 34ZM11 36L11 37L10 37L10 38L9 38L9 39L10 39L10 38L11 38L11 37L12 37L12 36ZM36 37L36 38L37 38L37 37ZM39 37L39 38L38 38L38 39L39 39L39 38L40 38L40 37ZM16 38L16 39L17 39L17 41L18 41L18 40L19 40L19 39L17 39L17 38ZM21 38L21 39L20 39L20 41L21 41L21 40L24 40L24 39L22 39L22 38ZM27 39L27 40L30 40L30 39ZM0 0L0 7L7 7L7 0ZM1 1L1 6L6 6L6 1ZM2 2L2 5L5 5L5 2ZM34 0L34 7L41 7L41 0ZM35 1L35 6L40 6L40 1ZM36 2L36 5L39 5L39 2ZM0 34L0 41L7 41L7 34ZM1 35L1 40L6 40L6 35ZM2 36L2 39L5 39L5 36Z" fill="#000000"/></g></g></svg>
