<?xml version="1.0" encoding="UTF-8"?>
<svg xmlns="http://www.w3.org/2000/svg" version="1.1" width="200" height="200" viewBox="0 0 200 200"><rect x="0" y="0" width="200" height="200" fill="#ffffff"/><g transform="scale(2.899)"><g transform="translate(0,0)"><path fill-rule="evenodd" d="M9 0L9 1L11 1L11 2L8 2L8 4L9 4L9 5L10 5L10 7L9 7L9 6L8 6L8 7L9 7L9 9L8 9L8 8L6 8L6 9L5 9L5 8L3 8L3 9L0 9L0 10L1 10L1 11L0 11L0 14L1 14L1 15L0 15L0 18L1 18L1 17L2 17L2 21L3 21L3 22L4 22L4 21L5 21L5 23L0 23L0 24L1 24L1 25L0 25L0 26L1 26L1 27L0 27L0 33L2 33L2 32L3 32L3 31L4 31L4 33L3 33L3 34L2 34L2 37L3 37L3 40L1 40L1 37L0 37L0 44L2 44L2 46L1 46L1 45L0 45L0 47L1 47L1 48L0 48L0 50L1 50L1 48L2 48L2 49L3 49L3 50L4 50L4 51L3 51L3 52L2 52L2 51L0 51L0 53L1 53L1 54L0 54L0 56L1 56L1 58L0 58L0 61L1 61L1 58L2 58L2 59L3 59L3 58L2 58L2 57L4 57L4 59L8 59L8 60L6 60L6 61L8 61L8 63L9 63L9 64L8 64L8 66L9 66L9 64L11 64L11 65L12 65L12 64L13 64L13 63L15 63L15 62L16 62L16 63L18 63L18 65L17 65L17 64L15 64L15 65L13 65L13 66L15 66L15 65L17 65L17 66L16 66L16 67L15 67L15 68L14 68L14 67L12 67L12 68L10 68L10 69L12 69L12 68L13 68L13 69L17 69L17 68L19 68L19 69L21 69L21 68L22 68L22 69L24 69L24 68L27 68L27 69L29 69L29 68L27 68L27 67L24 67L24 68L22 68L22 67L23 67L23 66L20 66L20 65L19 65L19 64L21 64L21 65L23 65L23 64L22 64L22 62L23 62L23 63L24 63L24 66L27 66L27 65L28 65L28 66L29 66L29 67L30 67L30 68L31 68L31 69L33 69L33 68L34 68L34 69L36 69L36 68L35 68L35 67L37 67L37 68L38 68L38 69L41 69L41 68L38 68L38 67L37 67L37 66L39 66L39 65L38 65L38 63L40 63L40 62L38 62L38 63L37 63L37 61L40 61L40 60L39 60L39 58L38 58L38 60L37 60L37 59L36 59L36 56L35 56L35 54L36 54L36 55L37 55L37 57L40 57L40 58L41 58L41 59L42 59L42 60L41 60L41 62L42 62L42 60L45 60L45 58L46 58L46 60L48 60L48 61L47 61L47 62L48 62L48 63L47 63L47 64L44 64L44 65L45 65L45 66L46 66L46 65L47 65L47 68L48 68L48 69L50 69L50 68L51 68L51 69L55 69L55 68L56 68L56 67L57 67L57 69L58 69L58 66L60 66L60 67L61 67L61 66L62 66L62 69L63 69L63 68L64 68L64 69L66 69L66 68L69 68L69 66L67 66L67 65L66 65L66 64L67 64L67 63L66 63L66 62L68 62L68 61L69 61L69 58L68 58L68 56L69 56L69 52L68 52L68 50L67 50L67 49L65 49L65 50L63 50L63 51L65 51L65 52L64 52L64 53L63 53L63 52L62 52L62 53L61 53L61 50L62 50L62 49L63 49L63 48L65 48L65 46L66 46L66 48L69 48L69 46L67 46L67 45L69 45L69 44L68 44L68 43L69 43L69 39L65 39L65 38L64 38L64 37L66 37L66 38L67 38L67 37L66 37L66 36L67 36L67 35L69 35L69 34L67 34L67 33L66 33L66 32L67 32L67 31L66 31L66 32L65 32L65 31L64 31L64 29L61 29L61 28L62 28L62 27L63 27L63 28L64 28L64 27L65 27L65 26L67 26L67 27L66 27L66 28L65 28L65 29L66 29L66 30L68 30L68 33L69 33L69 27L68 27L68 25L69 25L69 24L68 24L68 23L69 23L69 22L68 22L68 21L69 21L69 20L68 20L68 21L66 21L66 20L67 20L67 19L66 19L66 18L68 18L68 19L69 19L69 15L68 15L68 14L67 14L67 13L68 13L68 12L69 12L69 10L68 10L68 9L67 9L67 8L65 8L65 9L64 9L64 10L63 10L63 9L62 9L62 10L61 10L61 9L60 9L60 10L59 10L59 9L57 9L57 10L56 10L56 11L55 11L55 13L54 13L54 10L55 10L55 9L53 9L53 6L54 6L54 8L56 8L56 7L57 7L57 6L58 6L58 7L59 7L59 4L58 4L58 3L59 3L59 2L58 2L58 1L61 1L61 0L57 0L57 1L56 1L56 0L52 0L52 1L55 1L55 2L54 2L54 3L52 3L52 4L50 4L50 5L48 5L48 4L49 4L49 3L50 3L50 1L51 1L51 0L50 0L50 1L49 1L49 3L48 3L48 2L47 2L47 1L48 1L48 0L44 0L44 1L43 1L43 0L42 0L42 2L41 2L41 0L38 0L38 1L37 1L37 0L36 0L36 2L35 2L35 3L33 3L33 2L32 2L32 1L34 1L34 0L26 0L26 1L24 1L24 0L22 0L22 1L21 1L21 0L19 0L19 3L18 3L18 0L17 0L17 4L19 4L19 3L21 3L21 4L20 4L20 8L19 8L19 5L17 5L17 6L16 6L16 5L15 5L15 6L14 6L14 7L13 7L13 6L12 6L12 4L13 4L13 5L14 5L14 2L12 2L12 1L14 1L14 0ZM15 0L15 3L16 3L16 0ZM20 1L20 2L21 2L21 3L22 3L22 4L23 4L23 2L24 2L24 4L25 4L25 3L26 3L26 4L27 4L27 5L25 5L25 7L26 7L26 6L27 6L27 8L26 8L26 9L25 9L25 8L24 8L24 6L23 6L23 7L22 7L22 6L21 6L21 8L23 8L23 9L25 9L25 10L22 10L22 11L21 11L21 10L20 10L20 9L19 9L19 10L18 10L18 6L17 6L17 10L16 10L16 8L15 8L15 10L14 10L14 9L13 9L13 7L12 7L12 6L11 6L11 7L10 7L10 9L9 9L9 10L10 10L10 9L11 9L11 10L14 10L14 11L12 11L12 12L11 12L11 11L8 11L8 12L9 12L9 13L6 13L6 14L5 14L5 15L4 15L4 12L7 12L7 11L5 11L5 9L3 9L3 10L4 10L4 11L1 11L1 12L3 12L3 15L2 15L2 17L3 17L3 19L4 19L4 20L3 20L3 21L4 21L4 20L8 20L8 21L6 21L6 22L8 22L8 23L5 23L5 25L4 25L4 24L3 24L3 25L1 25L1 26L2 26L2 27L3 27L3 28L2 28L2 29L1 29L1 32L2 32L2 30L4 30L4 31L6 31L6 32L7 32L7 31L6 31L6 30L7 30L7 29L8 29L8 32L9 32L9 33L10 33L10 35L9 35L9 37L4 37L4 38L5 38L5 41L4 41L4 40L3 40L3 41L1 41L1 43L2 43L2 44L3 44L3 46L2 46L2 47L3 47L3 48L5 48L5 52L7 52L7 51L6 51L6 50L7 50L7 49L6 49L6 48L9 48L9 50L8 50L8 52L9 52L9 53L10 53L10 52L9 52L9 50L10 50L10 51L11 51L11 52L12 52L12 56L13 56L13 57L16 57L16 59L15 59L15 58L14 58L14 59L13 59L13 58L12 58L12 57L11 57L11 55L10 55L10 54L8 54L8 53L4 53L4 55L3 55L3 53L2 53L2 55L1 55L1 56L4 56L4 57L5 57L5 58L8 58L8 59L10 59L10 61L9 61L9 63L11 63L11 64L12 64L12 63L13 63L13 62L12 62L12 63L11 63L11 62L10 62L10 61L12 61L12 60L14 60L14 59L15 59L15 60L16 60L16 61L17 61L17 57L16 57L16 56L18 56L18 58L19 58L19 62L20 62L20 60L21 60L21 59L20 59L20 58L21 58L21 56L23 56L23 62L24 62L24 61L25 61L25 60L24 60L24 59L26 59L26 62L25 62L25 64L26 64L26 62L27 62L27 63L28 63L28 65L29 65L29 63L32 63L32 62L31 62L31 61L30 61L30 59L31 59L31 58L33 58L33 59L34 59L34 58L33 58L33 56L30 56L30 57L29 57L29 56L26 56L26 57L25 57L25 56L24 56L24 55L26 55L26 54L28 54L28 55L29 55L29 54L30 54L30 55L32 55L32 54L31 54L31 53L33 53L33 54L35 54L35 50L34 50L34 49L33 49L33 48L30 48L30 46L29 46L29 47L28 47L28 46L27 46L27 44L31 44L31 42L32 42L32 43L33 43L33 45L31 45L31 47L34 47L34 48L35 48L35 49L37 49L37 50L36 50L36 51L38 51L38 54L40 54L40 55L39 55L39 56L40 56L40 57L41 57L41 58L42 58L42 59L43 59L43 57L44 57L44 58L45 58L45 56L46 56L46 55L45 55L45 54L44 54L44 53L43 53L43 54L42 54L42 55L41 55L41 54L40 54L40 53L39 53L39 52L41 52L41 53L42 53L42 51L43 51L43 49L44 49L44 50L45 50L45 49L46 49L46 50L47 50L47 51L46 51L46 52L45 52L45 51L44 51L44 52L45 52L45 53L46 53L46 54L47 54L47 51L48 51L48 52L50 52L50 53L49 53L49 54L50 54L50 55L51 55L51 54L53 54L53 55L54 55L54 56L53 56L53 57L55 57L55 58L54 58L54 59L53 59L53 58L52 58L52 57L51 57L51 58L49 58L49 57L48 57L48 56L49 56L49 55L47 55L47 58L48 58L48 60L50 60L50 61L51 61L51 62L52 62L52 61L51 61L51 60L50 60L50 59L51 59L51 58L52 58L52 60L54 60L54 59L55 59L55 58L56 58L56 59L57 59L57 60L60 60L60 59L57 59L57 58L56 58L56 57L59 57L59 58L60 58L60 57L61 57L61 58L62 58L62 57L63 57L63 60L64 60L64 59L65 59L65 58L64 58L64 56L66 56L66 57L67 57L67 56L66 56L66 54L67 54L67 53L68 53L68 52L66 52L66 53L65 53L65 55L64 55L64 54L63 54L63 55L62 55L62 56L61 56L61 55L60 55L60 56L59 56L59 54L61 54L61 53L59 53L59 52L58 52L58 51L60 51L60 49L58 49L58 48L57 48L57 49L56 49L56 52L55 52L55 50L54 50L54 49L52 49L52 51L51 51L51 52L50 52L50 51L48 51L48 50L47 50L47 49L46 49L46 48L45 48L45 46L46 46L46 45L45 45L45 46L44 46L44 45L43 45L43 46L41 46L41 45L42 45L42 44L44 44L44 43L45 43L45 44L47 44L47 45L48 45L48 44L47 44L47 43L45 43L45 42L44 42L44 41L47 41L47 40L49 40L49 41L48 41L48 43L49 43L49 44L50 44L50 45L51 45L51 46L49 46L49 47L51 47L51 48L53 48L53 47L56 47L56 46L57 46L57 43L60 43L60 44L58 44L58 47L59 47L59 48L60 48L60 47L62 47L62 46L61 46L61 45L62 45L62 44L63 44L63 43L64 43L64 40L65 40L65 41L67 41L67 42L65 42L65 43L67 43L67 42L68 42L68 41L67 41L67 40L65 40L65 39L64 39L64 38L63 38L63 37L61 37L61 38L60 38L60 39L61 39L61 40L60 40L60 42L58 42L58 41L59 41L59 40L58 40L58 39L59 39L59 37L56 37L56 38L55 38L55 36L56 36L56 33L58 33L58 32L60 32L60 30L58 30L58 29L60 29L60 27L62 27L62 26L59 26L59 25L61 25L61 24L60 24L60 23L62 23L62 24L63 24L63 27L64 27L64 26L65 26L65 25L68 25L68 24L65 24L65 23L68 23L68 22L65 22L65 21L64 21L64 20L62 20L62 19L63 19L63 17L64 17L64 18L66 18L66 17L68 17L68 15L66 15L66 13L64 13L64 12L68 12L68 10L67 10L67 9L66 9L66 11L65 11L65 10L64 10L64 11L63 11L63 10L62 10L62 11L61 11L61 10L60 10L60 11L61 11L61 12L59 12L59 11L58 11L58 10L57 10L57 13L58 13L58 14L56 14L56 13L55 13L55 14L54 14L54 13L52 13L52 12L53 12L53 11L52 11L52 9L51 9L51 8L52 8L52 5L51 5L51 8L49 8L49 7L50 7L50 6L49 6L49 7L48 7L48 6L47 6L47 7L46 7L46 6L45 6L45 8L46 8L46 9L45 9L45 10L43 10L43 9L44 9L44 5L47 5L47 4L48 4L48 3L47 3L47 2L45 2L45 1L44 1L44 2L42 2L42 3L41 3L41 2L40 2L40 3L41 3L41 7L40 7L40 6L39 6L39 5L37 5L37 8L39 8L39 7L40 7L40 9L37 9L37 11L35 11L35 9L34 9L34 10L33 10L33 11L35 11L35 14L36 14L36 16L34 16L34 14L33 14L33 12L32 12L32 11L30 11L30 9L31 9L31 10L32 10L32 9L31 9L31 8L30 8L30 6L29 6L29 7L28 7L28 6L27 6L27 5L30 5L30 4L31 4L31 7L32 7L32 4L33 4L33 3L32 3L32 4L31 4L31 1L28 1L28 2L27 2L27 3L26 3L26 2L24 2L24 1L23 1L23 2L21 2L21 1ZM11 2L11 3L12 3L12 2ZM29 2L29 3L30 3L30 2ZM38 2L38 3L37 3L37 4L38 4L38 3L39 3L39 2ZM55 2L55 3L54 3L54 4L53 4L53 5L54 5L54 6L55 6L55 7L56 7L56 5L54 5L54 4L55 4L55 3L56 3L56 2ZM9 3L9 4L10 4L10 3ZM27 3L27 4L28 4L28 3ZM35 3L35 4L36 4L36 3ZM43 3L43 4L47 4L47 3ZM60 3L60 5L61 5L61 3ZM57 4L57 5L58 5L58 4ZM33 5L33 8L36 8L36 5ZM15 6L15 7L16 7L16 6ZM34 6L34 7L35 7L35 6ZM38 6L38 7L39 7L39 6ZM42 6L42 8L41 8L41 9L40 9L40 10L38 10L38 11L37 11L37 12L38 12L38 13L40 13L40 14L39 14L39 15L38 15L38 14L37 14L37 15L38 15L38 16L39 16L39 17L38 17L38 19L36 19L36 18L35 18L35 19L36 19L36 20L35 20L35 24L34 24L34 25L35 25L35 26L36 26L36 25L35 25L35 24L36 24L36 21L37 21L37 23L38 23L38 24L37 24L37 26L38 26L38 29L37 29L37 27L35 27L35 28L34 28L34 29L33 29L33 27L34 27L34 26L33 26L33 27L32 27L32 29L31 29L31 28L30 28L30 26L32 26L32 25L31 25L31 24L32 24L32 22L34 22L34 21L31 21L31 18L30 18L30 15L32 15L32 13L30 13L30 12L29 12L29 13L30 13L30 14L28 14L28 11L29 11L29 8L27 8L27 9L26 9L26 11L25 11L25 12L24 12L24 11L23 11L23 16L22 16L22 13L21 13L21 12L20 12L20 11L19 11L19 12L20 12L20 13L18 13L18 11L17 11L17 13L18 13L18 14L21 14L21 16L20 16L20 15L19 15L19 16L18 16L18 17L17 17L17 19L20 19L20 18L22 18L22 19L23 19L23 20L22 20L22 21L21 21L21 20L20 20L20 21L17 21L17 24L19 24L19 25L18 25L18 26L19 26L19 27L20 27L20 28L18 28L18 27L17 27L17 29L18 29L18 31L19 31L19 33L20 33L20 32L21 32L21 31L20 31L20 30L19 30L19 29L20 29L20 28L23 28L23 30L22 30L22 32L23 32L23 33L21 33L21 34L23 34L23 35L22 35L22 36L23 36L23 38L24 38L24 37L25 37L25 36L26 36L26 37L27 37L27 36L26 36L26 35L24 35L24 34L23 34L23 33L25 33L25 34L26 34L26 33L27 33L27 34L28 34L28 33L29 33L29 32L30 32L30 33L32 33L32 34L30 34L30 35L31 35L31 36L32 36L32 37L33 37L33 38L31 38L31 39L33 39L33 38L35 38L35 40L36 40L36 41L37 41L37 40L36 40L36 39L37 39L37 38L36 38L36 37L37 37L37 36L38 36L38 38L39 38L39 36L41 36L41 37L40 37L40 39L41 39L41 38L44 38L44 36L41 36L41 35L38 35L38 34L37 34L37 32L35 32L35 30L37 30L37 31L38 31L38 30L39 30L39 31L40 31L40 32L39 32L39 33L40 33L40 32L43 32L43 33L42 33L42 35L43 35L43 34L44 34L44 35L45 35L45 34L44 34L44 33L45 33L45 29L46 29L46 30L47 30L47 32L46 32L46 34L48 34L48 35L46 35L46 37L47 37L47 38L46 38L46 40L47 40L47 39L52 39L52 40L50 40L50 41L51 41L51 42L53 42L53 43L50 43L50 44L51 44L51 45L54 45L54 46L55 46L55 45L56 45L56 43L57 43L57 41L58 41L58 40L54 40L54 42L53 42L53 41L52 41L52 40L53 40L53 38L54 38L54 39L55 39L55 38L54 38L54 36L53 36L53 35L50 35L50 34L51 34L51 33L52 33L52 34L55 34L55 33L56 33L56 31L57 31L57 32L58 32L58 30L56 30L56 29L58 29L58 28L59 28L59 27L58 27L58 28L57 28L57 27L55 27L55 28L54 28L54 27L53 27L53 28L54 28L54 29L53 29L53 30L51 30L51 29L52 29L52 28L51 28L51 29L49 29L49 28L50 28L50 26L49 26L49 25L50 25L50 24L51 24L51 26L52 26L52 25L53 25L53 26L55 26L55 23L56 23L56 26L57 26L57 24L58 24L58 25L59 25L59 24L58 24L58 23L60 23L60 22L61 22L61 21L60 21L60 20L61 20L61 19L62 19L62 17L63 17L63 16L64 16L64 15L63 15L63 13L62 13L62 12L63 12L63 11L62 11L62 12L61 12L61 13L60 13L60 14L59 14L59 15L58 15L58 16L56 16L56 14L55 14L55 15L53 15L53 14L52 14L52 13L50 13L50 12L52 12L52 11L50 11L50 10L51 10L51 9L50 9L50 10L49 10L49 11L50 11L50 12L48 12L48 13L50 13L50 14L48 14L48 15L50 15L50 16L51 16L51 15L53 15L53 17L51 17L51 19L50 19L50 20L48 20L48 19L49 19L49 16L48 16L48 17L47 17L47 16L46 16L46 15L45 15L45 13L46 13L46 12L47 12L47 10L48 10L48 9L49 9L49 8L47 8L47 9L46 9L46 12L45 12L45 11L42 11L42 12L41 12L41 11L40 11L40 10L42 10L42 9L43 9L43 6ZM60 6L60 7L61 7L61 6ZM11 7L11 8L12 8L12 7ZM6 9L6 10L7 10L7 9ZM27 9L27 11L28 11L28 9ZM14 11L14 12L13 12L13 13L12 13L12 14L14 14L14 16L17 16L17 14L16 14L16 15L15 15L15 14L14 14L14 13L15 13L15 12L16 12L16 11ZM39 11L39 12L40 12L40 11ZM26 12L26 13L27 13L27 12ZM42 12L42 13L41 13L41 15L42 15L42 16L40 16L40 17L39 17L39 19L40 19L40 20L37 20L37 21L38 21L38 23L39 23L39 22L40 22L40 24L38 24L38 26L40 26L40 27L41 27L41 26L40 26L40 24L41 24L41 23L42 23L42 28L41 28L41 29L42 29L42 30L40 30L40 31L43 31L43 32L44 32L44 27L45 27L45 28L46 28L46 29L47 29L47 28L46 28L46 27L48 27L48 28L49 28L49 27L48 27L48 26L47 26L47 25L48 25L48 23L47 23L47 22L49 22L49 23L52 23L52 24L53 24L53 25L54 25L54 24L53 24L53 22L54 22L54 23L55 23L55 22L54 22L54 20L55 20L55 21L56 21L56 22L58 22L58 19L59 19L59 18L58 18L58 17L56 17L56 16L55 16L55 18L54 18L54 20L53 20L53 21L51 21L51 20L50 20L50 21L48 21L48 20L46 20L46 23L45 23L45 22L42 22L42 21L41 21L41 22L40 22L40 20L41 20L41 19L40 19L40 18L41 18L41 17L43 17L43 19L42 19L42 20L43 20L43 21L45 21L45 20L43 20L43 19L44 19L44 18L45 18L45 17L43 17L43 14L44 14L44 13L45 13L45 12L44 12L44 13L43 13L43 12ZM58 12L58 13L59 13L59 12ZM1 13L1 14L2 14L2 13ZM10 13L10 14L8 14L8 16L6 16L6 15L7 15L7 14L6 14L6 15L5 15L5 16L6 16L6 17L4 17L4 15L3 15L3 17L4 17L4 18L6 18L6 19L7 19L7 18L6 18L6 17L8 17L8 18L10 18L10 19L13 19L13 20L12 20L12 21L14 21L14 22L13 22L13 23L14 23L14 24L12 24L12 25L11 25L11 24L10 24L10 23L12 23L12 22L11 22L11 21L8 21L8 22L10 22L10 23L9 23L9 24L8 24L8 26L6 26L6 25L7 25L7 24L6 24L6 25L5 25L5 26L6 26L6 27L8 27L8 26L9 26L9 27L10 27L10 26L9 26L9 25L11 25L11 26L13 26L13 25L15 25L15 24L16 24L16 23L14 23L14 22L16 22L16 20L15 20L15 21L14 21L14 19L13 19L13 18L15 18L15 19L16 19L16 18L15 18L15 17L13 17L13 16L12 16L12 15L11 15L11 13ZM42 13L42 14L43 14L43 13ZM24 14L24 15L26 15L26 14ZM27 14L27 18L28 18L28 19L25 19L25 20L24 20L24 21L22 21L22 23L21 23L21 22L19 22L19 24L20 24L20 23L21 23L21 25L22 25L22 26L21 26L21 27L23 27L23 28L24 28L24 30L23 30L23 31L24 31L24 30L30 30L30 32L34 32L34 30L30 30L30 29L29 29L29 28L27 28L27 27L25 27L25 24L23 24L23 25L22 25L22 23L26 23L26 22L28 22L28 23L27 23L27 24L26 24L26 25L27 25L27 24L28 24L28 23L29 23L29 24L30 24L30 23L31 23L31 22L30 22L30 23L29 23L29 22L28 22L28 21L26 21L26 22L25 22L25 20L28 20L28 19L29 19L29 17L28 17L28 16L29 16L29 15L28 15L28 14ZM60 14L60 15L59 15L59 17L61 17L61 16L60 16L60 15L62 15L62 14ZM44 15L44 16L45 16L45 15ZM8 16L8 17L9 17L9 16ZM10 16L10 17L11 17L11 18L13 18L13 17L12 17L12 16ZM19 16L19 17L18 17L18 18L19 18L19 17L20 17L20 16ZM23 16L23 18L24 18L24 17L25 17L25 18L26 18L26 17L25 17L25 16ZM32 16L32 17L33 17L33 20L34 20L34 17L33 17L33 16ZM65 16L65 17L66 17L66 16ZM46 17L46 18L47 18L47 19L48 19L48 18L47 18L47 17ZM56 18L56 19L55 19L55 20L56 20L56 19L58 19L58 18ZM0 19L0 20L1 20L1 19ZM8 19L8 20L9 20L9 19ZM65 19L65 20L66 20L66 19ZM0 21L0 22L1 22L1 21ZM50 21L50 22L51 22L51 21ZM59 21L59 22L60 22L60 21ZM62 21L62 22L63 22L63 23L65 23L65 22L64 22L64 21ZM44 23L44 25L43 25L43 26L45 26L45 25L46 25L46 24L47 24L47 23L46 23L46 24L45 24L45 23ZM64 24L64 25L65 25L65 24ZM3 25L3 26L4 26L4 25ZM16 25L16 26L17 26L17 25ZM19 25L19 26L20 26L20 25ZM23 25L23 27L24 27L24 25ZM29 25L29 26L30 26L30 25ZM3 28L3 29L5 29L5 30L6 30L6 29L7 29L7 28ZM10 28L10 30L9 30L9 32L10 32L10 31L11 31L11 34L14 34L14 35L16 35L16 36L15 36L15 37L14 37L14 36L13 36L13 38L12 38L12 39L10 39L10 40L8 40L8 41L9 41L9 43L8 43L8 44L9 44L9 45L7 45L7 44L6 44L6 43L7 43L7 42L6 42L6 43L4 43L4 42L2 42L2 43L4 43L4 45L5 45L5 46L3 46L3 47L5 47L5 46L6 46L6 47L8 47L8 46L12 46L12 47L11 47L11 48L10 48L10 47L9 47L9 48L10 48L10 49L11 49L11 48L13 48L13 50L12 50L12 52L13 52L13 50L16 50L16 51L17 51L17 52L18 52L18 53L16 53L16 52L14 52L14 53L13 53L13 56L14 56L14 55L15 55L15 56L16 56L16 55L18 55L18 53L19 53L19 55L20 55L20 56L21 56L21 55L22 55L22 54L25 54L25 53L27 53L27 52L23 52L23 51L24 51L24 50L25 50L25 51L28 51L28 54L29 54L29 53L31 53L31 51L30 51L30 50L32 50L32 49L29 49L29 48L28 48L28 50L25 50L25 49L27 49L27 48L26 48L26 46L24 46L24 47L25 47L25 48L22 48L22 46L21 46L21 45L23 45L23 42L22 42L22 41L21 41L21 42L22 42L22 43L21 43L21 44L20 44L20 45L19 45L19 44L18 44L18 43L20 43L20 40L19 40L19 42L18 42L18 39L21 39L21 40L22 40L22 37L21 37L21 36L20 36L20 34L19 34L19 36L18 36L18 37L17 37L17 39L15 39L15 40L16 40L16 41L17 41L17 42L15 42L15 41L14 41L14 42L12 42L12 44L13 44L13 43L15 43L15 44L14 44L14 45L10 45L10 43L11 43L11 42L10 42L10 41L11 41L11 40L12 40L12 41L13 41L13 38L15 38L15 37L16 37L16 36L17 36L17 35L18 35L18 33L17 33L17 32L15 32L15 33L13 33L13 31L12 31L12 30L11 30L11 28ZM26 28L26 29L27 29L27 28ZM42 28L42 29L43 29L43 28ZM55 28L55 29L56 29L56 28ZM66 28L66 29L67 29L67 28ZM15 29L15 30L14 30L14 31L17 31L17 30L16 30L16 29ZM48 29L48 30L49 30L49 29ZM53 30L53 33L55 33L55 32L54 32L54 31L55 31L55 30ZM25 31L25 33L26 33L26 32L27 32L27 33L28 33L28 31ZM48 31L48 32L47 32L47 33L48 33L48 32L49 32L49 31ZM51 31L51 32L52 32L52 31ZM62 31L62 32L64 32L64 31ZM5 33L5 36L8 36L8 33ZM33 33L33 36L36 36L36 33ZM49 33L49 34L50 34L50 33ZM61 33L61 36L64 36L64 33ZM65 33L65 36L66 36L66 33ZM6 34L6 35L7 35L7 34ZM16 34L16 35L17 35L17 34ZM34 34L34 35L35 35L35 34ZM57 34L57 36L58 36L58 34ZM62 34L62 35L63 35L63 34ZM0 35L0 36L1 36L1 35ZM3 35L3 36L4 36L4 35ZM11 35L11 36L12 36L12 35ZM23 35L23 36L24 36L24 35ZM48 35L48 36L47 36L47 37L48 37L48 36L49 36L49 38L50 38L50 36L49 36L49 35ZM29 36L29 37L28 37L28 38L29 38L29 39L30 39L30 38L29 38L29 37L30 37L30 36ZM68 36L68 37L69 37L69 36ZM9 37L9 38L8 38L8 39L9 39L9 38L10 38L10 37ZM19 37L19 38L21 38L21 37ZM52 37L52 38L53 38L53 37ZM6 38L6 39L7 39L7 38ZM25 38L25 39L23 39L23 40L25 40L25 41L26 41L26 42L25 42L25 43L26 43L26 44L25 44L25 45L26 45L26 44L27 44L27 43L28 43L28 42L29 42L29 43L30 43L30 40L29 40L29 41L28 41L28 39L27 39L27 41L26 41L26 40L25 40L25 39L26 39L26 38ZM61 38L61 39L62 39L62 38ZM42 39L42 43L41 43L41 40L40 40L40 41L39 41L39 42L40 42L40 43L39 43L39 44L38 44L38 43L37 43L37 46L34 46L34 47L35 47L35 48L36 48L36 47L37 47L37 48L38 48L38 49L39 49L39 50L38 50L38 51L41 51L41 50L42 50L42 49L41 49L41 48L42 48L42 47L41 47L41 46L40 46L40 47L37 47L37 46L38 46L38 45L41 45L41 44L42 44L42 43L44 43L44 42L43 42L43 41L44 41L44 40L45 40L45 39L44 39L44 40L43 40L43 39ZM6 40L6 41L7 41L7 40ZM31 40L31 41L32 41L32 42L34 42L34 44L35 44L35 45L36 45L36 44L35 44L35 41L32 41L32 40ZM61 40L61 42L60 42L60 43L61 43L61 44L60 44L60 45L61 45L61 44L62 44L62 43L63 43L63 40ZM17 42L17 43L16 43L16 45L15 45L15 47L16 47L16 48L19 48L19 49L22 49L22 51L21 51L21 50L20 50L20 51L19 51L19 53L22 53L22 51L23 51L23 50L24 50L24 49L22 49L22 48L21 48L21 46L20 46L20 48L19 48L19 46L18 46L18 47L17 47L17 46L16 46L16 45L17 45L17 43L18 43L18 42ZM26 42L26 43L27 43L27 42ZM54 42L54 43L53 43L53 44L54 44L54 43L55 43L55 42ZM61 42L61 43L62 43L62 42ZM40 43L40 44L41 44L41 43ZM5 44L5 45L6 45L6 46L7 46L7 45L6 45L6 44ZM64 44L64 45L63 45L63 46L64 46L64 45L67 45L67 44ZM51 46L51 47L52 47L52 46ZM47 47L47 48L48 48L48 47ZM39 48L39 49L40 49L40 48ZM49 48L49 50L50 50L50 48ZM16 49L16 50L18 50L18 49ZM57 49L57 50L58 50L58 49ZM28 50L28 51L29 51L29 52L30 52L30 51L29 51L29 50ZM33 50L33 51L34 51L34 50ZM53 52L53 54L55 54L55 57L56 57L56 55L57 55L57 56L58 56L58 55L57 55L57 52L56 52L56 54L55 54L55 52ZM58 53L58 54L59 54L59 53ZM5 54L5 55L4 55L4 56L5 56L5 55L7 55L7 56L6 56L6 57L8 57L8 56L10 56L10 55L8 55L8 54ZM15 54L15 55L16 55L16 54ZM20 54L20 55L21 55L21 54ZM43 54L43 55L42 55L42 56L41 56L41 57L42 57L42 56L43 56L43 55L44 55L44 54ZM9 57L9 58L11 58L11 57ZM28 57L28 58L27 58L27 59L28 59L28 60L27 60L27 62L28 62L28 60L29 60L29 57ZM30 57L30 58L31 58L31 57ZM67 58L67 60L65 60L65 62L66 62L66 61L67 61L67 60L68 60L68 58ZM35 59L35 60L36 60L36 59ZM61 59L61 60L62 60L62 59ZM3 60L3 61L5 61L5 60ZM55 60L55 61L56 61L56 60ZM21 61L21 62L22 62L22 61ZM33 61L33 64L36 64L36 61ZM43 61L43 63L44 63L44 62L45 62L45 61ZM58 61L58 65L56 65L56 64L57 64L57 62L56 62L56 64L54 64L54 63L55 63L55 62L53 62L53 63L50 63L50 64L51 64L51 65L50 65L50 66L48 66L48 68L49 68L49 67L50 67L50 66L52 66L52 67L51 67L51 68L52 68L52 67L53 67L53 68L55 68L55 67L56 67L56 66L58 66L58 65L59 65L59 63L60 63L60 61ZM61 61L61 64L64 64L64 61ZM34 62L34 63L35 63L35 62ZM62 62L62 63L63 63L63 62ZM48 63L48 64L49 64L49 63ZM30 64L30 65L31 65L31 66L32 66L32 64ZM40 64L40 66L41 66L41 67L42 67L42 69L43 69L43 67L44 67L44 69L46 69L46 68L45 68L45 67L44 67L44 66L41 66L41 64ZM42 64L42 65L43 65L43 64ZM53 64L53 67L54 67L54 66L55 66L55 65L54 65L54 64ZM68 64L68 65L69 65L69 64ZM18 65L18 67L19 67L19 68L20 68L20 67L19 67L19 65ZM34 65L34 66L33 66L33 67L35 67L35 65ZM36 65L36 66L37 66L37 65ZM60 65L60 66L61 66L61 65ZM62 65L62 66L63 66L63 65ZM64 65L64 66L65 66L65 65ZM10 66L10 67L11 67L11 66ZM66 66L66 67L64 67L64 68L66 68L66 67L67 67L67 66ZM60 68L60 69L61 69L61 68ZM0 0L0 7L7 7L7 0ZM1 1L1 6L6 6L6 1ZM2 2L2 5L5 5L5 2ZM62 0L62 7L69 7L69 0ZM63 1L63 6L68 6L68 1ZM64 2L64 5L67 5L67 2ZM0 62L0 69L7 69L7 62ZM1 63L1 68L6 68L6 63ZM2 64L2 67L5 67L5 64Z" fill="#000000"/></g></g></svg>
