<?xml version="1.0" encoding="UTF-8"?>
<svg xmlns="http://www.w3.org/2000/svg" version="1.1" width="200" height="200" viewBox="0 0 200 200"><rect x="0" y="0" width="200" height="200" fill="#ffffff"/><g transform="scale(2.469)"><g transform="translate(0,0)"><path fill-rule="evenodd" d="M8 0L8 3L9 3L9 5L8 5L8 9L11 9L11 11L10 11L10 10L6 10L6 11L4 11L4 9L5 9L5 8L2 8L2 9L1 9L1 11L2 11L2 10L3 10L3 12L1 12L1 14L3 14L3 18L2 18L2 17L1 17L1 18L2 18L2 19L1 19L1 20L0 20L0 26L1 26L1 27L2 27L2 26L4 26L4 27L3 27L3 28L4 28L4 29L3 29L3 31L2 31L2 30L1 30L1 31L0 31L0 32L3 32L3 33L0 33L0 35L2 35L2 34L3 34L3 35L4 35L4 36L2 36L2 39L1 39L1 37L0 37L0 39L1 39L1 40L0 40L0 42L1 42L1 40L3 40L3 39L4 39L4 41L7 41L7 42L5 42L5 44L4 44L4 42L3 42L3 43L0 43L0 44L2 44L2 45L0 45L0 46L2 46L2 50L0 50L0 52L1 52L1 53L0 53L0 54L1 54L1 53L2 53L2 55L3 55L3 56L5 56L5 57L2 57L2 58L0 58L0 59L1 59L1 60L0 60L0 62L2 62L2 63L3 63L3 64L1 64L1 65L0 65L0 67L1 67L1 68L0 68L0 70L1 70L1 73L4 73L4 72L2 72L2 71L4 71L4 70L5 70L5 69L7 69L7 70L6 70L6 71L5 71L5 72L6 72L6 73L7 73L7 72L6 72L6 71L7 71L7 70L9 70L9 71L11 71L11 72L12 72L12 71L13 71L13 72L14 72L14 71L17 71L17 69L18 69L18 70L19 70L19 69L21 69L21 68L22 68L22 70L20 70L20 71L19 71L19 72L15 72L15 73L13 73L13 75L12 75L12 73L8 73L8 74L9 74L9 75L10 75L10 76L11 76L11 77L9 77L9 76L8 76L8 79L9 79L9 78L11 78L11 80L10 80L10 81L11 81L11 80L15 80L15 81L16 81L16 80L19 80L19 81L20 81L20 80L21 80L21 81L24 81L24 80L27 80L27 81L28 81L28 80L27 80L27 79L24 79L24 78L23 78L23 77L22 77L22 76L23 76L23 75L24 75L24 77L28 77L28 78L29 78L29 75L30 75L30 74L29 74L29 73L30 73L30 72L33 72L33 71L34 71L34 73L35 73L35 74L33 74L33 73L32 73L32 75L31 75L31 76L32 76L32 78L33 78L33 79L31 79L31 78L30 78L30 79L29 79L29 80L30 80L30 79L31 79L31 80L32 80L32 81L33 81L33 80L34 80L34 78L35 78L35 77L34 77L34 76L32 76L32 75L35 75L35 76L36 76L36 77L37 77L37 76L38 76L38 78L36 78L36 79L35 79L35 81L36 81L36 79L38 79L38 81L39 81L39 80L40 80L40 81L42 81L42 80L46 80L46 81L55 81L55 80L57 80L57 79L55 79L55 78L56 78L56 77L55 77L55 78L54 78L54 77L53 77L53 76L56 76L56 75L57 75L57 76L58 76L58 77L57 77L57 78L60 78L60 77L59 77L59 76L60 76L60 75L62 75L62 76L63 76L63 77L62 77L62 78L61 78L61 79L68 79L68 80L70 80L70 79L71 79L71 81L73 81L73 80L72 80L72 79L71 79L71 78L70 78L70 77L71 77L71 75L72 75L72 78L73 78L73 79L74 79L74 78L73 78L73 77L76 77L76 78L78 78L78 80L79 80L79 81L80 81L80 80L79 80L79 77L80 77L80 76L79 76L79 75L77 75L77 73L78 73L78 74L81 74L81 72L80 72L80 70L81 70L81 69L80 69L80 70L77 70L77 71L76 71L76 70L75 70L75 69L78 69L78 68L81 68L81 67L80 67L80 66L81 66L81 64L80 64L80 62L81 62L81 61L80 61L80 60L79 60L79 59L80 59L80 58L81 58L81 57L80 57L80 58L79 58L79 57L77 57L77 56L80 56L80 54L81 54L81 51L80 51L80 53L78 53L78 52L79 52L79 49L78 49L78 52L77 52L77 48L79 48L79 46L78 46L78 45L77 45L77 46L78 46L78 47L76 47L76 46L75 46L75 44L79 44L79 45L80 45L80 46L81 46L81 45L80 45L80 44L79 44L79 43L80 43L80 42L81 42L81 41L80 41L80 38L81 38L81 37L80 37L80 34L81 34L81 33L80 33L80 34L79 34L79 32L80 32L80 31L77 31L77 30L76 30L76 31L75 31L75 30L74 30L74 31L75 31L75 32L74 32L74 33L72 33L72 34L73 34L73 35L71 35L71 31L72 31L72 32L73 32L73 31L72 31L72 30L71 30L71 29L78 29L78 30L79 30L79 29L80 29L80 30L81 30L81 27L80 27L80 26L81 26L81 25L78 25L78 26L79 26L79 27L77 27L77 24L79 24L79 22L81 22L81 18L79 18L79 17L77 17L77 16L79 16L79 15L81 15L81 13L80 13L80 12L81 12L81 11L80 11L80 12L79 12L79 10L81 10L81 8L78 8L78 10L76 10L76 11L74 11L74 10L73 10L73 11L72 11L72 12L73 12L73 11L74 11L74 12L75 12L75 13L74 13L74 14L75 14L75 15L74 15L74 16L76 16L76 17L73 17L73 15L72 15L72 14L73 14L73 13L71 13L71 14L70 14L70 13L69 13L69 12L71 12L71 11L69 11L69 10L71 10L71 9L72 9L72 7L73 7L73 6L72 6L72 5L71 5L71 6L70 6L70 8L69 8L69 5L70 5L70 4L71 4L71 2L72 2L72 4L73 4L73 1L69 1L69 0L68 0L68 1L69 1L69 2L66 2L66 1L64 1L64 2L63 2L63 3L62 3L62 1L61 1L61 0L60 0L60 2L59 2L59 1L58 1L58 0L54 0L54 1L53 1L53 0L52 0L52 1L51 1L51 0L50 0L50 2L49 2L49 0L45 0L45 1L46 1L46 2L44 2L44 1L43 1L43 0L40 0L40 2L38 2L38 4L36 4L36 3L37 3L37 1L36 1L36 0L34 0L34 1L35 1L35 2L36 2L36 3L35 3L35 4L36 4L36 7L35 7L35 5L34 5L34 7L35 7L35 8L34 8L34 9L33 9L33 6L32 6L32 5L33 5L33 4L32 4L32 5L31 5L31 4L27 4L27 2L28 2L28 3L31 3L31 2L32 2L32 1L33 1L33 0L32 0L32 1L30 1L30 0L29 0L29 1L27 1L27 2L26 2L26 0L24 0L24 1L23 1L23 0L20 0L20 2L18 2L18 1L17 1L17 3L19 3L19 4L20 4L20 7L19 7L19 5L18 5L18 7L17 7L17 6L16 6L16 5L14 5L14 4L13 4L13 6L12 6L12 7L11 7L11 2L13 2L13 1L14 1L14 2L15 2L15 1L16 1L16 0L15 0L15 1L14 1L14 0L12 0L12 1L11 1L11 0ZM38 0L38 1L39 1L39 0ZM9 1L9 2L11 2L11 1ZM21 1L21 3L20 3L20 4L21 4L21 5L22 5L22 6L21 6L21 7L20 7L20 8L19 8L19 9L18 9L18 8L16 8L16 6L15 6L15 7L14 7L14 6L13 6L13 7L12 7L12 11L15 11L15 9L18 9L18 10L16 10L16 12L15 12L15 13L14 13L14 15L13 15L13 12L12 12L12 13L10 13L10 12L9 12L9 11L6 11L6 12L3 12L3 13L4 13L4 16L7 16L7 15L8 15L8 17L10 17L10 15L12 15L12 16L11 16L11 18L12 18L12 17L13 17L13 19L14 19L14 21L13 21L13 22L15 22L15 23L14 23L14 25L13 25L13 24L11 24L11 22L12 22L12 20L11 20L11 19L10 19L10 20L9 20L9 19L5 19L5 17L4 17L4 19L3 19L3 21L4 21L4 22L7 22L7 23L3 23L3 22L2 22L2 21L1 21L1 26L2 26L2 24L7 24L7 23L8 23L8 24L9 24L9 25L12 25L12 27L10 27L10 28L9 28L9 29L8 29L8 31L6 31L6 30L7 30L7 29L4 29L4 31L3 31L3 32L5 32L5 33L3 33L3 34L5 34L5 35L6 35L6 36L7 36L7 37L6 37L6 38L8 38L8 39L6 39L6 40L7 40L7 41L8 41L8 39L9 39L9 36L10 36L10 37L11 37L11 38L10 38L10 40L9 40L9 41L10 41L10 42L7 42L7 43L6 43L6 44L7 44L7 43L9 43L9 44L10 44L10 46L12 46L12 44L14 44L14 45L13 45L13 46L14 46L14 47L12 47L12 49L13 49L13 48L14 48L14 49L15 49L15 50L17 50L17 49L16 49L16 48L17 48L17 46L20 46L20 45L18 45L18 44L20 44L20 43L21 43L21 44L22 44L22 43L21 43L21 41L22 41L22 38L23 38L23 37L24 37L24 38L25 38L25 39L23 39L23 40L26 40L26 38L28 38L28 37L24 37L24 35L25 35L25 36L27 36L27 34L28 34L28 33L29 33L29 32L28 32L28 33L27 33L27 31L28 31L28 30L27 30L27 31L24 31L24 27L22 27L22 26L19 26L19 25L21 25L21 23L22 23L22 25L23 25L23 26L24 26L24 25L23 25L23 23L25 23L25 24L26 24L26 21L24 21L24 19L25 19L25 20L27 20L27 17L26 17L26 16L27 16L27 14L30 14L30 12L31 12L31 14L32 14L32 12L33 12L33 11L34 11L34 13L33 13L33 16L34 16L34 14L36 14L36 16L37 16L37 17L38 17L38 14L39 14L39 13L46 13L46 14L45 14L45 15L44 15L44 14L42 14L42 15L44 15L44 16L47 16L47 15L49 15L49 14L50 14L50 13L49 13L49 12L48 12L48 11L49 11L49 10L48 10L48 11L47 11L47 13L46 13L46 11L45 11L45 10L47 10L47 9L46 9L46 8L47 8L47 7L48 7L48 4L46 4L46 3L45 3L45 8L43 8L43 11L41 11L41 9L42 9L42 8L41 8L41 9L40 9L40 8L39 8L39 7L40 7L40 6L41 6L41 7L42 7L42 6L43 6L43 7L44 7L44 6L43 6L43 5L44 5L44 4L43 4L43 2L42 2L42 1L41 1L41 2L40 2L40 3L39 3L39 4L40 4L40 6L39 6L39 7L38 7L38 6L37 6L37 7L36 7L36 11L34 11L34 10L35 10L35 9L34 9L34 10L32 10L32 8L31 8L31 9L30 9L30 10L29 10L29 9L27 9L27 10L26 10L26 11L24 11L24 12L22 12L22 11L21 11L21 12L22 12L22 13L23 13L23 14L24 14L24 12L25 12L25 13L26 13L26 15L25 15L25 18L23 18L23 19L21 19L21 18L22 18L22 17L24 17L24 16L23 16L23 15L20 15L20 13L19 13L19 12L20 12L20 11L19 11L19 12L17 12L17 11L18 11L18 10L22 10L22 9L21 9L21 8L22 8L22 6L23 6L23 7L24 7L24 4L23 4L23 1ZM54 1L54 2L50 2L50 4L51 4L51 3L53 3L53 5L54 5L54 6L53 6L53 8L55 8L55 9L56 9L56 10L54 10L54 9L53 9L53 10L54 10L54 11L53 11L53 12L52 12L52 10L51 10L51 9L50 9L50 11L51 11L51 12L52 12L52 13L53 13L53 14L54 14L54 13L53 13L53 12L54 12L54 11L56 11L56 12L55 12L55 15L53 15L53 16L52 16L52 15L50 15L50 16L51 16L51 17L52 17L52 19L50 19L50 17L49 17L49 19L48 19L48 18L47 18L47 17L45 17L45 19L44 19L44 18L41 18L41 16L40 16L40 15L39 15L39 16L40 16L40 17L39 17L39 18L38 18L38 20L35 20L35 19L36 19L36 17L34 17L34 20L33 20L33 23L35 23L35 24L34 24L34 25L33 25L33 27L32 27L32 30L31 30L31 31L32 31L32 32L33 32L33 31L34 31L34 29L33 29L33 28L35 28L35 29L36 29L36 27L37 27L37 26L38 26L38 25L39 25L39 27L40 27L40 28L39 28L39 32L38 32L38 33L36 33L36 32L37 32L37 31L38 31L38 30L36 30L36 32L34 32L34 33L32 33L32 34L31 34L31 32L30 32L30 34L29 34L29 35L28 35L28 36L29 36L29 38L30 38L30 39L29 39L29 40L30 40L30 41L31 41L31 40L32 40L32 41L33 41L33 42L32 42L32 43L33 43L33 46L34 46L34 44L35 44L35 43L38 43L38 40L40 40L40 41L39 41L39 42L40 42L40 43L39 43L39 44L38 44L38 45L37 45L37 44L36 44L36 45L35 45L35 47L34 47L34 48L35 48L35 49L36 49L36 50L34 50L34 49L33 49L33 47L32 47L32 44L31 44L31 43L30 43L30 42L28 42L28 41L27 41L27 42L26 42L26 43L25 43L25 41L23 41L23 43L24 43L24 44L23 44L23 45L21 45L21 47L19 47L19 48L18 48L18 51L16 51L16 52L15 52L15 53L14 53L14 54L12 54L12 50L10 50L10 49L11 49L11 48L10 48L10 47L9 47L9 45L8 45L8 46L7 46L7 45L6 45L6 46L7 46L7 47L6 47L6 48L8 48L8 47L9 47L9 51L11 51L11 54L10 54L10 53L9 53L9 54L10 54L10 55L11 55L11 56L10 56L10 57L11 57L11 58L14 58L14 57L16 57L16 56L17 56L17 58L16 58L16 59L15 59L15 60L17 60L17 58L18 58L18 60L19 60L19 59L20 59L20 61L16 61L16 62L18 62L18 63L17 63L17 64L15 64L15 62L14 62L14 59L13 59L13 60L12 60L12 61L11 61L11 60L10 60L10 58L9 58L9 59L8 59L8 58L7 58L7 57L8 57L8 53L4 53L4 55L5 55L5 54L7 54L7 55L6 55L6 56L7 56L7 57L6 57L6 58L7 58L7 59L6 59L6 60L4 60L4 58L3 58L3 60L1 60L1 61L2 61L2 62L3 62L3 63L4 63L4 64L3 64L3 65L1 65L1 67L2 67L2 66L3 66L3 69L1 69L1 70L4 70L4 68L7 68L7 69L9 69L9 70L10 70L10 69L12 69L12 70L11 70L11 71L12 71L12 70L15 70L15 69L12 69L12 67L13 67L13 68L15 68L15 67L16 67L16 68L17 68L17 67L18 67L18 68L19 68L19 67L20 67L20 68L21 68L21 67L20 67L20 65L21 65L21 66L22 66L22 68L23 68L23 71L21 71L21 73L19 73L19 75L18 75L18 74L17 74L17 75L18 75L18 76L17 76L17 77L16 77L16 73L15 73L15 75L13 75L13 76L12 76L12 75L11 75L11 74L10 74L10 75L11 75L11 76L12 76L12 79L16 79L16 78L17 78L17 77L18 77L18 79L19 79L19 77L21 77L21 79L22 79L22 80L23 80L23 78L22 78L22 77L21 77L21 75L23 75L23 74L24 74L24 71L27 71L27 72L30 72L30 71L31 71L31 69L33 69L33 70L34 70L34 71L35 71L35 72L36 72L36 74L35 74L35 75L36 75L36 76L37 76L37 75L38 75L38 76L40 76L40 75L42 75L42 74L43 74L43 76L42 76L42 78L41 78L41 77L39 77L39 79L45 79L45 78L43 78L43 77L46 77L46 79L47 79L47 77L48 77L48 74L47 74L47 76L45 76L45 75L44 75L44 73L42 73L42 74L41 74L41 73L38 73L38 74L37 74L37 72L36 72L36 68L38 68L38 67L37 67L37 66L36 66L36 67L35 67L35 69L33 69L33 66L34 66L34 65L33 65L33 62L31 62L31 61L30 61L30 62L27 62L27 61L29 61L29 60L28 60L28 59L30 59L30 58L28 58L28 55L26 55L26 54L27 54L27 53L26 53L26 54L25 54L25 55L26 55L26 56L25 56L25 58L24 58L24 57L23 57L23 56L24 56L24 54L23 54L23 53L24 53L24 52L23 52L23 51L24 51L24 50L23 50L23 49L24 49L24 47L26 47L26 48L27 48L27 45L28 45L28 43L30 43L30 44L31 44L31 45L29 45L29 46L28 46L28 48L29 48L29 49L30 49L30 50L29 50L29 54L32 54L32 55L33 55L33 56L31 56L31 57L32 57L32 58L31 58L31 59L32 59L32 60L33 60L33 61L34 61L34 64L35 64L35 62L36 62L36 64L37 64L37 63L38 63L38 64L39 64L39 62L40 62L40 66L39 66L39 68L40 68L40 69L39 69L39 72L41 72L41 71L40 71L40 70L41 70L41 69L43 69L43 68L41 68L41 67L40 67L40 66L43 66L43 67L44 67L44 70L42 70L42 72L43 72L43 71L44 71L44 70L45 70L45 67L46 67L46 71L47 71L47 72L51 72L51 71L52 71L52 70L51 70L51 71L49 71L49 70L50 70L50 69L52 69L52 68L53 68L53 67L52 67L52 68L49 68L49 67L51 67L51 66L53 66L53 63L52 63L52 62L53 62L53 61L56 61L56 60L57 60L57 59L58 59L58 61L59 61L59 62L61 62L61 64L62 64L62 65L60 65L60 64L57 64L57 65L60 65L60 66L64 66L64 67L65 67L65 68L63 68L63 67L60 67L60 68L59 68L59 67L58 67L58 66L57 66L57 67L56 67L56 64L55 64L55 66L54 66L54 67L55 67L55 69L53 69L53 74L54 74L54 75L56 75L56 74L57 74L57 72L59 72L59 74L60 74L60 73L61 73L61 74L62 74L62 75L63 75L63 76L64 76L64 77L63 77L63 78L66 78L66 75L64 75L64 74L66 74L66 73L65 73L65 72L66 72L66 71L69 71L69 72L67 72L67 75L69 75L69 77L68 77L68 76L67 76L67 77L68 77L68 78L69 78L69 79L70 79L70 78L69 78L69 77L70 77L70 75L71 75L71 74L72 74L72 72L71 72L71 71L74 71L74 72L75 72L75 70L71 70L71 69L70 69L70 70L68 70L68 69L69 69L69 68L67 68L67 70L66 70L66 69L65 69L65 68L66 68L66 67L70 67L70 68L73 68L73 69L75 69L75 68L77 68L77 67L79 67L79 66L80 66L80 64L79 64L79 65L76 65L76 66L74 66L74 65L75 65L75 63L73 63L73 64L74 64L74 65L73 65L73 67L72 67L72 66L71 66L71 67L70 67L70 66L66 66L66 65L68 65L68 64L66 64L66 65L65 65L65 63L62 63L62 62L66 62L66 63L68 63L68 61L69 61L69 60L67 60L67 62L66 62L66 60L65 60L65 58L66 58L66 59L67 59L67 57L69 57L69 55L70 55L70 58L68 58L68 59L72 59L72 61L75 61L75 62L76 62L76 64L78 64L78 63L77 63L77 62L78 62L78 61L79 61L79 60L78 60L78 59L79 59L79 58L78 58L78 59L77 59L77 57L75 57L75 56L76 56L76 55L77 55L77 54L78 54L78 55L79 55L79 54L78 54L78 53L76 53L76 54L75 54L75 55L74 55L74 53L73 53L73 55L72 55L72 54L71 54L71 55L70 55L70 54L69 54L69 53L72 53L72 52L69 52L69 51L71 51L71 50L72 50L72 48L71 48L71 47L74 47L74 48L75 48L75 46L74 46L74 44L75 44L75 42L76 42L76 43L77 43L77 42L78 42L78 43L79 43L79 42L80 42L80 41L79 41L79 40L75 40L75 37L74 37L74 36L76 36L76 39L77 39L77 36L76 36L76 35L78 35L78 33L77 33L77 32L75 32L75 33L74 33L74 36L73 36L73 37L74 37L74 40L73 40L73 41L71 41L71 40L70 40L70 41L71 41L71 43L70 43L70 42L69 42L69 41L68 41L68 40L69 40L69 39L70 39L70 38L71 38L71 39L73 39L73 38L72 38L72 37L70 37L70 36L71 36L71 35L70 35L70 34L69 34L69 33L70 33L70 32L69 32L69 33L68 33L68 32L67 32L67 31L70 31L70 30L69 30L69 27L70 27L70 29L71 29L71 28L72 28L72 25L71 25L71 24L74 24L74 23L76 23L76 24L77 24L77 23L76 23L76 21L75 21L75 20L76 20L76 19L78 19L78 18L76 18L76 19L75 19L75 18L73 18L73 17L71 17L71 15L70 15L70 14L69 14L69 13L68 13L68 12L67 12L67 15L66 15L66 16L67 16L67 17L68 17L68 18L67 18L67 19L66 19L66 20L65 20L65 19L63 19L63 18L62 18L62 17L63 17L63 16L64 16L64 18L66 18L66 17L65 17L65 14L66 14L66 13L65 13L65 12L66 12L66 11L65 11L65 10L66 10L66 9L67 9L67 11L68 11L68 8L67 8L67 7L68 7L68 6L67 6L67 5L69 5L69 4L68 4L68 3L66 3L66 2L64 2L64 3L65 3L65 4L64 4L64 5L66 5L66 6L65 6L65 7L64 7L64 6L63 6L63 5L62 5L62 3L61 3L61 2L60 2L60 3L58 3L58 5L57 5L57 7L58 7L58 5L59 5L59 7L60 7L60 8L58 8L58 9L59 9L59 11L58 11L58 10L57 10L57 8L55 8L55 7L56 7L56 6L55 6L55 4L54 4L54 2L55 2L55 3L56 3L56 4L57 4L57 3L56 3L56 2L58 2L58 1ZM47 2L47 3L48 3L48 2ZM69 2L69 3L70 3L70 2ZM15 3L15 4L16 4L16 3ZM25 3L25 4L26 4L26 3ZM40 3L40 4L42 4L42 5L41 5L41 6L42 6L42 5L43 5L43 4L42 4L42 3ZM60 3L60 4L61 4L61 3ZM25 5L25 8L28 8L28 5ZM49 5L49 8L52 8L52 5ZM61 5L61 6L60 6L60 7L61 7L61 6L62 6L62 9L63 9L63 11L62 11L62 10L61 10L61 8L60 8L60 11L59 11L59 12L60 12L60 11L61 11L61 13L60 13L60 15L55 15L55 16L54 16L54 17L55 17L55 16L56 16L56 17L57 17L57 18L56 18L56 19L55 19L55 20L53 20L53 21L55 21L55 20L56 20L56 22L55 22L55 24L52 24L52 23L54 23L54 22L50 22L50 21L52 21L52 20L50 20L50 19L49 19L49 20L48 20L48 19L47 19L47 18L46 18L46 20L45 20L45 21L46 21L46 20L47 20L47 22L44 22L44 21L41 21L41 19L40 19L40 18L39 18L39 19L40 19L40 21L41 21L41 22L40 22L40 24L39 24L39 25L40 25L40 27L41 27L41 25L42 25L42 22L44 22L44 23L46 23L46 24L47 24L47 26L46 26L46 25L45 25L45 24L43 24L43 28L42 28L42 29L41 29L41 28L40 28L40 30L42 30L42 32L41 32L41 34L42 34L42 35L41 35L41 36L40 36L40 35L38 35L38 34L37 34L37 35L38 35L38 36L37 36L37 37L36 37L36 38L34 38L34 37L35 37L35 36L34 36L34 34L35 34L35 33L34 33L34 34L32 34L32 35L33 35L33 36L34 36L34 37L32 37L32 36L31 36L31 34L30 34L30 35L29 35L29 36L31 36L31 37L30 37L30 38L31 38L31 37L32 37L32 40L33 40L33 41L34 41L34 42L37 42L37 39L38 39L38 38L40 38L40 37L43 37L43 39L42 39L42 40L41 40L41 39L40 39L40 40L41 40L41 41L43 41L43 43L41 43L41 44L39 44L39 45L41 45L41 47L42 47L42 45L41 45L41 44L44 44L44 43L45 43L45 44L46 44L46 45L45 45L45 46L46 46L46 48L45 48L45 47L44 47L44 45L43 45L43 47L44 47L44 48L43 48L43 49L41 49L41 48L40 48L40 47L39 47L39 46L37 46L37 45L36 45L36 49L37 49L37 50L36 50L36 51L34 51L34 50L32 50L32 53L33 53L33 54L34 54L34 56L35 56L35 55L36 55L36 56L37 56L37 54L38 54L38 55L39 55L39 54L40 54L40 53L41 53L41 54L42 54L42 55L40 55L40 56L41 56L41 57L40 57L40 58L38 58L38 59L37 59L37 58L36 58L36 61L37 61L37 60L38 60L38 62L39 62L39 61L40 61L40 62L41 62L41 63L42 63L42 64L43 64L43 65L44 65L44 66L45 66L45 65L44 65L44 64L45 64L45 63L46 63L46 65L47 65L47 66L48 66L48 67L49 67L49 66L50 66L50 64L51 64L51 65L52 65L52 64L51 64L51 63L50 63L50 62L52 62L52 61L53 61L53 60L56 60L56 59L54 59L54 58L53 58L53 57L54 57L54 56L58 56L58 55L56 55L56 54L55 54L55 52L56 52L56 53L57 53L57 54L58 54L58 53L59 53L59 52L61 52L61 53L62 53L62 52L61 52L61 51L62 51L62 50L61 50L61 51L60 51L60 50L59 50L59 48L60 48L60 49L62 49L62 48L61 48L61 47L62 47L62 46L64 46L64 45L65 45L65 44L66 44L66 43L67 43L67 44L68 44L68 45L69 45L69 46L68 46L68 47L66 47L66 46L65 46L65 47L64 47L64 48L63 48L63 49L65 49L65 47L66 47L66 48L68 48L68 47L69 47L69 50L68 50L68 51L67 51L67 52L65 52L65 51L66 51L66 50L63 50L63 55L62 55L62 54L59 54L59 56L60 56L60 57L57 57L57 58L58 58L58 59L59 59L59 60L60 60L60 61L61 61L61 62L62 62L62 61L65 61L65 60L63 60L63 59L64 59L64 57L67 57L67 56L68 56L68 55L67 55L67 56L65 56L65 55L66 55L66 54L68 54L68 53L67 53L67 52L68 52L68 51L69 51L69 50L70 50L70 47L69 47L69 46L70 46L70 45L69 45L69 43L67 43L67 40L68 40L68 39L69 39L69 38L70 38L70 37L68 37L68 36L69 36L69 35L68 35L68 34L67 34L67 33L66 33L66 34L65 34L65 35L64 35L64 33L65 33L65 31L64 31L64 32L63 32L63 33L62 33L62 34L61 34L61 35L60 35L60 36L61 36L61 35L64 35L64 36L63 36L63 37L62 37L62 38L61 38L61 37L60 37L60 38L61 38L61 39L58 39L58 40L56 40L56 39L55 39L55 40L56 40L56 41L57 41L57 42L58 42L58 40L60 40L60 41L59 41L59 43L56 43L56 42L51 42L51 41L49 41L49 40L48 40L48 41L47 41L47 40L46 40L46 39L48 39L48 38L49 38L49 39L51 39L51 40L54 40L54 39L51 39L51 38L50 38L50 37L51 37L51 35L53 35L53 36L52 36L52 37L53 37L53 36L54 36L54 35L55 35L55 36L56 36L56 37L55 37L55 38L56 38L56 37L57 37L57 38L58 38L58 37L59 37L59 35L56 35L56 34L55 34L55 32L56 32L56 33L57 33L57 34L58 34L58 33L59 33L59 34L60 34L60 33L61 33L61 32L60 32L60 31L62 31L62 30L61 30L61 29L64 29L64 30L65 30L65 29L64 29L64 28L65 28L65 27L67 27L67 28L66 28L66 29L67 29L67 30L66 30L66 31L67 31L67 30L68 30L68 29L67 29L67 28L68 28L68 27L69 27L69 26L70 26L70 27L71 27L71 26L70 26L70 25L69 25L69 24L70 24L70 23L71 23L71 22L70 22L70 19L67 19L67 20L66 20L66 21L67 21L67 20L68 20L68 21L69 21L69 22L68 22L68 23L67 23L67 22L65 22L65 23L66 23L66 24L65 24L65 25L64 25L64 24L63 24L63 23L64 23L64 22L63 22L63 21L64 21L64 20L63 20L63 21L62 21L62 22L61 22L61 21L59 21L59 23L56 23L56 22L58 22L58 19L59 19L59 20L60 20L60 19L59 19L59 18L58 18L58 17L57 17L57 16L60 16L60 18L61 18L61 19L62 19L62 18L61 18L61 16L62 16L62 15L63 15L63 13L64 13L64 12L63 12L63 11L64 11L64 8L63 8L63 6L62 6L62 5ZM9 6L9 7L10 7L10 6ZM26 6L26 7L27 7L27 6ZM29 6L29 7L30 7L30 6ZM31 6L31 7L32 7L32 6ZM46 6L46 7L47 7L47 6ZM50 6L50 7L51 7L51 6ZM54 6L54 7L55 7L55 6ZM66 6L66 7L65 7L65 9L66 9L66 7L67 7L67 6ZM71 6L71 7L72 7L72 6ZM6 8L6 9L7 9L7 8ZM14 8L14 9L13 9L13 10L14 10L14 9L15 9L15 8ZM37 8L37 9L38 9L38 10L40 10L40 9L38 9L38 8ZM73 8L73 9L76 9L76 8ZM23 9L23 10L24 10L24 9ZM44 9L44 10L45 10L45 9ZM27 10L27 11L26 11L26 12L27 12L27 13L28 13L28 12L27 12L27 11L29 11L29 12L30 12L30 11L29 11L29 10ZM31 10L31 12L32 12L32 10ZM43 11L43 12L44 12L44 11ZM57 11L57 12L56 12L56 14L58 14L58 11ZM76 11L76 12L78 12L78 13L79 13L79 14L80 14L80 13L79 13L79 12L78 12L78 11ZM6 12L6 13L5 13L5 14L6 14L6 15L7 15L7 14L6 14L6 13L7 13L7 12ZM35 12L35 13L38 13L38 12ZM8 13L8 14L9 14L9 15L10 15L10 14L9 14L9 13ZM17 13L17 14L15 14L15 15L14 15L14 16L13 16L13 17L14 17L14 19L15 19L15 21L16 21L16 19L19 19L19 20L17 20L17 21L18 21L18 23L17 23L17 22L16 22L16 24L17 24L17 25L18 25L18 24L20 24L20 23L21 23L21 21L22 21L22 20L21 20L21 19L20 19L20 18L21 18L21 17L20 17L20 15L18 15L18 16L19 16L19 18L18 18L18 17L16 17L16 16L17 16L17 14L18 14L18 13ZM47 13L47 14L48 14L48 13ZM61 13L61 14L62 14L62 13ZM76 13L76 14L77 14L77 15L76 15L76 16L77 16L77 15L78 15L78 14L77 14L77 13ZM0 15L0 16L1 16L1 15ZM15 15L15 16L16 16L16 15ZM30 15L30 16L31 16L31 15ZM60 15L60 16L61 16L61 15ZM67 15L67 16L68 16L68 17L69 17L69 18L70 18L70 17L69 17L69 15ZM6 17L6 18L7 18L7 17ZM15 17L15 19L16 19L16 17ZM29 17L29 18L28 18L28 19L29 19L29 21L31 21L31 22L32 22L32 20L31 20L31 19L33 19L33 17L32 17L32 18L31 18L31 17ZM29 18L29 19L30 19L30 18ZM53 18L53 19L54 19L54 18ZM57 18L57 19L56 19L56 20L57 20L57 19L58 19L58 18ZM72 18L72 19L73 19L73 18ZM4 19L4 20L5 20L5 21L7 21L7 22L10 22L10 21L11 21L11 20L10 20L10 21L9 21L9 20L8 20L8 21L7 21L7 20L5 20L5 19ZM74 19L74 20L75 20L75 19ZM79 19L79 20L77 20L77 22L79 22L79 20L80 20L80 19ZM20 20L20 21L19 21L19 22L20 22L20 21L21 21L21 20ZM34 20L34 22L35 22L35 23L37 23L37 24L35 24L35 25L34 25L34 27L35 27L35 26L37 26L37 24L38 24L38 23L39 23L39 22L38 22L38 23L37 23L37 22L36 22L36 21L35 21L35 20ZM38 20L38 21L39 21L39 20ZM49 20L49 21L50 21L50 20ZM71 20L71 21L72 21L72 20ZM73 21L73 23L74 23L74 21ZM22 22L22 23L23 23L23 22ZM27 22L27 23L30 23L30 24L32 24L32 23L30 23L30 22ZM47 22L47 23L50 23L50 24L51 24L51 23L50 23L50 22ZM60 22L60 23L61 23L61 24L58 24L58 26L57 26L57 30L60 30L60 29L61 29L61 27L60 27L60 26L63 26L63 27L62 27L62 28L64 28L64 27L65 27L65 26L66 26L66 25L65 25L65 26L63 26L63 24L62 24L62 23L61 23L61 22ZM9 23L9 24L10 24L10 23ZM68 23L68 24L67 24L67 27L68 27L68 26L69 26L69 25L68 25L68 24L69 24L69 23ZM55 24L55 25L56 25L56 24ZM61 24L61 25L62 25L62 24ZM5 25L5 28L8 28L8 25ZM14 25L14 26L13 26L13 27L14 27L14 28L16 28L16 27L14 27L14 26L16 26L16 25ZM25 25L25 28L28 28L28 25ZM30 25L30 26L32 26L32 25ZM44 25L44 27L45 27L45 28L46 28L46 32L42 32L42 33L43 33L43 35L42 35L42 36L45 36L45 35L44 35L44 34L47 34L47 36L49 36L49 37L50 37L50 36L49 36L49 35L51 35L51 34L54 34L54 32L55 32L55 31L56 31L56 28L55 28L55 26L54 26L54 25L53 25L53 26L54 26L54 28L53 28L53 29L52 29L52 30L51 30L51 29L49 29L49 30L51 30L51 32L50 32L50 33L51 33L51 34L48 34L48 33L47 33L47 30L48 30L48 27L47 27L47 28L46 28L46 26L45 26L45 25ZM49 25L49 28L52 28L52 25ZM59 25L59 26L60 26L60 25ZM73 25L73 28L76 28L76 25ZM6 26L6 27L7 27L7 26ZM18 26L18 27L17 27L17 28L18 28L18 29L19 29L19 33L18 33L18 31L17 31L17 34L16 34L16 30L17 30L17 29L16 29L16 30L15 30L15 29L12 29L12 28L10 28L10 29L12 29L12 31L10 31L10 30L9 30L9 31L8 31L8 33L7 33L7 32L6 32L6 31L5 31L5 32L6 32L6 33L7 33L7 34L6 34L6 35L7 35L7 34L8 34L8 35L9 35L9 34L10 34L10 32L11 32L11 34L12 34L12 35L10 35L10 36L11 36L11 37L12 37L12 36L16 36L16 37L13 37L13 38L14 38L14 39L16 39L16 40L15 40L15 41L14 41L14 40L12 40L12 38L11 38L11 40L12 40L12 41L11 41L11 42L12 42L12 43L10 43L10 44L12 44L12 43L13 43L13 42L14 42L14 43L15 43L15 44L16 44L16 45L17 45L17 44L18 44L18 42L19 42L19 41L20 41L20 40L21 40L21 38L22 38L22 36L23 36L23 33L26 33L26 32L23 32L23 33L22 33L22 32L21 32L21 31L22 31L22 30L23 30L23 28L22 28L22 27L19 27L19 26ZM26 26L26 27L27 27L27 26ZM50 26L50 27L51 27L51 26ZM74 26L74 27L75 27L75 26ZM29 27L29 28L30 28L30 29L29 29L29 31L30 31L30 29L31 29L31 28L30 28L30 27ZM58 27L58 29L59 29L59 28L60 28L60 27ZM20 28L20 29L21 29L21 30L20 30L20 31L21 31L21 30L22 30L22 28ZM78 28L78 29L79 29L79 28ZM43 29L43 30L44 30L44 31L45 31L45 30L44 30L44 29ZM14 30L14 31L12 31L12 32L14 32L14 33L15 33L15 32L14 32L14 31L15 31L15 30ZM32 30L32 31L33 31L33 30ZM52 30L52 32L53 32L53 31L54 31L54 30ZM9 31L9 32L10 32L10 31ZM48 31L48 32L49 32L49 31ZM58 31L58 32L59 32L59 33L60 33L60 32L59 32L59 31ZM8 33L8 34L9 34L9 33ZM12 33L12 34L13 34L13 35L15 35L15 34L13 34L13 33ZM19 33L19 35L22 35L22 34L21 34L21 33ZM39 33L39 34L40 34L40 33ZM65 35L65 36L66 36L66 35ZM67 35L67 36L68 36L68 35ZM4 36L4 37L5 37L5 36ZM17 36L17 37L16 37L16 38L18 38L18 37L20 37L20 38L21 38L21 36ZM38 36L38 37L40 37L40 36ZM57 36L57 37L58 37L58 36ZM78 36L78 37L79 37L79 36ZM44 37L44 39L43 39L43 41L45 41L45 40L44 40L44 39L45 39L45 37ZM46 37L46 38L48 38L48 37ZM64 37L64 38L67 38L67 37ZM36 38L36 39L33 39L33 40L36 40L36 39L37 39L37 38ZM17 39L17 41L19 41L19 40L20 40L20 39ZM27 39L27 40L28 40L28 39ZM30 39L30 40L31 40L31 39ZM61 39L61 40L62 40L62 41L61 41L61 42L60 42L60 43L61 43L61 46L62 46L62 44L64 44L64 43L65 43L65 42L66 42L66 41L63 41L63 40L64 40L64 39ZM65 39L65 40L67 40L67 39ZM74 40L74 41L75 41L75 40ZM12 41L12 42L13 42L13 41ZM46 41L46 44L47 44L47 45L48 45L48 46L47 46L47 48L46 48L46 49L45 49L45 48L44 48L44 49L43 49L43 50L41 50L41 49L40 49L40 48L39 48L39 47L37 47L37 49L38 49L38 50L37 50L37 51L38 51L38 52L37 52L37 53L38 53L38 54L39 54L39 53L38 53L38 52L39 52L39 51L40 51L40 52L41 52L41 53L42 53L42 52L43 52L43 50L45 50L45 51L44 51L44 53L43 53L43 54L44 54L44 55L45 55L45 54L44 54L44 53L45 53L45 52L46 52L46 51L47 51L47 52L48 52L48 50L46 50L46 49L48 49L48 48L50 48L50 47L51 47L51 46L49 46L49 45L50 45L50 44L48 44L48 43L51 43L51 44L52 44L52 45L53 45L53 46L52 46L52 47L53 47L53 52L55 52L55 51L54 51L54 50L56 50L56 49L57 49L57 48L55 48L55 49L54 49L54 46L55 46L55 47L58 47L58 48L59 48L59 47L60 47L60 46L59 46L59 45L60 45L60 44L59 44L59 45L58 45L58 46L57 46L57 44L56 44L56 43L54 43L54 44L52 44L52 43L51 43L51 42L49 42L49 41L48 41L48 43L47 43L47 41ZM78 41L78 42L79 42L79 41ZM16 42L16 44L17 44L17 42ZM61 42L61 43L63 43L63 42ZM71 43L71 44L74 44L74 43ZM26 44L26 45L27 45L27 44ZM3 45L3 47L5 47L5 46L4 46L4 45ZM14 45L14 46L15 46L15 48L16 48L16 46L15 46L15 45ZM24 45L24 46L25 46L25 45ZM71 45L71 46L72 46L72 45ZM22 46L22 47L21 47L21 48L20 48L20 49L19 49L19 50L21 50L21 51L20 51L20 52L19 52L19 54L22 54L22 56L21 56L21 57L22 57L22 58L21 58L21 62L19 62L19 63L18 63L18 64L19 64L19 65L20 65L20 64L19 64L19 63L21 63L21 62L22 62L22 63L24 63L24 64L21 64L21 65L23 65L23 68L24 68L24 70L26 70L26 69L25 69L25 68L26 68L26 67L27 67L27 66L28 66L28 67L29 67L29 65L30 65L30 64L32 64L32 63L31 63L31 62L30 62L30 64L29 64L29 63L28 63L28 64L29 64L29 65L27 65L27 66L26 66L26 63L27 63L27 62L26 62L26 61L25 61L25 60L24 60L24 58L23 58L23 57L22 57L22 56L23 56L23 54L22 54L22 53L23 53L23 52L22 52L22 49L23 49L23 48L22 48L22 47L23 47L23 46ZM30 46L30 47L29 47L29 48L30 48L30 49L31 49L31 48L30 48L30 47L31 47L31 46ZM48 46L48 47L49 47L49 46ZM58 46L58 47L59 47L59 46ZM80 47L80 48L81 48L81 47ZM21 48L21 49L22 49L22 48ZM5 49L5 52L8 52L8 49ZM25 49L25 52L28 52L28 49ZM39 49L39 50L38 50L38 51L39 51L39 50L40 50L40 49ZM49 49L49 52L52 52L52 49ZM73 49L73 52L76 52L76 49ZM80 49L80 50L81 50L81 49ZM3 50L3 51L4 51L4 50ZM6 50L6 51L7 51L7 50ZM26 50L26 51L27 51L27 50ZM50 50L50 51L51 51L51 50ZM57 50L57 53L58 53L58 52L59 52L59 51L58 51L58 50ZM74 50L74 51L75 51L75 50ZM13 51L13 52L14 52L14 51ZM30 51L30 52L31 52L31 51ZM33 51L33 52L34 52L34 51ZM41 51L41 52L42 52L42 51ZM2 52L2 53L3 53L3 52ZM17 52L17 53L15 53L15 55L14 55L14 56L15 56L15 55L16 55L16 54L17 54L17 55L18 55L18 52ZM21 52L21 53L22 53L22 52ZM34 53L34 54L35 54L35 53ZM46 53L46 55L47 55L47 56L45 56L45 58L44 58L44 56L43 56L43 55L42 55L42 57L41 57L41 58L40 58L40 60L41 60L41 62L42 62L42 60L43 60L43 62L44 62L44 61L47 61L47 62L46 62L46 63L47 63L47 62L49 62L49 61L48 61L48 60L47 60L47 59L46 59L46 58L48 58L48 59L49 59L49 56L50 56L50 57L51 57L51 58L50 58L50 59L52 59L52 60L53 60L53 59L52 59L52 56L50 56L50 55L51 55L51 54L50 54L50 55L47 55L47 54L49 54L49 53ZM52 53L52 54L54 54L54 53ZM64 53L64 55L63 55L63 56L62 56L62 55L60 55L60 56L61 56L61 58L62 58L62 59L63 59L63 56L64 56L64 55L65 55L65 54L66 54L66 53ZM12 55L12 57L13 57L13 55ZM19 55L19 56L18 56L18 58L19 58L19 57L20 57L20 55ZM29 55L29 57L30 57L30 55ZM53 55L53 56L54 56L54 55ZM73 55L73 56L71 56L71 58L72 58L72 59L73 59L73 60L74 60L74 59L75 59L75 61L77 61L77 60L76 60L76 58L75 58L75 57L74 57L74 59L73 59L73 56L74 56L74 55ZM26 56L26 57L27 57L27 56ZM47 56L47 57L48 57L48 56ZM34 57L34 59L35 59L35 57ZM42 57L42 59L43 59L43 57ZM55 57L55 58L56 58L56 57ZM22 58L22 60L23 60L23 58ZM25 58L25 59L27 59L27 58ZM38 59L38 60L39 60L39 59ZM44 59L44 60L46 60L46 59ZM6 60L6 61L5 61L5 64L4 64L4 65L3 65L3 66L4 66L4 65L5 65L5 64L6 64L6 65L8 65L8 64L9 64L9 65L10 65L10 66L6 66L6 67L7 67L7 68L8 68L8 67L9 67L9 69L10 69L10 66L11 66L11 67L12 67L12 66L13 66L13 65L15 65L15 66L16 66L16 65L15 65L15 64L13 64L13 63L12 63L12 64L11 64L11 65L10 65L10 64L9 64L9 62L10 62L10 61L9 61L9 62L6 62L6 61L7 61L7 60ZM70 60L70 61L71 61L71 60ZM3 61L3 62L4 62L4 61ZM23 61L23 62L24 62L24 63L26 63L26 62L24 62L24 61ZM54 62L54 63L58 63L58 62ZM70 62L70 63L72 63L72 62ZM6 63L6 64L7 64L7 63ZM12 64L12 65L13 65L13 64ZM47 64L47 65L49 65L49 64ZM63 64L63 65L64 65L64 64ZM71 64L71 65L72 65L72 64ZM17 65L17 66L18 66L18 67L19 67L19 66L18 66L18 65ZM31 65L31 66L33 66L33 65ZM65 66L65 67L66 67L66 66ZM31 67L31 68L32 68L32 67ZM57 67L57 68L56 68L56 69L57 69L57 70L58 70L58 71L59 71L59 72L60 72L60 71L59 71L59 70L58 70L58 67ZM47 68L47 70L49 70L49 68ZM60 68L60 70L61 70L61 71L62 71L62 73L64 73L64 72L63 72L63 71L62 71L62 70L61 70L61 68ZM62 68L62 69L63 69L63 68ZM27 69L27 70L28 70L28 71L30 71L30 69L29 69L29 70L28 70L28 69ZM37 69L37 70L38 70L38 69ZM64 69L64 71L66 71L66 70L65 70L65 69ZM54 70L54 71L55 71L55 72L54 72L54 73L55 73L55 72L56 72L56 71L55 71L55 70ZM70 70L70 71L71 71L71 70ZM77 71L77 72L78 72L78 73L79 73L79 72L78 72L78 71ZM22 72L22 74L23 74L23 72ZM69 72L69 73L68 73L68 74L71 74L71 73L70 73L70 72ZM25 73L25 76L28 76L28 73ZM49 73L49 76L52 76L52 73ZM73 73L73 76L76 76L76 73ZM20 74L20 75L19 75L19 76L18 76L18 77L19 77L19 76L20 76L20 75L21 75L21 74ZM26 74L26 75L27 75L27 74ZM38 74L38 75L39 75L39 74ZM50 74L50 75L51 75L51 74ZM74 74L74 75L75 75L75 74ZM14 76L14 78L16 78L16 77L15 77L15 76ZM77 76L77 77L79 77L79 76ZM33 77L33 78L34 78L34 77ZM49 77L49 78L50 78L50 79L51 79L51 80L52 80L52 78L53 78L53 79L54 79L54 78L53 78L53 77L51 77L51 78L50 78L50 77ZM60 80L60 81L61 81L61 80ZM63 80L63 81L64 81L64 80ZM66 80L66 81L67 81L67 80ZM74 80L74 81L76 81L76 80ZM0 0L0 7L7 7L7 0ZM1 1L1 6L6 6L6 1ZM2 2L2 5L5 5L5 2ZM74 0L74 7L81 7L81 0ZM75 1L75 6L80 6L80 1ZM76 2L76 5L79 5L79 2ZM0 74L0 81L7 81L7 74ZM1 75L1 80L6 80L6 75ZM2 76L2 79L5 79L5 76Z" fill="#000000"/></g></g></svg>
